<?xml version="1.0" encoding="utf-8"?>
<!-- Generator: Adobe Illustrator 15.1.0, SVG Export Plug-In . SVG Version: 6.00 Build 0)  -->
<!DOCTYPE svg PUBLIC "-//W3C//DTD SVG 1.1//EN" "http://www.w3.org/Graphics/SVG/1.1/DTD/svg11.dtd">
<svg version="1.1" id="Vrstva_1" xmlns="http://www.w3.org/2000/svg" xmlns:xlink="http://www.w3.org/1999/xlink" x="0px" y="0px"
	 width="48.168px" height="29px" viewBox="0 0 48.168 29" enable-background="new 0 0 48.168 29" xml:space="preserve">
<g>
	<path fill="#5BBBB0" d="M18.073,13.625c0.493-11.182,15.401-11.109,15.1,0.92c3.438-2.345,11.05,0.676,10.737,7.311L4.797,22.047
		C3.757,14.982,10.604,8.808,18.073,13.625L18.073,13.625z"/>
	<path fill="none" stroke="#231F20" stroke-width="0.5669" stroke-linejoin="round" stroke-miterlimit="22.9256" d="M12.631,10.815
		c1.706,0,3.295,0.496,4.633,1.353c0.547-4.364,3.639-7.71,7.369-7.71c4.114,0,7.453,4.074,7.453,9.096
		c0,0.143-0.003,0.284-0.009,0.426c1.21-0.756,2.641-1.192,4.172-1.192c4.358,0,7.894,3.532,7.894,7.892H29.266h-0.906h-7.216
		h-1.144H4.119c-0.061-0.41-0.093-0.832-0.093-1.262C4.026,14.666,7.881,10.815,12.631,10.815L12.631,10.815z"/>
	<g enable-background="new    ">
		<path fill="#FFFFFF" d="M26.426,7.155c0.016,0.032,0,0.095,0,0.142c0.016,0.017,0.031,0.032,0.031,0.048
			c0.031,0.078-0.016,0.173,0,0.283c0.016,0.016,0.031,0.031,0.031,0.063c0.031,0.157-0.031,0.33,0,0.472l0.047,0.079
			c0.016,0.063-0.016,0.142,0,0.204l0.047,0.409c0.048,0.268-0.031,0.535,0,0.739c0.017,0.032,0.032,0.048,0.032,0.063
			c0.016,0.078,0,0.157,0,0.22c0.016,0.048,0.047,0.095,0.031,0.174c0,0.063-0.016,0.047,0,0.109c0.048,0.221-0.031,0.52,0,0.771
			c0.016,0.063,0.063,0.126,0.079,0.173c0.047,0.283-0.063,0.613,0,0.896c0.047,0.268,0,0.944,0,1.243
			c0,0.063,0.047,0.126,0.047,0.173c0.016,0.047-0.016,0.079-0.031,0.126c0,0.016,0.031,0.031,0.031,0.063
			c0.031,0.142,0,0.378,0,0.582c0,0.236,0,0.473-0.031,0.646v0.252c0.016,0.078,0.016,0.078,0,0.157c-0.016,0.126,0,0.33,0,0.519
			c0,0.189-0.016,0.394,0,0.52c0.016,0.078,0.031,0.063,0,0.142c0,0.078,0.016,0.188,0,0.268c-0.031,0.22,0.031,0.582-0.016,0.786
			c-0.016,0.031-0.047,0.048-0.047,0.063c-0.048,0.235,0.047,0.503,0,0.755c0,0.016-0.017,0.047-0.032,0.063
			c0,0.063,0.016,0.11,0,0.157c-0.031,0.189-0.33,0.142-0.519,0.189c-0.079,0.016-0.127-0.016-0.205-0.031
			c-0.157-0.032-0.33,0-0.488,0c-0.156,0-0.346,0.031-0.486,0c-0.127-0.032-0.158-0.378-0.127-0.583
			c0-0.031,0.031-0.063,0.031-0.078c0.016-0.047,0-0.142,0-0.188c0.032-0.126,0.032-0.174,0-0.299
			c-0.016-0.11,0.032-0.236,0.032-0.3c0.031-0.188,0.031-0.472,0-0.613c0-0.016-0.032-0.047-0.032-0.078
			c0-0.048,0.032-0.063,0.032-0.095c0.047-0.221-0.032-0.472,0-0.708c0.016-0.031,0.031-0.047,0.031-0.063
			c0.032-0.142,0-0.409,0-0.598v-1.196c0-0.22,0.032-0.44,0-0.598c-0.016-0.079-0.016-0.126,0-0.268
			c0.016-0.094,0.032-0.126,0-0.235c-0.016-0.11,0.016-0.252,0-0.347c0-0.047-0.016-0.078-0.031-0.173c0-0.079-0.017-0.047,0-0.126
			c0.016-0.063,0.016-0.157,0-0.22c-0.017-0.095-0.017-0.236-0.063-0.158c-0.078,0.126-0.156,0.299-0.204,0.44
			c-0.031,0.095-0.063,0.126-0.094,0.221c-0.032,0.11-0.079,0.188-0.126,0.299c-0.063,0.205-0.189,0.425-0.252,0.629
			c-0.047,0.158-0.11,0.268-0.173,0.441c-0.031,0.047-0.157,0.346-0.22,0.361c-0.047,0.016-0.236,0.016-0.299,0
			c-0.032,0-0.047-0.047-0.079-0.063c-0.095-0.048-0.22-0.048-0.346-0.095c-0.11-0.031-0.205-0.11-0.314-0.157
			c-0.126-0.047-0.283-0.079-0.394-0.11c-0.189-0.078-0.22-0.236-0.189-0.456c0.016-0.079,0.079-0.142,0.11-0.204
			c0.047-0.142,0.063-0.268,0.11-0.409c0.016-0.032,0.063-0.063,0.079-0.095c0.031-0.11,0.063-0.221,0.11-0.33
			c0.047-0.095,0.126-0.221,0.157-0.314c0.063-0.174,0.126-0.362,0.205-0.535c0.063-0.189,0.205-0.394,0.268-0.566
			c0.047-0.126,0.094-0.236,0.126-0.347c0.063-0.173,0.188-0.33,0.251-0.503c0.047-0.126,0.079-0.252,0.126-0.362
			c0.031-0.078,0.094-0.142,0.126-0.22l0.031-0.157c0.047-0.142,0.157-0.283,0.205-0.44c0.031-0.048,0.031-0.095,0.047-0.157
			c0.047-0.126,0.173-0.315,0.22-0.457c0.063-0.235,0.11-0.424,0.22-0.598c0.047-0.047,0.094-0.047,0.142-0.078
			c0.109-0.126,0.063-0.314,0.203-0.378c0.158-0.094,0.363,0,0.583-0.047c0.016,0,0.047-0.016,0.063-0.031
			c0.11-0.016,0.268,0,0.331-0.016C26,6.982,26.395,7.015,26.426,7.155z"/>
	</g>
</g>
</svg>
