<?xml version="1.0" encoding="utf-8"?>
<!-- Generator: Adobe Illustrator 15.1.0, SVG Export Plug-In . SVG Version: 6.00 Build 0)  -->
<!DOCTYPE svg PUBLIC "-//W3C//DTD SVG 1.1//EN" "http://www.w3.org/Graphics/SVG/1.1/DTD/svg11.dtd">
<svg version="1.1" id="Vrstva_1" xmlns="http://www.w3.org/2000/svg" xmlns:xlink="http://www.w3.org/1999/xlink" x="0px" y="0px"
	 width="70px" height="32.833px" viewBox="0 0 70 32.833" enable-background="new 0 0 70 32.833" xml:space="preserve">
<g>
	<path fill-rule="evenodd" clip-rule="evenodd" fill="#5BBBB0" d="M63.171,19.135c2.376,2.139,3.417,5.826,3.073,9.734H4.046
		c-1.528-6.563,1.993-13.104,8.236-14.93c2.56-0.749,5.2-0.594,7.6,0.28c1.473-5.237,5.725-9.024,10.742-9.024
		c4.201,0,7.869,2.656,9.814,6.595c2.512-1.326,5.334-1.715,7.982-0.863c3.354,1.078,5.689,3.906,6.594,7.427
		C57.842,16.915,60.874,17.069,63.171,19.135L63.171,19.135z"/>
	<path fill="none" stroke="#231F20" stroke-width="0.5669" stroke-linejoin="round" stroke-miterlimit="22.9256" d="M61.938,17.903
		c2.281,2.137,3.281,5.824,2.951,9.734H5.143c-1.468-6.564,1.914-13.104,7.911-14.931c2.458-0.749,4.995-0.594,7.3,0.28
		c1.414-5.237,5.499-9.023,10.318-9.023c4.036,0,7.559,2.655,9.428,6.594c2.413-1.326,5.125-1.714,7.668-0.863
		c3.223,1.078,5.466,3.907,6.334,7.428C56.818,15.681,59.731,15.836,61.938,17.903L61.938,17.903z"/>
	<g>
		<path fill="#FFFFFF" d="M29.352,10.246c0.22,0.031,0.487-0.048,0.724,0l0.346,0.047c0.047,0.016,0.11,0,0.141,0l0.079,0.047
			l0.251,0.031c0.016,0,0.047,0.017,0.063,0.032c0.11,0.016,0.205,0,0.299,0.031c0.11,0.016,0.268,0.11,0.409,0.157
			c0.126,0.031,0.236,0.063,0.362,0.126c0.283,0.188,0.582,0.377,0.818,0.613c0.079,0.079,0.157,0.173,0.205,0.236
			c0.063,0.094,0.142,0.142,0.22,0.251c0.079,0.126,0.11,0.221,0.189,0.347s0.094,0.268,0.157,0.425l0.063,0.142
			c0,0.031-0.016,0.078,0,0.094c0,0.048,0.047,0.095,0.063,0.142c0.031,0.11,0.016,0.236,0.031,0.347
			c0,0.016,0.032,0.031,0.032,0.047c0.016,0.063-0.032,0.095-0.032,0.157c0,0.063,0.063,0.11,0.063,0.157
			c0,0.032-0.047,0.11-0.063,0.157c-0.016,0.126,0.016,0.268,0,0.347c0,0.031-0.031,0.047-0.031,0.063c0,0.048,0.016,0.11,0,0.157
			c-0.016,0.063-0.047,0.142-0.063,0.236c-0.032,0.095-0.095,0.173-0.126,0.283c-0.063,0.188-0.189,0.299-0.268,0.425
			c-0.031,0.047-0.031,0.095-0.047,0.126c-0.032,0.031-0.095,0.031-0.11,0.078c-0.031,0.032-0.047,0.095-0.079,0.142
			c-0.063,0.079-0.173,0.157-0.236,0.252c-0.079,0.11-0.173,0.252-0.268,0.299c-0.016,0.016-0.047,0-0.047,0.016
			c-0.047,0.048-0.142,0.189-0.142,0.236c0.016,0.095,0.22,0.173,0.283,0.283l0.173,0.268c0.016,0.031,0.047,0.047,0.079,0.078
			l0.094,0.189c0.047,0.078,0.032,0.078,0.063,0.157c0.016,0.031,0.047,0.031,0.063,0.063c0.11,0.173,0.22,0.472,0.251,0.708
			c0.016,0.095,0.079,0.157,0.095,0.252l0.031,0.299c0.016,0.078,0.063,0.142,0.063,0.173c0.016,0.047,0,0.095,0,0.142
			c0.031,0.173,0.031,0.582,0,0.724c0,0.031-0.031,0.047-0.031,0.079c-0.032,0.126,0,0.235-0.032,0.346
			c-0.031,0.11-0.079,0.252-0.126,0.347c-0.188,0.377-0.409,0.739-0.739,0.975c-0.047,0.031-0.063,0.079-0.11,0.11
			c-0.268,0.188-0.566,0.378-0.913,0.504l-0.094,0.063l-0.441,0.126c-0.079,0.031-0.157,0.078-0.22,0.095
			c-0.079,0.016-0.173-0.017-0.236,0L30.437,22.5c-0.457,0.078-1.07,0.094-1.542,0c-0.142-0.016-0.299,0-0.362-0.11
			c-0.031-0.063-0.047-0.268-0.016-0.409c0.016-0.095,0.016-0.204,0.016-0.268c0.016-0.031,0.032-0.047,0.032-0.063
			c0.031-0.142-0.016-0.268,0-0.378c0.016-0.031,0.031-0.031,0.031-0.063c0.047-0.205,0-0.409,0.11-0.535
			c0.031-0.016,0.157-0.063,0.157-0.063c0.016,0,0.047,0.031,0.063,0.031c0.047,0.016,0.11,0,0.157,0
			c0.016,0,0.031,0.031,0.063,0.031c0.094,0.016,0.205-0.016,0.283,0c0.142,0.031,0.33,0.063,0.487,0.031l0.362-0.094
			c0.283-0.095,0.708-0.283,0.912-0.566c0.11-0.157,0.236-0.331,0.283-0.52c0.016-0.095,0.063-0.236,0.032-0.394
			c0-0.031-0.032-0.063-0.032-0.078c-0.016-0.063,0-0.126,0-0.173c-0.047-0.268-0.22-0.52-0.377-0.756
			c-0.063-0.078-0.205-0.22-0.283-0.268l-0.126-0.094c-0.047-0.048-0.126-0.048-0.173-0.079c-0.047-0.031-0.032-0.047-0.11-0.063
			c-0.063-0.016-0.125-0.079-0.173-0.095c-0.032,0-0.079,0.016-0.126,0c-0.016,0-0.031-0.016-0.063-0.031
			c-0.142-0.031-0.362,0-0.566,0c-0.204,0-0.425-0.016-0.582,0c-0.031,0.016-0.047,0.031-0.079,0.031
			c-0.047,0-0.047-0.016-0.079-0.031c-0.142-0.016-0.299,0.016-0.425-0.031c-0.079-0.016-0.094-0.126-0.11-0.221
			c-0.032-0.078-0.016-0.078,0-0.157c0.016-0.126,0.031-0.456,0-0.582c-0.032-0.095-0.032-0.252,0-0.346
			c0.031-0.157,0.016-0.378,0.094-0.457c0.094-0.078,0.251-0.016,0.425-0.063c0.031,0,0.047-0.016,0.063-0.031
			c0.236-0.031,0.488,0.016,0.692-0.031c0.016,0,0.047-0.032,0.063-0.032c0.032,0,0.079,0.016,0.126,0
			c0.126-0.031,0.299-0.047,0.44-0.094c0.079-0.016,0.173-0.095,0.268-0.126c0.393-0.126,0.739-0.299,0.944-0.582
			c0.047-0.095,0.205-0.347,0.22-0.44v-0.095l0.063-0.173c0.016-0.063-0.016-0.126,0-0.188c0.031-0.221,0.031-0.378,0-0.535
			c-0.126-0.52-0.425-0.818-0.913-0.991l-0.094-0.063l-0.157-0.032c-0.047-0.016-0.079-0.063-0.11-0.063
			c-0.157-0.031-0.362-0.031-0.503-0.063c-0.11-0.031-0.283,0-0.393,0.032c-0.157,0.031-0.488,0-0.598-0.032
			c-0.142-0.031-0.236,0.032-0.314-0.047c-0.063-0.047-0.079-0.268-0.11-0.394c-0.032-0.142,0-0.361,0-0.566
			c0-0.33-0.047-0.613,0.094-0.739c0.126-0.126,0.393-0.094,0.613-0.142C29.194,10.198,29.257,10.213,29.352,10.246z"/>
	</g>
</g>
</svg>
