<?xml version="1.0" encoding="utf-8"?>
<!-- Generator: Adobe Illustrator 15.1.0, SVG Export Plug-In . SVG Version: 6.00 Build 0)  -->
<!DOCTYPE svg PUBLIC "-//W3C//DTD SVG 1.1//EN" "http://www.w3.org/Graphics/SVG/1.1/DTD/svg11.dtd">
<svg version="1.1" id="Vrstva_1" xmlns="http://www.w3.org/2000/svg" xmlns:xlink="http://www.w3.org/1999/xlink" x="0px" y="0px"
	 width="74.5px" height="29px" viewBox="0 0 74.5 29" enable-background="new 0 0 74.5 29" xml:space="preserve">
<g>
	<path fill="#5BBBB0" d="M70.988,22.695H3.512c0,0,4.398-12.63,14.367-7.062c2.584-12.057,19.143-14.986,21.191,0
		c2.837-5.462,12.305-6.627,13.408,1.392c7.289-4.459,15.701-4.27,18.502,5.67l0,0H70.988L70.988,22.695z"/>
	<path fill="none" stroke="#231F20" stroke-width="0.5669" stroke-linejoin="round" stroke-miterlimit="22.9256" d="M70.309,21.28
		H4.315c0,0,4.301-12.629,14.051-7.062c2.526-12.057,18.722-14.986,20.727,0c2.774-5.461,12.034-6.626,13.113,1.393
		c7.129-4.459,15.354-4.27,18.095,5.669l0,0H70.309L70.309,21.28z"/>
	<g enable-background="new    ">
		<path fill="#FFFFFF" d="M29.636,7.124c0.126,0.032,0.251,0.017,0.377,0.032c0.063,0.016,0.11,0.063,0.189,0.078
			s0.125,0,0.188,0.031l0.252,0.095c0.063,0.016,0.11,0.079,0.157,0.11c0.094,0.063,0.22,0.11,0.314,0.173
			c0.095,0.063,0.205,0.221,0.283,0.314c0.063,0.095,0.142,0.236,0.189,0.347c0.016,0.078,0.079,0.157,0.094,0.235
			c0,0.031-0.016,0.063,0,0.095c0,0.031,0.047,0.078,0.063,0.11c0,0.078-0.031,0.157,0,0.235c0,0.048,0.047,0.048,0.063,0.095
			c0.016,0.079-0.016,0.252-0.031,0.346c-0.047,0.283,0.063,0.646,0,0.897c0,0.016-0.032,0.063-0.032,0.078
			c-0.016,0.047,0,0.11,0,0.157c-0.016,0.095-0.079,0.173-0.094,0.236c-0.016,0.047,0,0.095,0,0.126l-0.063,0.157
			c-0.047,0.236-0.079,0.425-0.157,0.645l-0.157,0.347l-0.032,0.157c-0.11,0.268-0.299,0.535-0.409,0.802
			c-0.016,0.063,0,0.11-0.031,0.142c-0.016,0.032-0.063,0.048-0.094,0.079c-0.095,0.157-0.142,0.346-0.252,0.52
			c-0.016,0.016-0.031,0.016-0.047,0.047c-0.063,0.095-0.095,0.22-0.173,0.33c-0.016,0.016-0.047,0.016-0.063,0.048
			c-0.079,0.142-0.125,0.314-0.22,0.44c-0.031,0.063-0.094,0.109-0.142,0.173c-0.079,0.11-0.126,0.252-0.188,0.361l-0.063,0.048
			c-0.126,0.251-0.283,0.487-0.44,0.724l-0.032,0.109c-0.031,0.048-0.094,0.079-0.126,0.142c-0.031,0.048-0.031,0.11-0.063,0.174
			l-0.205,0.314c-0.063,0.094-0.126,0.268,0,0.33c0.11,0.047,0.283,0.031,0.409,0.063l0.268,0.063c0.11,0.031,0.236,0,0.362,0.031
			l0.252,0.063c0.047,0.016,0.11-0.016,0.157,0c0.11,0.016,0.205,0.031,0.314,0.063c0.047,0,0.095-0.016,0.142,0
			c0.032,0,0.047,0.031,0.079,0.031c0.126,0.032,0.252,0.016,0.378,0.032l0.739,0.125c0.031,0,0.079-0.016,0.126,0
			c0.016,0,0.031,0.032,0.063,0.032c0.173,0.031,0.346,0,0.441,0.063c0.031,0.031,0.079,0.11,0.063,0.157
			c0,0.047-0.047,0.079-0.063,0.11c-0.016,0.126,0.016,0.252-0.016,0.409c-0.016,0.031-0.063,0.063-0.063,0.094
			c-0.016,0.032,0,0.063,0,0.095l-0.047,0.173c0,0.063-0.047,0.095-0.047,0.126c-0.016,0.016,0,0.079,0,0.126
			c-0.031,0.11-0.094,0.409-0.173,0.44s-0.346,0-0.472,0c-0.409,0-0.739-0.031-1.085-0.095c-0.157-0.031-0.33,0.017-0.472-0.031
			c-0.016,0-0.047-0.031-0.063-0.031c-0.11-0.031-0.236-0.016-0.346-0.031c-0.11-0.031-0.22-0.048-0.299-0.063
			c-0.157-0.031-0.315-0.031-0.472-0.063c-0.047,0-0.047-0.031-0.079-0.031c-0.11-0.032-0.205-0.016-0.314-0.032
			c-0.032,0-0.158-0.047-0.205-0.063l-0.189-0.031c-0.094-0.016-0.205,0-0.314-0.031c-0.047,0-0.079-0.048-0.126-0.063
			c-0.11-0.016-0.189,0-0.314-0.031c-0.047,0-0.079-0.047-0.11-0.063c-0.063,0-0.142,0.017-0.205,0c-0.079,0-0.125-0.047-0.22-0.063
			c-0.047,0-0.079-0.047-0.11-0.063c-0.079-0.017-0.157,0.016-0.22,0c-0.126-0.017-0.44-0.11-0.503-0.157
			c-0.063-0.048-0.126-0.236-0.095-0.378c0-0.016,0.016-0.031,0.016-0.063c0.031-0.094-0.016-0.188,0-0.267
			c0.016-0.063,0.063-0.11,0.063-0.157l0.047-0.142c0.016-0.126,0-0.221,0.032-0.347c0.016-0.126,0.047-0.361,0.157-0.425
			c0.079-0.063,0.188-0.031,0.299-0.11c0.094-0.078,0.173-0.361,0.283-0.55l0.063-0.048l0.094-0.157
			c0.205-0.33,0.377-0.677,0.566-0.991c0.047-0.063,0.126-0.142,0.173-0.22c0.032-0.032,0.016-0.079,0.047-0.11
			c0.157-0.252,0.346-0.504,0.519-0.755c0.094-0.157,0.189-0.299,0.268-0.456c0.063-0.126,0.157-0.252,0.236-0.362
			c0.047-0.079,0.047-0.173,0.094-0.236l0.063-0.047l0.189-0.378l0.189-0.377l0.031-0.157c0.047-0.126,0.126-0.221,0.157-0.394
			c0.032-0.157,0.142-0.346,0.189-0.52c0.016-0.109,0.016-0.22,0.047-0.33c0.016-0.016,0.047-0.031,0.047-0.063
			c0-0.032-0.016-0.095,0-0.157c0.032-0.205,0.063-0.504,0.032-0.692C29.73,9.296,29.557,9.17,29.4,9.091
			c-0.047-0.016-0.11-0.063-0.142-0.063c-0.079-0.032-0.268-0.032-0.299-0.032c-0.079,0-0.251,0-0.346,0.032
			c-0.032,0-0.047,0.031-0.063,0.031c-0.063,0.016-0.11-0.016-0.157,0c-0.11,0.016-0.205,0.031-0.315,0.063l-0.173,0.063
			c-0.126,0.016-0.268,0.094-0.409,0.126c-0.063,0-0.126-0.016-0.189,0c-0.11,0.016-0.251,0.016-0.299-0.095
			c-0.031-0.079-0.016-0.157-0.031-0.221c-0.016-0.063-0.047-0.109-0.063-0.157c0-0.031,0.016-0.063,0-0.094
			c0-0.032-0.031-0.048-0.031-0.079c-0.016-0.063,0.016-0.142,0-0.204c-0.016-0.095-0.079-0.299-0.095-0.409
			c0-0.047,0.016-0.079,0-0.126c-0.016-0.079-0.047-0.142,0-0.236c0.063-0.126,0.331-0.235,0.503-0.267l0.331-0.11
			c0.063,0,0.126,0.016,0.173,0c0.047,0,0.095-0.048,0.142-0.048c0.142-0.031,0.315-0.031,0.472-0.063l0.063-0.047
			c0.047,0,0.11,0.016,0.157,0c0.031,0,0.047-0.016,0.063-0.032c0.173-0.031,0.393,0.017,0.566-0.031
			C29.384,7.077,29.51,7.108,29.636,7.124z"/>
	</g>
</g>
</svg>
