<?xml version="1.0" encoding="utf-8"?>
<!-- Generator: Adobe Illustrator 15.1.0, SVG Export Plug-In . SVG Version: 6.00 Build 0)  -->
<!DOCTYPE svg PUBLIC "-//W3C//DTD SVG 1.1//EN" "http://www.w3.org/Graphics/SVG/1.1/DTD/svg11.dtd">
<svg version="1.1" id="Vrstva_1" xmlns="http://www.w3.org/2000/svg" xmlns:xlink="http://www.w3.org/1999/xlink" x="0px" y="0px"
	 width="88.5px" height="29.75px" viewBox="0 0 88.5 29.75" enable-background="new 0 0 88.5 29.75" xml:space="preserve">
<g>
	<polygon fill-rule="evenodd" clip-rule="evenodd" fill="#5BBBB0" points="2.683,6.205 77.769,2.504 82.476,7.891 87.184,13.275 
		83.028,19.099 78.873,24.921 3.787,28.622 2.683,6.205 	"/>
	
		<polygon fill="none" stroke="#231F20" stroke-width="0.5669" stroke-linecap="round" stroke-linejoin="round" stroke-miterlimit="22.9256" points="
		1.316,4.828 76.402,1.128 81.11,6.515 85.818,11.899 81.662,17.723 77.508,23.545 2.421,27.245 1.316,4.828 	"/>
	<path fill="#FFFFFF" d="M13.168,12.608c-0.034,0.009-0.066,0.03-0.095,0.06c-0.029,0.029-0.047,0.065-0.054,0.104
		c-0.003,0.039-0.001,0.08,0.006,0.125c0.007,0.044,0.009,0.089,0.007,0.135c0,0.007-0.001,0.013-0.008,0.021
		c-0.004,0.007-0.01,0.019-0.016,0.031c-0.005,0.085,0,0.17,0.013,0.249c0.015,0.082,0.019,0.16,0.011,0.231
		c-0.005,0.031-0.006,0.055-0.005,0.072c0.001,0.017,0.005,0.041,0.013,0.071c0.006,0.042,0.006,0.093-0.002,0.153
		c-0.01,0.062-0.016,0.109-0.022,0.146c-0.009,0.049-0.009,0.101,0.003,0.154c0.009,0.056,0.014,0.104,0.012,0.145
		c-0.006,0.021-0.012,0.033-0.016,0.044c-0.006,0.012-0.008,0.022-0.007,0.035c0.004,0.032,0.013,0.073,0.023,0.123
		c0.014,0.049,0.019,0.104,0.017,0.161c-0.013,0.101-0.012,0.203-0.002,0.307c0.009,0.104,0.012,0.192,0.004,0.267l-0.036,0.054
		c-0.008,0.063-0.009,0.122-0.004,0.174s0.003,0.108-0.006,0.165c-0.004,0.039-0.011,0.076-0.016,0.113
		c-0.007,0.037-0.005,0.076,0.002,0.122c0.015,0.036,0.022,0.068,0.024,0.099c0.001,0.027-0.004,0.064-0.015,0.108
		c-0.005,0.113-0.003,0.237,0.01,0.371c0.011,0.134,0.02,0.271,0.028,0.408c0.005,0.085,0.012,0.178,0.019,0.279
		c0.01,0.1,0.015,0.198,0.019,0.294c0.003,0.096,0,0.178-0.009,0.246c-0.014,0.094-0.015,0.198-0.003,0.312
		c0.013,0.112,0.026,0.216,0.046,0.311c0.022,0.092,0.031,0.191,0.03,0.3c-0.003,0.111-0.002,0.217,0.001,0.323
		s0.006,0.215,0.008,0.327c-0.002,0.113,0.008,0.217,0.023,0.31c0.025,0.083,0.045,0.169,0.062,0.253
		c0.018,0.086,0.021,0.164,0.015,0.237c-0.005,0.031-0.006,0.055-0.005,0.074c0.001,0.018,0.004,0.046,0.013,0.082
		c0.006,0.048,0.009,0.102,0.008,0.162s0.001,0.115,0.008,0.162l0.042,0.063c0.001,0.02,0,0.041-0.001,0.065
		c-0.001,0.023,0,0.045,0.008,0.064c0.024,0.136,0.042,0.275,0.053,0.42c0.012,0.143,0.029,0.283,0.054,0.421
		c0.008,0.025,0.009,0.052,0.008,0.078c-0.001,0.025-0.001,0.052,0,0.077c0.007,0.007,0.014,0.013,0.019,0.021
		c0.007,0.006,0.009,0.017,0.01,0.029c0.014,0.054,0.022,0.107,0.025,0.166s0.01,0.11,0.017,0.157l0.042,0.063
		c0.01,0.049,0.014,0.095,0.014,0.132c0.002,0.038,0.005,0.075,0.012,0.114c0.03,0.048,0.07,0.07,0.12,0.069
		c0.05,0,0.103-0.007,0.155-0.019l0.207-0.036c0.066-0.014,0.133-0.021,0.205-0.022c0.071-0.002,0.136-0.009,0.196-0.022
		c0.013-0.008,0.022-0.015,0.031-0.02c0.008-0.007,0.02-0.009,0.032-0.01c0.074-0.021,0.139-0.033,0.191-0.033
		c0.052-0.001,0.102-0.003,0.145-0.01c0.006-0.007,0.013-0.014,0.019-0.019c0.007-0.007,0.013-0.009,0.02-0.01
		c0.021-0.005,0.045-0.006,0.071-0.003c0.028,0.003,0.052,0.002,0.071-0.004c0.036-0.017,0.059-0.05,0.064-0.099
		c0.004-0.05,0.002-0.102-0.008-0.16c-0.009-0.056-0.016-0.105-0.024-0.146c-0.013-0.04-0.017-0.079-0.011-0.121
		c0.005-0.039,0.006-0.073,0-0.099c-0.011-0.03-0.025-0.068-0.043-0.115c-0.02-0.05-0.03-0.088-0.034-0.116
		c0.002-0.023,0.007-0.048,0.015-0.067c0.01-0.02,0.011-0.046,0.005-0.076c-0.008-0.03-0.019-0.068-0.029-0.116
		c-0.012-0.049-0.02-0.088-0.021-0.116c-0.013-0.044-0.018-0.092-0.011-0.145c0.004-0.05,0.003-0.102-0.004-0.153
		c-0.007-0.013-0.014-0.023-0.019-0.029c-0.007-0.009-0.01-0.016-0.01-0.021c-0.019-0.064-0.03-0.131-0.034-0.2
		c-0.003-0.069-0.004-0.137-0.005-0.204c0.001-0.066-0.007-0.132-0.017-0.192c-0.007-0.006-0.014-0.012-0.018-0.021
		c-0.007-0.006-0.01-0.017-0.011-0.029c-0.014-0.057-0.021-0.114-0.02-0.175c0.002-0.059,0.003-0.117,0.005-0.174
		c0.004-0.059-0.001-0.11-0.011-0.158l-0.042-0.063c-0.006-0.038-0.005-0.07,0.004-0.1c0.008-0.026,0.013-0.05,0.014-0.07
		c0-0.006-0.003-0.015-0.008-0.025s-0.007-0.02-0.008-0.025c0.004-0.048,0.025-0.077,0.06-0.083
		c0.034-0.007,0.079-0.013,0.131-0.018c0.052-0.016,0.109-0.029,0.172-0.039c0.061-0.012,0.125-0.021,0.189-0.031
		c0.032-0.005,0.064-0.007,0.095-0.004c0.033,0.002,0.062,0.001,0.087-0.005l0.05-0.041c0.026-0.002,0.05-0.001,0.069,0.001
		c0.022,0.001,0.042,0,0.061-0.008c0.059-0.012,0.114-0.025,0.168-0.04c0.053-0.019,0.108-0.032,0.167-0.041
		c0.019-0.008,0.045-0.009,0.073-0.008c0.028,0,0.057,0.001,0.082,0c0.032-0.011,0.063-0.024,0.096-0.046
		c0.031-0.021,0.063-0.038,0.095-0.055c0.058-0.022,0.117-0.04,0.178-0.055c0.06-0.016,0.117-0.033,0.168-0.054
		c0.085-0.041,0.174-0.091,0.267-0.149c0.09-0.059,0.179-0.122,0.264-0.187c0.088-0.065,0.167-0.128,0.238-0.184
		c0.021-0.016,0.046-0.039,0.072-0.07c0.029-0.03,0.05-0.057,0.063-0.079c0.063-0.094,0.123-0.188,0.184-0.284
		c0.061-0.095,0.109-0.192,0.152-0.292c0.012-0.026,0.021-0.056,0.028-0.089c0.008-0.03,0.017-0.063,0.028-0.096
		c0.008-0.021,0.02-0.038,0.034-0.055c0.017-0.016,0.024-0.033,0.025-0.053c0.006-0.007,0.006-0.016,0.003-0.029
		c-0.003-0.01-0.006-0.023-0.006-0.036c0.013-0.053,0.029-0.105,0.051-0.158c0.021-0.054,0.038-0.106,0.051-0.159
		c-0.002-0.032-0.001-0.063,0.004-0.089c0.003-0.026,0.009-0.049,0.015-0.068c0.003-0.052,0.003-0.11-0.003-0.171
		c-0.003-0.061-0.003-0.121-0.002-0.18c0.006-0.014,0.014-0.024,0.022-0.034c0.008-0.009,0.014-0.02,0.014-0.033
		c-0.002-0.025-0.007-0.047-0.017-0.064c-0.008-0.019-0.013-0.04-0.017-0.063c0.002-0.007,0.006-0.016,0.012-0.027
		c0.009-0.011,0.013-0.02,0.013-0.026c0.004-0.048,0.005-0.101,0.002-0.158c-0.002-0.059-0.01-0.112-0.019-0.167l-0.042-0.063
		c-0.016-0.086-0.021-0.177-0.021-0.272c0.002-0.096-0.004-0.187-0.02-0.272c-0.007-0.006-0.014-0.012-0.019-0.019
		c-0.007-0.006-0.009-0.013-0.009-0.02c-0.008-0.019-0.009-0.038-0.008-0.056c0.001-0.02,0.003-0.034,0.002-0.048
		c-0.01-0.019-0.019-0.035-0.032-0.05s-0.021-0.032-0.024-0.051c-0.008-0.013-0.008-0.026-0.007-0.039
		C17.999,14.817,18,14.805,18,14.792c-0.008-0.025-0.02-0.049-0.036-0.067c-0.014-0.021-0.025-0.04-0.035-0.06
		c0-0.006,0.001-0.016,0.003-0.028c0.002-0.011,0.001-0.023-0.007-0.036c-0.01-0.039-0.027-0.075-0.05-0.106
		c-0.023-0.033-0.04-0.065-0.051-0.098c-0.016-0.049-0.03-0.083-0.044-0.104c-0.014-0.021-0.028-0.044-0.043-0.074
		c-0.007-0.006-0.007-0.015-0.006-0.025c0.002-0.011,0.004-0.02,0.003-0.026c-0.031-0.063-0.073-0.124-0.124-0.183
		c-0.052-0.058-0.103-0.118-0.153-0.181c-0.035-0.044-0.072-0.086-0.113-0.125c-0.038-0.039-0.079-0.081-0.121-0.124
		c-0.04-0.033-0.077-0.066-0.111-0.104c-0.034-0.035-0.065-0.062-0.093-0.082c-0.054-0.036-0.114-0.068-0.176-0.096
		c-0.063-0.029-0.125-0.061-0.185-0.095c-0.054-0.029-0.111-0.058-0.171-0.08c-0.063-0.023-0.128-0.042-0.2-0.058
		c-0.112-0.031-0.229-0.066-0.351-0.11c-0.119-0.042-0.236-0.073-0.35-0.09c-0.026-0.005-0.052-0.004-0.076,0
		c-0.025,0.003-0.047,0.006-0.066,0.007l-0.354-0.061c-0.02-0.003-0.042-0.002-0.067,0.004c-0.023,0.006-0.049,0.007-0.075,0.004
		c-0.007-0.002-0.014-0.006-0.022-0.013c-0.007-0.008-0.019-0.012-0.031-0.011c-0.02,0.001-0.041,0.004-0.064,0.008
		c-0.023,0.003-0.045,0.004-0.065-0.002c-0.034-0.005-0.068-0.018-0.1-0.043c-0.031-0.024-0.062-0.053-0.091-0.082
		c-0.032-0.028-0.061-0.051-0.092-0.069c-0.045-0.013-0.095-0.019-0.151-0.015c-0.054,0.006-0.111,0.011-0.172,0.018
		c-0.063,0.006-0.124,0.004-0.186-0.004c-0.115-0.014-0.243-0.018-0.389-0.014c-0.145,0.006-0.283,0.015-0.417,0.027L13.168,12.608
		L13.168,12.608z M14.585,14.699c-0.011-0.036-0.013-0.075-0.006-0.121s0.02-0.085,0.037-0.123c0.016-0.037,0.036-0.061,0.058-0.072
		c0.047-0.02,0.092-0.026,0.14-0.02c0.046,0.006,0.088,0.013,0.121,0.02l0.261,0.014c0.02,0.006,0.037,0.014,0.051,0.023
		c0.016,0.01,0.029,0.018,0.042,0.024l0.344,0.087c0.211,0.069,0.393,0.188,0.54,0.359s0.257,0.38,0.328,0.626
		c0.016,0.058,0.032,0.126,0.047,0.206c0.015,0.079,0.023,0.161,0.029,0.246c0.006,0.084,0.006,0.162-0.004,0.234
		c-0.03,0.225-0.101,0.413-0.213,0.562c-0.111,0.15-0.256,0.271-0.429,0.361c-0.174,0.094-0.365,0.166-0.577,0.218
		c-0.011,0.007-0.021,0.014-0.027,0.021s-0.019,0.014-0.036,0.021c-0.021,0.001-0.048,0-0.08-0.001
		c-0.032,0-0.061,0.001-0.089,0.009c-0.034,0.009-0.084,0.018-0.152,0.029c-0.066,0.012-0.131,0.016-0.194,0.01
		c-0.063-0.003-0.104-0.027-0.123-0.067c-0.007-0.046-0.011-0.091-0.014-0.139c0-0.045-0.004-0.095-0.013-0.146
		c-0.008-0.013-0.015-0.021-0.02-0.025c-0.007-0.006-0.009-0.015-0.01-0.025c-0.013-0.052-0.019-0.11-0.015-0.171
		c0.006-0.061,0.014-0.122,0.023-0.181c0.002-0.046-0.002-0.089-0.011-0.13c-0.011-0.041-0.011-0.084-0.002-0.13
		c0.001-0.026,0.006-0.051,0.018-0.072c0.013-0.022,0.02-0.047,0.027-0.073c0.005-0.042,0.007-0.087,0.004-0.137
		s-0.009-0.095-0.018-0.137l-0.041-0.05c-0.004-0.032,0.001-0.066,0.014-0.106c0.016-0.038,0.021-0.077,0.014-0.116
		c-0.007-0.019-0.017-0.036-0.026-0.049c-0.009-0.012-0.016-0.021-0.016-0.027c0.001-0.02,0.011-0.046,0.028-0.075
		c0.019-0.028,0.027-0.058,0.028-0.083c0-0.014-0.006-0.023-0.015-0.032c-0.007-0.009-0.012-0.02-0.015-0.032
		c-0.006-0.042-0.009-0.093-0.003-0.153c0.004-0.061,0.01-0.109,0.015-0.146c0.002-0.041,0-0.089-0.007-0.143
		c-0.008-0.054-0.01-0.102-0.008-0.143c0.006-0.03,0.009-0.053,0.008-0.067C14.599,14.76,14.594,14.736,14.585,14.699L14.585,14.699
		z"/>
	<path fill="#FFFFFF" d="M21.599,12.271c-0.016,0.008-0.036,0.013-0.067,0.017c-0.032,0.004-0.06,0.009-0.087,0.018
		c-0.014,0-0.024,0.003-0.03,0.01c-0.009,0.005-0.015,0.012-0.021,0.019c-0.02,0.001-0.042,0-0.065-0.001
		c-0.024-0.002-0.046,0-0.064,0.007c-0.052,0.01-0.101,0.026-0.146,0.049c-0.047,0.024-0.091,0.046-0.135,0.069
		c-0.064,0.029-0.128,0.057-0.189,0.083c-0.063,0.027-0.123,0.056-0.18,0.092l-0.277,0.195c-0.019,0.017-0.037,0.036-0.056,0.062
		c-0.018,0.025-0.036,0.045-0.056,0.062c-0.063,0.048-0.12,0.104-0.176,0.163c-0.054,0.061-0.103,0.124-0.145,0.19
		c-0.013,0.019-0.026,0.034-0.043,0.048c-0.018,0.012-0.031,0.028-0.044,0.048c-0.09,0.147-0.176,0.298-0.253,0.449
		c-0.079,0.15-0.144,0.3-0.197,0.445c-0.02,0.047-0.039,0.091-0.063,0.133c-0.024,0.043-0.042,0.087-0.055,0.133l0.003,0.053
		c-0.021,0.079-0.047,0.156-0.084,0.231c-0.038,0.076-0.063,0.152-0.076,0.231c-0.009,0.076-0.021,0.15-0.034,0.217
		c-0.014,0.067-0.03,0.136-0.047,0.206c-0.014,0.07-0.029,0.149-0.042,0.234l-0.018,0.183c-0.002,0.033-0.003,0.072-0.001,0.113
		c0.005,0.041,0.004,0.082,0,0.121l-0.036,0.055c-0.003,0.038,0.001,0.08,0.01,0.123c0.011,0.042,0.011,0.084,0.002,0.123
		c-0.005,0.042-0.009,0.094-0.014,0.157c-0.004,0.061-0.012,0.113-0.022,0.157c-0.006,0.028-0.005,0.048-0.002,0.059
		c0.003,0.009,0.006,0.028,0.007,0.059c0.014,0.047,0.018,0.092,0.012,0.138c-0.007,0.046-0.012,0.081-0.012,0.109
		c-0.014,0.074-0.014,0.161-0.003,0.258c0.014,0.1,0.022,0.194,0.029,0.287c0.002,0.087,0.002,0.181-0.001,0.277
		c-0.002,0.101,0.007,0.188,0.027,0.268c0.004,0.026,0.012,0.053,0.024,0.075c0.012,0.026,0.02,0.047,0.022,0.066
		c0.021,0.084,0.029,0.168,0.029,0.248s0.006,0.153,0.02,0.218l0.041,0.05c0.009,0.046,0.014,0.091,0.014,0.135
		c0.002,0.045,0.007,0.086,0.013,0.125c0.016,0.049,0.031,0.103,0.047,0.165c0.017,0.06,0.03,0.119,0.044,0.18
		c0.014,0.06,0.026,0.111,0.038,0.156c0.021,0.063,0.033,0.118,0.038,0.17c0.007,0.049,0.017,0.109,0.031,0.178
		c0.016,0.052,0.033,0.101,0.055,0.146c0.02,0.046,0.041,0.091,0.063,0.136l0.093,0.281c0.021,0.045,0.045,0.089,0.071,0.136
		c0.026,0.044,0.05,0.093,0.072,0.144c0.038,0.076,0.088,0.154,0.146,0.229c0.059,0.077,0.111,0.146,0.162,0.211l0.031,0.09
		c0.041,0.05,0.085,0.103,0.133,0.153c0.046,0.053,0.095,0.103,0.142,0.146c0.053,0.05,0.104,0.093,0.152,0.129
		c0.047,0.037,0.101,0.066,0.158,0.09c0.014,0.006,0.024,0.019,0.034,0.033s0.021,0.029,0.034,0.042
		c0.043,0.023,0.087,0.048,0.134,0.066c0.049,0.022,0.093,0.039,0.133,0.05c0.039,0.014,0.079,0.031,0.119,0.051
		c0.04,0.022,0.08,0.035,0.119,0.042l0.052-0.003c0.033,0.008,0.066,0.019,0.1,0.035c0.033,0.015,0.066,0.026,0.1,0.033
		c0.032,0.003,0.067,0.001,0.104-0.005c0.037-0.006,0.071-0.008,0.104-0.005c0.058,0.01,0.132,0.013,0.227,0.013
		c0.096-0.003,0.19-0.01,0.286-0.019c0.093-0.009,0.163-0.019,0.215-0.03c0.034-0.006,0.071-0.008,0.11-0.005
		c0.042,0.002,0.078,0,0.11-0.006l0.23-0.089c0.038-0.018,0.076-0.039,0.111-0.063c0.033-0.025,0.065-0.042,0.091-0.052
		c0.075-0.025,0.136-0.062,0.186-0.107c0.048-0.046,0.1-0.094,0.153-0.144c0.063-0.043,0.126-0.098,0.188-0.166
		c0.024-0.026,0.052-0.055,0.078-0.082c0.027-0.027,0.052-0.054,0.07-0.081l0.118-0.228l0.075-0.068
		c0.036-0.061,0.065-0.127,0.093-0.195c0.024-0.069,0.047-0.137,0.069-0.203c0.02-0.053,0.045-0.106,0.075-0.162
		c0.031-0.054,0.053-0.111,0.065-0.17c0.005-0.033,0.01-0.062,0.017-0.086c0.006-0.026,0.015-0.055,0.026-0.086
		c0.019-0.06,0.038-0.119,0.061-0.179c0.023-0.06,0.04-0.119,0.053-0.178l0.119-0.748c0.004-0.039,0.005-0.078,0-0.117
		c-0.002-0.039-0.001-0.078,0.001-0.117l0.037-0.054c0.007-0.074,0.005-0.15-0.003-0.228c-0.009-0.08-0.008-0.156,0.006-0.229
		c0.002-0.013,0.008-0.026,0.02-0.042c0.013-0.014,0.021-0.031,0.028-0.052c0.002-0.032-0.002-0.071-0.011-0.112
		c-0.01-0.04-0.01-0.082-0.001-0.121c0-0.006,0.001-0.013,0.005-0.021c0.005-0.007,0.006-0.018,0.006-0.031
		c0.003-0.026,0.001-0.061-0.006-0.102c-0.006-0.041-0.009-0.086-0.006-0.132c0.008-0.014,0.013-0.036,0.021-0.064
		c0.005-0.028,0.006-0.061-0.003-0.093c-0.008-0.03-0.011-0.056-0.012-0.079c-0.002-0.022-0.001-0.053,0.004-0.09
		c0.014-0.087,0.013-0.189,0-0.306c-0.015-0.116-0.024-0.23-0.032-0.344l-0.016-0.324c-0.001-0.067-0.002-0.132,0.001-0.193
		c0.002-0.063-0.005-0.11-0.018-0.145c-0.003-0.006-0.01-0.013-0.021-0.021c-0.012-0.006-0.019-0.017-0.021-0.029
		c-0.013-0.036-0.02-0.083-0.018-0.143c0.002-0.059,0.003-0.117,0.004-0.178c0.004-0.063-0.001-0.115-0.01-0.16
		c-0.014-0.021-0.019-0.036-0.018-0.04c0.002-0.005,0.008-0.022,0.013-0.051c0-0.021-0.004-0.041-0.007-0.063
		c-0.003-0.02-0.004-0.035,0.002-0.042c0.001-0.021,0.016-0.044,0.04-0.071c0.027-0.025,0.05-0.041,0.071-0.051
		c0.099-0.074,0.184-0.139,0.262-0.195c0.077-0.056,0.161-0.121,0.253-0.194c0.019-0.015,0.039-0.037,0.068-0.064
		c0.026-0.027,0.052-0.055,0.073-0.082c0.025-0.029,0.037-0.054,0.043-0.071c0.008-0.052,0.004-0.093-0.013-0.123
		c-0.017-0.031-0.033-0.059-0.05-0.082c-0.012-0.025-0.021-0.051-0.029-0.077c-0.006-0.025-0.016-0.051-0.03-0.076
		c-0.037-0.053-0.079-0.104-0.123-0.16c-0.046-0.058-0.083-0.107-0.113-0.153c-0.028-0.033-0.05-0.071-0.068-0.111
		c-0.02-0.043-0.039-0.077-0.06-0.104c-0.014-0.006-0.026-0.012-0.04-0.02c-0.014-0.006-0.027-0.017-0.041-0.028
		c-0.005-0.014-0.01-0.028-0.011-0.046c-0.001-0.017-0.008-0.032-0.02-0.044c-0.002-0.007-0.009-0.011-0.02-0.012
		c-0.011-0.002-0.018-0.006-0.021-0.013c-0.007-0.013-0.008-0.025-0.006-0.039c0.001-0.013,0.003-0.025,0.002-0.039
		c-0.01-0.017-0.028-0.04-0.058-0.072c-0.03-0.033-0.057-0.055-0.079-0.063c-0.026-0.012-0.058-0.018-0.092-0.016
		c-0.032,0.002-0.063,0.01-0.09,0.024c-0.02,0.007-0.038,0.023-0.059,0.044c-0.019,0.022-0.042,0.043-0.066,0.066
		c-0.009,0.007-0.021,0.012-0.038,0.015c-0.018,0.003-0.03,0.008-0.038,0.015c-0.029,0.021-0.055,0.042-0.073,0.058
		c-0.02,0.017-0.042,0.026-0.066,0.027c-0.026-0.005-0.049-0.023-0.067-0.055c-0.021-0.034-0.038-0.07-0.053-0.11
		c-0.014-0.038-0.025-0.072-0.036-0.101c-0.031-0.057-0.066-0.111-0.107-0.161c-0.042-0.05-0.078-0.096-0.115-0.14l-0.086-0.152
		l-0.149-0.136c-0.116-0.104-0.242-0.196-0.378-0.272c-0.136-0.073-0.286-0.131-0.451-0.168c-0.039-0.009-0.083-0.014-0.131-0.012
		c-0.045,0.003-0.089,0.001-0.13-0.002c-0.007-0.002-0.016-0.006-0.026-0.012c-0.012-0.008-0.021-0.012-0.027-0.012
		c-0.028-0.003-0.061-0.001-0.095,0.005c-0.037,0.006-0.064,0.008-0.087,0.004c-0.028-0.007-0.063-0.012-0.108-0.016
		c-0.046-0.002-0.092-0.005-0.14-0.002C21.669,12.262,21.631,12.266,21.599,12.271L21.599,12.271z M20.506,15.723
		c0.021-0.017,0.038-0.023,0.052-0.018c0.015,0.003,0.026,0.012,0.035,0.023c0.007,0.013,0.015,0.021,0.019,0.028
		c0.056,0.073,0.124,0.13,0.202,0.172c0.08,0.042,0.169,0.085,0.269,0.13c0.054,0.023,0.104,0.047,0.157,0.068
		c0.051,0.023,0.11,0.042,0.175,0.059c0.039,0.009,0.078,0.012,0.121,0.007c0.041-0.004,0.087-0.002,0.14,0.007
		c0.013-0.001,0.023,0.003,0.033,0.011c0.009,0.006,0.02,0.01,0.033,0.012c0.034,0.002,0.073,0,0.121-0.006
		c0.045-0.007,0.093-0.009,0.139-0.007c0.023,0.003,0.057,0.008,0.103,0.012c0.043,0.007,0.091,0.009,0.144,0.011
		c0.052-0.001,0.1-0.005,0.145-0.016c0.007-0.001,0.013-0.003,0.019-0.01c0.007-0.005,0.013-0.012,0.019-0.019
		c0.039-0.006,0.078-0.008,0.115-0.006c0.034,0.003,0.067,0.001,0.093-0.005c0.034-0.01,0.068-0.021,0.106-0.032
		c0.039-0.011,0.071-0.013,0.101-0.004c0.046,0.026,0.071,0.086,0.077,0.173c0.005,0.088,0.005,0.187,0.002,0.295
		c-0.004,0.108,0.004,0.208,0.023,0.296c0.01,0.023,0.02,0.058,0.028,0.104c0.01,0.048,0.016,0.097,0.021,0.146
		c0.002,0.05,0.002,0.091-0.005,0.124c0.002,0.026,0.003,0.052,0.002,0.08c-0.003,0.03-0.008,0.063-0.019,0.103
		c-0.001,0.033-0.006,0.062-0.016,0.088c-0.009,0.026-0.015,0.051-0.016,0.07c-0.009,0.057-0.01,0.115-0.003,0.174
		c0.008,0.058,0.015,0.114,0.022,0.173c0.009,0.058,0.01,0.116,0.006,0.173c-0.008,0.071-0.013,0.142-0.016,0.207
		c-0.001,0.066-0.007,0.132-0.017,0.198c-0.006,0.018-0.012,0.03-0.016,0.037c-0.006,0.007-0.008,0.018-0.007,0.028
		c-0.006,0.014-0.006,0.028-0.002,0.046c0.003,0.018,0.006,0.032,0.006,0.046c-0.015,0.094-0.029,0.191-0.046,0.292
		c-0.015,0.104-0.034,0.197-0.056,0.285c-0.016,0.081-0.039,0.169-0.067,0.262c-0.029,0.095-0.058,0.179-0.089,0.254
		c-0.006,0.026-0.011,0.055-0.018,0.083c-0.006,0.028-0.015,0.055-0.027,0.075c-0.006,0.007-0.014,0.014-0.024,0.022
		c-0.011,0.008-0.019,0.019-0.024,0.032c-0.016,0.04-0.031,0.081-0.042,0.123s-0.028,0.082-0.051,0.115
		c-0.024,0.034-0.053,0.07-0.086,0.104c-0.03,0.036-0.06,0.063-0.087,0.087c-0.013,0.007-0.027,0.012-0.044,0.017
		c-0.018,0.006-0.032,0.013-0.045,0.026c-0.025,0.017-0.051,0.033-0.075,0.054c-0.025,0.021-0.051,0.035-0.076,0.045
		c-0.032,0.01-0.068,0.019-0.111,0.023c-0.046,0.004-0.089,0.006-0.13,0.006s-0.072-0.005-0.096-0.013
		c-0.018-0.006-0.034-0.018-0.048-0.032c-0.012-0.015-0.027-0.029-0.047-0.041c-0.029-0.019-0.063-0.034-0.103-0.047
		c-0.04-0.014-0.075-0.029-0.111-0.047c-0.047-0.032-0.09-0.078-0.132-0.135c-0.042-0.059-0.082-0.112-0.117-0.165
		c-0.083-0.113-0.158-0.233-0.224-0.362c-0.066-0.127-0.126-0.265-0.179-0.412c-0.013-0.045-0.023-0.084-0.032-0.12
		c-0.006-0.034-0.016-0.066-0.03-0.098c-0.016-0.054-0.032-0.116-0.046-0.187c-0.017-0.071-0.028-0.134-0.038-0.188L20.574,18.7
		c-0.006-0.046-0.013-0.093-0.016-0.143c-0.002-0.05-0.011-0.097-0.024-0.143c-0.008-0.027-0.016-0.063-0.027-0.111
		c-0.009-0.045-0.021-0.085-0.036-0.119c-0.006-0.039-0.006-0.084-0.002-0.135c0.006-0.048,0.001-0.1-0.012-0.151
		c-0.001-0.006-0.003-0.013-0.008-0.019c-0.004-0.007-0.007-0.013-0.008-0.02c-0.013-0.045-0.017-0.09-0.011-0.134
		c0.005-0.046,0.005-0.087-0.002-0.126c-0.015-0.04-0.023-0.09-0.026-0.15c-0.003-0.059,0.001-0.112,0.012-0.161
		c0.002-0.048-0.003-0.096-0.012-0.146c-0.012-0.052-0.012-0.098-0.003-0.139c0.001-0.028,0.006-0.065,0.015-0.113
		c0.008-0.046,0.013-0.088,0.014-0.123c0.005-0.02,0.002-0.034-0.005-0.045c-0.01-0.013-0.017-0.027-0.026-0.044
		c0.002-0.007,0.006-0.014,0.012-0.022c0.009-0.007,0.013-0.019,0.012-0.031c0.005-0.035,0.004-0.067-0.001-0.102
		c-0.003-0.032-0.007-0.061-0.008-0.08c0.011-0.042,0.02-0.09,0.023-0.148c0.006-0.057,0.009-0.111,0.014-0.166
		c0.009-0.065,0.021-0.129,0.033-0.194C20.494,15.871,20.503,15.799,20.506,15.723L20.506,15.723z M21.521,13.89
		c0.015-0.008,0.036-0.016,0.064-0.021c0.027-0.009,0.049-0.012,0.064-0.013c0.045-0.008,0.091-0.009,0.134-0.004
		c0.042,0.007,0.081,0.011,0.114,0.019c0.02-0.002,0.037-0.004,0.05-0.007c0.015-0.003,0.027-0.004,0.041,0.002
		c0.018,0.001,0.031,0.01,0.04,0.026c0.01,0.015,0.023,0.027,0.041,0.034c0.021,0.013,0.042,0.022,0.069,0.029
		c0.023,0.008,0.05,0.018,0.076,0.029c0.07,0.044,0.136,0.102,0.2,0.174c0.063,0.076,0.107,0.153,0.133,0.239
		c0.009,0.041,0.008,0.075-0.003,0.108c-0.01,0.033-0.028,0.054-0.054,0.063c-0.019,0.006-0.041,0.007-0.066,0.003
		c-0.024-0.003-0.05-0.002-0.076,0.004c-0.045,0.016-0.09,0.028-0.135,0.039c-0.045,0.009-0.091,0.009-0.137,0.001
		c-0.02,0.001-0.041-0.001-0.067-0.006c-0.026-0.003-0.057-0.008-0.09-0.013c-0.032-0.007-0.072-0.022-0.115-0.049
		c-0.042-0.023-0.084-0.044-0.124-0.057c-0.06-0.027-0.113-0.055-0.162-0.083c-0.052-0.027-0.099-0.068-0.147-0.123
		c-0.029-0.033-0.056-0.071-0.072-0.115c-0.021-0.045-0.012-0.087,0.021-0.129c0.008-0.014,0.022-0.027,0.048-0.042
		c0.023-0.015,0.044-0.028,0.065-0.042c0.013-0.01,0.026-0.023,0.043-0.039C21.494,13.901,21.509,13.892,21.521,13.89L21.521,13.89z
		"/>
	<path fill="#FFFFFF" d="M26.085,12.193c-0.063,0.015-0.117,0.043-0.17,0.082c-0.052,0.042-0.077,0.1-0.077,0.178
		c0.009,0.145,0.017,0.294,0.021,0.446c0.006,0.153-0.001,0.299-0.018,0.438c-0.006,0.092-0.006,0.191,0.006,0.295
		c0.01,0.105,0.017,0.21,0.024,0.315l0.148,3.025c0.009,0.128,0.018,0.269,0.032,0.422c0.014,0.153,0.023,0.303,0.031,0.449
		c0.007,0.147,0.003,0.278-0.014,0.389c-0.003,0.029-0.001,0.062,0.005,0.098c0.006,0.037,0.007,0.069,0.005,0.098
		c-0.007,0.013-0.013,0.024-0.017,0.031c-0.006,0.009-0.008,0.016-0.008,0.022c0.004,0.013,0.009,0.024,0.016,0.04
		c0.01,0.017,0.015,0.036,0.016,0.063c-0.005,0.032-0.014,0.063-0.027,0.09c-0.012,0.028-0.021,0.056-0.028,0.082
		c0.001,0.025,0.005,0.05,0.012,0.073c0.006,0.023,0.014,0.049,0.021,0.081c0.012,0.058,0.02,0.129,0.021,0.209
		c0.002,0.083,0.001,0.163-0.002,0.238c-0.002,0.077-0.009,0.136-0.015,0.177c-0.012,0.088-0.009,0.186,0.006,0.291
		c0.014,0.104,0.027,0.211,0.042,0.323c0.014,0.112,0.013,0.225-0.001,0.334c0,0.007-0.002,0.016-0.008,0.026
		c-0.004,0.011-0.01,0.021-0.016,0.026c-0.004,0.065-0.002,0.131,0.007,0.197c0.008,0.065,0.018,0.13,0.022,0.19
		c0.008,0.063,0.008,0.118-0.002,0.171c0,0.011-0.001,0.02-0.007,0.026c-0.005,0.005-0.011,0.014-0.017,0.027
		c-0.002,0.041,0.003,0.093,0.012,0.153c0.012,0.063,0.013,0.123,0.005,0.185c-0.001,0.021-0.002,0.047-0.007,0.08
		c-0.005,0.032-0.004,0.061,0.002,0.089c0.007,0.036,0.017,0.073,0.031,0.113c0.016,0.039,0.034,0.072,0.058,0.102
		s0.05,0.045,0.08,0.05c0.026,0.003,0.053,0.002,0.078-0.004c0.026-0.005,0.052-0.007,0.078-0.003
		c0.007-0.001,0.013,0.003,0.022,0.012c0.007,0.006,0.018,0.01,0.031,0.012c0.034,0.004,0.086,0.002,0.153-0.004
		c0.066-0.006,0.137-0.011,0.21-0.015c0.061-0.001,0.126-0.002,0.192-0.001c0.068,0.003,0.124-0.004,0.171-0.017
		c0.007-0.003,0.013-0.008,0.021-0.015c0.007-0.009,0.018-0.014,0.03-0.015c0.041-0.006,0.091-0.009,0.145-0.007
		c0.057,0.002,0.098,0,0.128-0.006c0.021-0.006,0.045-0.022,0.071-0.054c0.027-0.029,0.045-0.055,0.053-0.069
		c0.017-0.064,0.021-0.139,0.016-0.225c-0.007-0.087-0.014-0.173-0.021-0.259c-0.011-0.089-0.011-0.165-0.003-0.232
		c0.006-0.014,0.012-0.024,0.016-0.031c0.006-0.009,0.008-0.016,0.008-0.022c-0.003-0.019-0.008-0.031-0.016-0.043
		c-0.009-0.01-0.014-0.021-0.015-0.033c0,0,0.004-0.007,0.013-0.018c0.006-0.01,0.01-0.022,0.011-0.035
		c0.003-0.029,0.002-0.063-0.005-0.104s-0.008-0.075-0.005-0.104c0.006-0.007,0.012-0.014,0.016-0.021
		c0.007-0.007,0.009-0.014,0.008-0.021c0.003-0.032,0.001-0.063-0.004-0.089c-0.006-0.025-0.007-0.047-0.004-0.066
		c0.007-0.014,0.015-0.024,0.022-0.036c0.009-0.011,0.015-0.024,0.013-0.044c0-0.007-0.007-0.015-0.017-0.027
		c-0.009-0.01-0.019-0.023-0.025-0.035c-0.006-0.032-0.012-0.071-0.017-0.121c-0.007-0.049-0.009-0.1-0.012-0.151
		c0-0.05,0.002-0.093,0.009-0.13c0-0.007,0.006-0.016,0.014-0.027c0.009-0.011,0.017-0.021,0.022-0.027
		c0.011-0.089,0.008-0.191-0.006-0.303c-0.015-0.115-0.029-0.229-0.043-0.346c-0.015-0.114-0.014-0.218,0.002-0.312
		c0-0.007,0.001-0.014,0.005-0.021s0.006-0.013,0.006-0.02c0.01-0.069,0.014-0.126,0.011-0.172c-0.002-0.044-0.011-0.091-0.026-0.14
		c0.001-0.035,0.001-0.069,0.004-0.108c0.004-0.039-0.001-0.072-0.014-0.1c-0.004-0.028-0.012-0.063-0.022-0.107
		c-0.011-0.043-0.011-0.084-0.002-0.126c0.003-0.028,0.008-0.059,0.015-0.096s0.016-0.07,0.025-0.102
		c0.007-0.028,0.017-0.046,0.025-0.053c0.007-0.001,0.02-0.003,0.041-0.009c0.021-0.005,0.043-0.009,0.064-0.012
		c0.023-0.003,0.039-0.004,0.05,0c0.007-0.001,0.02-0.001,0.039-0.002c0.021-0.001,0.043,0,0.064,0.001
		c0.021,0.001,0.033,0.003,0.04,0.007c0.021,0.005,0.049,0.03,0.077,0.074s0.057,0.093,0.081,0.147
		c0.024,0.056,0.044,0.104,0.055,0.146c0.009,0.038,0.02,0.072,0.031,0.104c0.013,0.031,0.022,0.062,0.03,0.087
		c0.016,0.041,0.032,0.085,0.05,0.135c0.018,0.049,0.033,0.094,0.042,0.135c0.026,0.104,0.058,0.198,0.09,0.281
		s0.063,0.166,0.095,0.247c0.032,0.079,0.063,0.169,0.089,0.265c0,0.007-0.002,0.02-0.003,0.035
		c-0.001,0.015-0.001,0.03,0.007,0.043c0.018,0.058,0.043,0.121,0.076,0.188c0.036,0.067,0.067,0.138,0.1,0.207
		c0.026,0.066,0.052,0.137,0.075,0.211c0.021,0.075,0.046,0.146,0.075,0.211c0.011,0.028,0.027,0.068,0.047,0.117
		c0.022,0.051,0.049,0.1,0.077,0.145c0.027,0.044,0.058,0.07,0.088,0.08c0.058,0.012,0.114,0.014,0.167,0.002
		c0.054-0.011,0.104-0.026,0.15-0.046c0.046-0.022,0.087-0.039,0.12-0.056c0.052-0.022,0.106-0.051,0.163-0.082
		c0.06-0.031,0.123-0.063,0.193-0.092s0.141-0.055,0.209-0.075c0.07-0.023,0.137-0.048,0.2-0.075
		c0.063-0.029,0.109-0.064,0.136-0.109c0.026-0.044,0.029-0.101,0.007-0.171c-0.05-0.167-0.114-0.338-0.192-0.512
		s-0.154-0.356-0.225-0.548c-0.031-0.109-0.063-0.217-0.096-0.319c-0.031-0.103-0.066-0.2-0.104-0.296
		c-0.015-0.032-0.031-0.063-0.049-0.096c-0.017-0.031-0.031-0.063-0.039-0.096c-0.016-0.06-0.03-0.119-0.044-0.185
		c-0.014-0.062-0.029-0.115-0.051-0.162c-0.01-0.013-0.019-0.022-0.032-0.03c-0.014-0.009-0.021-0.02-0.023-0.032
		c-0.007-0.013-0.008-0.027-0.007-0.047c0.001-0.018,0.003-0.037,0.002-0.057c-0.019-0.068-0.043-0.13-0.074-0.183
		c-0.031-0.056-0.056-0.112-0.073-0.175l-0.003-0.052c-0.011-0.038-0.025-0.077-0.045-0.112c-0.019-0.038-0.033-0.072-0.044-0.104
		c-0.001-0.013,0.001-0.026,0.002-0.039c0.002-0.013,0.002-0.026-0.006-0.039c-0.01-0.025-0.026-0.053-0.047-0.082
		c-0.023-0.029-0.035-0.057-0.039-0.083c0-0.036,0.013-0.081,0.034-0.136c0.023-0.056,0.043-0.098,0.057-0.129
		c0.017-0.06,0.04-0.116,0.065-0.173c0.025-0.055,0.051-0.112,0.073-0.172l-0.001-0.039c0.012-0.06,0.033-0.11,0.065-0.157
		c0.03-0.045,0.057-0.092,0.076-0.137l0.103-0.278l0.318-0.68c0.063-0.15,0.125-0.288,0.184-0.415
		c0.062-0.124,0.131-0.253,0.207-0.385c0.024-0.041,0.041-0.08,0.055-0.12c0.016-0.04,0.026-0.079,0.037-0.118
		c0.007-0.033,0.022-0.066,0.05-0.099c0.024-0.033,0.045-0.063,0.058-0.09c0.037-0.063,0.072-0.129,0.104-0.2
		c0.031-0.07,0.057-0.137,0.072-0.198c0.013-0.058,0.037-0.103,0.072-0.139c0.032-0.034,0.057-0.072,0.072-0.116
		c0.009-0.078,0.008-0.142-0.008-0.19c-0.013-0.05-0.048-0.087-0.099-0.116c-0.04-0.024-0.078-0.047-0.118-0.064
		c-0.038-0.02-0.084-0.036-0.135-0.054c-0.066-0.024-0.133-0.055-0.197-0.088c-0.067-0.033-0.13-0.063-0.189-0.088
		c-0.02-0.006-0.041-0.007-0.065-0.004c-0.023,0.001-0.045,0-0.064-0.003c-0.047-0.02-0.087-0.039-0.125-0.063
		s-0.076-0.042-0.115-0.055c-0.079-0.026-0.151-0.025-0.21,0.006c-0.06,0.029-0.105,0.072-0.135,0.128
		c-0.048,0.081-0.092,0.167-0.131,0.256c-0.041,0.089-0.084,0.178-0.13,0.265c-0.016,0.035-0.031,0.075-0.042,0.121
		s-0.028,0.089-0.05,0.131l-0.099,0.122c-0.027,0.054-0.051,0.11-0.069,0.172c-0.019,0.06-0.042,0.117-0.069,0.173
		c-0.036,0.063-0.072,0.132-0.105,0.205c-0.035,0.075-0.066,0.14-0.097,0.195c-0.029,0.05-0.055,0.105-0.076,0.169
		c-0.022,0.062-0.048,0.122-0.075,0.178c-0.002,0.007-0.009,0.013-0.02,0.02c-0.01,0.008-0.016,0.015-0.018,0.021
		c-0.011,0.014-0.017,0.029-0.018,0.047s-0.007,0.033-0.018,0.046c-0.029,0.054-0.062,0.114-0.093,0.177
		c-0.032,0.064-0.061,0.131-0.084,0.197c-0.018,0.039-0.032,0.084-0.047,0.132c-0.016,0.047-0.033,0.091-0.057,0.134
		c-0.07,0.118-0.126,0.229-0.166,0.335c-0.04,0.108-0.082,0.226-0.126,0.355l-0.067,0.199c-0.019,0.029-0.05,0.055-0.094,0.078
		c-0.045,0.024-0.09,0.037-0.138,0.037c-0.05,0-0.088-0.02-0.118-0.06c0,0,0.002-0.006,0.004-0.016
		c0.002-0.008,0.001-0.017-0.006-0.023c-0.003-0.019-0.01-0.038-0.021-0.055c-0.012-0.015-0.019-0.027-0.021-0.034
		c-0.019-0.068-0.026-0.145-0.021-0.225c0.002-0.082,0.007-0.165,0.009-0.252c0.005-0.085-0.004-0.169-0.023-0.251l-0.041-0.05
		c-0.015-0.066-0.022-0.14-0.022-0.225c0.003-0.082,0.001-0.162-0.001-0.242c-0.006-0.074-0.012-0.151-0.021-0.231
		c-0.009-0.082-0.008-0.156-0.001-0.224c0-0.006,0.006-0.016,0.014-0.026c0.009-0.012,0.017-0.021,0.023-0.027
		c0.006-0.087,0.006-0.185-0.006-0.29c-0.01-0.108-0.018-0.214-0.024-0.32c-0.004-0.071-0.01-0.145-0.014-0.225
		c-0.006-0.08-0.01-0.158-0.012-0.233c-0.001-0.074,0-0.137,0.007-0.191c0.002-0.033,0-0.067-0.006-0.104
		c-0.006-0.036-0.008-0.071-0.005-0.104c0.006-0.013,0.012-0.024,0.016-0.031c0.006-0.009,0.008-0.016,0.008-0.021
		c0.009-0.046,0.007-0.085-0.004-0.122c-0.011-0.034-0.017-0.066-0.021-0.099c-0.001-0.025,0-0.054-0.002-0.086
		c0.001-0.031-0.007-0.063-0.02-0.095c-0.017-0.032-0.044-0.05-0.083-0.053c-0.039-0.004-0.085-0.002-0.135,0.003
		c-0.052,0.006-0.101,0.007-0.148,0.002c-0.086-0.013-0.185-0.022-0.293-0.03c-0.109-0.008-0.213-0.009-0.317-0.007
		C26.244,12.169,26.155,12.177,26.085,12.193L26.085,12.193z M31.705,11.877c-0.034,0.018-0.069,0.052-0.107,0.105
		c-0.036,0.054-0.062,0.116-0.073,0.19c-0.005,0.071-0.001,0.144,0.011,0.214c0.015,0.071,0.018,0.143,0.011,0.215
		c0,0.013-0.001,0.023-0.005,0.032c-0.004,0.01-0.006,0.021-0.005,0.033c-0.003,0.033-0.001,0.069,0.005,0.11
		c0.007,0.039,0.009,0.075,0.006,0.11l-0.035,0.08c-0.002,0.052,0.003,0.112,0.014,0.182c0.012,0.068,0.013,0.142,0.006,0.221
		c0.001,0.006-0.001,0.013-0.008,0.021c-0.004,0.007-0.01,0.019-0.016,0.031c-0.007,0.074-0.008,0.157-0.001,0.245
		c0.009,0.091,0.016,0.182,0.022,0.274c0.007,0.096,0.003,0.187-0.008,0.273c-0.014,0.121-0.014,0.249-0.006,0.383
		c0.01,0.134,0.023,0.259,0.043,0.371c0.013,0.06,0.021,0.127,0.021,0.203c-0.003,0.078-0.001,0.151,0,0.226
		c0.006,0.11,0.009,0.21,0.013,0.299c0.002,0.088,0.004,0.177,0.007,0.262c0.002,0.087,0.004,0.182,0.009,0.284
		c0.002,0.061,0.002,0.123,0.001,0.19c-0.003,0.065,0.004,0.119,0.017,0.16c0.011,0.047,0.025,0.109,0.044,0.188
		c0.018,0.077,0.023,0.157,0.017,0.237c-0.004,0.062-0.007,0.134-0.007,0.216c-0.003,0.083-0.001,0.167,0.004,0.253
		c0.007,0.142,0.012,0.293,0.018,0.453c0.006,0.162,0.014,0.32,0.023,0.474c0.012,0.156,0.027,0.292,0.051,0.41
		c0.008,0.025,0.009,0.054,0.008,0.084c0,0.03-0.001,0.059,0,0.084c0.011,0.032,0.021,0.073,0.034,0.118
		c0.011,0.047,0.014,0.093,0.005,0.141c-0.02,0.138-0.025,0.274-0.019,0.409c0.006,0.136,0.025,0.268,0.059,0.396
		c0.014,0.067,0.021,0.146,0.022,0.242c-0.002,0.094,0.001,0.191,0.004,0.29c0.007,0.1,0.014,0.199,0.025,0.297
		c0.009,0.099,0.009,0.182,0.001,0.249c0.001,0.013-0.003,0.023-0.011,0.033c-0.007,0.009-0.011,0.021-0.012,0.033
		c0.001,0.028,0.009,0.063,0.024,0.104c0.013,0.043,0.03,0.083,0.05,0.119c0.021,0.036,0.039,0.059,0.058,0.068
		c0.021,0.004,0.054,0.002,0.095-0.004c0.043-0.007,0.084-0.009,0.125-0.007c0.035,0.005,0.079,0.012,0.134,0.016
		c0.052,0.006,0.1,0.004,0.141-0.003c0.107-0.022,0.217-0.038,0.329-0.046c0.112-0.01,0.21-0.021,0.292-0.036
		c0.034-0.007,0.073-0.008,0.116-0.006c0.044,0.002,0.083,0,0.117-0.006c0.041-0.011,0.065-0.027,0.073-0.051
		c0.008-0.022,0.009-0.053,0.005-0.088c-0.005-0.036-0.005-0.077,0-0.125c0.012-0.063,0.026-0.123,0.041-0.181
		c0.015-0.055,0.014-0.117-0.007-0.186c-0.001-0.02-0.005-0.046-0.011-0.076c-0.005-0.027-0.009-0.06-0.011-0.093
		c-0.007-0.013-0.017-0.025-0.025-0.037c-0.01-0.013-0.017-0.025-0.018-0.038c-0.001-0.014,0.005-0.026,0.014-0.04
		c0.008-0.014,0.016-0.027,0.021-0.04c0-0.039-0.01-0.077-0.034-0.115c-0.023-0.038-0.036-0.076-0.042-0.115
		c0-0.007,0.003-0.016,0.012-0.029c0.006-0.011,0.01-0.023,0.011-0.037c0.007-0.042,0.007-0.092,0.001-0.149
		c-0.007-0.059-0.014-0.114-0.025-0.168c-0.009-0.055-0.018-0.095-0.023-0.123c-0.016-0.093-0.024-0.189-0.025-0.291
		c0.002-0.103-0.001-0.2-0.003-0.293c-0.003-0.106-0.004-0.21,0-0.314c0.001-0.104-0.008-0.197-0.029-0.283
		c-0.003-0.013-0.008-0.023-0.015-0.031c-0.01-0.009-0.015-0.02-0.015-0.032c-0.001-0.067,0.021-0.129,0.068-0.186
		c0.045-0.057,0.096-0.094,0.15-0.111c0.026-0.001,0.053-0.001,0.079,0c0.025,0.001,0.052,0,0.077-0.008
		c0.036-0.011,0.072-0.027,0.104-0.046c0.033-0.02,0.076-0.025,0.127-0.018c0.035,0.012,0.064,0.034,0.088,0.067
		c0.025,0.031,0.046,0.064,0.065,0.101c0.018,0.036,0.036,0.067,0.055,0.096c0.049,0.068,0.097,0.145,0.142,0.225
		c0.045,0.082,0.093,0.167,0.143,0.256c0.038,0.064,0.083,0.135,0.13,0.208c0.049,0.073,0.087,0.144,0.112,0.209
		c0.039,0.101,0.087,0.193,0.144,0.275c0.056,0.084,0.104,0.17,0.143,0.258c0.015,0.038,0.032,0.069,0.048,0.099
		c0.018,0.03,0.031,0.06,0.04,0.092c0.021,0.038,0.036,0.076,0.049,0.114c0.013,0.039,0.025,0.077,0.04,0.116
		c0.024,0.042,0.048,0.082,0.075,0.119c0.028,0.035,0.05,0.076,0.066,0.12c0.021,0.061,0.048,0.119,0.076,0.175
		c0.029,0.055,0.069,0.09,0.12,0.103c0.083,0.016,0.157,0.012,0.223-0.01c0.066-0.02,0.128-0.049,0.183-0.082
		c0.055-0.035,0.107-0.066,0.158-0.092c0.007-0.001,0.016,0.001,0.024,0.003c0.009,0.001,0.016,0.001,0.015-0.005
		c0.045-0.012,0.088-0.031,0.127-0.062c0.04-0.027,0.082-0.052,0.127-0.068c0.007-0.007,0.015-0.01,0.026-0.008
		c0.011-0.001,0.019-0.004,0.025-0.008c0.045-0.018,0.082-0.041,0.115-0.069c0.031-0.029,0.061-0.048,0.087-0.058
		c0.029-0.009,0.047-0.016,0.055-0.024c0.008-0.008,0.022-0.019,0.046-0.033c0.02-0.014,0.04-0.025,0.062-0.035
		s0.04-0.021,0.053-0.035c0.012-0.017,0.02-0.04,0.021-0.075c0.005-0.035,0.006-0.074,0.004-0.113
		c-0.005-0.038-0.008-0.07-0.014-0.099c-0.02-0.051-0.048-0.1-0.086-0.146c-0.039-0.046-0.067-0.095-0.085-0.146l-0.003-0.065
		c-0.018-0.051-0.051-0.109-0.098-0.177s-0.092-0.139-0.13-0.215l-0.031-0.115c-0.024-0.038-0.048-0.076-0.075-0.114
		c-0.026-0.037-0.043-0.075-0.054-0.114c-0.022-0.06-0.052-0.116-0.091-0.169c-0.037-0.055-0.074-0.104-0.107-0.155
		c-0.035-0.048-0.059-0.097-0.072-0.144c0-0.009,0.001-0.018,0.003-0.03c0.002-0.014,0.001-0.021-0.005-0.022
		c-0.011-0.032-0.034-0.063-0.065-0.094c-0.032-0.031-0.058-0.063-0.074-0.094c0-0.007,0.001-0.016,0.003-0.026
		c0.001-0.011,0.001-0.02-0.006-0.026c-0.002-0.006-0.009-0.01-0.02-0.012c-0.012-0.002-0.019-0.006-0.021-0.012
		c-0.007-0.009-0.008-0.02-0.006-0.032c0.001-0.016,0.003-0.026,0.002-0.033c-0.02-0.049-0.048-0.091-0.084-0.124
		c-0.038-0.034-0.066-0.072-0.083-0.115c-0.007-0.006-0.008-0.015-0.006-0.027c0.001-0.011,0.003-0.024,0.002-0.037
		c-0.01-0.032-0.033-0.063-0.065-0.092c-0.031-0.031-0.057-0.059-0.073-0.084c-0.014-0.025-0.03-0.053-0.047-0.082
		s-0.031-0.057-0.039-0.082c-0.014-0.063-0.015-0.112,0.001-0.148c0.016-0.035,0.04-0.066,0.069-0.094
		c0.029-0.025,0.056-0.058,0.082-0.092c0.03-0.051,0.063-0.098,0.098-0.141c0.034-0.043,0.067-0.09,0.097-0.142
		c0.028-0.043,0.053-0.09,0.069-0.138c0.018-0.051,0.039-0.094,0.062-0.129c0.01-0.018,0.018-0.027,0.023-0.032
		c0.005-0.002,0.013-0.02,0.024-0.049c0.011-0.048,0.029-0.097,0.056-0.144c0.025-0.047,0.05-0.096,0.075-0.143
		c0.026-0.049,0.043-0.1,0.056-0.152c-0.001-0.013-0.004-0.025-0.007-0.038c-0.002-0.014-0.003-0.026,0.003-0.04
		c0.006-0.059,0.018-0.118,0.037-0.178c0.019-0.06,0.03-0.118,0.036-0.177c0.003-0.04,0.001-0.081-0.006-0.126
		c-0.007-0.043-0.009-0.089-0.007-0.134c0.007-0.033,0.017-0.072,0.029-0.115c0.013-0.041,0.018-0.083,0.011-0.121
		c0-0.007-0.002-0.014-0.007-0.021c-0.005-0.006-0.008-0.018-0.009-0.03c-0.007-0.02-0.008-0.041-0.007-0.063
		s0.002-0.041,0.002-0.054l-0.043-0.076c-0.017-0.069-0.024-0.141-0.025-0.21c-0.001-0.071-0.005-0.143-0.006-0.212
		c-0.002-0.069-0.012-0.136-0.025-0.2l-0.036-0.193c-0.016-0.059-0.029-0.118-0.041-0.179c-0.012-0.06-0.025-0.117-0.041-0.169
		c-0.032-0.077-0.07-0.146-0.116-0.214c-0.045-0.064-0.087-0.128-0.124-0.19c-0.001-0.007,0.001-0.014,0.003-0.02
		c0.001-0.007,0.001-0.014-0.005-0.02c-0.008-0.02-0.022-0.038-0.038-0.057c-0.016-0.02-0.032-0.038-0.046-0.057l-0.085-0.126
		c-0.014-0.019-0.034-0.035-0.057-0.05c-0.022-0.014-0.045-0.029-0.065-0.049c-0.022-0.031-0.053-0.066-0.087-0.105
		c-0.035-0.04-0.071-0.079-0.11-0.116c-0.036-0.037-0.072-0.068-0.104-0.088l-0.253-0.131l-0.228-0.132
		c-0.083-0.046-0.169-0.077-0.261-0.094s-0.18-0.036-0.268-0.063c-0.021-0.008-0.038-0.016-0.052-0.028
		c-0.016-0.012-0.029-0.018-0.042-0.02c-0.035-0.009-0.072-0.014-0.111-0.012c-0.041,0.002-0.078,0-0.111-0.003
		c-0.02-0.008-0.039-0.016-0.062-0.027c-0.021-0.013-0.044-0.018-0.07-0.019c-0.046-0.002-0.092-0.004-0.137-0.002
		c-0.046,0.002-0.092-0.002-0.137-0.011c-0.014-0.001-0.024-0.005-0.033-0.012c-0.01-0.008-0.021-0.012-0.033-0.011
		c-0.02-0.006-0.042-0.005-0.068-0.001c-0.023,0.003-0.049,0.006-0.075,0.008c-0.013-0.006-0.024-0.012-0.033-0.016
		c-0.009-0.006-0.02-0.008-0.032-0.007c-0.021-0.006-0.042-0.005-0.067-0.001c-0.024,0.003-0.05,0.007-0.076,0.008
		c-0.007-0.006-0.016-0.013-0.026-0.016c-0.012-0.006-0.021-0.008-0.026-0.008c-0.053-0.009-0.104-0.008-0.156,0.004
		c-0.052,0.009-0.104,0.014-0.155,0.012c-0.007-0.007-0.016-0.013-0.027-0.017c-0.011-0.006-0.02-0.008-0.026-0.007
		c-0.03-0.006-0.061-0.002-0.086,0.006c-0.025,0.011-0.059,0.019-0.094,0.028c-0.055,0.008-0.11,0.01-0.17,0.005
		c-0.059-0.004-0.103-0.011-0.131-0.016c-0.028-0.003-0.063-0.004-0.104-0.004s-0.082,0.002-0.121,0.006
		S31.725,11.872,31.705,11.877L31.705,11.877z M33.032,13.713c0.007-0.042,0.013-0.092,0.017-0.15
		c0.006-0.058,0.014-0.112,0.026-0.165c0.011-0.05,0.028-0.085,0.054-0.106c0.01-0.005,0.031-0.008,0.064-0.012
		c0.03-0.004,0.064-0.005,0.1-0.005c0.036,0.001,0.063,0.001,0.082,0.005c0.014,0.001,0.026,0.007,0.042,0.02
		c0.014,0.013,0.031,0.021,0.052,0.027c0.119,0.038,0.226,0.085,0.323,0.137c0.099,0.054,0.19,0.118,0.279,0.198
		c0.115,0.105,0.215,0.229,0.3,0.369c0.085,0.14,0.155,0.29,0.209,0.452c0.018,0.049,0.031,0.113,0.042,0.193
		c0.01,0.077,0.015,0.161,0.017,0.248c0.002,0.089,0,0.172-0.005,0.248c-0.006,0.076-0.013,0.137-0.023,0.181
		c-0.03,0.089-0.072,0.178-0.122,0.269c-0.052,0.094-0.102,0.177-0.152,0.253c-0.075,0.105-0.17,0.197-0.286,0.274
		c-0.115,0.075-0.237,0.142-0.367,0.2c-0.04,0.018-0.085,0.041-0.136,0.07c-0.05,0.03-0.097,0.05-0.145,0.061
		c-0.058,0.016-0.101,0.019-0.129,0.009c-0.027-0.01-0.045-0.028-0.056-0.058c-0.012-0.03-0.022-0.066-0.031-0.109
		c-0.003-0.013-0.008-0.023-0.015-0.032c-0.009-0.008-0.014-0.019-0.015-0.031c0.002-0.02,0.007-0.039,0.015-0.063
		c0.01-0.022,0.011-0.049,0.005-0.081c-0.015-0.066-0.025-0.148-0.03-0.245c-0.002-0.099-0.01-0.199-0.015-0.311
		c-0.008-0.107-0.025-0.211-0.051-0.312c-0.014-0.073-0.021-0.153-0.02-0.237c0.002-0.085,0.002-0.17,0.005-0.257
		c0.002-0.087-0.007-0.169-0.021-0.246c-0.009-0.05-0.011-0.089-0.01-0.119c0.001-0.028,0.001-0.059,0-0.089
		c0.005-0.028,0.003-0.059,0-0.091c-0.004-0.035-0.008-0.064-0.009-0.091c0.006-0.007,0.012-0.014,0.016-0.022
		c0.006-0.007,0.008-0.018,0.008-0.031c0.008-0.054,0.007-0.114-0.005-0.18C33.035,13.816,33.03,13.76,33.032,13.713L33.032,13.713z
		"/>
	<path fill="#FFFFFF" d="M39.551,11.296c-0.058,0.018-0.102,0.053-0.133,0.106c-0.035,0.054-0.058,0.115-0.073,0.189l-0.018,0.171
		c-0.013,0.059-0.031,0.116-0.057,0.174s-0.044,0.117-0.057,0.183l-0.017,0.184c-0.011,0.046-0.025,0.094-0.045,0.147
		c-0.017,0.051-0.031,0.104-0.044,0.156l0.004,0.091c-0.013,0.055-0.029,0.109-0.048,0.169c-0.021,0.06-0.033,0.112-0.04,0.16
		c-0.009,0.079-0.021,0.155-0.036,0.228c-0.014,0.074-0.029,0.146-0.046,0.22l-0.044,0.158c-0.009,0.078-0.019,0.157-0.029,0.235
		c-0.01,0.079-0.023,0.158-0.039,0.236l-0.036,0.054c-0.016,0.079-0.029,0.16-0.038,0.243c-0.011,0.083-0.02,0.163-0.029,0.242
		c-0.022,0.111-0.05,0.224-0.078,0.336c-0.032,0.111-0.055,0.224-0.07,0.335c-0.01,0.083-0.022,0.155-0.042,0.219
		c-0.016,0.064-0.03,0.132-0.042,0.202c-0.008,0.057-0.014,0.109-0.019,0.153c-0.002,0.045-0.009,0.089-0.02,0.135l-0.149,0.658
		c-0.017,0.056-0.026,0.114-0.034,0.18s-0.016,0.127-0.026,0.188c-0.023,0.08-0.048,0.168-0.073,0.26
		c-0.028,0.095-0.046,0.187-0.056,0.28c-0.004,0.051-0.008,0.099-0.015,0.145c-0.004,0.043-0.013,0.091-0.023,0.144l-0.065,0.264
		l-0.044,0.146l-0.082,0.46c-0.007,0.032-0.019,0.068-0.034,0.107c-0.015,0.038-0.026,0.077-0.033,0.117l-0.016,0.209
		c-0.005,0.026-0.013,0.051-0.022,0.07c-0.01,0.021-0.017,0.042-0.022,0.062c0.001,0.014,0.003,0.028,0.007,0.048
		c0.003,0.017,0.004,0.036-0.002,0.057c-0.005,0.039-0.016,0.081-0.028,0.125c-0.014,0.044-0.026,0.086-0.037,0.125
		c-0.004,0.053-0.011,0.096-0.02,0.134c-0.009,0.037-0.017,0.07-0.021,0.103c0.001,0.02,0.004,0.039,0.008,0.059
		c0.003,0.02,0.004,0.038-0.002,0.059c-0.012,0.063-0.024,0.122-0.041,0.178c-0.017,0.055-0.026,0.114-0.032,0.177
		c-0.006,0.021-0.005,0.042-0.001,0.065c0.003,0.023,0.006,0.045,0.007,0.064c-0.005,0.026-0.015,0.054-0.028,0.08
		c-0.012,0.026-0.021,0.053-0.028,0.079c-0.003,0.032-0.001,0.067,0.005,0.104c0.006,0.037,0.008,0.071,0.005,0.104
		c-0.004,0.039-0.011,0.081-0.018,0.125c-0.007,0.043-0.011,0.085-0.009,0.124c0.006,0.071,0.034,0.119,0.085,0.143
		c0.054,0.023,0.116,0.036,0.192,0.038c0.074,0.003,0.15,0.008,0.227,0.016c0.041,0.002,0.085,0.004,0.13,0.002
		c0.048-0.002,0.092,0.002,0.131,0.011c0.007,0,0.014,0.004,0.021,0.012c0.007,0.007,0.014,0.011,0.021,0.013
		c0.015,0.006,0.032,0.005,0.052,0.002c0.021-0.004,0.039-0.007,0.052-0.007c0.05,0.008,0.116,0.018,0.196,0.029
		c0.081,0.013,0.157,0.021,0.231,0.023c0.074,0.002,0.128-0.009,0.159-0.03c0.012-0.011,0.028-0.04,0.043-0.087
		c0.016-0.044,0.03-0.09,0.041-0.137c0.011-0.048,0.018-0.078,0.018-0.094l0.039-0.262l0.059-0.394
		c0.006-0.014,0.005-0.028,0.002-0.048c-0.003-0.018-0.006-0.036-0.007-0.057c0.006-0.046,0.02-0.087,0.037-0.127
		c0.02-0.038,0.028-0.071,0.029-0.097c0.011-0.058,0.017-0.109,0.019-0.16c0.004-0.048,0.01-0.104,0.018-0.168l0.067-0.224
		c0.006-0.014,0.005-0.024,0.003-0.033c-0.003-0.009-0.006-0.02-0.007-0.032c0.007-0.046,0.022-0.092,0.042-0.139
		c0.021-0.047,0.045-0.087,0.071-0.121c0.026-0.035,0.054-0.057,0.08-0.063c0.019-0.007,0.04-0.006,0.066-0.001
		c0.024,0.008,0.051,0.013,0.077,0.021c0.039-0.002,0.078-0.006,0.114-0.01c0.035-0.004,0.067-0.006,0.094-0.001
		c0.006,0,0.015,0.002,0.026,0.006c0.011,0.004,0.02,0.005,0.026,0.005c0.034,0.01,0.069,0.012,0.108,0.003
		c0.039-0.006,0.071-0.01,0.1-0.013c0.007,0.006,0.013,0.012,0.021,0.016c0.007,0.006,0.018,0.008,0.031,0.008
		c0.055,0.008,0.113,0.007,0.173-0.005c0.063-0.01,0.116-0.015,0.165-0.013c0.007,0.007,0.013,0.013,0.02,0.017
		c0.007,0.007,0.014,0.008,0.021,0.008c0.065,0.008,0.131,0.009,0.192,0.004c0.062-0.006,0.12-0.004,0.172,0.004l0.055,0.037
		c0.013-0.001,0.027-0.004,0.045-0.007c0.017-0.003,0.032-0.004,0.046,0.002c0.08,0.016,0.143,0.047,0.185,0.1
		c0.044,0.052,0.077,0.115,0.104,0.188c0.025,0.075,0.056,0.149,0.087,0.229c0.016,0.038,0.03,0.069,0.044,0.098
		c0.015,0.024,0.028,0.048,0.043,0.066c0.042,0.109,0.077,0.216,0.106,0.318c0.029,0.105,0.064,0.207,0.106,0.31
		c0.018,0.053,0.04,0.106,0.068,0.163c0.029,0.058,0.054,0.108,0.077,0.154c0.008,0.02,0.014,0.041,0.015,0.063
		c0.003,0.021,0.004,0.041,0.005,0.055c0.03,0.041,0.068,0.065,0.113,0.07c0.049,0.004,0.098-0.001,0.149-0.019
		c0.025-0.002,0.054,0,0.084,0c0.031,0.001,0.059-0.001,0.085-0.009c0.012-0.009,0.026-0.021,0.046-0.034
		c0.017-0.017,0.035-0.028,0.055-0.035c0.025-0.006,0.052-0.007,0.075-0.004c0.026,0.003,0.048,0.002,0.067-0.003
		c0.013-0.003,0.025-0.011,0.038-0.024c0.012-0.013,0.024-0.022,0.037-0.031c0.028-0.006,0.054-0.008,0.082-0.005
		c0.026,0.003,0.048,0.002,0.061-0.003c0.014-0.003,0.023-0.01,0.031-0.023c0.009-0.013,0.019-0.022,0.031-0.031
		c0.026-0.006,0.052-0.007,0.078-0.004s0.052,0.001,0.078-0.004c0.006-0.007,0.013-0.016,0.021-0.027
		c0.006-0.011,0.016-0.021,0.028-0.027c0.032-0.006,0.067-0.008,0.102-0.005c0.035,0.003,0.067,0.001,0.094-0.005
		c0.034-0.01,0.068-0.027,0.102-0.053c0.033-0.027,0.054-0.05,0.062-0.072c0.008-0.046,0.002-0.095-0.019-0.146
		c-0.02-0.051-0.037-0.096-0.048-0.137l-0.004-0.077c-0.019-0.063-0.043-0.12-0.071-0.173c-0.03-0.051-0.051-0.108-0.063-0.17
		l-0.046-0.128l-0.033-0.155c-0.019-0.07-0.044-0.137-0.075-0.195c-0.03-0.062-0.056-0.123-0.074-0.188
		c0-0.016,0.001-0.032,0.002-0.052s0.001-0.037-0.007-0.052c-0.003-0.014-0.01-0.024-0.021-0.032
		c-0.011-0.008-0.018-0.019-0.021-0.031c-0.021-0.051-0.033-0.103-0.038-0.156c-0.007-0.052-0.017-0.107-0.03-0.166
		c-0.007-0.019-0.019-0.038-0.035-0.057c-0.014-0.021-0.026-0.044-0.035-0.069c-0.001-0.007,0.001-0.018,0.002-0.033
		c0.002-0.018,0.001-0.03-0.007-0.045c-0.002-0.011-0.01-0.025-0.021-0.038c-0.012-0.015-0.02-0.031-0.022-0.051
		c-0.016-0.047-0.031-0.103-0.047-0.165c-0.017-0.062-0.032-0.113-0.047-0.153c-0.038-0.111-0.069-0.225-0.1-0.343
		c-0.029-0.117-0.06-0.235-0.091-0.351c-0.011-0.039-0.025-0.077-0.045-0.115c-0.019-0.038-0.034-0.076-0.045-0.115l-0.004-0.091
		c-0.011-0.03-0.024-0.062-0.044-0.089c-0.019-0.029-0.033-0.063-0.044-0.103c-0.009-0.049-0.02-0.09-0.032-0.124
		s-0.022-0.068-0.031-0.104c-0.005-0.021-0.006-0.043-0.003-0.065c0.003-0.023,0.002-0.045-0.003-0.064
		c-0.012-0.048-0.029-0.101-0.056-0.162c-0.025-0.062-0.047-0.117-0.065-0.171c0-0.013,0.001-0.027,0.002-0.045
		c0.002-0.018,0.001-0.033-0.006-0.046c-0.011-0.031-0.024-0.062-0.044-0.089c-0.019-0.026-0.033-0.057-0.043-0.089
		c-0.001-0.02,0-0.039,0.001-0.057c0.002-0.02,0.001-0.034-0.006-0.047c-0.017-0.058-0.036-0.115-0.061-0.173
		c-0.022-0.058-0.043-0.115-0.061-0.173l-0.035-0.181l-0.097-0.37c-0.003-0.021-0.011-0.043-0.024-0.064
		c-0.015-0.022-0.024-0.044-0.033-0.063l-0.004-0.077c-0.009-0.039-0.023-0.075-0.04-0.109c-0.018-0.033-0.034-0.069-0.05-0.108
		c0-0.013,0.001-0.025,0.003-0.039c0.001-0.013,0.001-0.025-0.006-0.038c-0.009-0.052-0.024-0.101-0.042-0.146
		c-0.018-0.047-0.035-0.092-0.051-0.137c-0.009-0.045-0.018-0.093-0.028-0.138c-0.009-0.047-0.021-0.086-0.036-0.119
		c-0.006-0.032-0.01-0.067-0.012-0.104c0.001-0.035-0.003-0.069-0.011-0.104c-0.011-0.03-0.027-0.06-0.051-0.089
		c-0.022-0.027-0.039-0.057-0.05-0.089c-0.006-0.03-0.012-0.064-0.014-0.097c-0.001-0.034-0.01-0.071-0.022-0.107
		c-0.003-0.026-0.011-0.05-0.023-0.07c-0.012-0.023-0.02-0.047-0.022-0.071c-0.014-0.063-0.025-0.128-0.035-0.19
		c-0.008-0.064-0.02-0.125-0.035-0.183l-0.121-0.346c-0.013-0.038-0.021-0.077-0.023-0.116s-0.008-0.078-0.014-0.116
		c-0.011-0.025-0.024-0.053-0.044-0.082c-0.019-0.032-0.033-0.062-0.043-0.096c-0.008-0.013-0.008-0.028-0.007-0.046
		c0.001-0.015,0.002-0.03,0.002-0.045c-0.018-0.041-0.045-0.072-0.085-0.094c-0.038-0.021-0.074-0.046-0.104-0.075
		c-0.031-0.028-0.043-0.071-0.034-0.131c0.006-0.039,0.007-0.073,0.006-0.102c-0.002-0.028-0.016-0.054-0.041-0.078
		c-0.047-0.028-0.102-0.043-0.163-0.047c-0.061-0.003-0.126-0.007-0.191-0.015l-0.119-0.046c-0.021-0.003-0.046-0.002-0.074,0.004
		c-0.027,0.006-0.056,0.007-0.082,0.004c-0.033-0.007-0.066-0.019-0.102-0.034c-0.033-0.016-0.07-0.027-0.11-0.033
		c-0.025-0.003-0.054-0.002-0.084,0.004s-0.059,0.007-0.084,0.004c-0.045-0.011-0.075-0.022-0.095-0.032
		C39.597,11.3,39.575,11.294,39.551,11.296L39.551,11.296z M40.043,15.99c0.014-0.118,0.036-0.234,0.067-0.351
		c0.031-0.114,0.067-0.221,0.107-0.322c0.046,0.043,0.071,0.09,0.083,0.141c0.011,0.052,0.023,0.116,0.038,0.191
		c0.01,0.032,0.024,0.062,0.043,0.09c0.019,0.026,0.033,0.057,0.043,0.089l0.005,0.091c0.003,0.006,0.007,0.013,0.014,0.021
		c0.01,0.007,0.015,0.017,0.015,0.03l0.037,0.206l0.099,0.425c0.018,0.062,0.038,0.122,0.061,0.177
		c0.024,0.056,0.045,0.11,0.061,0.167c0.007,0.014,0.008,0.031,0.007,0.054c-0.001,0.021-0.002,0.043-0.001,0.063
		c0.014,0.054,0.031,0.107,0.051,0.162c0.022,0.058,0.033,0.107,0.038,0.15c0.002,0.043-0.017,0.072-0.057,0.09
		c-0.027,0.01-0.063,0.014-0.104,0.014c-0.041-0.001-0.082-0.003-0.122-0.007c-0.039-0.003-0.067-0.006-0.087-0.005
		c-0.026-0.005-0.054-0.004-0.086,0c-0.03,0.004-0.063,0.007-0.096,0.009c-0.007-0.006-0.014-0.012-0.021-0.017
		c-0.007-0.003-0.013-0.007-0.02-0.007c-0.065-0.013-0.127-0.016-0.185-0.009c-0.059,0.008-0.114,0.008-0.167,0
		c-0.066-0.025-0.102-0.073-0.103-0.143c-0.001-0.067,0.013-0.14,0.037-0.215s0.041-0.132,0.052-0.176
		c0-0.013-0.004-0.03-0.007-0.05s-0.004-0.032,0.003-0.039c0.006-0.055,0.019-0.104,0.04-0.158c0.02-0.051,0.036-0.1,0.049-0.146
		c-0.001-0.013-0.004-0.03-0.007-0.047c-0.003-0.018-0.004-0.037,0.002-0.057c0.006-0.06,0.024-0.114,0.053-0.166
		c0.027-0.053,0.049-0.108,0.061-0.165c0-0.02-0.004-0.037-0.006-0.05C40.038,16.017,40.037,16.003,40.043,15.99L40.043,15.99z"/>
	<path fill="#FFFFFF" d="M46.192,10.838c-0.034,0.006-0.077,0.011-0.131,0.014c-0.053,0-0.1,0.005-0.141,0.014
		c-0.013,0-0.023,0.005-0.029,0.014c-0.009,0.007-0.015,0.012-0.021,0.015c-0.032,0.006-0.064,0.008-0.095,0.004
		c-0.033-0.002-0.062-0.001-0.087,0.005c-0.052,0.009-0.101,0.022-0.147,0.042c-0.047,0.018-0.097,0.033-0.147,0.051
		c-0.189,0.074-0.354,0.16-0.497,0.261c-0.143,0.098-0.275,0.213-0.397,0.343c-0.136,0.147-0.254,0.31-0.354,0.486
		c-0.1,0.176-0.177,0.375-0.231,0.597c-0.018,0.079-0.039,0.158-0.066,0.237c-0.026,0.079-0.048,0.158-0.066,0.237
		c-0.007,0.06-0.013,0.121-0.017,0.186c-0.001,0.063-0.007,0.129-0.017,0.194c-0.001,0.021-0.006,0.053-0.017,0.09
		c-0.012,0.037-0.019,0.063-0.026,0.081c-0.002,0.05,0,0.103,0.005,0.151c0.007,0.048,0.005,0.103-0.003,0.161l-0.036,0.054
		c-0.003,0.026-0.002,0.057,0.005,0.093c0.006,0.035,0.007,0.067,0.005,0.102c0,0.007-0.002,0.014-0.008,0.021
		c-0.004,0.007-0.01,0.014-0.017,0.021c-0.002,0.032-0.001,0.064,0.005,0.095s0.007,0.061,0.004,0.087
		c-0.011,0.096-0.012,0.195-0.002,0.295c0.007,0.102,0.016,0.201,0.022,0.301c0.01,0.1,0.008,0.196-0.003,0.289
		c-0.006,0.05-0.015,0.103-0.026,0.152c-0.011,0.049-0.011,0.103,0.003,0.16c0.011,0.034,0.023,0.079,0.041,0.135
		c0.016,0.054,0.021,0.099,0.012,0.137c0,0.011-0.002,0.02-0.008,0.026c-0.004,0.004-0.01,0.014-0.016,0.026
		c0.003,0.026,0.014,0.052,0.029,0.077c0.017,0.025,0.026,0.051,0.03,0.076c0.014,0.054,0.016,0.112,0.011,0.175
		c-0.008,0.062-0.015,0.107-0.021,0.139c-0.004,0.059-0.001,0.123,0.005,0.19c0.006,0.069,0.012,0.141,0.015,0.212
		c0.005,0.091,0.012,0.177,0.021,0.255c0.008,0.075,0.018,0.138,0.026,0.186c0.014,0.051,0.019,0.099,0.012,0.146
		c-0.004,0.048-0.004,0.094,0.003,0.139c0.007,0.013,0.014,0.021,0.019,0.029c0.007,0.009,0.01,0.015,0.01,0.021
		c0.006,0.045,0.009,0.091,0.007,0.137c-0.003,0.045,0,0.091,0.007,0.136c0.01,0.028,0.021,0.064,0.035,0.109
		s0.023,0.081,0.027,0.109c0.012,0.032,0.019,0.066,0.016,0.103c-0.005,0.037-0.005,0.072-0.006,0.105
		c0.01,0.019,0.02,0.037,0.033,0.059c0.015,0.019,0.022,0.042,0.025,0.068l0.101,0.463c0.015,0.032,0.027,0.066,0.036,0.105
		c0.01,0.038,0.019,0.081,0.027,0.126c0.018,0.052,0.04,0.098,0.063,0.143c0.026,0.044,0.044,0.087,0.054,0.125
		c0.017,0.054,0.033,0.096,0.055,0.125c0.019,0.03,0.04,0.067,0.062,0.116c0.023,0.059,0.045,0.113,0.069,0.168
		c0.022,0.054,0.049,0.098,0.076,0.138c0.007,0.011,0.017,0.019,0.027,0.022s0.02,0.008,0.026,0.014
		c0.042,0.057,0.08,0.113,0.113,0.17c0.035,0.058,0.072,0.114,0.112,0.171c0.036,0.039,0.08,0.08,0.132,0.126
		c0.05,0.045,0.098,0.082,0.14,0.107c0.09,0.063,0.195,0.125,0.315,0.185s0.237,0.105,0.352,0.134
		c0.046,0.014,0.095,0.028,0.144,0.05c0.048,0.021,0.095,0.034,0.134,0.041c0.07,0.008,0.133,0.009,0.187,0.004
		c0.057-0.005,0.115-0.003,0.179,0.004c0.013,0,0.021,0.002,0.026,0.008c0.007,0.004,0.016,0.01,0.026,0.017
		c0.094,0.012,0.189,0.012,0.288-0.004c0.098-0.016,0.184-0.031,0.256-0.05c0.041-0.008,0.08-0.015,0.119-0.019
		c0.038-0.005,0.066-0.01,0.088-0.018c0.032-0.006,0.064-0.007,0.095-0.005c0.032,0.003,0.062,0.002,0.087-0.004
		c0.034-0.011,0.072-0.027,0.116-0.054c0.044-0.025,0.085-0.045,0.125-0.063c0.052-0.016,0.094-0.035,0.13-0.054
		c0.036-0.02,0.067-0.041,0.099-0.062c0.034-0.021,0.067-0.04,0.106-0.058c0.038-0.017,0.069-0.036,0.097-0.057
		c0.019-0.016,0.033-0.034,0.043-0.052c0.012-0.021,0.026-0.036,0.043-0.043l0.15-0.138c0.036-0.041,0.071-0.08,0.103-0.116
		c0.03-0.036,0.057-0.074,0.08-0.114c0.019-0.027,0.03-0.056,0.04-0.087c0.009-0.031,0.019-0.06,0.03-0.086
		c0.014-0.021,0.03-0.04,0.049-0.063c0.021-0.022,0.037-0.045,0.049-0.071c0.035-0.067,0.063-0.131,0.083-0.197
		c0.021-0.063,0.037-0.137,0.053-0.213c0.006-0.021,0.014-0.038,0.023-0.052c0.01-0.016,0.018-0.028,0.023-0.042
		c0.021-0.107,0.039-0.221,0.058-0.342c0.018-0.119,0.038-0.233,0.065-0.341c0.009-0.046,0.013-0.096,0.015-0.148
		c-0.001-0.052,0.008-0.106,0.022-0.166c0.002-0.024,0.007-0.062,0.011-0.111c0.007-0.052,0.009-0.106,0.01-0.165
		c-0.001-0.059-0.006-0.108-0.016-0.153c-0.009-0.04-0.032-0.076-0.068-0.104c-0.036-0.031-0.083-0.051-0.135-0.055
		c-0.028-0.003-0.062-0.002-0.098,0.005c-0.037,0.006-0.069,0.008-0.098,0.005c-0.053-0.011-0.103-0.017-0.152-0.019
		c-0.051-0.004-0.103-0.011-0.162-0.019c-0.067-0.007-0.135-0.004-0.203,0.01c-0.071,0.013-0.131,0.016-0.187,0.01
		c-0.006,0-0.013-0.004-0.021-0.008c-0.007-0.004-0.018-0.01-0.031-0.016c-0.046-0.006-0.092-0.006-0.141,0.001
		c-0.05,0.004-0.093,0.015-0.134,0.028c-0.04,0.013-0.067,0.026-0.087,0.041c-0.028,0.04-0.041,0.086-0.039,0.134
		c0.003,0.05,0.003,0.102,0.001,0.154c-0.01,0.053-0.022,0.099-0.036,0.141c-0.013,0.044-0.024,0.083-0.028,0.122l-0.014,0.262
		c-0.016,0.107-0.055,0.215-0.111,0.326c-0.058,0.109-0.12,0.21-0.183,0.3c-0.019,0.027-0.05,0.057-0.094,0.089
		c-0.044,0.033-0.088,0.063-0.135,0.088c-0.048,0.025-0.084,0.041-0.112,0.049c-0.096,0.021-0.181,0.021-0.256-0.001
		c-0.072-0.022-0.137-0.05-0.19-0.081c-0.05-0.033-0.105-0.071-0.164-0.118s-0.104-0.088-0.135-0.128
		c-0.049-0.071-0.101-0.149-0.15-0.237c-0.052-0.087-0.095-0.172-0.134-0.256c-0.049-0.111-0.092-0.226-0.124-0.351
		c-0.031-0.121-0.063-0.246-0.094-0.368c-0.006-0.032-0.005-0.069-0.001-0.108c0.007-0.039,0.003-0.08-0.011-0.125
		c0-0.007-0.003-0.013-0.01-0.021c-0.005-0.009-0.012-0.017-0.019-0.029c-0.006-0.035-0.006-0.071-0.001-0.113
		c0.006-0.041,0.002-0.082-0.011-0.121c0-0.006-0.003-0.013-0.007-0.019c-0.005-0.006-0.008-0.013-0.008-0.019
		c-0.014-0.052-0.019-0.102-0.012-0.147c0.004-0.048,0.004-0.094-0.002-0.139c-0.007-0.006-0.017-0.017-0.025-0.027
		c-0.01-0.01-0.017-0.022-0.018-0.036c-0.008-0.027-0.012-0.064-0.014-0.109c-0.002-0.046-0.002-0.083,0.003-0.111
		c0-0.006,0.006-0.013,0.015-0.022c0.008-0.009,0.017-0.018,0.021-0.031c0.004-0.025,0-0.056-0.013-0.086
		c-0.015-0.029-0.024-0.062-0.035-0.094c0-0.02,0.001-0.041,0.002-0.065c0.001-0.023,0-0.046-0.008-0.064
		c-0.01-0.052-0.02-0.095-0.028-0.133c-0.011-0.037-0.013-0.075-0.01-0.112c0.005-0.024,0.009-0.042,0.008-0.055
		c0-0.014-0.006-0.032-0.014-0.063c-0.009-0.054-0.013-0.121-0.015-0.201s-0.004-0.16-0.007-0.24
		c-0.005-0.093-0.008-0.187-0.006-0.277c0-0.089,0.003-0.163,0.007-0.218c0.003-0.039,0.001-0.078-0.006-0.117
		c-0.006-0.038-0.008-0.077-0.006-0.116l0.036-0.067c0.001-0.073-0.008-0.157-0.021-0.248c-0.016-0.09-0.016-0.177-0.004-0.258
		l0.021-0.365c0.019-0.075,0.036-0.149,0.059-0.229c0.022-0.077,0.038-0.146,0.05-0.206c0.035-0.139,0.078-0.267,0.131-0.383
		c0.056-0.117,0.113-0.23,0.173-0.336l0.111-0.109c0.04-0.032,0.086-0.067,0.138-0.106c0.053-0.04,0.1-0.065,0.14-0.076
		c0.036-0.011,0.068-0.025,0.096-0.044s0.06-0.033,0.096-0.044c0.058-0.016,0.117-0.025,0.179-0.028
		c0.061-0.003,0.119,0.001,0.172,0.012c0.013-0.001,0.028,0.007,0.049,0.021c0.018,0.015,0.038,0.031,0.059,0.052
		c0.063,0.031,0.122,0.059,0.182,0.08s0.109,0.058,0.153,0.111c0.082,0.122,0.151,0.267,0.208,0.429
		c0.053,0.159,0.104,0.319,0.149,0.479c0.005,0.025,0.007,0.056,0.004,0.091c-0.003,0.032-0.001,0.063,0.005,0.091
		c0,0.011,0.003,0.017,0.01,0.021c0.004,0.002,0.011,0.012,0.019,0.029c0.001,0.019,0,0.039-0.001,0.061
		c-0.002,0.02-0.001,0.043,0.008,0.069c0.013,0.049,0.051,0.08,0.114,0.089c0.063,0.013,0.138,0.013,0.222,0.005
		c0.085-0.007,0.164-0.013,0.24-0.019c0.082-0.002,0.166-0.004,0.253-0.004c0.09,0.002,0.161-0.006,0.214-0.019
		c0.013-0.008,0.023-0.015,0.029-0.019c0.009-0.008,0.016-0.01,0.021-0.011c0.032-0.006,0.066-0.007,0.11-0.007
		c0.041-0.002,0.08-0.002,0.117-0.002c0.039,0.001,0.065-0.001,0.084-0.006c0.021-0.01,0.047-0.031,0.073-0.061
		c0.027-0.029,0.043-0.054,0.051-0.076c-0.001-0.015-0.004-0.032-0.007-0.054c-0.004-0.021-0.005-0.043,0.001-0.063
		c0.002-0.011,0.006-0.02,0.012-0.023c0.009-0.005,0.012-0.019,0.011-0.042c-0.001-0.014-0.006-0.023-0.015-0.032
		c-0.007-0.009-0.012-0.019-0.015-0.031c-0.006-0.032-0.007-0.065-0.005-0.1c0.003-0.035,0.001-0.069-0.005-0.108
		c-0.007-0.006-0.014-0.013-0.019-0.021c-0.007-0.009-0.01-0.018-0.01-0.03c-0.015-0.066-0.022-0.136-0.023-0.205
		c-0.001-0.071-0.01-0.139-0.022-0.196c-0.008-0.019-0.015-0.036-0.021-0.053c-0.007-0.018-0.011-0.039-0.012-0.063
		c-0.01-0.025-0.02-0.052-0.034-0.076c-0.014-0.025-0.021-0.052-0.025-0.077c-0.005-0.021-0.007-0.046-0.003-0.071
		c0.002-0.028,0.001-0.053-0.004-0.071c-0.011-0.039-0.03-0.077-0.058-0.115c-0.028-0.037-0.047-0.075-0.058-0.114
		c-0.008-0.012-0.008-0.027-0.007-0.045s0.003-0.032,0.002-0.046c-0.01-0.027-0.026-0.059-0.052-0.093
		c-0.023-0.035-0.045-0.063-0.061-0.084c-0.026-0.046-0.051-0.095-0.072-0.144c-0.02-0.051-0.044-0.098-0.072-0.136
		c-0.098-0.138-0.21-0.263-0.337-0.373c-0.127-0.111-0.265-0.208-0.411-0.292c-0.064-0.034-0.131-0.059-0.194-0.073
		c-0.066-0.017-0.137-0.036-0.216-0.063c-0.021-0.006-0.038-0.014-0.051-0.024c-0.017-0.01-0.03-0.018-0.043-0.023
		c-0.051-0.011-0.101-0.013-0.146-0.011c-0.045,0-0.097,0.001-0.153-0.001c-0.007-0.002-0.014-0.006-0.021-0.012
		c-0.007-0.009-0.014-0.012-0.02-0.012c-0.033-0.003-0.067-0.002-0.104,0.005c-0.036,0.006-0.071,0.008-0.104,0.005
		c-0.028-0.007-0.07-0.012-0.125-0.016c-0.054-0.001-0.107-0.001-0.164,0.002C46.274,10.821,46.229,10.828,46.192,10.838
		L46.192,10.838z M44.753,6.719c-0.07,0.018-0.145,0.043-0.222,0.077c-0.078,0.032-0.162,0.063-0.252,0.089l-0.164,0.086
		c-0.058,0.024-0.119,0.052-0.186,0.083c-0.065,0.031-0.122,0.064-0.173,0.1c-0.052,0.035-0.083,0.073-0.096,0.113
		c-0.007,0.009-0.007,0.033-0.006,0.067c0.002,0.037,0.006,0.065,0.013,0.089c0.011,0.04,0.033,0.087,0.063,0.138
		s0.057,0.095,0.08,0.128c0.035,0.044,0.065,0.093,0.092,0.146c0.029,0.051,0.06,0.099,0.092,0.145
		C44.002,7.991,44.012,8,44.022,8.008c0.012,0.008,0.021,0.015,0.027,0.021l0.281,0.429c0.04,0.057,0.07,0.111,0.093,0.164
		c0.022,0.054,0.054,0.108,0.093,0.165c0.077,0.109,0.154,0.225,0.229,0.347c0.078,0.122,0.151,0.237,0.222,0.347
		c0.097,0.132,0.19,0.265,0.281,0.393c0.089,0.13,0.174,0.256,0.251,0.375c0.025,0.045,0.054,0.087,0.084,0.124
		c0.03,0.038,0.07,0.063,0.121,0.074c0.028,0.006,0.071,0.008,0.128,0.01c0.059-0.001,0.122-0.002,0.188-0.006
		c0.067-0.003,0.13-0.008,0.187-0.013c0.056-0.008,0.097-0.014,0.12-0.021c0.007-0.002,0.015-0.008,0.025-0.015
		c0.01-0.009,0.019-0.014,0.025-0.014c0.054-0.014,0.121-0.017,0.199-0.01c0.076,0.005,0.149,0.001,0.216-0.011
		c0.043-0.014,0.087-0.048,0.13-0.1c0.043-0.055,0.084-0.112,0.122-0.175c0.035-0.063,0.067-0.116,0.092-0.159
		c0.032-0.047,0.068-0.099,0.107-0.15c0.04-0.052,0.073-0.105,0.099-0.159c0.014-0.033,0.035-0.064,0.068-0.092
		c0.031-0.03,0.059-0.058,0.079-0.085c0.011-0.033,0.024-0.062,0.044-0.084c0.016-0.025,0.033-0.052,0.052-0.076
		c0.012-0.021,0.021-0.04,0.023-0.061c0.006-0.02,0.013-0.039,0.023-0.06c0.048-0.078,0.097-0.149,0.146-0.213
		c0.048-0.065,0.098-0.133,0.146-0.204l0.095-0.2c0.012-0.014,0.027-0.025,0.041-0.037c0.015-0.012,0.027-0.027,0.033-0.045
		c-0.001-0.013-0.004-0.023-0.006-0.03c-0.003-0.008-0.003-0.015,0.003-0.021c-0.001-0.013,0.004-0.018,0.01-0.018
		c0.007-0.003,0.016-0.006,0.028-0.011c0.006-0.013,0.009-0.03,0.012-0.048c0.004-0.018,0.01-0.037,0.021-0.058
		c0.006-0.007,0.015-0.012,0.025-0.017s0.02-0.014,0.025-0.025l0.129-0.267c0.024-0.046,0.048-0.093,0.069-0.14
		c0.02-0.047,0.037-0.093,0.048-0.14c0.02-0.053,0.045-0.097,0.075-0.138c0.033-0.038,0.055-0.078,0.068-0.116
		c0.01-0.02,0.016-0.044,0.015-0.067c-0.002-0.024,0.001-0.051,0.004-0.076c0.006-0.026,0.011-0.049,0.013-0.068
		c0.001-0.02-0.005-0.045-0.02-0.075c-0.03-0.051-0.078-0.089-0.143-0.118c-0.062-0.03-0.122-0.06-0.18-0.087
		c-0.105-0.068-0.213-0.135-0.317-0.199c-0.108-0.064-0.219-0.117-0.339-0.159c-0.02-0.006-0.044-0.011-0.071-0.014
		c-0.026-0.005-0.051-0.006-0.072-0.005c-0.038,0.009-0.07,0.025-0.098,0.048c-0.024,0.023-0.047,0.048-0.065,0.077
		c-0.137,0.217-0.267,0.435-0.387,0.652c-0.121,0.221-0.245,0.432-0.37,0.635c-0.006,0.013-0.014,0.022-0.024,0.031
		c-0.01,0.009-0.019,0.017-0.024,0.023c-0.024,0.033-0.042,0.068-0.058,0.106c-0.016,0.037-0.031,0.073-0.049,0.106
		c-0.011,0.016-0.026,0.043-0.055,0.079c-0.026,0.038-0.056,0.071-0.087,0.102c-0.033,0.032-0.058,0.044-0.082,0.039
		c0-0.003-0.007-0.011-0.019-0.027s-0.026-0.036-0.042-0.055c-0.014-0.021-0.028-0.035-0.037-0.044
		c-0.021-0.033-0.04-0.069-0.057-0.107c-0.018-0.041-0.037-0.076-0.058-0.108c-0.014-0.012-0.027-0.022-0.039-0.03
		C45.93,8.09,45.92,8.079,45.913,8.066c-0.056-0.079-0.11-0.168-0.163-0.268c-0.053-0.099-0.106-0.191-0.163-0.275
		c-0.077-0.101-0.146-0.197-0.212-0.291c-0.067-0.095-0.131-0.195-0.194-0.301c-0.019-0.023-0.037-0.05-0.057-0.084
		c-0.021-0.036-0.042-0.067-0.065-0.097c-0.021-0.029-0.046-0.05-0.072-0.058c-0.028-0.005-0.067-0.003-0.117,0.002
		C44.822,6.702,44.783,6.71,44.753,6.719L44.753,6.719z"/>
	<path fill="#FFFFFF" d="M52.371,10.755c-0.015,0.008-0.036,0.013-0.066,0.017c-0.032,0.004-0.061,0.009-0.088,0.018
		c-0.013,0-0.023,0.003-0.03,0.01c-0.008,0.005-0.015,0.012-0.021,0.019c-0.02,0.001-0.041,0-0.064-0.001
		c-0.024-0.001-0.047,0-0.065,0.008c-0.052,0.009-0.101,0.026-0.146,0.048c-0.046,0.024-0.091,0.046-0.135,0.069
		c-0.063,0.029-0.128,0.057-0.189,0.083c-0.063,0.027-0.123,0.057-0.18,0.092l-0.276,0.195c-0.019,0.017-0.037,0.037-0.056,0.062
		c-0.019,0.025-0.037,0.045-0.056,0.062c-0.063,0.048-0.12,0.104-0.177,0.163c-0.053,0.061-0.102,0.124-0.145,0.191
		c-0.012,0.018-0.026,0.033-0.043,0.047c-0.017,0.012-0.031,0.028-0.043,0.048c-0.09,0.147-0.177,0.298-0.254,0.449
		c-0.079,0.15-0.144,0.3-0.196,0.445c-0.02,0.047-0.039,0.091-0.063,0.134c-0.023,0.042-0.041,0.086-0.054,0.133l0.002,0.052
		c-0.02,0.079-0.046,0.156-0.084,0.231c-0.037,0.076-0.062,0.153-0.075,0.231c-0.009,0.076-0.021,0.15-0.035,0.217
		c-0.014,0.067-0.03,0.136-0.046,0.206c-0.014,0.07-0.029,0.149-0.043,0.234l-0.017,0.183c-0.003,0.033-0.003,0.072-0.001,0.113
		c0.004,0.041,0.004,0.082-0.001,0.121l-0.036,0.054c-0.003,0.039,0.002,0.081,0.011,0.124c0.011,0.042,0.011,0.084,0.002,0.123
		c-0.005,0.041-0.009,0.094-0.015,0.157c-0.003,0.061-0.012,0.113-0.022,0.157c-0.005,0.028-0.004,0.048-0.001,0.059
		c0.003,0.009,0.005,0.027,0.007,0.059c0.013,0.047,0.018,0.092,0.011,0.138c-0.006,0.046-0.011,0.081-0.012,0.109
		c-0.014,0.074-0.014,0.161-0.002,0.259c0.013,0.099,0.022,0.193,0.029,0.286c0.002,0.087,0.002,0.181-0.002,0.278
		c-0.002,0.1,0.007,0.188,0.028,0.268c0.004,0.025,0.012,0.052,0.023,0.074c0.012,0.026,0.02,0.047,0.022,0.066
		c0.021,0.084,0.03,0.168,0.03,0.248c-0.001,0.08,0.005,0.153,0.02,0.219l0.041,0.05c0.009,0.045,0.013,0.09,0.013,0.134
		c0.003,0.045,0.007,0.086,0.013,0.125c0.016,0.049,0.031,0.103,0.048,0.165c0.016,0.06,0.029,0.119,0.043,0.18
		c0.014,0.06,0.027,0.111,0.038,0.156c0.021,0.063,0.034,0.118,0.039,0.17c0.007,0.05,0.017,0.109,0.03,0.178
		c0.016,0.052,0.033,0.101,0.055,0.146c0.02,0.047,0.042,0.091,0.063,0.136l0.092,0.281c0.021,0.045,0.046,0.089,0.072,0.136
		c0.025,0.044,0.05,0.093,0.071,0.144c0.039,0.076,0.089,0.154,0.146,0.229c0.058,0.077,0.111,0.146,0.162,0.211l0.03,0.09
		c0.042,0.05,0.086,0.103,0.134,0.154c0.046,0.052,0.094,0.102,0.142,0.145c0.052,0.05,0.104,0.093,0.151,0.129
		c0.048,0.037,0.101,0.067,0.158,0.09c0.014,0.006,0.025,0.019,0.034,0.033c0.01,0.015,0.021,0.029,0.035,0.042
		c0.042,0.023,0.087,0.048,0.134,0.066c0.048,0.022,0.093,0.039,0.132,0.05c0.04,0.014,0.08,0.031,0.12,0.051
		c0.04,0.022,0.079,0.035,0.119,0.042l0.052-0.003c0.033,0.008,0.066,0.019,0.1,0.035c0.033,0.016,0.066,0.026,0.099,0.033
		c0.033,0.003,0.067,0.002,0.104-0.005c0.036-0.006,0.07-0.008,0.104-0.005c0.057,0.01,0.131,0.013,0.227,0.013
		c0.095-0.003,0.19-0.01,0.285-0.019c0.093-0.009,0.164-0.019,0.216-0.03c0.034-0.006,0.071-0.008,0.11-0.005
		c0.041,0.002,0.078,0,0.11-0.006l0.229-0.089c0.038-0.018,0.076-0.039,0.112-0.063c0.033-0.025,0.064-0.042,0.09-0.052
		c0.075-0.025,0.136-0.062,0.187-0.106c0.048-0.046,0.1-0.095,0.153-0.145c0.063-0.042,0.125-0.098,0.187-0.166
		c0.025-0.026,0.052-0.054,0.079-0.082c0.026-0.027,0.051-0.054,0.069-0.081l0.119-0.228l0.074-0.068
		c0.036-0.061,0.065-0.127,0.093-0.195c0.024-0.069,0.048-0.137,0.07-0.203c0.019-0.053,0.044-0.106,0.074-0.162
		c0.032-0.054,0.053-0.111,0.065-0.17c0.005-0.033,0.01-0.062,0.018-0.086c0.005-0.026,0.015-0.055,0.026-0.086
		c0.019-0.06,0.037-0.118,0.061-0.179c0.023-0.06,0.039-0.119,0.052-0.178l0.119-0.748c0.005-0.039,0.005-0.078,0.001-0.117
		c-0.002-0.039-0.002-0.078,0.001-0.117l0.036-0.054c0.007-0.074,0.006-0.15-0.003-0.228c-0.008-0.08-0.008-0.156,0.006-0.229
		c0.002-0.013,0.008-0.026,0.021-0.042c0.012-0.014,0.02-0.031,0.027-0.052c0.003-0.032-0.001-0.071-0.01-0.111
		c-0.011-0.041-0.011-0.083-0.002-0.122c0-0.006,0.002-0.013,0.006-0.021c0.004-0.007,0.006-0.018,0.005-0.031
		c0.003-0.026,0.002-0.061-0.005-0.102s-0.009-0.086-0.007-0.132c0.008-0.014,0.014-0.035,0.021-0.063
		c0.006-0.028,0.006-0.062-0.002-0.094c-0.008-0.03-0.012-0.056-0.013-0.079c-0.001-0.022-0.001-0.053,0.004-0.09
		c0.014-0.088,0.013-0.189,0.001-0.306c-0.015-0.116-0.024-0.23-0.032-0.344l-0.017-0.324c-0.001-0.067-0.002-0.133,0.002-0.193
		c0.001-0.063-0.006-0.11-0.019-0.145c-0.002-0.006-0.009-0.013-0.021-0.021c-0.011-0.006-0.019-0.017-0.021-0.029
		c-0.013-0.036-0.02-0.084-0.018-0.143c0.001-0.059,0.002-0.117,0.004-0.178c0.003-0.063-0.002-0.115-0.01-0.16
		c-0.015-0.021-0.02-0.036-0.018-0.04c0.002-0.005,0.008-0.022,0.013-0.051c-0.001-0.021-0.004-0.041-0.008-0.063
		c-0.003-0.02-0.004-0.034,0.003-0.041c0.001-0.022,0.015-0.045,0.039-0.072c0.027-0.024,0.051-0.041,0.072-0.051
		c0.098-0.074,0.184-0.139,0.261-0.195c0.078-0.056,0.161-0.12,0.253-0.194c0.02-0.014,0.039-0.037,0.068-0.064
		c0.027-0.027,0.052-0.055,0.074-0.081c0.024-0.029,0.036-0.055,0.042-0.072c0.009-0.052,0.004-0.093-0.013-0.123
		c-0.017-0.031-0.033-0.059-0.049-0.082c-0.013-0.025-0.022-0.051-0.03-0.076c-0.006-0.026-0.016-0.052-0.029-0.077
		c-0.038-0.053-0.079-0.104-0.123-0.16c-0.047-0.057-0.084-0.107-0.114-0.153c-0.027-0.033-0.049-0.071-0.068-0.111
		c-0.02-0.043-0.038-0.076-0.06-0.104c-0.013-0.006-0.026-0.012-0.04-0.02c-0.013-0.006-0.026-0.017-0.04-0.028
		c-0.005-0.013-0.01-0.028-0.011-0.046c-0.001-0.017-0.009-0.031-0.02-0.044c-0.003-0.007-0.01-0.011-0.021-0.012
		c-0.011-0.002-0.018-0.006-0.02-0.013c-0.008-0.013-0.009-0.025-0.007-0.039c0.002-0.013,0.003-0.025,0.003-0.038
		c-0.01-0.018-0.028-0.04-0.059-0.073c-0.029-0.033-0.057-0.054-0.079-0.063c-0.026-0.012-0.057-0.017-0.092-0.016
		c-0.032,0.002-0.063,0.01-0.09,0.024c-0.019,0.007-0.038,0.023-0.059,0.044c-0.018,0.022-0.041,0.043-0.065,0.066
		c-0.009,0.007-0.021,0.012-0.039,0.015c-0.017,0.003-0.029,0.008-0.038,0.015c-0.029,0.021-0.055,0.042-0.073,0.059
		c-0.019,0.016-0.042,0.025-0.065,0.026c-0.026-0.005-0.049-0.023-0.068-0.055c-0.021-0.034-0.038-0.07-0.053-0.11
		c-0.013-0.038-0.025-0.072-0.035-0.101c-0.031-0.057-0.066-0.111-0.108-0.161c-0.041-0.05-0.078-0.096-0.115-0.14l-0.085-0.152
		l-0.15-0.136c-0.116-0.104-0.242-0.196-0.378-0.272c-0.136-0.073-0.286-0.131-0.45-0.168c-0.04-0.009-0.084-0.014-0.131-0.011
		c-0.046,0.002-0.089,0-0.13-0.003c-0.007-0.002-0.016-0.006-0.027-0.012c-0.011-0.008-0.021-0.012-0.026-0.012
		c-0.028-0.003-0.061-0.001-0.096,0.005c-0.036,0.006-0.064,0.008-0.086,0.004c-0.028-0.007-0.063-0.012-0.109-0.016
		c-0.046-0.002-0.092-0.004-0.139-0.002C52.442,10.745,52.403,10.749,52.371,10.755L52.371,10.755z M51.278,14.206
		c0.021-0.017,0.038-0.023,0.052-0.018c0.016,0.004,0.026,0.012,0.035,0.024c0.008,0.012,0.015,0.021,0.02,0.027
		c0.056,0.072,0.123,0.13,0.201,0.172c0.08,0.041,0.169,0.085,0.27,0.13c0.053,0.023,0.104,0.047,0.157,0.068
		c0.051,0.023,0.11,0.042,0.174,0.059c0.04,0.009,0.079,0.011,0.122,0.007c0.041-0.004,0.087-0.002,0.139,0.006
		c0.014,0,0.024,0.004,0.033,0.012c0.009,0.006,0.021,0.01,0.033,0.012c0.035,0.002,0.074,0,0.121-0.006
		c0.045-0.007,0.093-0.009,0.139-0.007c0.024,0.003,0.057,0.008,0.103,0.012c0.044,0.007,0.092,0.009,0.144,0.011
		c0.053-0.001,0.1-0.005,0.145-0.016c0.007-0.001,0.013-0.003,0.02-0.01c0.006-0.005,0.012-0.012,0.019-0.019
		c0.039-0.006,0.077-0.008,0.114-0.006c0.035,0.003,0.067,0.001,0.094-0.004c0.033-0.011,0.068-0.021,0.106-0.034
		c0.039-0.011,0.071-0.012,0.1-0.003c0.047,0.026,0.071,0.086,0.078,0.173c0.004,0.088,0.005,0.186,0.001,0.295
		c-0.003,0.108,0.004,0.208,0.023,0.296c0.01,0.022,0.021,0.058,0.029,0.104s0.016,0.097,0.021,0.146
		c0.002,0.05,0.002,0.091-0.005,0.124c0.001,0.026,0.002,0.052,0.002,0.08c-0.003,0.03-0.008,0.063-0.02,0.104
		c0,0.032-0.006,0.061-0.016,0.087c-0.009,0.026-0.015,0.051-0.016,0.07c-0.008,0.057-0.009,0.115-0.002,0.174
		c0.008,0.058,0.015,0.114,0.021,0.173c0.01,0.058,0.01,0.116,0.006,0.173c-0.007,0.072-0.012,0.142-0.016,0.207
		c-0.001,0.067-0.006,0.133-0.016,0.198c-0.006,0.018-0.012,0.031-0.016,0.037c-0.006,0.007-0.008,0.018-0.008,0.029
		c-0.006,0.013-0.005,0.028-0.002,0.046c0.003,0.017,0.006,0.031,0.007,0.045c-0.015,0.094-0.029,0.192-0.047,0.293
		c-0.014,0.103-0.033,0.196-0.055,0.284c-0.016,0.081-0.04,0.169-0.067,0.262c-0.03,0.095-0.059,0.179-0.09,0.254
		c-0.005,0.026-0.01,0.055-0.018,0.083c-0.005,0.028-0.015,0.055-0.026,0.075c-0.007,0.007-0.015,0.014-0.025,0.022
		c-0.011,0.008-0.019,0.019-0.024,0.032c-0.015,0.04-0.03,0.082-0.041,0.123c-0.012,0.042-0.029,0.082-0.051,0.115
		c-0.024,0.034-0.053,0.07-0.086,0.104c-0.031,0.036-0.061,0.063-0.087,0.087c-0.013,0.007-0.028,0.012-0.045,0.017
		c-0.017,0.006-0.032,0.013-0.044,0.026c-0.025,0.017-0.051,0.033-0.076,0.054c-0.024,0.021-0.05,0.035-0.075,0.045
		c-0.032,0.011-0.068,0.019-0.112,0.023c-0.045,0.004-0.088,0.006-0.13,0.006c-0.041,0-0.071-0.005-0.096-0.013
		c-0.018-0.006-0.033-0.018-0.047-0.032c-0.012-0.015-0.027-0.029-0.048-0.041c-0.029-0.019-0.063-0.034-0.103-0.047
		c-0.039-0.014-0.074-0.029-0.11-0.047c-0.047-0.032-0.091-0.078-0.133-0.135c-0.042-0.059-0.081-0.112-0.116-0.165
		c-0.083-0.113-0.159-0.233-0.224-0.362c-0.067-0.127-0.126-0.265-0.179-0.412c-0.014-0.045-0.023-0.083-0.032-0.12
		c-0.006-0.034-0.017-0.066-0.031-0.098c-0.016-0.054-0.031-0.115-0.046-0.187c-0.017-0.071-0.028-0.133-0.037-0.188l-0.042-0.063
		c-0.007-0.046-0.014-0.093-0.016-0.143c-0.003-0.05-0.012-0.097-0.024-0.142c-0.008-0.028-0.017-0.064-0.027-0.112
		c-0.009-0.045-0.021-0.085-0.036-0.119c-0.007-0.039-0.007-0.084-0.003-0.135c0.007-0.048,0.002-0.1-0.012-0.151
		c0-0.006-0.002-0.013-0.007-0.019c-0.005-0.007-0.008-0.013-0.008-0.02c-0.013-0.045-0.018-0.09-0.011-0.134
		c0.004-0.046,0.004-0.087-0.002-0.126c-0.016-0.04-0.023-0.09-0.027-0.15c-0.002-0.059,0.001-0.112,0.012-0.161
		c0.002-0.048-0.002-0.096-0.012-0.146c-0.011-0.052-0.011-0.098-0.002-0.139c0.001-0.029,0.005-0.066,0.014-0.114
		c0.009-0.046,0.013-0.087,0.014-0.122c0.005-0.02,0.003-0.034-0.005-0.045c-0.009-0.013-0.016-0.027-0.025-0.044
		c0.002-0.007,0.006-0.014,0.012-0.022c0.009-0.007,0.012-0.019,0.012-0.031c0.005-0.035,0.003-0.067-0.001-0.103
		c-0.004-0.031-0.007-0.06-0.009-0.079c0.012-0.042,0.02-0.09,0.023-0.148c0.006-0.058,0.01-0.111,0.014-0.166
		c0.01-0.065,0.022-0.129,0.033-0.194C51.267,14.354,51.276,14.282,51.278,14.206L51.278,14.206z M52.295,12.373
		c0.015-0.008,0.036-0.016,0.063-0.021c0.028-0.008,0.05-0.012,0.065-0.013c0.045-0.008,0.09-0.009,0.134-0.004
		c0.041,0.007,0.081,0.012,0.114,0.019c0.019-0.001,0.036-0.004,0.049-0.007c0.016-0.003,0.028-0.004,0.042,0.002
		c0.017,0.002,0.03,0.01,0.04,0.026c0.009,0.015,0.022,0.027,0.041,0.034c0.02,0.013,0.042,0.022,0.068,0.029
		c0.024,0.008,0.051,0.018,0.077,0.029c0.069,0.044,0.136,0.102,0.199,0.175c0.063,0.075,0.108,0.152,0.134,0.238
		c0.009,0.041,0.008,0.075-0.004,0.108c-0.009,0.033-0.027,0.054-0.053,0.063c-0.02,0.006-0.041,0.007-0.067,0.003
		c-0.023-0.003-0.05-0.001-0.075,0.004c-0.045,0.016-0.09,0.028-0.135,0.039c-0.046,0.009-0.091,0.009-0.137,0.001
		c-0.02,0.001-0.042-0.001-0.068-0.006c-0.025-0.003-0.057-0.008-0.089-0.013c-0.033-0.007-0.073-0.022-0.115-0.049
		c-0.043-0.023-0.085-0.043-0.125-0.057c-0.06-0.027-0.113-0.055-0.162-0.083c-0.051-0.027-0.099-0.068-0.147-0.123
		c-0.029-0.033-0.055-0.071-0.072-0.115c-0.02-0.045-0.011-0.087,0.021-0.129c0.008-0.014,0.022-0.027,0.048-0.042
		c0.023-0.015,0.045-0.028,0.065-0.042c0.013-0.01,0.027-0.023,0.044-0.039C52.268,12.385,52.282,12.376,52.295,12.373
		L52.295,12.373z"/>
	<path fill="#FFFFFF" d="M60.16,10.346c-0.042,0.021-0.07,0.058-0.09,0.11c-0.019,0.053-0.031,0.112-0.039,0.18
		c-0.006,0.065-0.011,0.126-0.017,0.186c-0.007,0.039-0.018,0.079-0.033,0.118c-0.016,0.04-0.026,0.08-0.033,0.119
		c-0.011,0.085-0.024,0.164-0.04,0.238c-0.019,0.077-0.032,0.149-0.041,0.221l-0.015,0.235c-0.007,0.046-0.018,0.09-0.033,0.132
		c-0.015,0.042-0.025,0.086-0.032,0.132c-0.003,0.02-0.002,0.041,0.003,0.064c0.006,0.024,0.007,0.046,0.003,0.065l-0.042,0.185
		c-0.011,0.053-0.017,0.104-0.019,0.156c-0.004,0.053-0.01,0.105-0.019,0.157c-0.001,0.014-0.005,0.024-0.011,0.033
		c-0.009,0.01-0.013,0.021-0.012,0.033c-0.01,0.065-0.016,0.134-0.016,0.205c-0.003,0.069-0.009,0.142-0.016,0.213
		c-0.011,0.092-0.026,0.184-0.048,0.275c-0.021,0.093-0.038,0.185-0.056,0.276c-0.002,0.046-0.004,0.094-0.001,0.144
		c0.002,0.05-0.002,0.098-0.011,0.144c-0.001,0.026-0.006,0.053-0.016,0.079s-0.015,0.053-0.016,0.079
		c-0.009,0.046-0.013,0.094-0.011,0.141c0.003,0.048,0.001,0.094-0.002,0.133c-0.011,0.044-0.023,0.086-0.039,0.126
		c-0.016,0.037-0.028,0.079-0.039,0.125c-0.008,0.079-0.011,0.15-0.009,0.22c0.001,0.069-0.002,0.139-0.01,0.211
		c-0.012,0.063-0.028,0.125-0.047,0.185c-0.021,0.058-0.033,0.119-0.039,0.185c-0.006,0.013-0.005,0.028-0.002,0.048
		c0.003,0.017,0.007,0.036,0.008,0.056l-0.047,0.119l-0.018,0.158c-0.012,0.039-0.024,0.078-0.038,0.118
		c-0.013,0.04-0.024,0.079-0.028,0.118l-0.018,0.184l-0.042,0.197c-0.022,0.068-0.045,0.144-0.067,0.227
		c-0.021,0.082-0.044,0.16-0.066,0.235l-0.091,0.278l-0.086,0.095c0.005-0.002-0.001-0.019-0.013-0.049
		c-0.013-0.03-0.027-0.063-0.044-0.102c-0.016-0.039-0.028-0.068-0.033-0.092c-0.001-0.014,0.001-0.028,0.002-0.046
		s0.001-0.032-0.007-0.045c-0.011-0.059-0.026-0.109-0.047-0.158c-0.02-0.047-0.034-0.092-0.046-0.137
		c-0.015-0.047-0.028-0.099-0.037-0.152c-0.012-0.056-0.021-0.103-0.029-0.144c-0.007-0.048-0.009-0.093-0.007-0.142
		c0.002-0.045,0-0.086-0.006-0.118c-0.003-0.014-0.01-0.032-0.024-0.056c-0.014-0.021-0.023-0.047-0.034-0.072
		c-0.001-0.019,0.001-0.041,0.001-0.064c0.002-0.024,0-0.046-0.007-0.065c-0.003-0.013-0.008-0.023-0.015-0.029
		c-0.009-0.009-0.014-0.015-0.014-0.021c0.005-0.025,0.013-0.048,0.018-0.065c0.008-0.021,0.007-0.042,0.002-0.065
		c-0.004-0.02-0.011-0.038-0.024-0.06c-0.015-0.019-0.024-0.042-0.034-0.068c-0.006-0.025-0.007-0.054-0.004-0.086
		c0.002-0.03,0.001-0.063-0.005-0.096c-0.003-0.013-0.008-0.021-0.015-0.024c-0.009-0.006-0.014-0.015-0.015-0.025
		c-0.005-0.028-0.007-0.061-0.004-0.1c0.002-0.039,0-0.074-0.006-0.108c-0.008-0.021-0.013-0.036-0.013-0.041
		c0-0.004,0.003-0.021,0.008-0.05c0.005-0.04,0.003-0.074-0.007-0.106c-0.01-0.029-0.022-0.057-0.035-0.082
		c-0.014-0.023-0.021-0.047-0.022-0.068c0.001-0.02,0.009-0.046,0.018-0.077c0.012-0.033,0.012-0.067,0-0.106
		c-0.022-0.099-0.039-0.204-0.049-0.32c-0.01-0.115-0.026-0.227-0.049-0.339c-0.014-0.045-0.018-0.092-0.012-0.143
		c0.004-0.05,0.004-0.098-0.003-0.143c-0.007-0.007-0.016-0.015-0.024-0.025c-0.01-0.01-0.017-0.019-0.017-0.025
		c-0.016-0.079-0.02-0.163-0.013-0.25c0.004-0.09,0-0.17-0.012-0.243c-0.003-0.013-0.008-0.025-0.015-0.038
		c-0.01-0.013-0.015-0.025-0.016-0.038c0.001-0.028,0.01-0.062,0.028-0.1c0.018-0.037,0.026-0.07,0.027-0.099
		c-0.01-0.019-0.021-0.04-0.036-0.065c-0.016-0.022-0.028-0.049-0.036-0.074c-0.008-0.04-0.011-0.086-0.011-0.141
		c-0.001-0.052-0.001-0.105-0.004-0.158c-0.002-0.052-0.007-0.105-0.012-0.159s-0.008-0.106-0.004-0.152
		c0.006-0.023,0.007-0.041,0.007-0.054c-0.001-0.012-0.004-0.033-0.012-0.063c-0.007-0.044-0.01-0.091-0.008-0.147
		c0.002-0.055,0-0.098-0.006-0.125c-0.003-0.007-0.007-0.014-0.014-0.02c-0.01-0.006-0.014-0.013-0.015-0.019
		c0.002-0.014,0.008-0.026,0.016-0.044c0.01-0.019,0.011-0.042,0.005-0.074c-0.003-0.02-0.011-0.041-0.022-0.064
		c-0.012-0.022-0.02-0.044-0.023-0.063c-0.002-0.054-0.005-0.108-0.006-0.167c-0.002-0.059-0.001-0.11,0.003-0.158
		c0.006-0.033,0.013-0.066,0.017-0.099c0.008-0.033,0.006-0.065,0-0.098c-0.009-0.041-0.027-0.074-0.055-0.105
		c-0.028-0.031-0.063-0.049-0.109-0.056c-0.044-0.011-0.076-0.014-0.1-0.01c-0.022,0.003-0.046,0.011-0.069,0.018
		c-0.023,0.006-0.054,0.01-0.095,0.014s-0.082,0.006-0.125,0.007c-0.042-0.001-0.076-0.001-0.104-0.004l-0.054-0.036
		c-0.055-0.002-0.112,0.003-0.175,0.017c-0.061,0.017-0.105,0.027-0.135,0.037c-0.071,0.015-0.145,0.022-0.216,0.024
		c-0.074,0.001-0.139,0.009-0.199,0.022c-0.078,0.025-0.124,0.077-0.131,0.151c-0.007,0.077-0.001,0.156,0.021,0.244
		c0.008,0.028,0.014,0.063,0.016,0.104s0,0.076-0.005,0.104l-0.027,0.235c-0.01,0.035-0.008,0.078,0.004,0.126
		c0.011,0.049,0.017,0.084,0.021,0.107c0.012,0.032,0.018,0.064,0.016,0.095c-0.005,0.032-0.006,0.062-0.007,0.087
		c0.021,0.061,0.032,0.133,0.041,0.218c0.006,0.084,0.011,0.17,0.013,0.264c0.003,0.093,0.005,0.182,0.009,0.271l0.018,0.351
		c0.003,0.064,0.005,0.13,0.005,0.19c0.001,0.063,0.004,0.121,0.013,0.173c0.011,0.041,0.018,0.091,0.021,0.153
		c0.002,0.061,0.006,0.121,0.008,0.182c0.004,0.061,0.01,0.108,0.021,0.145c0.007,0.006,0.014,0.013,0.019,0.019
		c0.007,0.006,0.01,0.013,0.01,0.019c0.006,0.046,0.009,0.091,0.007,0.135c-0.003,0.046-0.001,0.087,0.006,0.126l0.042,0.063
		c0.016,0.081,0.023,0.168,0.025,0.257c0,0.087,0.001,0.176,0.003,0.265c0,0.089,0.009,0.175,0.023,0.257
		c0.007,0.006,0.014,0.013,0.018,0.019c0.007,0.006,0.01,0.013,0.01,0.019c0.013,0.039,0.018,0.078,0.011,0.119
		c-0.005,0.039-0.005,0.083,0.002,0.128c0.007,0.006,0.014,0.013,0.018,0.019c0.007,0.007,0.01,0.013,0.01,0.02
		c0.014,0.051,0.017,0.104,0.008,0.155c-0.006,0.053-0.004,0.104,0.008,0.156c0.008,0.013,0.014,0.023,0.019,0.029
		c0.007,0.009,0.01,0.015,0.01,0.021c0.007,0.039,0.009,0.082,0.007,0.13c-0.002,0.046,0,0.089,0.006,0.13
		c0.011,0.032,0.021,0.062,0.035,0.089c0.015,0.028,0.022,0.058,0.026,0.09c0.016,0.064,0.029,0.125,0.039,0.183
		c0.012,0.059,0.021,0.114,0.029,0.166c0.009,0.032,0.017,0.06,0.021,0.086c0.009,0.025,0.012,0.049,0.013,0.068
		c0.013,0.045,0.021,0.092,0.024,0.142c0.002,0.05,0.009,0.098,0.016,0.143c0.011,0.038,0.021,0.07,0.035,0.099
		c0.015,0.029,0.022,0.055,0.025,0.081c0.014,0.045,0.022,0.092,0.024,0.142c0.003,0.05,0.01,0.098,0.016,0.143
		c0.008,0.013,0.015,0.023,0.02,0.029c0.007,0.008,0.009,0.015,0.01,0.021c0.007,0.019,0.008,0.041,0.007,0.064
		c-0.001,0.024-0.002,0.046-0.001,0.065c0.011,0.038,0.025,0.076,0.045,0.112c0.019,0.038,0.034,0.072,0.044,0.104l0.004,0.078
		c0.011,0.034,0.025,0.074,0.045,0.123c0.02,0.047,0.035,0.092,0.046,0.133l0.005,0.091c0.025,0.09,0.059,0.182,0.1,0.276
		c0.04,0.097,0.077,0.196,0.11,0.299l0.033,0.154c0.011,0.039,0.026,0.077,0.05,0.117c0.021,0.038,0.045,0.08,0.067,0.124
		c0.015,0.045,0.027,0.092,0.041,0.142c0.014,0.049,0.028,0.097,0.051,0.141c0.007,0.02,0.021,0.038,0.037,0.059
		c0.017,0.019,0.032,0.042,0.047,0.067c0.015,0.032,0.026,0.062,0.039,0.092c0.013,0.029,0.026,0.061,0.048,0.1l0.086,0.151
		c0.007,0.011,0.017,0.019,0.025,0.025c0.009,0.004,0.016,0.012,0.017,0.025c0.019,0.035,0.037,0.061,0.055,0.072
		c0.019,0.013,0.041,0.021,0.067,0.023c0.025,0.001,0.061,0.003,0.104,0.01c0.029,0.005,0.053,0.006,0.067,0.005
		c0.018-0.001,0.046-0.004,0.089-0.013c0.045-0.011,0.097-0.02,0.159-0.025c0.063-0.005,0.123-0.008,0.187-0.009
		c0.063-0.001,0.115,0.003,0.161,0.009c0.017,0,0.03,0.003,0.037,0.012c0.007,0.006,0.018,0.01,0.028,0.012
		c0.018-0.003,0.03-0.008,0.039-0.016c0.008-0.009,0.021-0.014,0.038-0.015c0.06-0.014,0.12-0.017,0.186-0.009
		c0.065,0.005,0.124,0.003,0.178-0.009c0.043-0.013,0.083-0.039,0.12-0.08c0.037-0.04,0.069-0.088,0.097-0.139
		c0.028-0.052,0.05-0.101,0.064-0.146c0.046-0.094,0.085-0.18,0.117-0.264c0.033-0.084,0.072-0.169,0.118-0.256
		c0.018-0.035,0.035-0.08,0.05-0.135c0.017-0.053,0.029-0.101,0.04-0.143c0.018-0.049,0.032-0.102,0.044-0.16
		c0.013-0.06,0.027-0.114,0.044-0.17c0.008-0.026,0.02-0.051,0.036-0.071c0.016-0.022,0.027-0.042,0.035-0.063
		c0.026-0.083,0.049-0.163,0.063-0.237c0.016-0.074,0.029-0.153,0.045-0.236c0.018-0.079,0.044-0.16,0.079-0.245
		c0.034-0.083,0.061-0.165,0.079-0.244l0.043-0.172c-0.001-0.017-0.004-0.04-0.008-0.075c-0.004-0.034-0.005-0.056,0.001-0.067
		c0.006-0.011,0.015-0.016,0.025-0.014c0.011,0.001,0.02-0.004,0.025-0.015c0.004-0.014,0.003-0.032-0.003-0.054
		c-0.005-0.021-0.006-0.044-0.003-0.063c-0.002-0.032,0.003-0.064,0.011-0.1c0.009-0.033,0.021-0.071,0.031-0.11
		c0.013-0.055,0.024-0.107,0.042-0.163c0.017-0.053,0.027-0.101,0.034-0.14c0.005-0.031,0.01-0.055,0.016-0.07
		c0.006-0.014,0.012-0.031,0.018-0.049c-0.001-0.013-0.004-0.028-0.007-0.048c-0.003-0.017-0.004-0.036,0.001-0.056
		c0.012-0.079,0.027-0.158,0.048-0.239c0.02-0.079,0.035-0.162,0.046-0.247c0.006-0.02,0.005-0.039,0.002-0.057
		c-0.004-0.02-0.007-0.035-0.007-0.048c0.018-0.085,0.035-0.169,0.057-0.25c0.022-0.081,0.037-0.164,0.049-0.249
		c0.005-0.026,0.004-0.053,0-0.079c-0.003-0.025-0.007-0.052-0.008-0.077c0.007-0.039,0.018-0.077,0.033-0.112
		c0.016-0.036,0.027-0.073,0.034-0.112c0.008-0.06,0.012-0.115,0.009-0.168c-0.003-0.052-0.001-0.1,0.002-0.146
		c0.011-0.046,0.023-0.09,0.036-0.132c0.014-0.042,0.024-0.086,0.028-0.131c0.003-0.033,0.001-0.065-0.005-0.096
		c-0.006-0.032-0.007-0.061-0.004-0.086c-0.001-0.014,0.003-0.024,0.012-0.033c0.006-0.009,0.01-0.021,0.011-0.033
		c0.006-0.014,0.006-0.028,0.002-0.046c-0.003-0.017-0.005-0.032-0.006-0.046c0.007-0.032,0.019-0.065,0.034-0.101
		c0.016-0.033,0.026-0.071,0.033-0.11c0.003-0.02,0.002-0.041-0.003-0.065c-0.006-0.023-0.007-0.045-0.004-0.064
		c0.007-0.007,0.013-0.014,0.017-0.022c0.006-0.007,0.008-0.018,0.007-0.03l0.014-0.262c0-0.006,0.004-0.013,0.012-0.022
		c0.006-0.007,0.01-0.018,0.012-0.03c0.014-0.072,0.021-0.146,0.02-0.223c0-0.076,0.003-0.149,0.011-0.222
		c-0.001-0.006,0.004-0.013,0.012-0.02c0.006-0.007,0.01-0.014,0.012-0.021c0.009-0.051,0.013-0.096,0.011-0.135
		s0.001-0.083,0.003-0.126c0.005-0.026,0.013-0.053,0.022-0.082c0.009-0.026,0.017-0.057,0.021-0.09
		c0.006-0.013,0.006-0.028,0.003-0.046c-0.003-0.017-0.006-0.031-0.007-0.045c0.006-0.02,0.013-0.039,0.023-0.062
		c0.009-0.021,0.017-0.044,0.021-0.07c0.004-0.026,0.002-0.053-0.003-0.078c-0.006-0.026-0.007-0.052-0.004-0.078l0.045-0.146
		c-0.001-0.02-0.005-0.041-0.008-0.064s-0.005-0.046,0.001-0.065c0.007-0.039,0.019-0.077,0.034-0.109
		c0.016-0.036,0.026-0.069,0.033-0.102c0.009-0.06,0.014-0.116,0.019-0.169c0.001-0.052,0.008-0.1,0.019-0.146
		c-0.001-0.02-0.004-0.037-0.007-0.052c-0.003-0.016-0.004-0.032,0.002-0.053c0.011-0.072,0.027-0.145,0.047-0.219
		c0.021-0.073,0.024-0.138,0.013-0.193c-0.012-0.054-0.059-0.089-0.138-0.104c-0.013-0.006-0.028-0.005-0.045-0.002
		c-0.018,0.003-0.033,0.006-0.046,0.007c-0.05-0.013-0.101-0.03-0.147-0.05c-0.047-0.021-0.1-0.033-0.156-0.039
		c-0.02-0.006-0.039-0.005-0.057-0.002c-0.02,0.003-0.034,0.006-0.047,0.007l-0.133-0.046l-0.077,0.004
		c-0.058-0.008-0.119-0.024-0.185-0.047c-0.067-0.023-0.135-0.039-0.207-0.051S60.237,10.317,60.16,10.346L60.16,10.346z"/>
	<path fill="#FFFFFF" d="M64.728,10.055c-0.058,0.019-0.102,0.053-0.134,0.106c-0.034,0.054-0.057,0.116-0.072,0.19l-0.018,0.17
		c-0.013,0.06-0.031,0.116-0.057,0.174c-0.026,0.059-0.045,0.117-0.057,0.184l-0.017,0.183c-0.011,0.046-0.026,0.095-0.045,0.147
		c-0.018,0.051-0.032,0.104-0.045,0.156l0.005,0.091c-0.013,0.055-0.029,0.11-0.048,0.17c-0.021,0.06-0.034,0.112-0.04,0.16
		c-0.009,0.078-0.021,0.155-0.036,0.228c-0.014,0.074-0.03,0.146-0.046,0.219l-0.044,0.158c-0.01,0.079-0.019,0.157-0.03,0.236
		c-0.009,0.078-0.022,0.157-0.038,0.236l-0.036,0.054c-0.016,0.078-0.029,0.159-0.038,0.242c-0.011,0.083-0.021,0.164-0.029,0.242
		c-0.022,0.112-0.05,0.225-0.079,0.336c-0.031,0.112-0.054,0.225-0.07,0.336c-0.009,0.082-0.022,0.154-0.041,0.219
		c-0.017,0.063-0.03,0.132-0.042,0.201c-0.008,0.057-0.015,0.109-0.019,0.153c-0.002,0.045-0.009,0.089-0.02,0.135l-0.149,0.659
		c-0.017,0.055-0.027,0.113-0.034,0.179c-0.008,0.065-0.016,0.127-0.026,0.188c-0.024,0.079-0.048,0.167-0.073,0.26
		c-0.028,0.095-0.046,0.187-0.056,0.28c-0.004,0.05-0.009,0.098-0.015,0.144c-0.005,0.044-0.013,0.092-0.023,0.145l-0.065,0.264
		l-0.045,0.146l-0.081,0.459c-0.008,0.033-0.019,0.068-0.034,0.108c-0.016,0.037-0.026,0.077-0.033,0.116l-0.016,0.209
		c-0.005,0.026-0.013,0.051-0.022,0.071c-0.01,0.021-0.018,0.042-0.023,0.062c0.001,0.013,0.004,0.027,0.007,0.047
		c0.004,0.018,0.004,0.037-0.001,0.057c-0.005,0.039-0.016,0.081-0.029,0.125c-0.013,0.044-0.025,0.086-0.037,0.126
		c-0.004,0.052-0.01,0.096-0.02,0.133c-0.009,0.037-0.016,0.07-0.021,0.104c0.001,0.02,0.004,0.038,0.007,0.058
		c0.004,0.02,0.004,0.039-0.001,0.059c-0.012,0.063-0.024,0.123-0.041,0.178c-0.018,0.056-0.027,0.114-0.033,0.178
		c-0.005,0.02-0.004,0.042-0.001,0.065c0.004,0.023,0.007,0.045,0.008,0.064c-0.005,0.026-0.015,0.053-0.028,0.079
		c-0.012,0.027-0.021,0.054-0.029,0.08c-0.003,0.032-0.001,0.066,0.006,0.104c0.006,0.037,0.008,0.071,0.005,0.104
		c-0.005,0.04-0.012,0.081-0.018,0.125c-0.007,0.044-0.011,0.085-0.01,0.124c0.006,0.071,0.034,0.12,0.086,0.144
		c0.053,0.023,0.116,0.035,0.192,0.038c0.074,0.003,0.15,0.008,0.227,0.015c0.041,0.002,0.085,0.005,0.13,0.002
		c0.048-0.002,0.091,0.003,0.131,0.012c0.007-0.001,0.014,0.003,0.021,0.012c0.007,0.006,0.014,0.01,0.02,0.012
		c0.016,0.006,0.033,0.005,0.053,0.002c0.021-0.003,0.038-0.006,0.052-0.007c0.05,0.009,0.115,0.019,0.196,0.029
		c0.081,0.014,0.157,0.021,0.231,0.023s0.127-0.009,0.158-0.029c0.013-0.012,0.029-0.041,0.044-0.087
		c0.016-0.044,0.03-0.091,0.041-0.137c0.011-0.048,0.018-0.079,0.018-0.094l0.038-0.263l0.06-0.394
		c0.006-0.013,0.005-0.028,0.002-0.048c-0.003-0.017-0.006-0.036-0.008-0.056c0.007-0.046,0.021-0.088,0.038-0.128
		c0.02-0.038,0.028-0.07,0.029-0.097c0.011-0.057,0.017-0.109,0.019-0.159c0.004-0.048,0.01-0.104,0.018-0.168l0.066-0.225
		c0.006-0.013,0.006-0.023,0.003-0.032c-0.002-0.009-0.005-0.02-0.006-0.033c0.007-0.045,0.021-0.092,0.041-0.138
		c0.021-0.047,0.046-0.087,0.072-0.121c0.026-0.036,0.054-0.057,0.079-0.063c0.02-0.008,0.041-0.007,0.067-0.001
		c0.024,0.007,0.051,0.013,0.077,0.02c0.039-0.002,0.077-0.006,0.114-0.01c0.034-0.004,0.067-0.005,0.093,0
		c0.007-0.001,0.016,0.001,0.026,0.005c0.012,0.004,0.021,0.006,0.026,0.005c0.035,0.01,0.07,0.013,0.109,0.004
		c0.038-0.006,0.07-0.01,0.099-0.014c0.007,0.006,0.014,0.013,0.022,0.017c0.007,0.006,0.018,0.008,0.03,0.007
		c0.055,0.008,0.114,0.008,0.174-0.004c0.063-0.01,0.116-0.015,0.164-0.013c0.007,0.006,0.014,0.013,0.021,0.017
		c0.007,0.006,0.014,0.008,0.02,0.008c0.065,0.007,0.131,0.009,0.193,0.003c0.061-0.005,0.12-0.004,0.172,0.005l0.054,0.036
		c0.013,0,0.028-0.004,0.046-0.006c0.017-0.004,0.032-0.005,0.045,0.002c0.081,0.016,0.144,0.047,0.186,0.099
		c0.044,0.053,0.077,0.116,0.104,0.188c0.025,0.074,0.056,0.149,0.087,0.228c0.015,0.038,0.03,0.07,0.044,0.098
		c0.015,0.025,0.028,0.049,0.042,0.067c0.043,0.108,0.078,0.216,0.107,0.317c0.028,0.105,0.064,0.208,0.106,0.31
		c0.018,0.054,0.04,0.106,0.068,0.164c0.029,0.057,0.053,0.107,0.077,0.154c0.008,0.02,0.013,0.041,0.014,0.063
		c0.004,0.021,0.005,0.041,0.005,0.054c0.03,0.042,0.068,0.066,0.114,0.07c0.048,0.004,0.098,0,0.149-0.019
		c0.025-0.001,0.054,0,0.084,0.001c0.03,0,0.059-0.001,0.084-0.009c0.013-0.009,0.027-0.021,0.046-0.034
		c0.017-0.017,0.036-0.028,0.055-0.036c0.026-0.006,0.052-0.007,0.076-0.004c0.026,0.003,0.048,0.002,0.067-0.003
		c0.013-0.003,0.025-0.01,0.038-0.023c0.012-0.014,0.024-0.023,0.037-0.032c0.027-0.006,0.054-0.007,0.082-0.004
		c0.026,0.003,0.048,0.002,0.061-0.003c0.013-0.003,0.023-0.01,0.031-0.023s0.019-0.022,0.031-0.032
		c0.025-0.006,0.052-0.007,0.078-0.004s0.052,0.002,0.078-0.004c0.006-0.007,0.012-0.016,0.02-0.026
		c0.006-0.012,0.017-0.021,0.029-0.027c0.032-0.007,0.066-0.008,0.102-0.006c0.035,0.003,0.067,0.002,0.093-0.004
		c0.034-0.011,0.068-0.027,0.102-0.053c0.033-0.028,0.055-0.051,0.062-0.072c0.009-0.046,0.002-0.096-0.018-0.147
		c-0.02-0.051-0.037-0.096-0.048-0.136l-0.004-0.078c-0.019-0.063-0.043-0.119-0.071-0.172c-0.031-0.051-0.051-0.108-0.063-0.171
		l-0.045-0.128l-0.033-0.154c-0.019-0.071-0.044-0.137-0.075-0.196c-0.031-0.062-0.056-0.123-0.074-0.188
		c-0.001-0.015,0.001-0.032,0.002-0.052s0-0.037-0.007-0.052c-0.003-0.013-0.01-0.023-0.021-0.031
		c-0.011-0.009-0.018-0.019-0.021-0.031c-0.021-0.052-0.033-0.104-0.039-0.157c-0.007-0.052-0.016-0.107-0.029-0.165
		c-0.008-0.02-0.019-0.038-0.035-0.057c-0.014-0.021-0.026-0.045-0.036-0.07c0-0.007,0.001-0.018,0.003-0.032
		c0.001-0.018,0.001-0.031-0.007-0.045c-0.003-0.011-0.01-0.026-0.021-0.039c-0.012-0.014-0.019-0.031-0.021-0.051
		c-0.016-0.047-0.031-0.103-0.047-0.165c-0.017-0.062-0.032-0.113-0.047-0.153c-0.038-0.11-0.07-0.225-0.1-0.343
		c-0.029-0.117-0.06-0.235-0.091-0.351c-0.011-0.039-0.025-0.077-0.045-0.115s-0.034-0.076-0.045-0.115l-0.004-0.09
		c-0.011-0.03-0.025-0.063-0.044-0.09c-0.019-0.029-0.033-0.063-0.044-0.102c-0.009-0.05-0.02-0.091-0.032-0.124
		c-0.013-0.035-0.022-0.068-0.031-0.105c-0.005-0.021-0.006-0.043-0.003-0.064c0.003-0.024,0.002-0.046-0.003-0.065
		c-0.012-0.047-0.029-0.101-0.057-0.162c-0.024-0.062-0.046-0.117-0.064-0.17c-0.001-0.014,0.001-0.028,0.002-0.046
		c0.002-0.018,0.001-0.032-0.006-0.045c-0.011-0.032-0.025-0.062-0.044-0.089s-0.033-0.058-0.044-0.089
		c0-0.02,0.001-0.039,0.002-0.057c0.001-0.02,0.001-0.035-0.007-0.048c-0.016-0.058-0.036-0.115-0.061-0.173
		c-0.021-0.057-0.042-0.115-0.061-0.173l-0.035-0.18l-0.096-0.371c-0.003-0.021-0.011-0.043-0.025-0.063
		c-0.014-0.023-0.023-0.045-0.033-0.063l-0.004-0.078c-0.008-0.039-0.022-0.075-0.04-0.108c-0.017-0.034-0.034-0.07-0.049-0.108
		c-0.001-0.013,0.001-0.026,0.003-0.039c0.001-0.013,0-0.026-0.007-0.039c-0.009-0.052-0.023-0.101-0.041-0.146
		c-0.018-0.047-0.035-0.091-0.051-0.136c-0.009-0.046-0.018-0.093-0.028-0.138c-0.009-0.048-0.021-0.086-0.036-0.12
		c-0.006-0.032-0.01-0.066-0.012-0.104c0.001-0.034-0.003-0.069-0.012-0.104c-0.01-0.029-0.026-0.06-0.05-0.089
		c-0.023-0.026-0.04-0.056-0.05-0.088c-0.006-0.03-0.012-0.064-0.014-0.098c-0.002-0.034-0.01-0.07-0.022-0.107
		c-0.003-0.025-0.011-0.049-0.023-0.07c-0.012-0.022-0.02-0.046-0.022-0.07c-0.015-0.064-0.026-0.129-0.035-0.191
		c-0.008-0.064-0.02-0.124-0.035-0.183l-0.121-0.345c-0.014-0.039-0.021-0.077-0.023-0.116s-0.008-0.078-0.015-0.117
		c-0.01-0.025-0.024-0.053-0.043-0.082c-0.019-0.031-0.033-0.062-0.044-0.096c-0.007-0.013-0.008-0.027-0.007-0.045
		c0.002-0.016,0.003-0.03,0.003-0.046c-0.018-0.04-0.045-0.071-0.085-0.093c-0.038-0.022-0.074-0.047-0.104-0.075
		c-0.032-0.029-0.043-0.072-0.035-0.131c0.007-0.04,0.008-0.074,0.006-0.103c-0.001-0.028-0.016-0.054-0.04-0.078
		c-0.048-0.028-0.103-0.043-0.163-0.046c-0.062-0.004-0.126-0.007-0.191-0.015l-0.12-0.047c-0.02-0.003-0.045-0.002-0.073,0.004
		s-0.057,0.007-0.082,0.004c-0.033-0.007-0.066-0.018-0.102-0.034c-0.034-0.015-0.071-0.026-0.11-0.033
		c-0.026-0.003-0.054-0.002-0.084,0.005c-0.03,0.005-0.059,0.007-0.085,0.004c-0.044-0.011-0.074-0.022-0.095-0.032
		C64.773,10.06,64.751,10.054,64.728,10.055L64.728,10.055z M65.22,14.749c0.013-0.118,0.036-0.234,0.067-0.351
		c0.031-0.114,0.066-0.22,0.107-0.322c0.045,0.044,0.071,0.09,0.083,0.142c0.011,0.052,0.022,0.116,0.037,0.191
		c0.011,0.032,0.025,0.062,0.044,0.089s0.033,0.057,0.043,0.089l0.005,0.091c0.002,0.006,0.007,0.013,0.014,0.021
		c0.009,0.006,0.014,0.017,0.015,0.029l0.036,0.207l0.099,0.424c0.019,0.063,0.039,0.122,0.062,0.178
		c0.024,0.055,0.044,0.11,0.06,0.166c0.008,0.015,0.009,0.031,0.007,0.054c-0.001,0.021-0.002,0.044-0.001,0.063
		c0.014,0.054,0.031,0.106,0.052,0.162c0.022,0.058,0.033,0.106,0.038,0.149c0.002,0.044-0.017,0.073-0.057,0.09
		c-0.028,0.01-0.063,0.014-0.104,0.014s-0.083-0.002-0.122-0.007c-0.039-0.002-0.067-0.005-0.087-0.005
		c-0.026-0.005-0.054-0.003-0.087,0.001c-0.03,0.003-0.063,0.007-0.095,0.009c-0.007-0.007-0.014-0.013-0.021-0.017
		s-0.014-0.008-0.02-0.008c-0.066-0.012-0.127-0.016-0.185-0.008c-0.059,0.007-0.115,0.008-0.168-0.001
		c-0.065-0.024-0.101-0.073-0.102-0.143c-0.001-0.066,0.012-0.139,0.037-0.214c0.024-0.075,0.041-0.133,0.052-0.177
		c-0.001-0.013-0.004-0.029-0.007-0.049s-0.004-0.033,0.003-0.04c0.006-0.055,0.019-0.104,0.039-0.157
		c0.02-0.052,0.036-0.1,0.05-0.146c-0.001-0.013-0.004-0.03-0.007-0.047c-0.003-0.018-0.004-0.037,0.001-0.057
		c0.006-0.059,0.025-0.114,0.053-0.165c0.028-0.054,0.049-0.109,0.062-0.166c-0.001-0.02-0.004-0.037-0.007-0.05
		C65.214,14.775,65.214,14.763,65.22,14.749L65.22,14.749z M71.75,9.67c-0.021,0.008-0.049,0.014-0.086,0.018
		c-0.038,0.004-0.073,0.01-0.107,0.018c-0.073,0.015-0.145,0.022-0.214,0.024c-0.069-0.001-0.139,0-0.208,0.001
		s-0.141,0.014-0.213,0.032c-0.032,0.011-0.058,0.029-0.075,0.054c-0.017,0.024-0.032,0.052-0.049,0.08
		c-0.018,0.027-0.043,0.05-0.074,0.071c-0.052,0.039-0.123,0.061-0.214,0.064c-0.089,0.003-0.182,0.003-0.278-0.003
		c-0.098-0.004-0.184,0-0.259,0.015c-0.014,0.001-0.024,0.003-0.032,0.01c-0.009,0.005-0.019,0.013-0.031,0.02
		c-0.1,0.02-0.203,0.029-0.308,0.025c-0.105-0.001-0.21-0.005-0.313-0.006c-0.102-0.004-0.199,0.005-0.289,0.025
		c-0.041,0.006-0.084,0.013-0.129,0.021c-0.048,0.009-0.091,0.021-0.129,0.036c-0.036,0.015-0.061,0.036-0.075,0.063
		c-0.033,0.066-0.045,0.142-0.034,0.219c0.011,0.08,0.024,0.157,0.044,0.236c0.021,0.099,0.027,0.2,0.025,0.305
		c-0.003,0.102-0.005,0.199-0.003,0.291c0.003,0.091,0.021,0.168,0.058,0.233c0.021,0.034,0.046,0.05,0.076,0.046
		c0.03-0.003,0.068-0.003,0.121-0.004c0.033,0.012,0.066,0.023,0.097,0.03c0.033,0.007,0.062,0.008,0.087,0l0.076-0.043
		c0.025-0.001,0.059,0,0.093,0c0.035,0.001,0.069-0.001,0.102-0.01c0.097-0.018,0.207-0.027,0.328-0.033
		c0.119-0.004,0.249-0.01,0.386-0.015l0.338-0.017c0.032-0.002,0.068-0.006,0.111-0.012c0.044-0.005,0.085-0.009,0.121-0.013
		c0.037-0.002,0.063,0.001,0.079,0.009c0.009,0.004,0.021,0.021,0.034,0.046c0.015,0.025,0.026,0.054,0.039,0.085
		c0.013,0.03,0.022,0.054,0.027,0.073c0.012,0.049,0.017,0.113,0.021,0.193c0.002,0.081,0.002,0.16-0.001,0.237
		c-0.003,0.078-0.009,0.139-0.015,0.18c-0.003,0.04,0.002,0.087,0.011,0.141c0.011,0.054,0.012,0.11,0.004,0.172
		c-0.006,0.096-0.003,0.193,0.008,0.295c0.014,0.099,0.025,0.202,0.037,0.306c0.01,0.106,0.011,0.212,0.001,0.321
		c-0.004,0.057-0.01,0.108-0.019,0.152c-0.009,0.042-0.016,0.084-0.021,0.123c-0.006,0.046-0.01,0.103-0.009,0.169
		c0.001,0.069,0.005,0.139,0.01,0.206c0.006,0.069,0.016,0.125,0.026,0.17c0.01,0.032,0.021,0.064,0.033,0.098
		c0.01,0.037,0.012,0.076,0.004,0.122c0,0.011-0.004,0.023-0.012,0.035c-0.006,0.009-0.01,0.024-0.011,0.044
		c-0.006,0.02-0.005,0.041-0.001,0.067c0.003,0.023,0.007,0.05,0.008,0.075c-0.007,0.035-0.014,0.072-0.024,0.114
		c-0.012,0.042-0.017,0.074-0.017,0.097c0.002,0.006,0.007,0.017,0.014,0.031c0.01,0.013,0.015,0.023,0.015,0.032
		c0.007,0.04,0.009,0.084,0.007,0.134s0,0.091,0.006,0.126c0.009,0.049,0.016,0.095,0.018,0.136c0.003,0.041,0,0.086-0.004,0.137
		c-0.011,0.128-0.016,0.261-0.009,0.396c0.007,0.134,0.014,0.274,0.023,0.424c0.007,0.1,0.014,0.201,0.025,0.309
		c0.01,0.108,0.011,0.208,0.005,0.302c-0.015,0.099-0.017,0.2-0.009,0.307c0.007,0.104,0.021,0.205,0.038,0.304
		c0.016,0.099,0.025,0.204,0.027,0.319c-0.001,0.117,0.002,0.23,0.006,0.343c0.004,0.082,0.008,0.169,0.015,0.257
		c0.004,0.087,0.008,0.172,0.008,0.252c0.002,0.08-0.003,0.147-0.014,0.207c-0.01,0.067-0.01,0.144-0.002,0.229
		c0.011,0.084,0.03,0.159,0.06,0.223c0.026,0.066,0.065,0.101,0.113,0.111c0.06,0.011,0.133,0.011,0.222,0.005
		c0.089-0.005,0.175-0.016,0.259-0.028s0.148-0.024,0.193-0.035c0.089-0.016,0.175-0.022,0.262-0.018
		c0.087,0.002,0.163-0.004,0.225-0.02c0.063-0.015,0.102-0.058,0.118-0.123c0.003-0.021,0.002-0.048-0.004-0.08
		s-0.008-0.063-0.005-0.089c0.002-0.013,0.006-0.026,0.012-0.04c0.008-0.014,0.012-0.026,0.011-0.039
		c0.003-0.035,0.001-0.076-0.007-0.126c-0.006-0.049-0.009-0.093-0.006-0.134c0.003-0.026,0.004-0.044,0.006-0.055
		c0.001-0.013,0.001-0.024-0.002-0.034c-0.003-0.011-0.006-0.03-0.012-0.054c-0.006-0.046-0.009-0.093-0.007-0.143
		c0.002-0.051,0-0.098-0.007-0.144c-0.001-0.013-0.005-0.023-0.015-0.031c-0.007-0.009-0.012-0.02-0.015-0.032
		c-0.005-0.052-0.003-0.104,0.01-0.159c0.013-0.055,0.012-0.108,0-0.167c-0.01-0.04-0.017-0.085-0.021-0.135
		c-0.002-0.05-0.005-0.1-0.003-0.147c0-0.048,0.002-0.089,0.005-0.12c0.003-0.041,0-0.087-0.007-0.136
		c-0.007-0.05-0.009-0.096-0.007-0.137c0.005-0.03,0.009-0.055,0.008-0.069c-0.001-0.018-0.006-0.037-0.014-0.061
		c-0.009-0.041-0.013-0.088-0.016-0.143c-0.003-0.054-0.003-0.102,0.001-0.144c0.002-0.013,0.006-0.025,0.012-0.039
		c0.008-0.014,0.012-0.026,0.011-0.039c0.002-0.04,0-0.083-0.006-0.126c-0.007-0.043-0.009-0.089-0.007-0.134
		c0.006-0.014,0.012-0.024,0.016-0.034c0.006-0.009,0.008-0.02,0.007-0.032c0.003-0.042,0-0.085-0.006-0.13
		c-0.007-0.048-0.009-0.091-0.007-0.13c0.003-0.026,0.005-0.044,0.006-0.055c0.002-0.014,0.001-0.024-0.001-0.034
		c-0.003-0.012-0.006-0.03-0.012-0.054c-0.01-0.063-0.014-0.112-0.017-0.151c-0.002-0.039-0.001-0.078,0.003-0.121
		c0.006-0.021,0.005-0.042,0.001-0.066c-0.003-0.023-0.006-0.045-0.007-0.064c0.007-0.08,0.009-0.165,0.002-0.258
		c-0.007-0.091-0.011-0.184-0.018-0.274c-0.007-0.089-0.005-0.174,0.003-0.248c0.001-0.013,0.006-0.021,0.012-0.028
		c0.008-0.008,0.012-0.021,0.011-0.038c0.003-0.034,0.001-0.071-0.005-0.11c-0.007-0.041-0.009-0.077-0.006-0.11
		c0.013-0.062,0.02-0.129,0.022-0.2c0.006-0.074,0-0.137-0.016-0.19c-0.008-0.036-0.012-0.066-0.014-0.091
		c-0.001-0.023,0-0.054,0.005-0.091c0.001-0.057-0.002-0.122-0.01-0.195c-0.008-0.075-0.011-0.14-0.01-0.194
		c0.005-0.037,0.008-0.063,0.007-0.076c0-0.015-0.006-0.039-0.014-0.066c-0.018-0.086-0.026-0.181-0.024-0.283
		c-0.001-0.104,0.007-0.211,0.021-0.315c0.002-0.039,0-0.08-0.007-0.123c-0.006-0.044-0.008-0.084-0.006-0.124
		c0.002-0.013,0.005-0.026,0.011-0.039c0.009-0.014,0.012-0.026,0.011-0.04c0.009-0.061,0.009-0.133,0.001-0.212
		c-0.011-0.083-0.017-0.162-0.022-0.242c-0.002-0.087-0.004-0.171-0.002-0.256c0-0.085-0.008-0.16-0.022-0.225
		c-0.002-0.013-0.012-0.032-0.028-0.055c-0.017-0.021-0.026-0.047-0.029-0.073c-0.001-0.019,0.004-0.043,0.014-0.071
		c0.009-0.029,0.021-0.056,0.035-0.083c0.012-0.024,0.023-0.04,0.032-0.045c0.015-0.009,0.042-0.017,0.086-0.025
		c0.043-0.007,0.09-0.014,0.138-0.016c0.047-0.004,0.084-0.004,0.112-0.001c0.12,0.012,0.257,0.013,0.411,0.008
		c0.153-0.008,0.315-0.018,0.486-0.026c0.165-0.008,0.325-0.014,0.482-0.021c0.156-0.01,0.294-0.025,0.412-0.049
		c0.02-0.007,0.041-0.011,0.063-0.009c0.021-0.001,0.041-0.005,0.054-0.01c0.013-0.007,0.022-0.022,0.028-0.049
		c0.008-0.026,0.01-0.053,0.014-0.079c0.001-0.028,0.002-0.045,0.001-0.056c0.007-0.079,0.007-0.166-0.002-0.261
		c-0.011-0.095-0.019-0.194-0.025-0.298c-0.001-0.067-0.003-0.146-0.003-0.234c0.002-0.089-0.002-0.169-0.012-0.242
		c-0.011-0.073-0.034-0.122-0.068-0.145c-0.06-0.025-0.129-0.037-0.21-0.033s-0.166,0.011-0.255,0.02
		c-0.088,0.011-0.171,0.009-0.251-0.003c-0.014-0.006-0.024-0.012-0.036-0.016c-0.011-0.006-0.024-0.008-0.043-0.007
		c-0.095-0.013-0.207-0.011-0.335,0.002c-0.129,0.015-0.261,0.025-0.393,0.034L72.67,9.858c-0.027,0.002-0.066,0.006-0.116,0.013
		c-0.049,0.005-0.099,0.01-0.146,0.012s-0.08,0.002-0.101-0.006c-0.021-0.015-0.034-0.035-0.046-0.063
		c-0.013-0.028-0.024-0.049-0.038-0.063c-0.031-0.029-0.067-0.045-0.106-0.049c-0.04-0.007-0.085-0.009-0.135-0.007
		c-0.05,0.003-0.104,0.001-0.165-0.003c-0.014-0.006-0.024-0.012-0.033-0.016C71.774,9.671,71.764,9.669,71.75,9.67L71.75,9.67z"/>
</g>
</svg>
