<?xml version="1.0" encoding="utf-8"?>
<!-- Generator: Adobe Illustrator 15.1.0, SVG Export Plug-In . SVG Version: 6.00 Build 0)  -->
<!DOCTYPE svg PUBLIC "-//W3C//DTD SVG 1.1//EN" "http://www.w3.org/Graphics/SVG/1.1/DTD/svg11.dtd">
<svg version="1.1" xmlns="http://www.w3.org/2000/svg" xmlns:xlink="http://www.w3.org/1999/xlink" x="0px" y="0px"
	 width="31.181px" height="31.181px" viewBox="0 0 31.181 31.181" enable-background="new 0 0 31.181 31.181" xml:space="preserve">
<g id="Vrstva_1" display="none">
	<g display="inline">
		<path d="M15.542,8.029c-0.061,0.02-0.2,0-0.3,0.02c-0.14,0.04-0.3,0.1-0.42,0.181l-0.44,0.279c-0.06,0.04-0.1,0.12-0.18,0.18
			c-0.18,0.12-0.279,0.261-0.38,0.44c-0.08,0.12-0.22,0.24-0.32,0.36l-0.12,0.279c-0.08,0.101-0.16,0.24-0.24,0.381
			c-0.14,0.3-0.26,0.52-0.359,0.8c-0.02,0.06-0.02,0.14-0.04,0.18c-0.08,0.24-0.22,0.521-0.28,0.74l-0.04,0.239l-0.2,0.761
			c-0.02,0.16,0,0.319-0.02,0.479c-0.02,0.021-0.061,0.061-0.061,0.101s0.021,0.1,0,0.14l-0.139,0.78c-0.061,0.2,0,0.44-0.041,0.68
			c-0.02,0.04-0.04,0.04-0.06,0.101c-0.06,0.239,0.02,0.579-0.04,0.899c0,0.04-0.02,0.061-0.04,0.08c-0.063,0.3,0.06,0.62,0,0.92
			c0,0.021-0.021,0.04-0.021,0.08c-0.083,0.32,0.061,0.66,0,0.9c-0.043,0.159-0.043,0.34,0,0.46c0.021,0.12-0.043,0.26,0,0.399
			c0,0.021,0.021,0.04,0.021,0.08c0.06,0.26,0.04,0.42,0.08,0.641l0.06,0.1c0,0.06-0.02,0.12,0,0.16c0.02,0.12,0.08,0.26,0.1,0.34
			l0.16,0.62c0.021,0.04,0.041,0.08,0.041,0.12c0.119,0.28,0.359,0.7,0.539,0.939c0.041,0.061,0.141,0.101,0.181,0.181
			c0.1,0.12,0.28,0.359,0.419,0.46c0.181,0.14,0.48,0.3,0.721,0.403c0.141,0.06,0.32,0.14,0.46,0.159
			c0.101,0.021,0.24,0.021,0.3,0.041c0.28,0.06,0.94,0,1.141-0.041c0.1-0.02,0.199,0.021,0.279,0l0.24-0.079
			c0.141-0.04,0.28-0.124,0.4-0.164c0.359-0.14,0.68-0.399,0.939-0.64c0.141-0.16,0.28-0.28,0.4-0.44
			c0.119-0.18,0.22-0.399,0.359-0.6c0-0.02,0.041-0.1,0.041-0.1c0.02-0.12,0-0.08,0.06-0.141c0.08-0.06,0.08-0.16,0.101-0.239
			c0.039-0.16,0.159-0.34,0.199-0.501c0.02-0.14,0.061-0.22,0.08-0.319v-0.12c0.02-0.14,0.08-0.26,0.12-0.401
			c0-0.039-0.021-0.1,0-0.16c0-0.06,0.06-0.1,0.08-0.159c0.06-0.32-0.021-0.74,0.04-1c0-0.021,0.039-0.04,0.039-0.08
			c0-0.08-0.059-0.101-0.039-0.181c0.02-0.1,0.061-0.319,0.039-0.439c-0.02-0.1-0.02-0.08,0-0.16c0.042-0.22-0.079-0.32-0.119-0.54
			c-0.02-0.04,0-0.1,0-0.16c-0.02-0.08-0.08-0.14-0.08-0.22l-0.04-0.36l-0.04-0.439c-0.02-0.16,0.04-0.34,0-0.48
			c0-0.02-0.04-0.04-0.04-0.08c-0.04-0.18,0.04-0.479,0-0.66c0-0.04-0.04-0.06-0.04-0.1c0-0.02,0.04-0.06,0.04-0.1
			s-0.04-0.08-0.04-0.141c-0.04-0.2,0-0.46-0.04-0.68c-0.02-0.021-0.04-0.04-0.04-0.061c-0.02-0.06,0.021-0.119,0-0.159l-0.08-0.32
			c-0.039-0.16,0-0.34-0.039-0.5c-0.021-0.1-0.061-0.18-0.08-0.26c-0.021-0.061,0-0.101,0-0.16c-0.021-0.1-0.101-0.2-0.121-0.3
			c-0.039-0.24-0.06-0.4-0.119-0.58c-0.04-0.141-0.121-0.26-0.16-0.38c-0.02-0.12,0-0.181-0.04-0.261
			c-0.06-0.18-0.2-0.279-0.24-0.419V9.708c-0.021-0.08-0.22-0.28-0.26-0.36l-0.181-0.279c-0.22-0.301-0.6-0.561-0.92-0.761
			c-0.119-0.079-0.34-0.18-0.459-0.22c-0.16-0.02-0.36,0-0.48-0.04C15.703,8.048,15.623,8.008,15.542,8.029L15.542,8.029z
			 M15.802,10.548c0,0,0.101,0.04,0.16,0.08c0.141,0.08,0.26,0.3,0.34,0.48c0.101,0.159,0.141,0.26,0.18,0.46
			c0.041,0.199,0.16,0.42,0.181,0.62c0.021,0.079,0,0.199,0,0.279c0.021,0.04,0.06,0.061,0.06,0.08c0.041,0.16-0.039,0.38,0,0.56
			c0.021,0.16,0.101,0.301,0.08,0.421c-0.039,0.199-0.039,0.56-0.039,0.819c0,0.261-0.061,0.54,0,0.761c0,0.02,0.02,0.04,0.039,0.06
			c0,0.06-0.02,0.14,0,0.2c0.021,0.16,0.12,0.42,0.061,0.64c0,0.08-0.02,0.08,0,0.16l0.1,0.28c0.02,0.14,0,0.28,0.041,0.399
			c0.02,0.12,0.039,0.28,0.079,0.44c0,0.1,0.04,0.12,0.021,0.22c0,0.061-0.021,0.14-0.021,0.24c-0.06,0.3-0.06,0.68-0.12,1
			l-0.16,0.8c-0.02,0.101-0.119,0.22-0.16,0.34c-0.119,0.32-0.279,0.601-0.52,0.78c-0.22,0.16-0.46,0.32-0.859,0.26
			c-0.061-0.02-0.181-0.1-0.221-0.12c-0.279-0.199-0.52-0.56-0.641-0.899c-0.1-0.221-0.159-0.46-0.199-0.681
			c-0.04-0.18-0.061-0.399-0.08-0.56c-0.061-0.32,0.02-0.64-0.04-0.979l-0.06-0.101c0-0.08,0.039-0.1,0.06-0.2
			c0.021-0.14,0-0.26,0.04-0.42c0.02-0.14,0.02-0.22,0-0.359c-0.02-0.12-0.04-0.28,0-0.5c0.02-0.12,0.1-0.24,0.08-0.421
			c-0.02-0.1-0.061-0.119-0.04-0.18c0-0.04,0.021-0.06,0.04-0.08c0-0.06-0.02-0.14,0-0.2c0-0.079,0.04-0.239,0.061-0.319
			c0.02-0.08,0-0.181,0-0.28c0.02-0.06,0.08-0.12,0.1-0.2c0.02-0.14,0-0.3,0.039-0.439c0-0.061,0.041-0.22,0.061-0.301
			c0.021-0.04,0-0.119,0-0.18c0.04-0.2,0.16-0.36,0.2-0.58c0.021-0.04,0-0.08,0-0.12l0.14-0.46c0.041-0.24,0.2-0.52,0.26-0.76
			c0.041-0.14,0.261-0.5,0.381-0.68c0.039-0.08,0.12-0.181,0.18-0.24L15.802,10.548L15.802,10.548z"/>
	</g>
</g>
<g id="Vrstva_2">
	<g>
		<path d="M9.533,9.132c-0.049,0.017-0.166,0-0.248,0.017c-0.117,0.033-0.25,0.083-0.35,0.149L8.57,9.53
			C8.521,9.563,8.488,9.63,8.422,9.68c-0.15,0.1-0.232,0.216-0.315,0.365c-0.067,0.1-0.183,0.199-0.266,0.299L7.74,10.576
			c-0.066,0.083-0.132,0.199-0.198,0.315c-0.116,0.249-0.216,0.432-0.3,0.664c-0.016,0.05-0.016,0.116-0.033,0.149
			c-0.066,0.199-0.182,0.432-0.231,0.614l-0.034,0.199l-0.165,0.631c-0.017,0.133,0,0.266-0.017,0.398
			c-0.017,0.017-0.05,0.05-0.05,0.083s0.017,0.083,0,0.116l-0.116,0.647c-0.05,0.166,0,0.364-0.033,0.563
			c-0.017,0.033-0.033,0.033-0.05,0.084c-0.05,0.199,0.017,0.48-0.033,0.746c0,0.033-0.017,0.051-0.033,0.067
			c-0.053,0.249,0.05,0.515,0,0.763c0,0.018-0.017,0.033-0.017,0.067c-0.069,0.266,0.05,0.547,0,0.746
			c-0.036,0.133-0.036,0.282,0,0.382c0.017,0.1-0.036,0.216,0,0.332c0,0.017,0.017,0.033,0.017,0.066
			c0.05,0.216,0.033,0.349,0.066,0.531l0.05,0.083c0,0.05-0.017,0.1,0,0.133c0.017,0.1,0.066,0.216,0.082,0.282l0.134,0.516
			c0.017,0.033,0.033,0.066,0.033,0.1c0.099,0.232,0.299,0.58,0.448,0.78c0.033,0.05,0.116,0.083,0.148,0.149
			c0.084,0.1,0.232,0.299,0.35,0.382c0.148,0.116,0.398,0.249,0.598,0.335c0.115,0.05,0.266,0.116,0.381,0.133
			c0.084,0.017,0.199,0.017,0.25,0.033c0.232,0.05,0.779,0,0.945-0.033c0.084-0.017,0.166,0.017,0.232,0l0.199-0.066
			c0.117-0.033,0.232-0.103,0.332-0.136c0.299-0.116,0.564-0.332,0.781-0.531c0.115-0.133,0.231-0.232,0.332-0.365
			c0.099-0.149,0.182-0.333,0.299-0.499c0-0.016,0.033-0.082,0.033-0.082c0.016-0.1,0-0.066,0.049-0.117
			c0.066-0.049,0.066-0.133,0.083-0.199c0.034-0.133,0.133-0.282,0.166-0.415c0.017-0.116,0.05-0.183,0.066-0.266v-0.1
			c0.017-0.116,0.067-0.216,0.101-0.332c0-0.033-0.018-0.083,0-0.133c0-0.05,0.049-0.083,0.065-0.133
			c0.05-0.266-0.017-0.614,0.033-0.83c0-0.017,0.033-0.033,0.033-0.065c0-0.067-0.05-0.084-0.033-0.15
			c0.017-0.083,0.05-0.265,0.033-0.365c-0.017-0.083-0.017-0.066,0-0.133c0.033-0.182-0.066-0.266-0.099-0.447
			c-0.018-0.034,0-0.083,0-0.134c-0.018-0.065-0.066-0.116-0.066-0.182l-0.034-0.299l-0.033-0.366c-0.017-0.132,0.033-0.281,0-0.397
			c0-0.017-0.033-0.033-0.033-0.066c-0.033-0.149,0.033-0.398,0-0.548c0-0.033-0.033-0.05-0.033-0.083
			c0-0.017,0.033-0.05,0.033-0.083s-0.033-0.066-0.033-0.116c-0.033-0.166,0-0.382-0.033-0.564c-0.017-0.017-0.032-0.033-0.032-0.05
			c-0.018-0.05,0.016-0.1,0-0.133l-0.066-0.266c-0.034-0.133,0-0.282-0.034-0.415c-0.017-0.083-0.05-0.149-0.066-0.216
			c-0.017-0.05,0-0.083,0-0.133c-0.017-0.083-0.083-0.166-0.099-0.249c-0.033-0.199-0.051-0.332-0.101-0.481
			c-0.033-0.116-0.1-0.216-0.132-0.315c-0.018-0.1,0-0.149-0.033-0.216c-0.051-0.149-0.167-0.232-0.199-0.349v-0.083
			c-0.018-0.066-0.184-0.232-0.217-0.299l-0.148-0.232c-0.184-0.249-0.498-0.465-0.764-0.631c-0.1-0.066-0.283-0.149-0.383-0.183
			c-0.133-0.017-0.299,0-0.398-0.033C9.666,9.148,9.6,9.115,9.533,9.132L9.533,9.132z M9.75,11.224c0,0,0.082,0.033,0.133,0.066
			c0.115,0.066,0.215,0.249,0.281,0.398c0.084,0.133,0.117,0.216,0.15,0.382s0.133,0.349,0.148,0.515c0.018,0.066,0,0.166,0,0.232
			c0.018,0.033,0.051,0.05,0.051,0.066c0.033,0.133-0.033,0.315,0,0.465c0.016,0.133,0.082,0.249,0.066,0.349
			c-0.033,0.166-0.033,0.465-0.033,0.681s-0.051,0.448,0,0.631c0,0.016,0.016,0.033,0.033,0.05c0,0.05-0.018,0.115,0,0.165
			c0.016,0.134,0.1,0.35,0.049,0.531c0,0.066-0.016,0.066,0,0.134l0.084,0.231c0.016,0.116,0,0.232,0.033,0.332
			c0.016,0.1,0.033,0.233,0.066,0.365c0,0.083,0.033,0.1,0.016,0.183c0,0.05-0.016,0.116-0.016,0.199
			c-0.051,0.249-0.051,0.564-0.1,0.83l-0.133,0.664c-0.018,0.083-0.1,0.183-0.133,0.282c-0.1,0.266-0.232,0.498-0.432,0.648
			c-0.184,0.133-0.383,0.266-0.715,0.215c-0.049-0.016-0.148-0.082-0.182-0.1c-0.232-0.166-0.432-0.465-0.531-0.747
			c-0.084-0.183-0.133-0.382-0.166-0.564c-0.033-0.149-0.05-0.332-0.066-0.465c-0.051-0.266,0.017-0.531-0.033-0.813l-0.051-0.083
			c0-0.066,0.033-0.083,0.051-0.166c0.017-0.116,0-0.215,0.033-0.349c0.017-0.116,0.017-0.182,0-0.299
			c-0.017-0.099-0.033-0.232,0-0.414c0.017-0.1,0.082-0.2,0.066-0.35c-0.018-0.083-0.05-0.099-0.033-0.148
			c0-0.033,0.016-0.051,0.033-0.066c0-0.051-0.018-0.116,0-0.166c0-0.066,0.033-0.199,0.049-0.266c0.018-0.066,0-0.149,0-0.232
			c0.018-0.05,0.066-0.1,0.084-0.166c0.016-0.116,0-0.249,0.033-0.365c0-0.05,0.033-0.183,0.049-0.249c0.018-0.033,0-0.1,0-0.149
			c0.033-0.166,0.133-0.299,0.166-0.481c0.018-0.033,0-0.066,0-0.1l0.117-0.382c0.033-0.199,0.166-0.432,0.215-0.631
			c0.033-0.116,0.217-0.415,0.316-0.564c0.033-0.066,0.1-0.149,0.148-0.199L9.75,11.224L9.75,11.224z M15.443,18.926
			c-0.083,0-0.199,0-0.266,0.017c-0.1,0.017-0.315,0.1-0.398,0.149c-0.349,0.232-0.78,0.532-0.863,0.997
			c-0.02,0.1,0,0.148-0.036,0.248c-0.017,0.15-0.017,0.316,0,0.482c0.017,0.017,0.036,0.066,0.036,0.116
			c0.05,0.266,0.349,0.65,0.564,0.733c0.149,0.066,0.266,0.1,0.299,0.216c0.033,0.166-0.083,0.249-0.133,0.349
			s-0.066,0.149-0.133,0.232c-0.149,0.216-0.432,0.315-0.548,0.515c-0.202,0.299,0.249,0.598,0.349,0.746
			c0.083,0.117,0.199,0.266,0.315,0.35c0.116,0.065,0.266,0.232,0.465,0.199l0.216-0.101c0.232-0.149,0.448-0.314,0.614-0.563
			c0.066-0.1,0.183-0.166,0.249-0.266c0.216-0.299,0.398-0.614,0.531-0.946c0.033-0.083,0.033-0.166,0.066-0.249
			c0.017-0.05,0.05-0.083,0.066-0.116c0.033-0.083,0.016-0.183,0.033-0.282c0.033-0.116,0.083-0.249,0.1-0.401
			c0.017-0.083,0.033-0.133,0.033-0.183c0.033-0.1-0.017-0.349-0.033-0.398c-0.033-0.149,0-0.333-0.033-0.499
			c-0.017-0.1,0-0.199-0.033-0.299c-0.018-0.082-0.1-0.133-0.133-0.215c0-0.018,0.017-0.051,0-0.084
			c0-0.049-0.116-0.183-0.166-0.249s-0.133-0.166-0.199-0.199c-0.017-0.017-0.083-0.017-0.116-0.05
			c-0.033-0.017-0.033-0.05-0.066-0.066C16.024,18.976,15.726,18.926,15.443,18.926L15.443,18.926z M19.461,8.933
			c-0.051,0.017-0.184,0.066-0.217,0.166c0,0.033,0.018,0.066,0,0.1c0,0.033-0.033,0.05-0.033,0.083
			c-0.016,0.05,0.017,0.116,0,0.183l-0.066,0.199c-0.016,0.1,0.018,0.199,0,0.299c0,0.017-0.033,0.033-0.033,0.066
			c-0.016,0.133,0.018,0.266,0,0.382c-0.016,0.1-0.016,0.1,0,0.183c0.018,0.116-0.033,0.216-0.066,0.349
			c-0.016,0.166,0.033,0.332,0,0.465c0,0.017-0.033,0.05-0.033,0.083c-0.033,0.199,0.051,0.448,0,0.681
			c0,0.017-0.033,0.05-0.033,0.066c-0.049,0.249,0.051,0.515,0,0.764c-0.066,0.365,0.033,0.78-0.033,1.112
			c-0.049,0.249-0.049,0.78,0,0.996c0.033,0.133,0,0.331,0.033,0.432c0.084,0.232,0.465,0.066,0.73,0.132
			c0.033,0,0.051,0.018,0.066,0.033c0.084,0.017,0.184,0,0.266,0.017l0.184,0.084c0.033,0,0.066,0.05,0.1,0.066
			c0.016,0,0.049-0.017,0.066,0c0.082,0.017,0.166,0.099,0.232,0.133c0.1,0.033,0.115,0.033,0.199,0.082
			c0.133,0.083,0.332,0.184,0.465,0.283c0.266,0.199,0.498,0.547,0.63,0.862l0.067,0.183c0,0.05-0.018,0.116,0,0.166
			c0.016,0.1,0.066,0.199,0.066,0.282c0,0.05-0.018,0.116-0.033,0.166l-0.033,0.149c-0.084,0.315-0.332,0.664-0.564,0.83
			c-0.184,0.116-0.383,0.249-0.582,0.332c-0.166,0.066-0.348,0.1-0.514,0.166c-0.051,0.017-0.084,0.051-0.117,0.066
			c-0.232,0.066-0.514,0.084-0.764,0.133c-0.067,0-0.149-0.016-0.215,0c-0.033,0-0.05,0.033-0.083,0.033
			c-0.199,0.033-0.48-0.049-0.664,0c-0.168,0.051-0.168,0.283-0.135,0.482c0.035,0.166,0.035,0.598,0,0.747
			c-0.017,0.149-0.066,0.266-0.017,0.448c0.052,0.269,0.601,0.186,0.981,0.186c0.483,0,0.848,0,1.229-0.066l0.25-0.069
			c0.049-0.017,0.115,0.017,0.199,0c0.033-0.017,0.082-0.05,0.148-0.066c0.416-0.133,0.814-0.216,1.146-0.432l0.63-0.432
			c0.116-0.083,0.282-0.249,0.349-0.349l0.249-0.316c0.05-0.082,0.05-0.199,0.116-0.281h0.05c0.033-0.033,0.149-0.333,0.167-0.383
			l0.032-0.166c0.033-0.083,0.1-0.166,0.1-0.232c0.017-0.05,0-0.1,0-0.149c0.033-0.116,0.083-0.232,0.1-0.349
			c0-0.066-0.033-0.083-0.033-0.133c0-0.017,0.033-0.05,0.033-0.083c0.017-0.1,0.017-0.183,0.033-0.216
			c0.033-0.133-0.017-0.349-0.033-0.415c-0.017-0.083,0.017-0.199,0-0.299c-0.017-0.083-0.017-0.083,0-0.149
			c0.017-0.133-0.05-0.166-0.066-0.232c-0.033-0.166-0.033-0.248-0.066-0.382c-0.033-0.116-0.116-0.199-0.133-0.282
			c-0.017-0.115-0.033-0.1-0.066-0.165c-0.05-0.066-0.066-0.183-0.1-0.233c-0.017-0.032-0.05-0.032-0.065-0.065
			c0-0.018,0.016-0.066,0-0.083c-0.051-0.116-0.2-0.232-0.25-0.332c-0.116-0.149-0.314-0.365-0.465-0.448
			c-0.082-0.05-0.133-0.133-0.216-0.199c-0.099-0.066-0.232-0.101-0.349-0.166c-0.116-0.083-0.215-0.149-0.332-0.199
			c-0.115-0.033-0.248-0.1-0.365-0.133c-0.166-0.033-0.498-0.066-0.613-0.183c-0.066-0.083-0.117-0.398-0.084-0.564
			c0.018-0.083,0.018-0.066,0-0.133c-0.033-0.166,0.018-0.515,0.033-0.614c0.018-0.066-0.016-0.183,0-0.266
			c0.018-0.083,0.018-0.083,0-0.166c-0.016-0.083,0.033-0.216,0.033-0.266c0.018-0.083-0.016-0.183,0-0.266
			c0-0.017,0.033-0.05,0.051-0.066c0-0.033-0.018-0.083,0-0.116c0-0.033,0.082-0.166,0.115-0.166c0.1-0.05,0.365,0,0.516,0
			c0.166,0,0.381,0.017,0.514,0c0.033-0.017,0.051-0.05,0.1-0.033c0.033,0,0.051,0.017,0.1,0.033c0.066,0,0.199-0.033,0.282,0
			c0.216,0.05,0.564,0.033,0.896,0.033c0.3,0,0.564,0.033,0.83,0c0.05-0.017,0.232-0.066,0.249-0.083
			c0.066-0.066,0.083-0.349,0.1-0.448c0.033-0.116-0.017-0.266,0-0.365c0.017-0.083,0.033-0.066,0-0.149
			c-0.033-0.199,0.083-0.465,0.05-0.614c-0.017-0.05-0.083-0.149-0.116-0.183c-0.1-0.05-0.282,0.017-0.432-0.017l-0.066-0.05
			c-0.282-0.05-0.598,0.066-0.913,0c-0.033,0-0.05-0.017-0.066-0.033c-0.216-0.033-0.431,0.033-0.63,0
			c-0.101-0.017-0.35-0.05-0.498-0.033c-0.134,0.033-0.199,0.033-0.332,0c-0.084,0-0.184-0.017-0.25-0.017
			c-0.049,0-0.115,0.033-0.182,0.017c-0.084-0.017-0.166-0.1-0.217-0.166c-0.016-0.033-0.016-0.083-0.049-0.133
			c-0.133-0.133-0.416-0.05-0.682-0.083c-0.033-0.017-0.033-0.033-0.066-0.033C20.107,8.883,19.594,8.899,19.461,8.933L19.461,8.933
			z"/>
	</g>
</g>
<g id="Vrstva_3" display="none">
	<g display="inline">
		<path d="M5.986,9.111c-0.05,0.017-0.167,0-0.25,0.017C5.62,9.161,5.487,9.211,5.388,9.277L5.021,9.511
			c-0.05,0.033-0.083,0.1-0.15,0.149c-0.149,0.101-0.232,0.217-0.315,0.366c-0.067,0.101-0.184,0.2-0.267,0.3l-0.1,0.233
			c-0.066,0.083-0.133,0.2-0.2,0.316c-0.116,0.25-0.216,0.433-0.3,0.666c-0.017,0.05-0.017,0.116-0.033,0.149
			c-0.066,0.2-0.184,0.433-0.232,0.616l-0.033,0.2L3.223,13.14c-0.017,0.134,0,0.267-0.017,0.4c-0.017,0.017-0.051,0.05-0.051,0.083
			s0.018,0.083,0,0.116L3.04,14.389c-0.051,0.167,0,0.366-0.033,0.566c-0.018,0.033-0.034,0.033-0.051,0.083
			c-0.05,0.199,0.017,0.482-0.033,0.749c0,0.033-0.017,0.05-0.033,0.066c-0.053,0.25,0.05,0.517,0,0.767
			c0,0.016-0.017,0.032-0.017,0.066c-0.069,0.266,0.05,0.549,0,0.749c-0.036,0.133-0.036,0.283,0,0.383
			c0.017,0.1-0.036,0.217,0,0.333c0,0.017,0.017,0.033,0.017,0.066c0.05,0.217,0.033,0.35,0.066,0.533l0.051,0.083
			c0,0.05-0.018,0.1,0,0.133c0.016,0.1,0.066,0.217,0.082,0.283l0.134,0.517c0.017,0.033,0.033,0.066,0.033,0.1
			c0.1,0.233,0.3,0.582,0.45,0.782c0.033,0.05,0.115,0.083,0.148,0.15c0.084,0.1,0.234,0.3,0.351,0.383
			c0.149,0.116,0.399,0.25,0.599,0.335c0.117,0.051,0.268,0.117,0.383,0.134c0.084,0.017,0.201,0.017,0.25,0.033
			c0.233,0.05,0.783,0,0.949-0.033c0.083-0.017,0.166,0.017,0.233,0l0.2-0.066c0.116-0.034,0.232-0.103,0.332-0.137
			c0.301-0.116,0.566-0.332,0.783-0.532c0.116-0.133,0.232-0.233,0.332-0.366c0.101-0.15,0.184-0.333,0.301-0.499
			c0-0.018,0.033-0.084,0.033-0.084c0.016-0.1,0-0.066,0.049-0.116c0.067-0.05,0.067-0.134,0.084-0.2
			c0.033-0.133,0.133-0.282,0.166-0.416c0.018-0.116,0.051-0.183,0.066-0.267v-0.1c0.018-0.116,0.066-0.217,0.101-0.333
			c0-0.033-0.017-0.083,0-0.133c0-0.051,0.05-0.084,0.066-0.134c0.05-0.266-0.017-0.616,0.033-0.832
			c0-0.017,0.034-0.033,0.034-0.066c0-0.067-0.051-0.084-0.034-0.15c0.017-0.083,0.05-0.267,0.034-0.366
			c-0.018-0.083-0.018-0.066,0-0.133c0.033-0.184-0.067-0.267-0.101-0.45c-0.017-0.033,0-0.083,0-0.133
			c-0.017-0.066-0.067-0.116-0.067-0.184L9,15.654l-0.034-0.366c-0.016-0.134,0.034-0.283,0-0.4c0-0.017-0.033-0.033-0.033-0.066
			c-0.033-0.149,0.033-0.399,0-0.549c0-0.033-0.033-0.051-0.033-0.084c0-0.017,0.033-0.05,0.033-0.083s-0.033-0.066-0.033-0.116
			c-0.033-0.167,0-0.383-0.033-0.566c-0.017-0.017-0.033-0.033-0.033-0.05c-0.017-0.05,0.017-0.1,0-0.133l-0.066-0.267
			c-0.033-0.134,0-0.283-0.033-0.416c-0.017-0.084-0.05-0.15-0.066-0.217c-0.018-0.05,0-0.083,0-0.133
			c-0.018-0.084-0.084-0.167-0.1-0.25c-0.033-0.2-0.051-0.333-0.101-0.483c-0.033-0.116-0.1-0.216-0.134-0.315
			c-0.016-0.101,0-0.15-0.033-0.217c-0.049-0.15-0.166-0.233-0.199-0.35V10.51c-0.017-0.066-0.184-0.233-0.217-0.3L7.734,9.977
			c-0.183-0.25-0.499-0.466-0.767-0.633c-0.1-0.066-0.282-0.149-0.383-0.183c-0.133-0.017-0.299,0-0.398-0.033
			C6.12,9.128,6.053,9.095,5.986,9.111L5.986,9.111z M6.202,11.209c0,0,0.084,0.033,0.134,0.066c0.116,0.066,0.216,0.25,0.283,0.399
			c0.083,0.134,0.116,0.217,0.149,0.383c0.033,0.167,0.133,0.35,0.15,0.517c0.017,0.066,0,0.166,0,0.232
			c0.017,0.033,0.049,0.051,0.049,0.067c0.034,0.133-0.032,0.316,0,0.466c0.018,0.133,0.084,0.25,0.067,0.35
			c-0.033,0.166-0.033,0.466-0.033,0.683s-0.05,0.449,0,0.633c0,0.017,0.017,0.033,0.033,0.05c0,0.05-0.017,0.116,0,0.166
			c0.017,0.134,0.101,0.351,0.05,0.533c0,0.066-0.017,0.066,0,0.133l0.084,0.233c0.016,0.116,0,0.233,0.033,0.333
			c0.016,0.1,0.033,0.233,0.066,0.366c0,0.083,0.033,0.1,0.016,0.184c0,0.05-0.016,0.116-0.016,0.199
			c-0.051,0.25-0.051,0.566-0.1,0.833L7.035,18.7c-0.017,0.084-0.1,0.184-0.134,0.283c-0.1,0.267-0.232,0.5-0.433,0.649
			c-0.183,0.134-0.383,0.267-0.716,0.217c-0.05-0.017-0.149-0.083-0.183-0.1c-0.233-0.167-0.433-0.467-0.533-0.749
			c-0.083-0.184-0.134-0.384-0.167-0.566c-0.033-0.15-0.049-0.333-0.066-0.467c-0.049-0.267,0.018-0.532-0.033-0.815l-0.05-0.083
			c0-0.066,0.034-0.083,0.05-0.167c0.018-0.116,0-0.216,0.033-0.35c0.018-0.116,0.018-0.183,0-0.3c-0.016-0.1-0.033-0.232,0-0.416
			c0.018-0.1,0.084-0.2,0.066-0.35c-0.016-0.083-0.049-0.1-0.033-0.149c0-0.033,0.018-0.05,0.033-0.067c0-0.05-0.016-0.116,0-0.166
			c0-0.066,0.033-0.2,0.051-0.267c0.017-0.066,0-0.149,0-0.232c0.017-0.05,0.066-0.101,0.083-0.167c0.017-0.116,0-0.25,0.033-0.366
			c0-0.05,0.034-0.184,0.05-0.25c0.018-0.033,0-0.1,0-0.149c0.033-0.166,0.133-0.3,0.167-0.482c0.017-0.034,0-0.067,0-0.101
			l0.116-0.383c0.033-0.199,0.166-0.433,0.217-0.633c0.033-0.116,0.217-0.416,0.316-0.565c0.033-0.066,0.1-0.15,0.149-0.2
			L6.202,11.209L6.202,11.209z M11.913,18.934c-0.083,0-0.199,0-0.266,0.017c-0.101,0.017-0.316,0.101-0.4,0.15
			c-0.35,0.232-0.782,0.532-0.865,0.999c-0.02,0.1,0,0.149-0.036,0.249c-0.017,0.15-0.017,0.316,0,0.483
			c0.017,0.017,0.036,0.066,0.036,0.116c0.05,0.267,0.35,0.652,0.566,0.735c0.149,0.066,0.266,0.1,0.299,0.217
			c0.033,0.166-0.083,0.249-0.133,0.35c-0.05,0.1-0.066,0.149-0.133,0.232c-0.15,0.217-0.434,0.316-0.55,0.517
			c-0.202,0.3,0.249,0.6,0.35,0.749c0.083,0.116,0.2,0.267,0.316,0.35c0.116,0.066,0.267,0.233,0.466,0.199l0.217-0.1
			c0.232-0.149,0.449-0.316,0.616-0.565c0.066-0.101,0.183-0.167,0.249-0.267c0.217-0.3,0.4-0.616,0.533-0.949
			c0.033-0.083,0.033-0.166,0.066-0.25c0.017-0.05,0.05-0.083,0.066-0.116c0.033-0.083,0.018-0.184,0.033-0.283
			c0.033-0.116,0.084-0.25,0.101-0.402c0.017-0.083,0.032-0.133,0.032-0.183c0.034-0.101-0.016-0.35-0.032-0.399
			c-0.034-0.15,0-0.334-0.034-0.5c-0.016-0.1,0-0.2-0.033-0.3c-0.016-0.083-0.1-0.133-0.133-0.216c0-0.017,0.017-0.051,0-0.084
			c0-0.05-0.116-0.183-0.166-0.249c-0.051-0.066-0.133-0.167-0.2-0.2c-0.017-0.017-0.083-0.017-0.116-0.05
			c-0.033-0.017-0.033-0.05-0.066-0.066C12.496,18.983,12.196,18.934,11.913,18.934L11.913,18.934z M19.089,8.961
			c-0.1,0.017-0.15,0.134-0.25,0.167c-0.266,0.05-0.549-0.066-0.865,0c-0.018,0-0.033,0.017-0.066,0.017
			c-0.233,0.05-0.649,0-0.866,0.033c-0.1,0.017-0.183-0.017-0.282,0c-0.018,0.017-0.051,0.033-0.067,0.033
			c-0.249,0.05-0.499-0.066-0.583,0.116c-0.083,0.15-0.066,0.267-0.049,0.384c0.016,0.166-0.067,0.416-0.034,0.599
			c0.034,0.184,0.017,0.45,0.066,0.649c0.05,0.217,0.316,0.167,0.616,0.167c0.467,0,1.166,0.033,1.516-0.034
			c0.066-0.017,0.299,0.017,0.332,0.034c0.1,0.05,0.018,0.299,0.018,0.399c0,0.033,0.033,0.1,0.033,0.133
			c-0.018,0.066-0.051,0.133-0.066,0.217c-0.033,0.183,0.033,0.416,0,0.582c0,0.034-0.033,0.051-0.033,0.066
			c-0.018,0.084,0.016,0.2,0,0.267c0,0.034-0.034,0.05-0.034,0.084c-0.033,0.183,0,0.383-0.033,0.565
			c-0.017,0.083-0.167,0.217-0.267,0.25c-0.049,0-0.1-0.017-0.183,0c-0.034,0-0.05,0.017-0.083,0.017c-0.15,0.033-0.367,0-0.566,0
			c-0.533,0-1.281,0.083-1.731-0.017c-0.083-0.017-0.116,0.017-0.217,0.017c-0.166,0.033-0.333,0-0.433,0.05
			c-0.119,0.05-0.136,0.184-0.152,0.3c-0.051,0.3-0.018,0.883,0.017,1.099c0.017,0.101-0.017,0.233,0,0.333
			c0.036,0.117,0.152,0.167,0.286,0.2c0.1,0.017,0.232,0,0.383,0c0.332,0,0.532-0.051,0.782,0c0.066,0,0.149-0.017,0.216,0
			c0.033,0,0.033,0.017,0.067,0.033c0.2,0.033,0.665-0.017,0.815-0.033c0.184-0.051,0.467,0.017,0.549,0.033
			c0.033,0,0.101-0.017,0.134,0c0.017,0,0.101,0.133,0.116,0.183c0.018,0.084-0.016,0.217-0.033,0.3
			c-0.033,0.217,0.018,0.433-0.033,0.649c0,0.033-0.033,0.05-0.033,0.084c-0.017,0.1,0.017,0.199,0,0.299
			c0,0.017-0.033,0.033-0.033,0.066c-0.017,0.101,0.017,0.217,0,0.316l-0.066,0.283c-0.018,0.083,0.017,0.184,0,0.283l-0.066,0.233
			c-0.018,0.1,0.016,0.199,0,0.282c0,0.034-0.033,0.067-0.033,0.084c-0.018,0.05,0,0.1,0,0.133l-0.066,0.267
			c-0.018,0.1,0.016,0.184,0,0.283c-0.018,0.149-0.067,0.283-0.101,0.433c-0.017,0.1,0.033,0.2,0,0.283
			c0,0.033-0.033,0.05-0.033,0.1c-0.034,0.134,0,0.316-0.034,0.482l-0.066,0.233c-0.016,0.101,0.018,0.2,0,0.283
			c-0.016,0.083-0.016,0.066,0,0.15c0.034,0.186,0.066,0.136,0.234,0.169c0.148,0.033,0.332,0.033,0.499,0.066
			c0.216,0.033,0.466,0,0.632,0c0.167,0,0.45,0.033,0.5-0.133c0.05-0.137,0.05-0.303,0.083-0.47c0-0.083,0.05-0.166,0.05-0.249
			c0.018-0.084-0.016-0.184,0-0.283l0.117-0.45c0.016-0.1-0.033-0.216,0-0.315c0.016-0.15,0.066-0.283,0.083-0.434
			c0.017-0.083-0.017-0.199,0-0.282c0.017-0.101,0.066-0.2,0.066-0.283c0-0.033-0.017-0.067-0.017-0.101
			c0-0.083,0.051-0.166,0.051-0.266c0.033-0.101,0.016-0.217,0.033-0.316c0.049-0.2,0.033-0.483,0.066-0.716l0.066-0.25
			c0-0.033-0.018-0.083-0.018-0.133c0-0.067,0.034-0.15,0.051-0.233s-0.017-0.167,0-0.25c0.033-0.166,0.05-0.316,0.066-0.466
			c0.017-0.067-0.017-0.167,0-0.217c0.017-0.033,0.033-0.05,0.033-0.083c0-0.017-0.033-0.066-0.033-0.083
			c0-0.018,0.066-0.018,0.066-0.033c0.033-0.067-0.033-0.233,0-0.366c0-0.034,0.033-0.051,0.033-0.067
			c0.017-0.083-0.016-0.166,0-0.232c0-0.033,0.033-0.051,0.033-0.084s-0.017-0.066-0.017-0.083c0-0.05,0.05-0.1,0.05-0.149
			c0.018-0.066-0.033-0.117-0.033-0.167c0-0.083,0.051-0.267,0.066-0.333c0.034-0.216,0-0.516,0.034-0.699
			c0-0.033,0.033-0.05,0.033-0.083c0.017-0.066-0.017-0.133,0-0.184c0.017-0.066,0.066-0.1,0.066-0.149
			c0.05-0.3-0.017-0.6,0.033-0.849l0.066-0.134c0.017-0.083-0.017-0.183,0-0.267c0-0.033,0.034-0.033,0.034-0.066
			c0.016-0.083-0.018-0.166,0-0.25c0-0.033,0.033-0.066,0.033-0.083c0-0.083-0.018-0.183,0-0.267c0-0.033,0.033-0.05,0.033-0.083
			c0.017-0.05,0-0.1,0-0.149c0.017-0.033,0.033-0.05,0.033-0.084c0-0.066-0.033-0.083-0.033-0.133c0-0.083,0.049-0.183,0.066-0.283
			c0.016-0.1,0.016-0.183,0.033-0.232c0-0.051-0.018-0.15,0-0.217c0.033-0.233,0.116-0.549,0.066-0.749
			c-0.05-0.116-0.232-0.083-0.399-0.116l-0.083-0.051c-0.217-0.033-0.5,0.017-0.75-0.033C19.421,8.961,19.221,8.928,19.089,8.961
			L19.089,8.961z M23.001,8.911c-0.05,0.017-0.183,0.066-0.216,0.167c0,0.033,0.017,0.066,0,0.1c0,0.033-0.033,0.05-0.033,0.083
			c-0.017,0.05,0.017,0.117,0,0.184l-0.067,0.199c-0.016,0.1,0.018,0.2,0,0.3c0,0.017-0.033,0.033-0.033,0.066
			c-0.016,0.134,0.018,0.267,0,0.384c-0.016,0.1-0.016,0.1,0,0.183c0.018,0.116-0.033,0.216-0.066,0.35
			c-0.016,0.166,0.033,0.333,0,0.466c0,0.017-0.033,0.051-0.033,0.083c-0.033,0.2,0.05,0.45,0,0.683
			c0,0.018-0.033,0.051-0.033,0.067c-0.05,0.249,0.051,0.516,0,0.766c-0.066,0.366,0.033,0.782-0.033,1.115
			c-0.05,0.25-0.05,0.782,0,0.999c0.033,0.133,0,0.333,0.033,0.433c0.083,0.233,0.467,0.067,0.732,0.134
			c0.033,0,0.051,0.017,0.066,0.033c0.084,0.017,0.184,0,0.267,0.017l0.183,0.083c0.034,0,0.067,0.05,0.101,0.066
			c0.017,0,0.05-0.017,0.066,0c0.083,0.017,0.167,0.1,0.233,0.134c0.1,0.033,0.116,0.033,0.199,0.083
			c0.134,0.083,0.333,0.183,0.467,0.283c0.266,0.199,0.499,0.549,0.633,0.865l0.066,0.184c0,0.05-0.018,0.116,0,0.166
			c0.017,0.101,0.066,0.2,0.066,0.283c0,0.05-0.017,0.116-0.033,0.167l-0.033,0.149c-0.084,0.316-0.334,0.666-0.566,0.832
			c-0.184,0.117-0.383,0.25-0.582,0.333c-0.167,0.067-0.35,0.101-0.517,0.167c-0.05,0.017-0.083,0.05-0.116,0.066
			c-0.233,0.066-0.517,0.083-0.766,0.133c-0.067,0-0.15-0.017-0.217,0c-0.033,0-0.051,0.034-0.084,0.034
			c-0.199,0.033-0.482-0.051-0.666,0c-0.169,0.05-0.169,0.282-0.135,0.482c0.035,0.166,0.035,0.6,0,0.749
			c-0.018,0.149-0.067,0.267-0.018,0.45c0.053,0.269,0.603,0.186,0.985,0.186c0.483,0,0.849,0,1.231-0.067l0.25-0.068
			c0.051-0.018,0.117,0.016,0.2,0c0.033-0.018,0.083-0.05,0.149-0.067c0.416-0.133,0.816-0.216,1.148-0.433l0.633-0.433
			c0.117-0.083,0.283-0.25,0.35-0.35l0.25-0.316c0.051-0.083,0.051-0.2,0.117-0.283h0.049c0.033-0.033,0.15-0.333,0.167-0.383
			l0.034-0.166c0.033-0.084,0.1-0.167,0.1-0.233c0.016-0.05,0-0.1,0-0.15c0.033-0.116,0.083-0.232,0.1-0.35
			c0-0.066-0.033-0.083-0.033-0.133c0-0.017,0.033-0.05,0.033-0.083c0.017-0.1,0.017-0.184,0.033-0.217
			c0.033-0.133-0.017-0.35-0.033-0.416c-0.017-0.083,0.017-0.2,0-0.3c-0.017-0.083-0.017-0.083,0-0.15
			c0.017-0.133-0.051-0.166-0.066-0.232c-0.033-0.166-0.033-0.25-0.066-0.383c-0.033-0.117-0.117-0.2-0.134-0.283
			c-0.017-0.116-0.033-0.1-0.066-0.167c-0.05-0.066-0.067-0.183-0.101-0.232c-0.016-0.033-0.049-0.033-0.066-0.066
			c0-0.018,0.018-0.067,0-0.083c-0.05-0.117-0.199-0.233-0.25-0.334c-0.116-0.149-0.315-0.366-0.465-0.449
			c-0.084-0.05-0.134-0.133-0.217-0.199c-0.1-0.067-0.233-0.101-0.35-0.167c-0.117-0.083-0.217-0.149-0.334-0.2
			c-0.115-0.033-0.249-0.1-0.365-0.133c-0.167-0.033-0.5-0.066-0.616-0.183c-0.067-0.084-0.116-0.399-0.083-0.566
			c0.016-0.083,0.016-0.066,0-0.134c-0.033-0.166,0.016-0.516,0.033-0.615c0.017-0.067-0.018-0.184,0-0.267
			c0.017-0.083,0.017-0.083,0-0.167c-0.018-0.083,0.033-0.216,0.033-0.266c0.017-0.083-0.017-0.184,0-0.267
			c0-0.017,0.033-0.05,0.05-0.066c0-0.033-0.017-0.084,0-0.116c0-0.034,0.083-0.167,0.116-0.167c0.1-0.05,0.367,0,0.516,0
			c0.168,0,0.384,0.017,0.518,0c0.033-0.017,0.049-0.05,0.1-0.033c0.033,0,0.05,0.017,0.1,0.033c0.066,0,0.199-0.033,0.283,0
			c0.217,0.05,0.565,0.033,0.898,0.033c0.3,0,0.566,0.033,0.833,0c0.05-0.017,0.233-0.066,0.249-0.083
			c0.067-0.066,0.084-0.35,0.1-0.45c0.033-0.116-0.016-0.266,0-0.366c0.018-0.083,0.033-0.066,0-0.149
			c-0.032-0.2,0.084-0.466,0.051-0.616c-0.018-0.05-0.083-0.149-0.117-0.183c-0.1-0.051-0.282,0.017-0.433-0.017l-0.066-0.05
			c-0.282-0.051-0.599,0.066-0.915,0c-0.034,0-0.051-0.017-0.067-0.034c-0.216-0.033-0.433,0.034-0.632,0
			c-0.101-0.017-0.35-0.05-0.5-0.033c-0.133,0.033-0.199,0.033-0.333,0c-0.083,0-0.183-0.017-0.25-0.017
			c-0.05,0-0.116,0.033-0.183,0.017c-0.084-0.017-0.166-0.1-0.217-0.166C24.6,9.128,24.6,9.078,24.566,9.027
			c-0.134-0.133-0.417-0.05-0.683-0.083c-0.033-0.017-0.033-0.033-0.066-0.033C23.65,8.861,23.135,8.878,23.001,8.911L23.001,8.911z
			"/>
	</g>
</g>
<g id="Vrstva_4" display="none">
	<g display="inline">
		<path d="M17.359,8.164c-0.08,0.02-0.28,0-0.42,0.02c-0.021,0.021-0.061,0.04-0.08,0.04c-0.28,0.061-0.541-0.06-0.74,0.061
			c-0.18,0.08-0.12,0.319-0.26,0.479c-0.061,0.04-0.121,0.04-0.18,0.1c-0.141,0.221-0.201,0.461-0.281,0.761
			c-0.06,0.18-0.22,0.42-0.279,0.58c-0.02,0.08-0.02,0.14-0.061,0.2c-0.06,0.199-0.199,0.38-0.26,0.56l-0.04,0.2
			c-0.04,0.1-0.12,0.18-0.159,0.279c-0.061,0.141-0.101,0.301-0.16,0.461c-0.08,0.22-0.24,0.42-0.32,0.64
			c-0.041,0.14-0.101,0.28-0.16,0.44c-0.08,0.22-0.26,0.479-0.34,0.72c-0.1,0.22-0.18,0.46-0.26,0.68
			c-0.041,0.12-0.141,0.28-0.2,0.4c-0.061,0.14-0.101,0.28-0.14,0.42c-0.021,0.04-0.08,0.08-0.101,0.12
			c-0.06,0.18-0.08,0.34-0.14,0.52c-0.041,0.08-0.12,0.16-0.141,0.26c-0.04,0.28,0,0.48,0.24,0.58c0.141,0.04,0.34,0.08,0.5,0.141
			c0.141,0.06,0.26,0.16,0.4,0.199c0.16,0.061,0.32,0.061,0.439,0.12c0.04,0.021,0.061,0.08,0.1,0.08c0.08,0.021,0.32,0.021,0.381,0
			c0.08-0.02,0.24-0.399,0.279-0.46c0.08-0.22,0.16-0.359,0.221-0.56c0.08-0.261,0.24-0.54,0.32-0.8
			c0.06-0.141,0.119-0.24,0.16-0.38c0.039-0.12,0.079-0.16,0.119-0.28c0.061-0.181,0.16-0.4,0.26-0.561
			c0.061-0.1,0.061,0.08,0.08,0.2c0.02,0.08,0.02,0.2,0,0.28c-0.02,0.1,0,0.06,0,0.16c0.02,0.12,0.041,0.16,0.041,0.22
			c0.02,0.12-0.021,0.3,0,0.44c0.039,0.14,0.02,0.18,0,0.3c-0.021,0.18-0.021,0.24,0,0.34c0.039,0.2,0,0.479,0,0.76v1.521
			c0,0.239,0.039,0.58,0,0.759c0,0.02-0.021,0.04-0.041,0.08c-0.04,0.3,0.061,0.62,0,0.899c0,0.04-0.04,0.061-0.04,0.12
			c0,0.04,0.04,0.08,0.04,0.101c0.041,0.18,0.041,0.54,0,0.779c0,0.08-0.06,0.24-0.04,0.38c0.04,0.16,0.04,0.221,0,0.381
			c0,0.06,0.021,0.18,0,0.24c0,0.02-0.04,0.06-0.04,0.1c-0.039,0.26,0,0.703,0.16,0.743c0.18,0.04,0.42,0,0.62,0s0.42-0.04,0.62,0
			c0.1,0.02,0.16,0.06,0.26,0.04c0.24-0.061,0.62,0,0.66-0.243c0.02-0.061,0-0.12,0-0.2c0.02-0.021,0.04-0.061,0.04-0.08
			c0.06-0.32-0.06-0.66,0-0.96c0-0.021,0.04-0.04,0.06-0.08c0.061-0.26-0.02-0.72,0.021-1c0.021-0.1,0-0.24,0-0.34
			c0.04-0.1,0.021-0.08,0-0.18c-0.021-0.16,0-0.42,0-0.66s-0.021-0.5,0-0.66c0.021-0.1,0.021-0.1,0-0.2v-0.32
			c0.04-0.22,0.04-0.52,0.04-0.819c0-0.261,0.039-0.561,0-0.74c0-0.04-0.04-0.061-0.04-0.08c0.021-0.06,0.06-0.1,0.04-0.16
			c0-0.06-0.061-0.14-0.061-0.22c0-0.38,0.061-1.24,0-1.58c-0.08-0.36,0.061-0.78,0-1.14c-0.02-0.061-0.08-0.141-0.1-0.221
			c-0.04-0.319,0.061-0.699,0-0.979c-0.02-0.08,0-0.061,0-0.141c0.02-0.1-0.02-0.159-0.04-0.22c0-0.08,0.021-0.18,0-0.28
			c0-0.02-0.021-0.04-0.04-0.08c-0.04-0.26,0.061-0.6,0-0.939l-0.061-0.52c-0.02-0.081,0.021-0.181,0-0.261l-0.06-0.1
			c-0.04-0.18,0.04-0.4,0-0.601c0-0.039-0.02-0.06-0.04-0.079c-0.02-0.141,0.04-0.261,0-0.36c0-0.021-0.02-0.04-0.039-0.061
			c0-0.06,0.02-0.14,0-0.18C18.058,8.164,17.558,8.124,17.359,8.164L17.359,8.164z"/>
	</g>
</g>
</svg>
