<?xml version="1.0" encoding="utf-8"?>
<!-- Generator: Adobe Illustrator 15.1.0, SVG Export Plug-In . SVG Version: 6.00 Build 0)  -->
<!DOCTYPE svg PUBLIC "-//W3C//DTD SVG 1.1//EN" "http://www.w3.org/Graphics/SVG/1.1/DTD/svg11.dtd">
<svg version="1.1" id="Vrstva_1" xmlns="http://www.w3.org/2000/svg" xmlns:xlink="http://www.w3.org/1999/xlink" x="0px" y="0px"
	 width="94px" height="29.917px" viewBox="0 0 94 29.917" enable-background="new 0 0 94 29.917" xml:space="preserve">
<g>
	<polygon fill-rule="evenodd" clip-rule="evenodd" fill="#43ADA5" points="2.602,6.413 83.352,2.464 88.057,7.852 92.763,13.238 
		88.605,19.06 84.448,24.881 3.698,28.83 	"/>
	
		<polygon fill-rule="evenodd" clip-rule="evenodd" fill="none" stroke="#231F20" stroke-width="0.5669" stroke-linecap="round" stroke-linejoin="round" stroke-miterlimit="22.9256" points="
		1.237,5.036 81.987,1.087 86.691,6.475 91.398,11.861 87.24,17.684 83.083,23.504 2.333,27.453 	"/>
	<g>
		<path fill="#FFFFFF" d="M21.785,12.435c-0.025,0.015-0.127,0.071-0.135,0.163c-0.01,0.053,0.018,0.104,0.008,0.155
			c0,0.014-0.024,0.041-0.023,0.066c-0.01,0.065,0.019,0.129,0.009,0.195c-0.028,0.222,0.01,0.455-0.019,0.677
			c0.002,0.039-0.023,0.067-0.022,0.093c-0.01,0.065,0.021,0.143,0.011,0.221c0,0.013-0.024,0.027-0.023,0.053
			c-0.008,0.104,0.036,0.207,0.016,0.325l-0.04,0.249c-0.006,0.144,0.041,0.298,0.021,0.441c-0.016,0.209,0.006,0.39-0.023,0.587
			c0.002,0.052,0.02,0.129,0.009,0.182c0.001,0.026-0.023,0.054-0.022,0.092c-0.006,0.131,0.04,0.271,0.02,0.39
			c-0.011,0.054-0.061,0.095-0.097,0.148c-0.036,0.08-0.042,0.197-0.063,0.303c-0.018,0.222,0.037,0.479,0.004,0.663
			c-0.021,0.118-0.01,0.326,0.021,0.429c0.031,0.05,0.083,0.074,0.112,0.125c0.056,0.088,0.02,0.142,0.011,0.221
			c-0.016,0.209,0.049,0.466,0.02,0.676l-0.035,0.079c0.003,0.052,0.019,0.116,0.008,0.156c0.001,0.026-0.01,0.053-0.022,0.079
			c-0.007,0.131,0.039,0.271,0.02,0.415c0.001,0.026-0.011,0.04-0.025,0.066c-0.008,0.092,0.063,0.18,0.043,0.298
			c-0.01,0.065-0.047,0.146-0.045,0.184c0,0.014,0.028,0.038,0.029,0.064c0.019,0.077,0.033,0.103,0.036,0.154
			c0.034,0.168-0.013,0.313-0.032,0.457c-0.014,0.261,0.079,0.504,0.035,0.727c0.002,0.053-0.021,0.105-0.004,0.17
			c0.017,0.09,0.051,0.245,0.132,0.279c0.161,0.073,0.418,0.021,0.665,0.01c0.208-0.011,0.404,0.006,0.558-0.027
			c0.013-0.014,0.167-0.05,0.18-0.051c0.038-0.027,0.101-0.343,0.054-0.483c-0.017-0.091-0.055-0.323-0.047-0.44
			c0.01-0.065,0.034-0.106,0.018-0.17c-0.017-0.091-0.055-0.323-0.048-0.453c0.009-0.065,0.034-0.106,0.018-0.157
			c-0.001-0.026-0.028-0.051-0.029-0.063c-0.002-0.053,0.033-0.119,0.042-0.197c0.019-0.145-0.041-0.311-0.021-0.429l0.035-0.08
			c0.007-0.131-0.014-0.285-0.007-0.416c0.029-0.196,0.007-0.378,0.025-0.548c0.009-0.079-0.02-0.143-0.01-0.208
			c0.009-0.078,0.054-0.224,0.118-0.253c0.051-0.028,0.222,0.002,0.288,0.012c0.117,0.008,0.245-0.037,0.35-0.017
			c0.092,0.009,0.313,0.023,0.43,0.005c0.051-0.016,0.142-0.033,0.195-0.01c0.053,0.023,0.129,0.241,0.108,0.359
			c0.001,0.025-0.023,0.053-0.021,0.079c-0.008,0.104,0.037,0.219,0.04,0.284c0.016,0.052,0.005,0.104,0.008,0.169
			c0.048,0.18,0.049,0.466,0.062,0.726c0.01,0.208-0.004,0.456,0.032,0.662c0.049,0.206,0.046,0.414,0.083,0.621
			c0.033,0.142-0.012,0.287,0.021,0.429c0,0.013,0.028,0.037,0.029,0.063c0.034,0.154,0.014,0.286,0.047,0.427
			c0.049,0.209,0.345,0.142,0.59,0.091c0.09-0.018,0.182,0.004,0.247-0.012c0.026-0.002,0.039-0.016,0.063-0.029
			c0.064-0.017,0.157,0.005,0.208-0.011c0.026-0.001,0.051-0.028,0.077-0.029c0.064-0.017,0.157,0.005,0.195-0.01
			c0.039-0.015,0.113-0.086,0.125-0.112c0.032-0.145-0.025-0.52-0.059-0.661c-0.016-0.051,0.008-0.104-0.007-0.155
			c-0.033-0.142-0.053-0.271-0.045-0.389c0.009-0.078,0.008-0.104-0.009-0.182c-0.053-0.297-0.003-0.599-0.069-0.895
			c-0.035-0.181-0.004-0.338-0.05-0.492c-0.001-0.025-0.028-0.038-0.029-0.063c-0.034-0.168-0.018-0.364-0.027-0.546l-0.161-3.285
			c-0.01-0.194-0.045-0.4-0.027-0.558c-0.001-0.026,0.024-0.041,0.023-0.066c0.02-0.131-0.04-0.284-0.021-0.429
			c0.012-0.026,0.024-0.04,0.023-0.066c0.02-0.118-0.026-0.259-0.018-0.363c0.009-0.078,0.009-0.078-0.007-0.143
			c-0.018-0.104-0.027-0.285-0.02-0.402c0.028-0.21,0.016-0.47-0.141-0.488c-0.092-0.021-0.181,0.022-0.272,0.014
			c-0.014-0.013-0.041-0.024-0.054-0.023c-0.092-0.021-0.247,0.012-0.402,0.02c-0.208,0.01-0.391-0.007-0.492,0.05
			c-0.114,0.071-0.059,0.133-0.078,0.277c0.001,0.026-0.023,0.054-0.022,0.079c-0.02,0.132,0.042,0.337,0.025,0.52
			c-0.008,0.092-0.055,0.198-0.038,0.288c0.048,0.193,0.073,0.699,0.043,0.883c-0.017,0.196,0.063,0.492,0.034,0.688
			c0.001,0.026-0.012,0.026-0.023,0.066c-0.048,0.354,0.206,1.018-0.115,1.099c-0.104,0.018-0.196-0.017-0.261-0.013
			c-0.026,0.001-0.052,0.015-0.09,0.03c-0.078,0.017-0.131-0.007-0.235-0.015c-0.065-0.01-0.142,0.02-0.208,0.01
			c-0.026,0.001-0.053-0.023-0.079-0.021c-0.196-0.018-0.298,0.04-0.37-0.1l-0.034-0.154c-0.001-0.039-0.028-0.051-0.029-0.063
			c-0.017-0.091,0.005-0.157,0.015-0.235c0.01-0.065-0.007-0.13-0.01-0.195c0.012-0.026,0.024-0.04,0.023-0.065
			c0.01-0.065-0.031-0.103-0.034-0.168c-0.001-0.025,0.023-0.053,0.021-0.092c0.02-0.131-0.014-0.286,0.004-0.443
			c0.029-0.196,0.006-0.391,0.024-0.573c0.018-0.17-0.017-0.338,0.002-0.481c-0.001-0.026,0.023-0.054,0.022-0.079
			c0.01-0.066-0.03-0.09-0.033-0.155c-0.002-0.039,0.023-0.053,0.021-0.105c0.028-0.222-0.034-0.428-0.006-0.65l0.047-0.105
			c0.018-0.171-0.03-0.363-0.137-0.41c-0.133-0.059-0.324,0.016-0.507-0.002c-0.079-0.021-0.131-0.019-0.247,0.013
			c-0.064,0.017-0.131-0.007-0.209-0.016c-0.091-0.009-0.26,0-0.311,0.016L21.785,12.435L21.785,12.435z M27.121,12.174
			c-0.063,0.029-0.162,0.15-0.181,0.295s0.04,0.285,0.021,0.429c0.001,0.025-0.011,0.04-0.01,0.065
			c-0.01,0.065,0.021,0.155,0.011,0.221l-0.035,0.08c-0.008,0.104,0.038,0.245,0.02,0.402c0.001,0.013-0.012,0.026-0.023,0.053
			c-0.03,0.224,0.052,0.531,0.011,0.794c-0.027,0.235,0,0.533,0.037,0.753c0.034,0.115,0.014,0.286,0.021,0.429
			c0.016,0.338,0.013,0.533,0.028,0.845c0.006,0.116-0.013,0.273,0.017,0.351c0.018,0.09,0.081,0.269,0.062,0.426
			c-0.009,0.118-0.013,0.301-0.005,0.47c0.02,0.415,0.022,0.987,0.093,1.336c0.016,0.051,0.006,0.116,0.008,0.169
			c0.017,0.063,0.06,0.166,0.039,0.258c-0.041,0.275-0.027,0.548,0.04,0.805c0.032,0.129,0.017,0.338,0.026,0.533
			c0.009,0.194,0.046,0.414,0.026,0.545c0.001,0.025-0.024,0.04-0.023,0.066c0.004,0.077,0.078,0.271,0.132,0.295
			c0.04,0.011,0.142-0.02,0.221-0.011c0.065,0.01,0.197,0.029,0.274,0.013c0.206-0.049,0.466-0.049,0.621-0.082
			c0.064-0.017,0.169,0.005,0.234-0.012c0.128-0.035,0.059-0.122,0.078-0.267c0.019-0.131,0.08-0.226,0.034-0.366
			c-0.002-0.039-0.019-0.104-0.021-0.168c-0.014-0.025-0.042-0.05-0.043-0.076c-0.001-0.025,0.024-0.053,0.035-0.08
			c0.01-0.078-0.072-0.152-0.076-0.23c0-0.013,0.024-0.04,0.023-0.066c0.02-0.117-0.031-0.362-0.047-0.439
			c-0.035-0.181-0.02-0.403-0.029-0.585c-0.01-0.207,0.018-0.43-0.029-0.597c-0.001-0.026-0.028-0.038-0.029-0.064
			c-0.007-0.129,0.117-0.266,0.219-0.296c0.052-0.003,0.104,0.007,0.156-0.008c0.077-0.017,0.126-0.085,0.231-0.063
			c0.106,0.034,0.152,0.188,0.208,0.263c0.098,0.139,0.184,0.304,0.284,0.48c0.072,0.127,0.197,0.29,0.242,0.418
			c0.075,0.205,0.213,0.354,0.287,0.532c0.03,0.077,0.071,0.127,0.087,0.191c0.043,0.076,0.06,0.153,0.09,0.23
			c0.043,0.089,0.111,0.15,0.142,0.24c0.045,0.114,0.091,0.256,0.196,0.276c0.25,0.053,0.411-0.111,0.564-0.184
			c0.013-0.001,0.04,0.011,0.039-0.002c0.09-0.018,0.164-0.1,0.254-0.13c0.012-0.014,0.039-0.002,0.051-0.016
			c0.089-0.03,0.151-0.111,0.202-0.127c0.064-0.016,0.051-0.028,0.101-0.057c0.038-0.028,0.089-0.044,0.114-0.07
			c0.037-0.041,0.029-0.21,0.012-0.287c-0.031-0.103-0.139-0.188-0.17-0.291l-0.003-0.065c-0.031-0.103-0.155-0.239-0.228-0.393
			l-0.032-0.115c-0.042-0.076-0.111-0.15-0.128-0.228c-0.061-0.18-0.238-0.327-0.27-0.469c-0.001-0.013,0.01-0.053-0.003-0.052
			c-0.016-0.064-0.11-0.125-0.139-0.188c0-0.013,0.011-0.039-0.003-0.052c0-0.014-0.04-0.011-0.04-0.024
			c-0.014-0.012-0.002-0.052-0.003-0.064c-0.031-0.103-0.137-0.149-0.167-0.239c-0.014-0.013-0.002-0.039-0.003-0.065
			c-0.016-0.063-0.11-0.124-0.139-0.175s-0.071-0.114-0.086-0.165c-0.049-0.193,0.08-0.226,0.153-0.333
			c0.06-0.107,0.134-0.176,0.194-0.283c0.061-0.081,0.082-0.199,0.13-0.267c0.024-0.04,0.025-0.015,0.048-0.08
			c0.032-0.145,0.155-0.281,0.187-0.438c-0.001-0.026-0.016-0.052-0.004-0.078c0.007-0.117,0.066-0.237,0.074-0.355
			c0.009-0.078-0.021-0.168-0.013-0.26c0.01-0.065,0.057-0.158,0.04-0.235c0-0.014-0.014-0.026-0.016-0.052
			c-0.014-0.038-0.004-0.091-0.005-0.117l-0.042-0.076c-0.049-0.205-0.008-0.429-0.057-0.621l-0.036-0.194
			c-0.032-0.115-0.051-0.244-0.082-0.347c-0.06-0.153-0.17-0.278-0.241-0.405c0-0.013,0.012-0.026-0.002-0.039
			c-0.015-0.038-0.056-0.075-0.084-0.112l-0.084-0.127c-0.028-0.037-0.081-0.061-0.122-0.098c-0.069-0.088-0.207-0.25-0.302-0.311
			l-0.253-0.131L30,12.476c-0.161-0.097-0.356-0.1-0.528-0.156c-0.04-0.012-0.067-0.049-0.094-0.048
			c-0.066-0.022-0.156-0.005-0.222-0.015c-0.04-0.012-0.081-0.049-0.132-0.046c-0.092-0.009-0.182,0.009-0.274-0.013
			c-0.026,0.001-0.041-0.024-0.066-0.022c-0.04-0.012-0.091,0.004-0.143,0.007c-0.026-0.012-0.04-0.024-0.066-0.023
			c-0.04-0.011-0.091,0.005-0.143,0.007c-0.013-0.012-0.04-0.023-0.053-0.023c-0.105-0.021-0.207,0.023-0.312,0.016
			c-0.014-0.013-0.041-0.023-0.053-0.023c-0.066-0.01-0.104,0.019-0.181,0.035c-0.104,0.018-0.248-0.001-0.3-0.012
			C27.354,12.149,27.172,12.158,27.121,12.174L27.121,12.174z M28.448,14.009c0.02-0.118,0.021-0.365,0.096-0.421
			c0.025-0.015,0.194-0.022,0.247-0.012c0.026-0.002,0.054,0.036,0.094,0.047c0.238,0.079,0.425,0.175,0.602,0.335
			c0.231,0.21,0.402,0.501,0.509,0.821c0.074,0.191,0.073,0.699,0.029,0.87c-0.056,0.173-0.177,0.374-0.274,0.521
			c-0.146,0.216-0.399,0.358-0.653,0.475c-0.077,0.03-0.19,0.113-0.28,0.131c-0.18,0.048-0.184-0.03-0.216-0.158
			c-0.001-0.026-0.028-0.038-0.029-0.064c-0.002-0.038,0.035-0.079,0.019-0.144c-0.048-0.193-0.015-0.572-0.095-0.867
			c-0.049-0.22,0.015-0.509-0.036-0.74c-0.018-0.104-0.007-0.144-0.01-0.208c0.01-0.053-0.007-0.13-0.009-0.182
			c0.013-0.014,0.025-0.027,0.023-0.053C28.485,14.255,28.439,14.101,28.448,14.009L28.448,14.009z M34.967,11.595
			c-0.115,0.031-0.175,0.151-0.207,0.297l-0.018,0.17c-0.021,0.118-0.093,0.226-0.113,0.356l-0.017,0.184
			c-0.021,0.092-0.069,0.198-0.089,0.304l0.004,0.091c-0.021,0.104-0.08,0.238-0.088,0.329c-0.019,0.157-0.05,0.302-0.083,0.447
			l-0.044,0.158c-0.019,0.157-0.037,0.313-0.068,0.472l-0.036,0.054c-0.032,0.158-0.049,0.328-0.068,0.485
			c-0.041,0.223-0.121,0.448-0.149,0.671c-0.018,0.17-0.064,0.276-0.083,0.42c-0.02,0.118-0.016,0.196-0.038,0.289l-0.15,0.658
			c-0.034,0.105-0.04,0.249-0.06,0.367c-0.044,0.158-0.112,0.356-0.13,0.539c-0.008,0.105-0.017,0.184-0.038,0.289l-0.065,0.263
			l-0.045,0.146l-0.082,0.46c-0.01,0.065-0.058,0.146-0.067,0.225l-0.016,0.209c-0.011,0.053-0.034,0.093-0.045,0.132
			c0.001,0.026,0.016,0.064,0.005,0.104c-0.009,0.078-0.043,0.171-0.066,0.25c-0.008,0.104-0.03,0.171-0.041,0.236
			c0.002,0.039,0.017,0.078,0.006,0.117c-0.02,0.131-0.067,0.225-0.074,0.355c-0.011,0.039,0.004,0.091,0.006,0.129
			c-0.011,0.053-0.046,0.106-0.057,0.159c-0.01,0.065,0.02,0.143,0.01,0.208c-0.009,0.079-0.033,0.171-0.029,0.249
			c0.011,0.223,0.284,0.17,0.506,0.198c0.079,0.009,0.182-0.009,0.261,0.014c0.013-0.001,0.027,0.024,0.04,0.024
			c0.026,0.011,0.078-0.004,0.104-0.006c0.144,0.019,0.499,0.093,0.586,0.023c0.038-0.028,0.104-0.28,0.102-0.319l0.039-0.263
			l0.059-0.393c0.012-0.027-0.003-0.065-0.005-0.104c0.008-0.091,0.07-0.172,0.067-0.225c0.02-0.118,0.016-0.195,0.036-0.327
			l0.067-0.225c0.012-0.026-0.002-0.038-0.003-0.064c0.02-0.131,0.115-0.306,0.192-0.322c0.039-0.015,0.092,0.009,0.145,0.02
			c0.078-0.004,0.155-0.021,0.208-0.01c0.013-0.001,0.04,0.011,0.053,0.01c0.066,0.022,0.156-0.007,0.208-0.01
			c0.014,0.012,0.027,0.024,0.053,0.023c0.105,0.021,0.246-0.025,0.338-0.017c0.013,0.012,0.027,0.024,0.04,0.024
			c0.131,0.02,0.26-0.013,0.365,0.008l0.054,0.036c0.025-0.001,0.064-0.016,0.091-0.004c0.249,0.039,0.274,0.285,0.376,0.515
			c0.03,0.077,0.058,0.128,0.086,0.165c0.089,0.218,0.125,0.423,0.213,0.627c0.031,0.104,0.103,0.229,0.146,0.319
			c0.015,0.038,0.018,0.09,0.019,0.115c0.057,0.091,0.161,0.086,0.263,0.055c0.052-0.003,0.118,0.007,0.168-0.008
			c0.025-0.015,0.063-0.056,0.101-0.072c0.051-0.016,0.104,0.01,0.143-0.007c0.026-0.002,0.05-0.042,0.075-0.056
			c0.051-0.016,0.118,0.007,0.143-0.008c0.026-0.001,0.037-0.041,0.062-0.055c0.052-0.016,0.104,0.008,0.156-0.008
			c0.012-0.014,0.024-0.04,0.049-0.055c0.064-0.016,0.144,0.007,0.195-0.009c0.064-0.017,0.152-0.086,0.163-0.126
			c0.021-0.092-0.049-0.205-0.066-0.283l-0.004-0.077c-0.033-0.129-0.115-0.216-0.134-0.343l-0.045-0.128l-0.034-0.154
			c-0.033-0.142-0.117-0.255-0.149-0.384c-0.001-0.025,0.009-0.078-0.005-0.104c-0.001-0.026-0.041-0.037-0.042-0.063
			c-0.044-0.102-0.037-0.206-0.068-0.321c-0.015-0.039-0.056-0.076-0.071-0.127c-0.001-0.013,0.01-0.053-0.004-0.078
			c-0.001-0.025-0.042-0.05-0.043-0.089c-0.031-0.09-0.064-0.242-0.094-0.318c-0.076-0.218-0.126-0.463-0.19-0.694
			c-0.017-0.077-0.073-0.152-0.089-0.229l-0.004-0.091c-0.016-0.064-0.071-0.113-0.087-0.191c-0.019-0.103-0.047-0.153-0.063-0.229
			c-0.015-0.038,0.009-0.092-0.006-0.13c-0.018-0.09-0.089-0.23-0.12-0.333c-0.001-0.025,0.009-0.065-0.005-0.09
			c-0.016-0.065-0.07-0.114-0.086-0.179c-0.002-0.039,0.009-0.078-0.005-0.104c-0.032-0.116-0.089-0.23-0.121-0.346l-0.035-0.181
			l-0.096-0.37c-0.002-0.039-0.043-0.089-0.058-0.128l-0.004-0.078c-0.017-0.077-0.059-0.14-0.089-0.217
			c-0.001-0.025,0.01-0.052-0.004-0.077c-0.018-0.104-0.062-0.192-0.092-0.282c-0.018-0.091-0.036-0.193-0.064-0.257
			c-0.016-0.064-0.007-0.143-0.023-0.208c-0.016-0.063-0.083-0.112-0.1-0.177c-0.016-0.063-0.006-0.128-0.036-0.204
			c-0.002-0.052-0.043-0.09-0.045-0.142c-0.033-0.128-0.039-0.258-0.071-0.373l-0.121-0.346c-0.03-0.077-0.021-0.155-0.037-0.232
			c-0.016-0.052-0.071-0.114-0.087-0.179c-0.014-0.025-0.003-0.064-0.004-0.091c-0.045-0.125-0.253-0.115-0.223-0.299
			c0.009-0.078,0.02-0.131-0.035-0.181c-0.094-0.061-0.224-0.041-0.354-0.061l-0.119-0.047c-0.04-0.011-0.104,0.019-0.156,0.008
			c-0.065-0.01-0.133-0.059-0.211-0.067c-0.053-0.011-0.116,0.019-0.169,0.008C35.034,11.617,35.02,11.592,34.967,11.595
			L34.967,11.595z M35.458,16.289c0.027-0.235,0.094-0.474,0.175-0.673c0.095,0.087,0.087,0.179,0.121,0.333
			c0.016,0.064,0.071,0.113,0.087,0.178l0.004,0.091c0,0.014,0.027,0.025,0.028,0.051l0.036,0.206l0.099,0.425
			c0.032,0.129,0.089,0.23,0.121,0.344c0.015,0.025,0.004,0.078,0.006,0.116c0.033,0.155,0.16,0.357,0.032,0.402
			c-0.077,0.029-0.26,0-0.312,0.002c-0.053-0.01-0.117,0.006-0.182,0.01c-0.013-0.013-0.027-0.025-0.041-0.024
			c-0.131-0.033-0.246,0.012-0.352-0.009c-0.211-0.068-0.033-0.415-0.013-0.533c-0.001-0.026-0.017-0.075-0.004-0.089
			c0.008-0.104,0.067-0.211,0.089-0.304c-0.001-0.025-0.016-0.064-0.005-0.104c0.007-0.117,0.094-0.213,0.114-0.331
			C35.46,16.341,35.446,16.315,35.458,16.289L35.458,16.289z M37.044,7.484c-0.103,0.031-0.126,0.084-0.187,0.179
			c-0.048,0.08-0.148,0.163-0.222,0.244c-0.075,0.069-0.187,0.166-0.223,0.232c-0.094,0.213-0.309,0.341-0.403,0.54
			c-0.048,0.094-0.149,0.151-0.197,0.231c0.001,0.013,0.001,0.026-0.01,0.053c-0.024,0.04-0.075,0.068-0.111,0.122
			c-0.037,0.041-0.047,0.094-0.071,0.134c-0.061,0.095-0.135,0.176-0.196,0.257c-0.047,0.094-0.082,0.187-0.143,0.28
			c-0.036,0.067-0.11,0.136-0.133,0.202c-0.048,0.08-0.158,0.242-0.153,0.346c0.009,0.182,0.219,0.224,0.366,0.295
			c0.08,0.035,0.187,0.095,0.266,0.117c0.105,0.021,0.158,0.044,0.211,0.067c0.052,0.011,0.078-0.004,0.131,0.02
			c0.106,0.034,0.213,0.106,0.354,0.061c0.089-0.03,0.222-0.258,0.27-0.338c0.072-0.121,0.134-0.176,0.195-0.271
			c0.024-0.027,0.022-0.079,0.047-0.106s0.063-0.055,0.074-0.081c0.058-0.134,0.234-0.259,0.281-0.365
			c0.072-0.121,0.173-0.191,0.232-0.311c0.023-0.054,0.137-0.111,0.173-0.191c0.022-0.065,0.073-0.095,0.11-0.148
			c0.073-0.107,0.172-0.203,0.257-0.338c0.061-0.081,0.137-0.124,0.172-0.204c0.056-0.197-0.077-0.256-0.174-0.382
			c-0.07-0.087-0.124-0.137-0.219-0.223c-0.108-0.086-0.164-0.148-0.244-0.196C37.351,7.639,37.275,7.421,37.044,7.484L37.044,7.484
			z M41.99,11.212c0.026-0.001,0.04,0.012,0.066,0.023c0.183,0.017,0.311-0.028,0.406,0.058c0.027,0.025,0.044,0.103,0.084,0.126
			c0.053,0.023,0.286-0.014,0.363-0.018l0.364-0.018c0.26-0.013,0.543-0.065,0.728-0.036c0.039-0.001,0.052,0.011,0.079,0.022
			c0.236,0.041,0.543-0.065,0.716,0.018c0.107,0.06,0.073,0.426,0.083,0.62c0.01,0.208,0.045,0.401,0.027,0.559
			c0.001,0.026-0.004,0.169-0.042,0.185c-0.026,0.014-0.078,0.003-0.117,0.019c-0.231,0.05-0.57,0.054-0.895,0.069
			c-0.338,0.017-0.662,0.046-0.897,0.019c-0.078-0.01-0.298,0.015-0.336,0.042c-0.025,0.015-0.084,0.147-0.082,0.199
			s0.057,0.102,0.058,0.127c0.033,0.129,0.016,0.312,0.023,0.48c0.008,0.156,0.042,0.337,0.022,0.455
			c0.001,0.025-0.023,0.053-0.022,0.079c-0.009,0.078,0.021,0.168,0.012,0.247c-0.029,0.209-0.031,0.431,0.003,0.598
			c0.016,0.064,0.016,0.064,0.007,0.144c-0.008,0.104,0.027,0.285,0.019,0.389c-0.009,0.079-0.008,0.105,0.009,0.183
			c0.031,0.103,0.013,0.272-0.007,0.391c-0.01,0.065,0.021,0.155,0.011,0.221c0.001,0.039-0.024,0.04-0.023,0.066
			c-0.028,0.223,0.04,0.544,0.012,0.78c0.002,0.039,0.018,0.09,0.006,0.13c-0.008,0.091-0.006,0.143,0.014,0.272
			c0.017,0.077,0.016,0.064,0.006,0.143c-0.009,0.079,0.022,0.182,0.013,0.26c0.001,0.025-0.011,0.04-0.022,0.066
			c-0.009,0.092,0.022,0.181,0.013,0.26c0.001,0.026-0.023,0.053-0.022,0.079c-0.009,0.078-0.002,0.208,0.014,0.285
			c0.016,0.052,0.016,0.064,0.006,0.13c-0.009,0.079,0.022,0.194,0.013,0.273c-0.008,0.091-0.012,0.286,0.02,0.402
			c0.032,0.115-0.028,0.223-0.01,0.325c0.001,0.026,0.028,0.038,0.029,0.064c0.018,0.09-0.003,0.195,0.014,0.285
			c0.017,0.077,0.016,0.064,0.007,0.143c-0.009,0.079,0.023,0.194,0.013,0.26c0.001,0.026-0.023,0.054-0.021,0.079
			c-0.011,0.053,0.019,0.13,0.008,0.169c-0.042,0.213-0.347,0.108-0.604,0.162c-0.128,0.032-0.503,0.09-0.674,0.059
			c-0.144-0.019-0.2-0.369-0.171-0.566c0.031-0.171,0.003-0.469-0.008-0.715c-0.011-0.221,0.002-0.469-0.033-0.662
			c-0.036-0.194-0.06-0.414-0.03-0.611c0.017-0.183-0.02-0.415-0.03-0.609c-0.015-0.299-0.041-0.558-0.014-0.819
			c0.008-0.104,0.004-0.17-0.014-0.273c-0.016-0.063,0.004-0.182-0.013-0.259c0-0.014-0.028-0.051-0.029-0.063
			c-0.002-0.039,0.032-0.146,0.042-0.211c-0.002-0.052-0.018-0.104-0.007-0.143c-0.002-0.039,0.023-0.054,0.022-0.079
			c0.022-0.093-0.021-0.155-0.037-0.22c-0.032-0.129-0.046-0.414-0.027-0.545c0.009-0.079,0.032-0.158,0.039-0.275
			c0.036-0.327-0.07-0.635-0.045-0.922c0.021-0.118-0.024-0.233-0.015-0.312c0.02-0.118,0.029-0.471-0.004-0.612
			c-0.016-0.051-0.074-0.191-0.101-0.203c-0.04-0.023-0.221,0.011-0.312,0.016l-0.338,0.017c-0.272,0.014-0.52,0.013-0.713,0.048
			c-0.064,0.016-0.143,0.007-0.195,0.01l-0.076,0.042c-0.051,0.016-0.118-0.007-0.184-0.03c-0.104-0.007-0.154,0.034-0.197-0.042
			c-0.115-0.189-0.013-0.533-0.082-0.829c-0.034-0.154-0.081-0.321-0.009-0.455c0.038-0.079,0.219-0.102,0.335-0.12
			c0.27-0.065,0.613,0.022,0.909-0.044c0.025-0.015,0.038-0.028,0.064-0.03c0.219-0.049,0.601,0.049,0.751-0.075
			c0.101-0.057,0.096-0.174,0.198-0.205c0.218-0.063,0.416-0.008,0.635-0.057C41.861,11.231,41.952,11.227,41.99,11.212z"/>
		<path fill="#FFFFFF" d="M49.354,10.618c-0.179,0.061-0.156,0.28-0.185,0.478c-0.007,0.117-0.067,0.224-0.089,0.316
			c-0.01,0.053,0.019,0.104,0.008,0.156l-0.039,0.262c0.002,0.052-0.036,0.119-0.033,0.171c0.003,0.064,0.088,0.165,0.18,0.187
			c0.065,0.01,0.142-0.021,0.221-0.011c0.013-0.001,0.027,0.024,0.041,0.023c0.118,0.008,0.233-0.011,0.339,0.01
			c0.013-0.001,0.04,0.024,0.053,0.023c0.04,0.012,0.09-0.018,0.129-0.006c0.026-0.002,0.041,0.023,0.054,0.023
			c0.104,0.008,0.247-0.013,0.339,0.01l0.223,0.04c0.104,0.008,0.247-0.012,0.352,0.01c0.026-0.002,0.04,0.023,0.053,0.022
			c0.066,0.01,0.144,0.007,0.183,0.018c0.105,0.021,0.234-0.012,0.326,0.01l0.21,0.042c0.104,0.008,0.22-0.011,0.299-0.002
			l0.08,0.035c0.17,0.019,0.493-0.023,0.503,0.171c0.004,0.091-0.101,0.344-0.135,0.437l-0.221,0.805
			c-0.01,0.065-0.059,0.133-0.055,0.198c-0.029,0.209-0.151,0.371-0.193,0.581c0,0.014,0.014,0.025,0.002,0.053
			c-0.02,0.131-0.093,0.226-0.139,0.358c-0.011,0.039,0.004,0.077-0.007,0.117l-0.094,0.213c-0.023,0.066-0.033,0.132-0.042,0.21
			c-0.033,0.119-0.093,0.213-0.113,0.344c-0.011,0.04-0.061,0.081-0.072,0.121c-0.056,0.198-0.151,0.385-0.207,0.569l-0.021,0.118
			c-0.022,0.066-0.072,0.121-0.095,0.188l-0.02,0.131c-0.045,0.146-0.18,0.321-0.211,0.466c-0.011,0.053-0.047,0.093-0.071,0.146
			c-0.012,0.026-0.009,0.079-0.02,0.118c-0.022,0.079-0.071,0.146-0.106,0.227l-0.211,0.479c-0.082,0.199-0.153,0.32-0.236,0.507
			c-0.035,0.092-0.083,0.173-0.093,0.226c-0.032,0.145-0.007,0.391,0.024,0.506c0.018,0.091-0.014,0.235,0.016,0.325
			c0.001,0.025,0.028,0.037,0.029,0.063c0.048,0.18,0.027,0.548,0.172,0.579c0.118,0.021,0.454-0.035,0.544-0.053
			c0.231-0.065,0.521,0.014,0.714-0.035c0.026-0.001,0.025-0.026,0.051-0.027c0.102-0.034,0.312-0.016,0.467-0.023l0.493-0.024
			c0.299-0.015,0.765-0.065,1.014-0.023c0.21,0.042,0.492-0.05,0.689-0.008c0.026-0.001,0.041,0.024,0.053,0.023
			c0.065,0.01,0.234,0.002,0.284-0.053c0.013-0.001-0.001-0.025,0.011-0.039c0.038-0.03,0.04,0.011,0.05-0.031
			c0.011-0.053-0.007-0.155,0.016-0.222c-0.001-0.013,0.011-0.026,0.024-0.04c0.009-0.079-0.008-0.169,0-0.261
			c0.012-0.014,0.037-0.041,0.036-0.054c0.01-0.053-0.018-0.104-0.008-0.156c0-0.013,0.011-0.039,0.023-0.053
			c0.021-0.105-0.01-0.221-0.013-0.272c-0.002-0.039,0.035-0.08,0.047-0.106c0.044-0.419-0.34-0.283-0.641-0.32
			c-0.026,0.001-0.04-0.024-0.053-0.023c-0.078-0.009-0.22,0.023-0.285,0.014c-0.026,0.001-0.027-0.012-0.054-0.023
			c-0.105-0.021-0.26,0.013-0.376,0.019l-0.753,0.037c-0.208,0.01-0.556,0.079-0.527-0.131c0.01-0.053,0.071-0.146,0.106-0.213
			c0.035-0.08,0.058-0.159,0.094-0.213c0.072-0.134,0.127-0.319,0.2-0.439c0.048-0.08,0.058-0.146,0.066-0.237
			c0.01-0.053,0.049-0.068,0.073-0.121c0.023-0.053,0.019-0.131,0.042-0.197s0.072-0.12,0.095-0.187l0.02-0.131
			c0.034-0.093,0.094-0.2,0.116-0.292l0.099-0.37c0.081-0.212,0.148-0.437,0.215-0.647l0.066-0.264
			c0.031-0.158,0.101-0.317,0.159-0.477l0.033-0.119c0.045-0.132,0.063-0.302,0.108-0.447c0.012-0.026,0.037-0.055,0.047-0.094
			c0.068-0.198,0.15-0.397,0.206-0.596l0.067-0.212l-0.001-0.039c0.02-0.117,0.12-0.214,0.14-0.318
			c-0.001-0.026-0.016-0.052-0.003-0.065c0.01-0.053,0.048-0.08,0.072-0.12l0.02-0.132c0.034-0.105,0.115-0.305,0.205-0.335
			c0.141-0.046,0.236,0.04,0.254-0.116c0.022-0.08,0.03-0.184,0.039-0.263c0.012-0.026-0.003-0.078-0.005-0.104
			c0-0.013,0.025-0.026,0.036-0.053c-0.001-0.04-0.017-0.078-0.004-0.092c0-0.013,0.039-0.002,0.038-0.027
			c0.047-0.094-0.013-0.272,0.006-0.391c0.033-0.132,0.089-0.304,0.033-0.405c-0.015-0.038-0.083-0.087-0.135-0.098
			c-0.091-0.009-0.232,0.024-0.338,0.003c-0.014-0.012-0.027-0.024-0.041-0.023c-0.131-0.02-0.272,0.013-0.391-0.007l-0.067-0.036
			c-0.13-0.007-0.272,0.026-0.404-0.006c-0.052,0.002-0.129,0.006-0.208-0.003c-0.014-0.013-0.041-0.024-0.054-0.023
			c-0.052-0.011-0.104,0.005-0.155,0.008c-0.014-0.013-0.027-0.025-0.054-0.023c-0.118-0.021-0.272,0.013-0.391-0.007
			c-0.013,0-0.04-0.024-0.054-0.037c-0.118-0.007-0.26,0.014-0.377,0.006c-0.105-0.021-0.184-0.03-0.288-0.038
			c-0.052-0.011-0.103,0.018-0.156,0.008c-0.026-0.012-0.027-0.024-0.041-0.024c-0.118-0.021-0.233,0.012-0.352-0.009
			c-0.013,0.001-0.041-0.023-0.053-0.023c-0.118-0.021-0.26,0.013-0.378-0.008c-0.026-0.012-0.04-0.023-0.053-0.022
			c-0.118-0.021-0.233,0.011-0.338-0.01c-0.013,0-0.027-0.025-0.054-0.023c-0.118-0.021-0.26,0.013-0.391-0.007
			c-0.013,0-0.04-0.024-0.053-0.023c-0.04-0.012-0.091,0.004-0.13,0.006c-0.013-0.013-0.027-0.024-0.053-0.023
			c-0.026-0.012-0.078,0.004-0.13,0.007C49.64,10.617,49.431,10.602,49.354,10.618L49.354,10.618z M56.403,10.78
			c-0.025,0.015-0.077,0.017-0.116,0.032c-0.064,0.016-0.125,0.097-0.148,0.163c-0.01,0.065-0.007,0.117,0.008,0.156
			c0.031,0.103,0.012,0.26-0.007,0.403c-0.016,0.209,0.06,0.427,0.029,0.598c-0.01,0.065-0.034,0.105-0.017,0.183
			c0.017,0.077,0.043,0.089,0.033,0.154c0.001,0.026-0.024,0.041-0.023,0.054c-0.009,0.079,0.022,0.182,0.013,0.26
			c0.001,0.013-0.024,0.027-0.023,0.053c-0.03,0.171,0.021,0.429,0.002,0.586c-0.02,0.118-0.004,0.169,0.012,0.247
			c0.017,0.077-0.027,0.235-0.037,0.301c-0.03,0.196,0.034,0.428,0.005,0.638c-0.007,0.117,0.038,0.232,0.017,0.338
			c0.003,0.052-0.034,0.105-0.044,0.158c-0.009,0.091,0.021,0.181,0.013,0.259c-0.01,0.066-0.009,0.079,0.006,0.13
			c0.017,0.091-0.019,0.157-0.04,0.263c-0.008,0.092,0.01,0.195-0.011,0.313c-0.018,0.169,0.03,0.35,0,0.533
			c-0.009,0.078,0.033,0.154,0.011,0.233c0.001,0.026-0.024,0.04-0.023,0.054c-0.019,0.144,0.029,0.337-0.002,0.494l-0.041,0.236
			c-0.021,0.105,0.037,0.232,0.018,0.351c0,0.014-0.012,0.026-0.024,0.054c-0.03,0.184,0.032,0.389,0.014,0.546
			c-0.012,0.014-0.025,0.027-0.036,0.066c0.002,0.039,0.017,0.091,0.007,0.143c0,0.014-0.012,0.027-0.024,0.054
			c-0.008,0.104,0.037,0.22,0.016,0.324c0.001,0.026-0.011,0.04-0.026,0.054c-0.02,0.118,0.04,0.232,0.017,0.338
			c0.001,0.025-0.011,0.026-0.01,0.052c-0.021,0.105,0.077,0.205,0.129,0.202c0.209,0.029,0.389-0.031,0.598-0.003l0.054,0.036
			c0.092,0.009,0.258-0.038,0.376-0.019c0.092,0.009,0.262,0.04,0.339,0.01c0-0.013,0.112-0.097,0.112-0.109
			c0.024-0.04-0.019-0.129-0.009-0.195c0.022-0.079,0.055-0.197,0.063-0.314c0.01-0.066-0.02-0.13-0.009-0.183
			c0.013-0.013,0.025-0.027,0.024-0.04c0.01-0.065-0.019-0.129-0.009-0.182c0.012-0.026,0.024-0.04,0.023-0.054
			c0.018-0.17-0.031-0.362,0.001-0.521c-0.001-0.013,0.024-0.027,0.023-0.053c0.02-0.131,0.002-0.222,0.01-0.339
			c0.02-0.118,0.005-0.156,0.013-0.261c0.011-0.04-0.004-0.078-0.006-0.13c0-0.013,0.024-0.027,0.024-0.041
			c0.021-0.104-0.023-0.22-0.014-0.285c0-0.013,0.025-0.027,0.023-0.054c0.011-0.039-0.02-0.142-0.01-0.207
			c0-0.014,0.024-0.04,0.024-0.054c0,0-0.02-0.142,0.019-0.144c0,0,0.012-0.014,0.014,0.025c0.032,0.115,0.087,0.19,0.146,0.331
			c0.075,0.205,0.138,0.436,0.213,0.627c0.043,0.089,0.063,0.219,0.12,0.332c0.015,0.039,0.042,0.063,0.056,0.089
			c0.088,0.204,0.152,0.448,0.24,0.652c0.015,0.025,0.042,0.05,0.043,0.076l0.249,0.561c0.015,0.038,0.004,0.09,0.032,0.128
			c0.001,0.026,0.042,0.05,0.043,0.076c0.074,0.179,0.199,0.342,0.259,0.508c0.028,0.038,0.016,0.064,0.031,0.09
			c0.098,0.141,0.254,0.133,0.434,0.099c0.104-0.019,0.235,0.001,0.312-0.016c0.013-0.001,0.025-0.027,0.05-0.028
			c0.103-0.031,0.261,0.013,0.325-0.017c0.026-0.001,0.038-0.027,0.051-0.028c0.077-0.017,0.222,0.016,0.312-0.015
			c0.064-0.017,0.161-0.167,0.169-0.271c0.011-0.039-0.003-0.064-0.005-0.104c0.009-0.092,0.056-0.185,0.064-0.289l-0.004-0.078
			c0.009-0.092,0.056-0.185,0.065-0.264l0.013-0.261l0.047-0.106c-0.001-0.026-0.017-0.077-0.005-0.104l0.057-0.433l0.044-0.158
			c-0.003-0.053-0.018-0.091-0.007-0.13c-0.001-0.039,0.036-0.067,0.048-0.094c0.009-0.092-0.009-0.182,0.013-0.261
			c-0.001-0.026,0.024-0.041,0.022-0.066c0.022-0.092,0.006-0.144,0.015-0.235l0.044-0.145c0.019-0.145-0.01-0.208,0.011-0.313
			c-0.002-0.052,0.034-0.119,0.044-0.171c-0.002-0.039-0.017-0.077-0.006-0.117c0-0.013,0.025-0.027,0.023-0.053
			c-0.002-0.039-0.017-0.091-0.006-0.13c0.012-0.027,0.039-0.016,0.05-0.042c0.01-0.053-0.019-0.116-0.009-0.195
			c0.009-0.078,0.056-0.185,0.065-0.263c0.008-0.104-0.011-0.221,0.01-0.326c-0.002-0.039,0.007-0.104,0.018-0.157
			c-0.002-0.052,0.035-0.08,0.033-0.131c0.011-0.04-0.003-0.065-0.005-0.104c0.011-0.04,0.048-0.081,0.058-0.133
			c-0.002-0.052,0.009-0.092,0.019-0.157c0.018-0.17,0.022-0.353,0.042-0.483c0.021-0.093,0.003-0.195,0.012-0.287
			c0.01-0.053,0.047-0.094,0.045-0.133c0.011-0.039-0.003-0.078-0.005-0.104c0.011-0.04,0.048-0.08,0.046-0.133
			c0.019-0.144,0.014-0.248,0.033-0.392c0-0.013,0.024-0.027,0.023-0.054c0.023-0.066,0.006-0.144,0.015-0.234
			c0.021-0.093,0.055-0.198,0.063-0.303l0.013-0.261c0.009-0.079,0.057-0.159,0.066-0.237l0.018-0.157
			c0.012-0.026-0.003-0.065-0.005-0.104c0.009-0.091,0.068-0.211,0.087-0.343c0.012-0.039-0.004-0.091-0.006-0.129
			c-0.001-0.014,0.024-0.027,0.023-0.054c0.009-0.078-0.074-0.179-0.127-0.202c-0.106-0.033-0.182,0.009-0.274-0.013
			c-0.065-0.01-0.169-0.018-0.262-0.039c-0.078-0.009-0.146-0.058-0.211-0.055c-0.092-0.021-0.182-0.004-0.287-0.012
			c-0.105-0.021-0.175-0.109-0.316-0.076c-0.103,0.031-0.198,0.218-0.217,0.362c0.002,0.039,0.017,0.077,0.006,0.13
			c-0.008,0.104-0.067,0.212-0.087,0.343l-0.014,0.248c-0.009,0.078-0.045,0.146-0.067,0.237c0.001,0.026,0.017,0.064,0.005,0.104
			c0.001,0.026-0.012,0.026-0.022,0.066c0.001,0.026,0.015,0.052,0.004,0.091c-0.02,0.131-0.066,0.251-0.085,0.382
			c0.002,0.052,0.017,0.09,0.006,0.13c-0.008,0.092-0.042,0.21-0.063,0.303c-0.008,0.091,0.01,0.194-0.011,0.3
			c-0.018,0.183-0.073,0.367-0.104,0.552c0.002,0.038,0.018,0.09,0.006,0.13c0.003,0.052-0.035,0.093-0.032,0.145
			c-0.021,0.092-0.004,0.183-0.012,0.287c-0.009,0.078-0.057,0.158-0.079,0.237l-0.024,0.314c-0.011,0.039,0.003,0.064,0.005,0.104
			c-0.02,0.118-0.078,0.264-0.085,0.395c-0.019,0.131-0.012,0.273-0.06,0.381c-0.012,0.026-0.071,0.133-0.071,0.133
			s-0.073-0.165-0.072-0.139l-0.088-0.218l-0.089-0.217c-0.089-0.217-0.138-0.436-0.215-0.666c-0.015-0.052-0.043-0.089-0.058-0.128
			c-0.046-0.153-0.094-0.333-0.155-0.499c-0.016-0.078-0.059-0.141-0.088-0.218c-0.033-0.129-0.078-0.256-0.123-0.384l-0.06-0.167
			c-0.018-0.09-0.061-0.179-0.078-0.256c-0.014-0.025-0.004-0.078-0.005-0.104c-0.016-0.051-0.085-0.139-0.088-0.204
			c-0.029-0.063-0.019-0.129-0.036-0.206c-0.015-0.038-0.056-0.075-0.058-0.114l-0.003-0.052l-0.12-0.333l-0.034-0.154
			c-0.016-0.052-0.057-0.089-0.059-0.127c-0.028-0.051-0.019-0.116-0.034-0.168c-0.03-0.077-0.072-0.14-0.089-0.217l-0.004-0.078
			c-0.033-0.154-0.145-0.305-0.179-0.46c-0.018-0.103-0.034-0.167-0.063-0.244c-0.029-0.05-0.033-0.142-0.062-0.192
			c-0.058-0.127-0.189-0.134-0.32-0.153c-0.052-0.011-0.077,0.018-0.115,0.032c-0.09,0.018-0.221,0.011-0.351,0.017
			c-0.129,0.007-0.271,0.026-0.363,0.019C56.521,10.788,56.467,10.765,56.403,10.78L56.403,10.78z M65.459,10.194
			c-0.025,0.015-0.103,0.019-0.154,0.034c-0.026,0.001-0.039,0.015-0.051,0.028c-0.039,0.002-0.091-0.009-0.129,0.006
			c-0.104,0.019-0.191,0.075-0.28,0.118c-0.128,0.059-0.255,0.104-0.369,0.174l-0.277,0.195c-0.038,0.028-0.073,0.096-0.111,0.123
			c-0.125,0.098-0.236,0.22-0.321,0.354c-0.024,0.04-0.063,0.055-0.086,0.096c-0.181,0.295-0.348,0.603-0.451,0.894
			c-0.035,0.093-0.096,0.174-0.117,0.267l0.003,0.052c-0.031,0.157-0.142,0.306-0.16,0.463c-0.028,0.236-0.085,0.395-0.124,0.657
			l-0.017,0.183c-0.01,0.065,0.007,0.156-0.002,0.234l-0.036,0.054c-0.009,0.079,0.034,0.168,0.012,0.247
			c-0.009,0.079-0.015,0.234-0.039,0.314c-0.01,0.065,0.002,0.052,0.006,0.116c0.033,0.09-0.003,0.196-0.001,0.248
			c-0.032,0.145,0.018,0.363,0.027,0.545c0.008,0.169-0.021,0.392,0.026,0.546c0.003,0.052,0.046,0.102,0.048,0.141
			c0.047,0.167,0.017,0.337,0.049,0.466l0.041,0.051c0.018,0.09,0.009,0.182,0.026,0.259c0.046,0.141,0.096,0.373,0.129,0.501
			c0.045,0.128,0.036,0.206,0.069,0.348c0.031,0.103,0.075,0.192,0.118,0.281l0.092,0.281c0.043,0.089,0.1,0.178,0.144,0.279
			c0.073,0.153,0.211,0.315,0.308,0.44l0.03,0.09c0.083,0.101,0.18,0.213,0.275,0.299c0.109,0.099,0.19,0.173,0.31,0.22
			c0.027,0.012,0.042,0.05,0.069,0.074c0.081,0.051,0.187,0.098,0.266,0.119c0.08,0.022,0.16,0.084,0.239,0.093l0.052-0.003
			c0.066,0.01,0.133,0.059,0.199,0.068c0.066,0.01,0.142-0.02,0.208-0.01c0.158,0.031,0.586-0.003,0.727-0.036
			c0.065-0.016,0.157,0.006,0.221-0.011l0.23-0.089c0.077-0.029,0.151-0.099,0.203-0.114c0.154-0.046,0.227-0.156,0.339-0.253
			c0.063-0.042,0.125-0.097,0.187-0.165c0.05-0.055,0.112-0.109,0.148-0.164l0.119-0.227l0.074-0.069
			c0.073-0.12,0.118-0.266,0.163-0.397c0.034-0.106,0.12-0.215,0.14-0.333c0.01-0.065,0.021-0.104,0.043-0.171
			c0.033-0.119,0.093-0.239,0.113-0.356l0.12-0.748c0.009-0.079-0.008-0.156,0.001-0.234l0.037-0.054
			c0.019-0.145-0.028-0.312,0.003-0.456c-0.001-0.025,0.037-0.054,0.048-0.094c0.01-0.065-0.034-0.154-0.012-0.233
			c0-0.013,0.012-0.026,0.011-0.053c0.01-0.053-0.02-0.142-0.012-0.233c0.012-0.027,0.035-0.093,0.018-0.157
			c-0.016-0.064-0.017-0.09-0.008-0.169c0.031-0.171-0.021-0.429-0.032-0.649l-0.016-0.324c-0.006-0.13,0.013-0.274-0.017-0.338
			c0-0.013-0.04-0.023-0.042-0.05c-0.044-0.102,0.009-0.352-0.023-0.48c-0.029-0.051-0.014-0.025-0.004-0.091
			c-0.002-0.039-0.018-0.09-0.005-0.104c-0.002-0.038,0.073-0.107,0.111-0.122c0.201-0.152,0.327-0.237,0.514-0.39
			c0.05-0.041,0.174-0.165,0.185-0.217c0.021-0.105-0.033-0.155-0.062-0.205c-0.028-0.052-0.031-0.104-0.06-0.153
			c-0.07-0.101-0.18-0.226-0.236-0.314c-0.055-0.063-0.086-0.165-0.128-0.215c-0.026-0.012-0.053-0.023-0.081-0.048
			c-0.014-0.025-0.003-0.065-0.03-0.09c0-0.013-0.04-0.011-0.04-0.024c-0.015-0.025-0.002-0.052-0.004-0.078
			c-0.014-0.024-0.097-0.125-0.137-0.136c-0.053-0.023-0.131-0.02-0.182,0.009c-0.038,0.015-0.074,0.068-0.125,0.11
			c-0.012,0.014-0.064,0.016-0.077,0.029c-0.063,0.042-0.087,0.082-0.139,0.085c-0.078-0.009-0.126-0.189-0.156-0.266
			c-0.058-0.114-0.154-0.214-0.223-0.301l-0.085-0.152l-0.15-0.136c-0.232-0.21-0.5-0.366-0.829-0.441
			c-0.079-0.022-0.182-0.004-0.261-0.014c-0.013,0.001-0.041-0.023-0.054-0.023c-0.052-0.01-0.142,0.021-0.182,0.009
			C65.745,10.181,65.549,10.177,65.459,10.194L65.459,10.194z M64.365,13.645c0.063-0.055,0.092,0.021,0.106,0.034
			c0.111,0.15,0.271,0.208,0.47,0.303c0.106,0.047,0.2,0.094,0.332,0.127c0.079,0.022,0.156-0.008,0.261,0.013
			c0.026-0.001,0.041,0.024,0.067,0.023c0.065,0.01,0.168-0.021,0.259-0.013c0.065,0.01,0.262,0.039,0.391,0.007
			c0.013-0.001,0.025-0.015,0.038-0.028c0.077-0.017,0.156,0.006,0.208-0.01c0.064-0.017,0.153-0.06,0.207-0.036
			c0.146,0.071,0.038,0.506,0.102,0.763c0.029,0.063,0.066,0.283,0.044,0.375c0.003,0.053,0.005,0.104-0.017,0.184
			c0.003,0.064-0.034,0.118-0.032,0.157c-0.031,0.171,0.043,0.35,0.025,0.52c-0.019,0.145-0.013,0.274-0.032,0.405
			c-0.011,0.04-0.024,0.04-0.023,0.066c-0.012,0.026,0.003,0.064,0.005,0.091c-0.03,0.184-0.059,0.406-0.102,0.577
			c-0.031,0.158-0.099,0.37-0.157,0.516c-0.011,0.053-0.021,0.118-0.045,0.158c-0.012,0.014-0.037,0.028-0.049,0.055
			c-0.035,0.08-0.043,0.171-0.092,0.238s-0.123,0.149-0.173,0.191c-0.025,0.014-0.064,0.016-0.089,0.043
			c-0.051,0.028-0.1,0.083-0.151,0.099c-0.09,0.03-0.271,0.04-0.338,0.017c-0.04-0.011-0.054-0.05-0.095-0.073
			c-0.053-0.037-0.146-0.059-0.213-0.094c-0.094-0.061-0.179-0.2-0.249-0.301c-0.167-0.226-0.297-0.479-0.402-0.773
			c-0.03-0.09-0.034-0.155-0.063-0.219c-0.031-0.103-0.065-0.27-0.083-0.373l-0.042-0.063c-0.018-0.09-0.009-0.194-0.04-0.284
			c-0.016-0.052-0.035-0.167-0.063-0.231c-0.017-0.077,0.017-0.183-0.014-0.285c0-0.014-0.014-0.025-0.015-0.038
			c-0.03-0.09,0.004-0.183-0.012-0.261c-0.03-0.076-0.037-0.219-0.016-0.312c0.009-0.091-0.036-0.206-0.014-0.285
			c-0.002-0.052,0.031-0.171,0.027-0.235c0.011-0.04-0.016-0.052-0.03-0.09c-0.001-0.013,0.025-0.027,0.023-0.054
			c0.01-0.065-0.007-0.143-0.009-0.182c0.022-0.079,0.028-0.209,0.037-0.313C64.327,13.921,64.36,13.802,64.365,13.645
			L64.365,13.645z M65.382,11.813c0.025-0.015,0.103-0.031,0.129-0.032c0.09-0.018,0.182,0.004,0.248,0.014
			c0.039-0.002,0.064-0.017,0.091-0.005c0.039-0.001,0.042,0.05,0.081,0.062c0.04,0.024,0.093,0.034,0.146,0.058
			c0.134,0.085,0.286,0.246,0.333,0.414c0.017,0.076-0.005,0.156-0.057,0.171c-0.039,0.016-0.092-0.008-0.143,0.008
			c-0.089,0.03-0.179,0.061-0.271,0.039c-0.039,0.002-0.091-0.009-0.157-0.019c-0.066-0.01-0.161-0.083-0.24-0.105
			c-0.12-0.06-0.213-0.094-0.31-0.206c-0.055-0.063-0.125-0.163-0.051-0.245c0.012-0.026,0.075-0.056,0.113-0.083
			C65.319,11.867,65.356,11.813,65.382,11.813z"/>
		<path fill="#FFFFFF" d="M73.248,9.787c-0.127,0.059-0.128,0.306-0.146,0.477c-0.009,0.078-0.057,0.158-0.066,0.237
			c-0.018,0.17-0.063,0.315-0.082,0.459l-0.015,0.235c-0.008,0.092-0.056,0.172-0.065,0.264c-0.011,0.039,0.018,0.09,0.006,0.13
			l-0.043,0.185c-0.021,0.104-0.016,0.208-0.037,0.313c0.001,0.026-0.023,0.04-0.022,0.066c-0.02,0.131-0.013,0.273-0.032,0.418
			c-0.017,0.184-0.073,0.368-0.103,0.552c-0.008,0.092,0.01,0.195-0.012,0.287c0.002,0.052-0.034,0.105-0.032,0.157
			c-0.021,0.093-0.003,0.195-0.012,0.274c-0.021,0.092-0.058,0.158-0.079,0.251c-0.018,0.157,0.001,0.286-0.018,0.431
			c-0.02,0.131-0.079,0.238-0.086,0.368c-0.012,0.027,0.003,0.065,0.005,0.104l-0.046,0.119l-0.019,0.157
			c-0.022,0.079-0.057,0.158-0.066,0.237l-0.018,0.184l-0.042,0.196c-0.045,0.133-0.089,0.317-0.134,0.463l-0.09,0.277l-0.086,0.096
			c0.013-0.001-0.074-0.179-0.09-0.243c-0.001-0.026,0.01-0.065-0.005-0.091c-0.019-0.116-0.075-0.205-0.092-0.295
			c-0.031-0.09-0.05-0.219-0.066-0.296c-0.018-0.091,0.003-0.195-0.013-0.26c-0.001-0.026-0.043-0.076-0.059-0.128
			c-0.001-0.039,0.009-0.091-0.006-0.13c-0.001-0.025-0.028-0.037-0.028-0.05c0.01-0.053,0.035-0.08,0.02-0.132
			c-0.002-0.038-0.042-0.075-0.058-0.127s0.007-0.117-0.009-0.182c-0.001-0.026-0.027-0.024-0.029-0.051
			c-0.016-0.051,0.006-0.144-0.01-0.208c-0.015-0.051-0.014-0.024-0.004-0.091c0.02-0.118-0.062-0.192-0.065-0.257
			c-0.002-0.039,0.047-0.106,0.017-0.184c-0.048-0.192-0.048-0.439-0.097-0.659c-0.031-0.089,0.003-0.195-0.014-0.285
			c-0.014-0.013-0.041-0.037-0.042-0.05c-0.033-0.155,0.009-0.353-0.024-0.494c-0.001-0.025-0.028-0.05-0.029-0.076
			c-0.002-0.052,0.058-0.146,0.055-0.198c-0.015-0.038-0.056-0.088-0.072-0.14c-0.017-0.077-0.01-0.194-0.015-0.298
			c-0.005-0.104-0.024-0.221-0.015-0.313c0.01-0.052,0.01-0.052-0.006-0.116c-0.017-0.077,0.002-0.222-0.013-0.272
			c0-0.014-0.027-0.025-0.028-0.038c-0.001-0.025,0.036-0.054,0.021-0.118c-0.002-0.039-0.044-0.089-0.046-0.128
			c-0.005-0.104-0.011-0.233-0.003-0.325c0.01-0.065,0.033-0.132,0.017-0.196c-0.017-0.077-0.073-0.152-0.165-0.161
			c-0.092-0.021-0.118-0.007-0.169,0.009c-0.064,0.016-0.246,0.024-0.324,0.016l-0.054-0.036c-0.104-0.009-0.258,0.038-0.31,0.054
			c-0.142,0.033-0.298,0.015-0.414,0.046c-0.169,0.048-0.147,0.229-0.113,0.396c0.015,0.052,0.02,0.155,0.01,0.208l-0.027,0.235
			c-0.023,0.066,0.022,0.194,0.024,0.233c0.029,0.063,0.007,0.129,0.009,0.182c0.063,0.179,0.05,0.492,0.063,0.752l0.018,0.351
			c0.006,0.13,0,0.26,0.018,0.363c0.034,0.115,0.019,0.377,0.051,0.479c0.014,0.012,0.028,0.024,0.028,0.037
			c0.018,0.09-0.004,0.183,0.013,0.26l0.042,0.063c0.051,0.244,0,0.533,0.051,0.778c0.013,0.012,0.027,0.024,0.028,0.037
			c0.03,0.077-0.005,0.156,0.012,0.247c0.014,0.012,0.028,0.024,0.028,0.037c0.031,0.103-0.016,0.21,0.015,0.313
			c0.014,0.024,0.027,0.037,0.028,0.05c0.017,0.078-0.004,0.184,0.013,0.261c0.016,0.063,0.058,0.113,0.061,0.179
			c0.032,0.128,0.051,0.244,0.069,0.348c0.016,0.064,0.032,0.116,0.034,0.155c0.03,0.089,0.022,0.193,0.04,0.284
			c0.017,0.077,0.058,0.127,0.061,0.179c0.031,0.09,0.023,0.194,0.04,0.285c0.015,0.024,0.028,0.037,0.029,0.051
			c0.015,0.037,0.004,0.09,0.006,0.129c0.017,0.077,0.072,0.153,0.088,0.218l0.004,0.077c0.016,0.064,0.074,0.179,0.09,0.256
			l0.004,0.091c0.048,0.18,0.148,0.37,0.21,0.576l0.034,0.154c0.017,0.077,0.072,0.152,0.116,0.241
			c0.03,0.09,0.048,0.193,0.092,0.282c0.015,0.038,0.055,0.075,0.084,0.126c0.029,0.063,0.044,0.115,0.087,0.19l0.085,0.152
			c0.014,0.025,0.04,0.024,0.042,0.05c0.058,0.116,0.095,0.089,0.226,0.108c0.066,0.01,0.066,0.01,0.156-0.008
			c0.128-0.032,0.375-0.044,0.506-0.024c0.039-0.002,0.04,0.024,0.066,0.022c0.039-0.002,0.038-0.027,0.077-0.029
			c0.116-0.032,0.261,0.013,0.363-0.018c0.129-0.032,0.236-0.235,0.281-0.367c0.095-0.188,0.14-0.346,0.235-0.52
			c0.036-0.066,0.069-0.199,0.091-0.277c0.034-0.093,0.054-0.225,0.088-0.33c0.01-0.053,0.06-0.094,0.071-0.134
			c0.057-0.172,0.076-0.303,0.107-0.474c0.031-0.158,0.127-0.332,0.158-0.489l0.044-0.171c-0.001-0.026-0.02-0.13-0.007-0.144
			c0.012-0.026,0.039-0.002,0.051-0.028S73.75,16.57,73.76,16.53c-0.003-0.064,0.02-0.131,0.042-0.21
			c0.021-0.105,0.067-0.225,0.076-0.304c0.01-0.065,0.022-0.079,0.033-0.118c-0.001-0.026-0.016-0.064-0.005-0.104
			c0.019-0.157,0.076-0.316,0.094-0.486c0.011-0.04-0.004-0.078-0.005-0.104c0.031-0.17,0.088-0.329,0.106-0.499
			c0.011-0.053-0.005-0.104-0.008-0.156c0.01-0.078,0.058-0.146,0.067-0.225c0.02-0.118,0.002-0.222,0.011-0.313
			c0.021-0.093,0.057-0.172,0.065-0.264c0.009-0.065-0.02-0.129-0.009-0.182c-0.001-0.026,0.024-0.04,0.023-0.066
			c0.011-0.026-0.003-0.064-0.004-0.091c0.01-0.065,0.059-0.134,0.068-0.212c0.011-0.04-0.018-0.09-0.006-0.13
			c0.012-0.013,0.024-0.026,0.023-0.053l0.013-0.261c-0.001-0.014,0.024-0.027,0.023-0.054c0.032-0.145,0.011-0.3,0.03-0.444
			c0-0.013,0.025-0.026,0.024-0.04c0.021-0.104,0.005-0.169,0.013-0.261c0.01-0.053,0.034-0.105,0.043-0.171
			c0.012-0.027-0.003-0.065-0.004-0.091c0.011-0.04,0.036-0.08,0.046-0.133c0.011-0.053-0.018-0.104-0.007-0.156l0.044-0.145
			c-0.002-0.039-0.018-0.091-0.006-0.13c0.009-0.079,0.058-0.146,0.068-0.212c0.02-0.118,0.015-0.222,0.037-0.314
			c-0.002-0.039-0.017-0.064-0.005-0.104c0.029-0.21,0.172-0.477-0.078-0.518c-0.026-0.011-0.065,0.004-0.091,0.005
			c-0.105-0.021-0.186-0.082-0.303-0.089c-0.04-0.011-0.079,0.003-0.104,0.005l-0.132-0.046l-0.078,0.004
			C73.693,9.844,73.478,9.698,73.248,9.787L73.248,9.787z M78.915,9.628c-0.231,0.063-0.105,0.239-0.145,0.502
			c-0.019,0.144-0.013,0.261,0.018,0.363c0.032,0.115-0.014,0.247,0.018,0.363l0.061,0.18c0.031,0.103-0.02,0.144-0.017,0.195
			c0.002,0.039,0.044,0.115,0.062,0.192c0.017,0.077-0.005,0.17,0.011,0.221c0.001,0.026,0.028,0.038,0.029,0.063
			c0.033,0.129-0.011,0.3,0.021,0.429l0.065,0.257c0.033,0.155-0.011,0.313,0.021,0.429c0.001,0.026,0.015,0.038,0.028,0.051
			c0.018,0.09-0.017,0.183,0.013,0.272c0.001,0.026,0.029,0.051,0.03,0.077c0.048,0.18,0.006,0.402,0.054,0.583
			c0.016,0.051,0.047,0.166,0.038,0.245c-0.01,0.065-0.01,0.053,0.006,0.117c0.017,0.077,0.019,0.129,0.034,0.167
			c0.018,0.091,0.011,0.221,0.016,0.338c0.007,0.13,0.026,0.272,0.018,0.351c-0.01,0.065-0.01,0.065,0.006,0.13
			c0.017,0.064-0.019,0.144-0.017,0.183c-0.01,0.053,0.018,0.104,0.007,0.156c0.001,0.026-0.024,0.04-0.023,0.053
			c-0.03,0.184,0.032,0.389,0.001,0.56c-0.019,0.145-0.064,0.277-0.083,0.421l0.004,0.078c-0.02,0.118-0.078,0.264-0.111,0.383
			c-0.011,0.039-0.062,0.081-0.072,0.12c-0.042,0.211-0.116,0.292-0.227,0.428c-0.049,0.055-0.085,0.108-0.136,0.15
			c-0.075,0.056-0.277,0.183-0.342,0.199c-0.09,0.017-0.297,0.04-0.364,0.017c-0.039-0.011-0.068-0.061-0.095-0.086
			c-0.161-0.096-0.288-0.285-0.362-0.477c-0.03-0.09-0.073-0.179-0.091-0.27c-0.034-0.154-0.054-0.31-0.1-0.45
			c-0.002-0.039,0.007-0.104-0.007-0.143c-0.001-0.026-0.015-0.052-0.015-0.052c-0.002-0.039,0.023-0.053,0.008-0.092
			c-0.004-0.077-0.088-0.19-0.067-0.309c0.009-0.092,0.045-0.146,0.028-0.223c-0.014-0.012-0.041-0.037-0.042-0.063
			c-0.018-0.09-0.026-0.271-0.018-0.363c0.01-0.065,0.01-0.065-0.006-0.117c-0.016-0.063-0.021-0.181-0.012-0.246
			c-0.001-0.014,0.024-0.04,0.036-0.054c0.01-0.066-0.021-0.168-0.011-0.234c0.01-0.065-0.002-0.052-0.005-0.116
			c-0.031-0.09,0-0.248-0.002-0.3c0.022-0.079-0.021-0.155-0.011-0.233c0.012-0.014,0.024-0.027,0.023-0.054
			c0.021-0.104-0.023-0.207-0.015-0.299c0.012-0.026,0.024-0.04,0.023-0.065c0.022-0.079-0.021-0.169-0.012-0.247
			c0.013-0.014,0.024-0.04,0.024-0.053c0.028-0.21-0.035-0.441-0.005-0.638c0.007-0.104-0.023-0.194-0.014-0.286
			c-0.001-0.025,0.023-0.053,0.022-0.066c0.031-0.17-0.019-0.389-0.002-0.585c0.012-0.026,0.024-0.04,0.023-0.053
			c0.009-0.079-0.021-0.169-0.011-0.234c0.012-0.014,0.024-0.027,0.023-0.053c0.009-0.092-0.035-0.194-0.014-0.286
			s0.016-0.209,0.035-0.353c0.008-0.104-0.036-0.207-0.014-0.286c0.01-0.065,0.011-0.053-0.005-0.117
			c-0.018-0.09,0.006-0.144-0.061-0.166c-0.146-0.07-0.456-0.004-0.625-0.021c-0.014-0.012-0.027-0.024-0.053-0.023
			c-0.08-0.022-0.183-0.004-0.287-0.012c-0.144-0.019-0.364,0.005-0.427,0.047c-0.152,0.085-0.067,0.225-0.096,0.421
			c0.001,0.026-0.024,0.04-0.023,0.054c-0.01,0.065,0.019,0.116,0.009,0.182c-0.011,0.053-0.035,0.093-0.044,0.158
			c-0.029,0.21,0.033,0.415,0.003,0.586c0.001,0.025-0.024,0.04-0.023,0.066c-0.009,0.078,0.033,0.154,0.012,0.246
			c0.001,0.013-0.024,0.04-0.023,0.053c-0.016,0.196,0.034,0.429,0.004,0.612c0.001,0.025-0.011,0.039-0.022,0.066
			c-0.009,0.078,0.034,0.167,0.012,0.246c-0.03,0.184,0.022,0.442-0.008,0.639l-0.035,0.08c-0.019,0.156,0.058,0.388,0.028,0.584
			c0.001,0.013-0.012,0.026-0.023,0.053c-0.008,0.092,0.035,0.181,0.013,0.273c0.001,0.025-0.011,0.039-0.025,0.065
			c-0.017,0.184,0.06,0.375,0.028,0.585c0.001,0.013-0.011,0.026-0.01,0.053c-0.032,0.145,0.019,0.376,0.027,0.558
			c0.018,0.351,0.033,0.675,0.087,0.934c0.049,0.205,0.014,0.285,0.047,0.427l0.042,0.063c0.018,0.104,0.01,0.208,0.029,0.324
			c0.047,0.167,0.119,0.294,0.152,0.436l0.059,0.141l0.118,0.28c0.015,0.051,0.018,0.09,0.032,0.115l0.055,0.063
			c0.042,0.063,0.073,0.152,0.127,0.202l0.055,0.063c0.028,0.037,0.043,0.076,0.083,0.112c0.181,0.239,0.53,0.445,0.82,0.535
			c0.079,0.022,0.144,0.006,0.222,0.016c0.065,0.01,0.119,0.033,0.171,0.043c0.065,0.01,0.116-0.019,0.182-0.009
			c0.184,0.03,0.353,0.022,0.545-0.026c0.103-0.019,0.221-0.011,0.324-0.042c0.025-0.001,0.037-0.027,0.063-0.029
			c0.038-0.015,0.104,0.008,0.156-0.007c0.038-0.016,0.074-0.069,0.126-0.085c0.063-0.029,0.116-0.031,0.179-0.061l0.101-0.057
			c0.277-0.198,0.53-0.354,0.685-0.635c0.036-0.067,0.111-0.122,0.16-0.19c0.06-0.107,0.105-0.239,0.178-0.359
			c0.023-0.054,0.074-0.095,0.084-0.147c0.046-0.12,0.094-0.2,0.116-0.292c0.034-0.093,0.081-0.199,0.089-0.304
			c0.016-0.196,0.075-0.343,0.104-0.526c-0.002-0.038-0.017-0.077-0.006-0.116c-0.001-0.026,0.011-0.04,0.023-0.054
			c-0.002-0.052-0.017-0.09-0.006-0.129c-0.002-0.039,0.024-0.041,0.023-0.067c0.018-0.17,0.009-0.339,0.027-0.508
			c0-0.014,0.012-0.027,0.024-0.054c0.021-0.105-0.037-0.22-0.017-0.338c0-0.013,0.012-0.026,0.024-0.04
			c0.03-0.184-0.021-0.429-0.033-0.675l-0.016-0.338c-0.006-0.117,0-0.261-0.017-0.351c-0.014-0.013-0.027-0.024-0.028-0.038
			c-0.018-0.09,0.003-0.208-0.015-0.312c-0.016-0.064-0.017-0.09-0.009-0.182c0.007-0.117-0.062-0.205-0.065-0.271
			c-0.001-0.025,0.023-0.053,0.022-0.065c0.01-0.065-0.032-0.129-0.034-0.168c-0.018-0.09,0.004-0.183-0.013-0.26
			c0-0.013-0.028-0.037-0.028-0.051c-0.017-0.064,0.006-0.144-0.01-0.194c-0.001-0.026-0.028-0.051-0.03-0.077
			c-0.03-0.089,0.003-0.208-0.015-0.299c-0.014-0.024-0.028-0.037-0.028-0.05c-0.016-0.052,0.008-0.104-0.008-0.156
			c-0.013-0.013-0.027-0.024-0.028-0.051c-0.001-0.025,0.023-0.053,0.021-0.104c0-0.014-0.027-0.025-0.028-0.038
			c-0.017-0.077,0.018-0.17-0.012-0.26c-0.001-0.025-0.028-0.038-0.029-0.051c-0.017-0.077,0.003-0.195-0.014-0.286
			c-0.015-0.037-0.057-0.088-0.059-0.126c-0.001-0.014,0.024-0.041,0.023-0.054c0.009-0.079-0.02-0.143-0.035-0.181
			c-0.002-0.039,0.009-0.092-0.007-0.143c-0.001-0.026-0.027-0.038-0.029-0.064c-0.047-0.166,0.007-0.391-0.028-0.57
			c-0.016-0.052-0.029-0.064-0.031-0.104c-0.001-0.025,0.024-0.04,0.022-0.079c-0.001-0.025-0.048-0.18-0.062-0.205
			c-0.043-0.076-0.158-0.044-0.263-0.052c-0.027-0.012-0.041-0.024-0.066-0.022c-0.144-0.02-0.323,0.041-0.506,0.024
			C79.266,9.61,79.043,9.595,78.915,9.628z"/>
	</g>
	<g>
		<path fill-rule="evenodd" clip-rule="evenodd" fill="#FFFFFF" d="M11.92,22.557c-1.426,0-2.768-0.558-3.778-1.566
			c-1.009-1.011-1.564-2.353-1.564-3.78c0.001-0.937,0.249-1.859,0.719-2.67c0.469-0.813,1.145-1.489,1.954-1.957
			c0.073-0.042,0.155-0.063,0.24-0.063c0.168,0,0.326,0.091,0.411,0.238c0.063,0.108,0.081,0.237,0.047,0.361
			c-0.032,0.124-0.112,0.225-0.221,0.289c-0.668,0.385-1.224,0.939-1.61,1.606c-0.383,0.666-0.586,1.425-0.587,2.195
			c0,1.172,0.456,2.276,1.285,3.106c0.829,0.829,1.933,1.285,3.104,1.286c1.172,0,2.277-0.456,3.105-1.284
			c0.83-0.829,1.287-1.933,1.287-3.104c0-1.173-0.456-2.275-1.285-3.105c-0.574-0.575-1.279-0.972-2.056-1.161l1.011,1.342
			c0.157,0.211,0.113,0.51-0.096,0.666c-0.083,0.063-0.182,0.096-0.286,0.095c-0.148,0.001-0.291-0.07-0.38-0.189l-1.661-2.207
			c-0.07-0.078-0.113-0.19-0.113-0.31c0-0.183,0.105-0.352,0.271-0.43l2.384-1.378c0.073-0.042,0.156-0.064,0.24-0.064
			c0.168,0.001,0.327,0.092,0.411,0.238c0.064,0.11,0.081,0.238,0.049,0.362c-0.034,0.122-0.112,0.225-0.222,0.29l-1.217,0.701
			c0.882,0.247,1.685,0.716,2.34,1.37c1.009,1.012,1.564,2.353,1.563,3.779c0,1.429-0.556,2.771-1.566,3.78
			C14.69,22.002,13.348,22.558,11.92,22.557z"/>
	</g>
</g>
</svg>
