<?xml version="1.0" encoding="utf-8"?>
<!-- Generator: Adobe Illustrator 15.1.0, SVG Export Plug-In . SVG Version: 6.00 Build 0)  -->
<!DOCTYPE svg PUBLIC "-//W3C//DTD SVG 1.1//EN" "http://www.w3.org/Graphics/SVG/1.1/DTD/svg11.dtd">
<svg version="1.1" id="Vrstva_1" xmlns="http://www.w3.org/2000/svg" xmlns:xlink="http://www.w3.org/1999/xlink" x="0px" y="0px"
	 width="77px" height="84px" viewBox="0 0 77 84" enable-background="new 0 0 77 84" xml:space="preserve">
<g>
	<g>
		<path d="M38.499,79.811c-8.929,0-17.327-3.479-23.645-9.797C8.537,63.697,5.058,55.3,5.058,46.368
			c0-5.852,1.551-11.632,4.486-16.715s7.165-9.316,12.233-12.242c0.453-0.262,0.969-0.401,1.491-0.401c1.062,0,2.05,0.57,2.58,1.488
			c0.398,0.687,0.505,1.489,0.3,2.259s-0.697,1.413-1.385,1.812c-4.178,2.411-7.656,5.887-10.061,10.054
			c-2.404,4.166-3.675,8.919-3.675,13.747c0,7.336,2.858,14.234,8.047,19.425c5.192,5.188,12.091,8.046,19.426,8.046
			c7.336,0,14.235-2.858,19.426-8.048c5.189-5.188,8.047-12.087,8.047-19.425c0-7.338-2.857-14.237-8.047-19.426
			c-3.596-3.594-8.003-6.074-12.86-7.259l6.319,8.392c0.985,1.314,0.719,3.184-0.593,4.169c-0.521,0.39-1.137,0.595-1.785,0.595
			c-0.934,0-1.825-0.445-2.384-1.191L36.228,17.841c-0.439-0.48-0.712-1.19-0.712-1.931c0-1.144,0.666-2.201,1.696-2.693
			l14.92-8.624c0.452-0.262,0.968-0.401,1.489-0.401c1.061,0,2.049,0.569,2.581,1.486c0.398,0.689,0.505,1.492,0.301,2.26
			c-0.205,0.77-0.697,1.414-1.387,1.812l-7.617,4.4c5.522,1.537,10.545,4.47,14.646,8.571c6.317,6.317,9.797,14.715,9.797,23.646
			c0,8.931-3.479,17.328-9.797,23.646C55.826,76.331,47.429,79.811,38.499,79.811z"/>
		<path fill="#FFFFFF" d="M53.621,5.192c0.684,0,1.348,0.354,1.716,0.988c0.547,0.946,0.226,2.158-0.721,2.705l-7.563,4.369
			l-2.229,1.288c6.42,1.27,12.162,4.435,16.613,8.887c5.871,5.871,9.504,13.981,9.504,22.939c0,8.956-3.633,17.067-9.504,22.938
			c-5.871,5.87-13.98,9.504-22.938,9.504s-17.067-3.634-22.938-9.504C9.69,63.436,6.058,55.325,6.058,46.368
			c0-5.784,1.548-11.358,4.352-16.215c2.803-4.855,6.855-8.983,11.867-11.876c0.313-0.181,0.654-0.267,0.991-0.267
			c0.683,0,1.348,0.354,1.714,0.988c0.548,0.945,0.225,2.157-0.721,2.705c-4.411,2.546-7.971,6.167-10.425,10.419
			s-3.809,9.148-3.809,14.247c0,7.861,3.188,14.979,8.34,20.132C23.52,71.65,30.639,74.84,38.5,74.84
			c7.861,0,14.979-3.188,20.133-8.341c5.152-5.151,8.34-12.271,8.34-20.132c0-7.862-3.188-14.981-8.34-20.133
			c-4.219-4.217-9.752-7.118-15.934-8.032l2.633,3.497l5.254,6.977c0.654,0.873,0.479,2.112-0.395,2.768
			c-0.355,0.266-0.771,0.395-1.185,0.395c-0.602,0-1.195-0.273-1.584-0.791l-5.254-6.977l-5.142-6.832
			c-0.318-0.352-0.511-0.817-0.511-1.329c0-0.789,0.46-1.472,1.127-1.791l7.427-4.291l7.562-4.369
			C52.944,5.278,53.285,5.192,53.621,5.192 M53.621,3.192L53.621,3.192c-0.697,0-1.387,0.185-1.992,0.536l-7.56,4.368l-7.371,4.259
			c-1.329,0.673-2.182,2.059-2.182,3.555c0,0.954,0.339,1.869,0.957,2.591l5.098,6.772l5.254,6.978
			c0.744,0.993,1.935,1.588,3.182,1.588c0.866,0,1.69-0.275,2.384-0.794c1.754-1.317,2.11-3.814,0.796-5.568l-4.475-5.942
			c3.543,1.31,6.769,3.376,9.507,6.114c5,5,7.754,11.647,7.754,18.719s-2.754,13.718-7.754,18.718
			C52.217,70.086,45.569,72.84,38.5,72.84c-7.068,0-13.716-2.754-18.719-7.754c-5-5.001-7.754-11.648-7.754-18.717
			c0-4.652,1.225-9.233,3.542-13.247c2.317-4.015,5.668-7.364,9.692-9.687c0.923-0.535,1.58-1.394,1.854-2.421
			c0.274-1.028,0.131-2.1-0.402-3.02c-0.706-1.223-2.026-1.985-3.444-1.985c-0.698,0-1.387,0.186-1.993,0.536
			c-5.218,3.012-9.575,7.372-12.597,12.607c-3.022,5.235-4.62,11.188-4.62,17.215c0,9.198,3.583,17.847,10.089,24.353
			c6.507,6.507,15.156,10.09,24.352,10.09s17.845-3.583,24.353-10.09c6.507-6.506,10.09-15.155,10.09-24.353
			c0-9.198-3.583-17.847-10.09-24.353c-3.672-3.673-8.063-6.436-12.885-8.135l5.649-3.264c0.922-0.533,1.579-1.392,1.854-2.42
			c0.272-1.026,0.13-2.098-0.401-3.017C56.357,3.953,55.037,3.192,53.621,3.192L53.621,3.192z"/>
	</g>
</g>
</svg>
