<?xml version="1.0" encoding="utf-8"?>
<!-- Generator: Adobe Illustrator 15.1.0, SVG Export Plug-In . SVG Version: 6.00 Build 0)  -->
<!DOCTYPE svg PUBLIC "-//W3C//DTD SVG 1.1//EN" "http://www.w3.org/Graphics/SVG/1.1/DTD/svg11.dtd">
<svg version="1.1" id="Vrstva_1" xmlns="http://www.w3.org/2000/svg" xmlns:xlink="http://www.w3.org/1999/xlink" x="0px" y="0px"
	 width="96.75px" height="16.113px" viewBox="0 0 96.75 16.113" enable-background="new 0 0 96.75 16.113" xml:space="preserve">
<g>
	<path d="M1.327,4.772C1.256,4.786,1.172,4.856,1.158,4.94c-0.014,0.084,0.014,0.182,0,0.28c0,0.014-0.014,0.028-0.028,0.056
		c-0.028,0.182,0.028,0.364,0,0.518c-0.014,0.07-0.014,0.084,0,0.154C1.145,6.032,1.103,6.2,1.088,6.27
		c-0.028,0.098,0.014,0.238,0,0.322C1.075,6.634,1.061,6.648,1.061,6.676c0,0.07,0.042,0.182,0.028,0.308
		c-0.042,0.21,0,0.462-0.028,0.616L1.019,7.656c-0.031,0.14,0,0.238-0.031,0.364C0.974,8.104,0.946,8.174,0.96,8.272
		c0.027,0.084,0.027,0.126,0,0.224c-0.028,0.238,0,0.546,0,0.84c0,0.267,0.027,0.673-0.014,0.883
		c-0.042,0.195-0.014,0.476,0.014,0.672c0.044,0.195,0,0.447,0,0.672c0,0.224-0.028,0.49,0,0.686
		c0.044,0.183,0.086,0.378,0.058,0.532c-0.014,0.07-0.014,0.084,0,0.168c0.014,0.099-0.014,0.252,0,0.351l0.042,0.069
		c0,0.042-0.014,0.099,0,0.141c0.042,0.294,0.028,0.615,0.07,0.909c0.014,0.057,0,0.112,0,0.169
		c0.014,0.014,0.028,0.027,0.028,0.056c0.028,0.111,0.014,0.252,0.028,0.35l0.042,0.07c0.014,0.112,0,0.182,0.014,0.269
		c0.056,0.111,0.182,0.084,0.294,0.069l0.224-0.027c0.14-0.028,0.308,0,0.434-0.028c0.028-0.014,0.042-0.028,0.07-0.028
		c0.168-0.044,0.266-0.014,0.364-0.027c0.014-0.017,0.028-0.031,0.042-0.031c0.042-0.014,0.112,0.015,0.154,0
		c0.126-0.041,0.07-0.308,0.056-0.434c-0.028-0.084,0.014-0.182,0-0.237c-0.014-0.057-0.07-0.196-0.07-0.253
		c0-0.056,0.042-0.084,0.028-0.153c-0.014-0.057-0.042-0.196-0.042-0.252c-0.028-0.099,0.014-0.21,0-0.322
		c-0.014-0.028-0.028-0.042-0.028-0.056c-0.056-0.21,0-0.448-0.028-0.645c-0.014-0.014-0.028-0.028-0.028-0.056
		c-0.042-0.183,0.028-0.392,0-0.546l-0.042-0.07c-0.014-0.084,0.028-0.14,0.028-0.182c0-0.015-0.014-0.042-0.014-0.057
		c0.014-0.111,0.098-0.084,0.21-0.098c0.112-0.028,0.252-0.042,0.392-0.057c0.07-0.014,0.14,0.015,0.196,0l0.056-0.041
		c0.056,0,0.098,0.014,0.14,0c0.126-0.015,0.238-0.057,0.364-0.07c0.042-0.014,0.112,0,0.168,0c0.07-0.014,0.14-0.07,0.21-0.098
		c0.126-0.043,0.266-0.057,0.378-0.099c0.28-0.111,0.616-0.35,0.854-0.518c0.042-0.028,0.126-0.112,0.154-0.154
		c0.14-0.196,0.294-0.392,0.392-0.602c0.028-0.057,0.042-0.126,0.07-0.196c0.014-0.042,0.07-0.07,0.07-0.112
		c0.014-0.014,0-0.042,0-0.069c0.028-0.112,0.098-0.225,0.126-0.336c0-0.07,0.014-0.127,0.028-0.169
		c0.014-0.111,0-0.252,0.014-0.378c0.014-0.027,0.042-0.042,0.042-0.069c0-0.057-0.028-0.085-0.028-0.141
		c0-0.014,0.028-0.042,0.028-0.056c0.014-0.099,0.014-0.238,0-0.351l-0.042-0.07C6.479,8.132,6.521,7.908,6.492,7.726
		C6.479,7.712,6.464,7.698,6.464,7.684c-0.014-0.042,0-0.084,0-0.112C6.45,7.53,6.408,7.502,6.408,7.46
		c-0.014-0.028,0-0.056,0-0.084c-0.014-0.056-0.056-0.098-0.07-0.14c0-0.014,0.014-0.042,0-0.07C6.325,7.082,6.254,7.012,6.24,6.942
		C6.212,6.83,6.185,6.816,6.156,6.746c-0.014-0.014,0-0.042,0-0.056c-0.056-0.14-0.182-0.266-0.28-0.406
		c-0.07-0.098-0.154-0.182-0.238-0.28c-0.084-0.07-0.154-0.168-0.21-0.21C5.316,5.71,5.176,5.654,5.05,5.57
		C4.938,5.5,4.813,5.444,4.659,5.402C4.42,5.332,4.155,5.192,3.917,5.15c-0.056-0.014-0.112,0-0.154,0L3.384,5.066
		c-0.042-0.014-0.098,0.014-0.154,0c-0.014,0-0.028-0.028-0.056-0.028c-0.042,0-0.098,0.014-0.14,0
		C2.922,5.024,2.838,4.87,2.74,4.814c-0.14-0.056-0.35,0.014-0.546-0.028C1.957,4.744,1.606,4.744,1.327,4.758V4.772L1.327,4.772z
		 M2.74,7.096C2.712,6.984,2.782,6.788,2.853,6.76c0.098-0.042,0.21,0,0.28,0.014l0.28,0.028c0.042,0.014,0.07,0.042,0.098,0.056
		L3.875,6.97C4.322,7.138,4.63,7.544,4.756,8.076c0.042,0.182,0.084,0.518,0.042,0.742C4.672,9.547,4.112,9.841,3.426,9.98
		c-0.028,0.014-0.028,0.028-0.07,0.042c-0.042,0-0.126-0.014-0.182,0c-0.098,0.014-0.462,0.084-0.504-0.057
		c-0.014-0.098,0-0.195-0.014-0.308C2.643,9.631,2.628,9.631,2.628,9.603c-0.028-0.112,0-0.252,0.028-0.378
		c0.014-0.099-0.028-0.183,0-0.28c0-0.057,0.042-0.099,0.056-0.154c0.014-0.084,0.014-0.21,0-0.294L2.67,8.44
		C2.657,8.37,2.727,8.286,2.712,8.202C2.698,8.16,2.67,8.132,2.67,8.118c0-0.042,0.07-0.112,0.07-0.168
		c0-0.028-0.028-0.042-0.028-0.07C2.698,7.796,2.727,7.628,2.74,7.558c0.014-0.083-0.014-0.224,0-0.308
		C2.754,7.18,2.754,7.18,2.74,7.096L2.74,7.096z M7.584,4.968c-0.07,0.028-0.182,0.154-0.21,0.308s0.028,0.308,0,0.462
		c0,0.028-0.014,0.042-0.014,0.07c-0.014,0.07,0.014,0.167,0,0.238L7.319,6.13c-0.014,0.112,0.028,0.266,0,0.434
		c0,0.014-0.014,0.028-0.028,0.056C7.247,6.858,7.319,7.194,7.26,7.474c-0.042,0.252-0.028,0.574,0,0.812
		c0.03,0.125,0,0.308,0,0.462c0,0.364-0.014,0.574-0.014,0.91c0,0.126-0.028,0.294,0,0.378c0.014,0.099,0.072,0.294,0.044,0.462
		c-0.017,0.127-0.03,0.322-0.03,0.504c0,0.448-0.028,1.064,0.03,1.442c0.014,0.056,0,0.126,0,0.182
		c0.014,0.07,0.056,0.183,0.028,0.28c-0.059,0.294-0.059,0.588,0,0.868c0.028,0.14,0,0.364,0,0.574s0.028,0.448,0,0.588
		c0,0.027-0.028,0.042-0.028,0.069c0,0.085,0.07,0.297,0.126,0.325c0.042,0.014,0.154-0.015,0.238,0
		c0.07,0.014,0.21,0.042,0.294,0.027c0.224-0.042,0.504-0.027,0.672-0.056c0.07-0.014,0.182,0.014,0.252,0
		c0.14-0.03,0.07-0.128,0.098-0.282c0.028-0.14,0.098-0.238,0.056-0.392c0-0.042-0.014-0.112-0.014-0.183
		c-0.014-0.028-0.042-0.056-0.042-0.084s0.028-0.056,0.042-0.084c0.014-0.084-0.07-0.168-0.07-0.252c0-0.014,0.028-0.042,0.028-0.07
		c0.028-0.126-0.014-0.392-0.028-0.476c-0.028-0.196,0-0.434,0-0.63c0-0.225,0.042-0.462,0-0.645c0-0.027-0.028-0.042-0.028-0.069
		c0-0.141,0.14-0.28,0.252-0.309c0.056,0,0.112,0.014,0.168,0c0.084-0.014,0.14-0.084,0.252-0.056
		c0.112,0.042,0.154,0.21,0.21,0.294c0.098,0.154,0.182,0.336,0.28,0.532c0.07,0.14,0.196,0.321,0.238,0.462
		c0.07,0.224,0.21,0.392,0.28,0.588c0.028,0.084,0.07,0.14,0.084,0.21c0.042,0.084,0.056,0.168,0.083,0.252
		c0.042,0.098,0.112,0.168,0.14,0.266c0.042,0.126,0.084,0.28,0.196,0.309c0.266,0.069,0.448-0.098,0.616-0.168
		c0.014,0,0.042,0.014,0.042,0c0.098-0.015,0.182-0.099,0.28-0.126c0.014-0.015,0.042,0,0.056-0.015
		c0.098-0.027,0.168-0.111,0.225-0.126c0.07-0.014,0.056-0.027,0.112-0.056c0.042-0.028,0.098-0.042,0.126-0.07
		c0.042-0.042,0.042-0.224,0.028-0.308c-0.028-0.112-0.14-0.21-0.168-0.322v-0.07c-0.028-0.111-0.154-0.266-0.224-0.434
		l-0.028-0.126c-0.042-0.084-0.112-0.168-0.126-0.252c-0.056-0.196-0.238-0.364-0.266-0.518c0-0.015,0.014-0.057,0-0.057
		c-0.014-0.069-0.112-0.14-0.14-0.21c0-0.014,0.014-0.042,0-0.056c0-0.014-0.042-0.014-0.042-0.028c-0.014-0.014,0-0.056,0-0.069
		c-0.028-0.112-0.14-0.169-0.168-0.267c-0.014-0.014,0-0.042,0-0.07c-0.014-0.069-0.112-0.14-0.14-0.195
		c-0.028-0.057-0.07-0.126-0.084-0.183c-0.042-0.21,0.098-0.237,0.182-0.35c0.07-0.112,0.154-0.182,0.224-0.294
		c0.07-0.084,0.098-0.21,0.154-0.28c0.028-0.042,0.028-0.014,0.056-0.084c0.042-0.153,0.182-0.294,0.224-0.462
		c0-0.028-0.014-0.056,0-0.084c0.014-0.126,0.084-0.252,0.098-0.378c0.014-0.084-0.014-0.183,0-0.28
		c0.014-0.069,0.07-0.168,0.056-0.252c0-0.014-0.014-0.028-0.014-0.056c-0.014-0.042,0-0.099,0-0.126L12.135,8.23
		c-0.042-0.224,0.014-0.462-0.028-0.672l-0.028-0.209c-0.028-0.126-0.042-0.266-0.07-0.378c-0.056-0.168-0.168-0.308-0.238-0.448
		c0-0.014,0.014-0.028,0-0.042c-0.014-0.042-0.056-0.084-0.084-0.126l-0.084-0.14c-0.028-0.042-0.084-0.07-0.126-0.112
		c-0.07-0.098-0.21-0.28-0.308-0.35l-0.266-0.154l-0.238-0.154c-0.168-0.112-0.378-0.126-0.56-0.196
		c-0.042-0.014-0.07-0.056-0.098-0.056c-0.07-0.028-0.168-0.014-0.238-0.028C9.727,5.15,9.685,5.108,9.628,5.108
		c-0.098-0.014-0.196,0-0.294-0.028c-0.028,0-0.042-0.028-0.07-0.028c-0.042-0.014-0.098,0-0.154,0
		c-0.028-0.014-0.042-0.028-0.07-0.028c-0.042-0.014-0.098,0-0.154,0C8.873,5.01,8.845,4.996,8.831,4.996
		c-0.112-0.028-0.224,0.015-0.336,0C8.48,4.982,8.453,4.968,8.438,4.968c-0.07-0.014-0.112,0.014-0.196,0.028
		C8.13,5.01,7.977,4.982,7.921,4.968C7.836,4.954,7.641,4.954,7.584,4.968L7.584,4.968z M8.915,7.012
		C8.943,6.886,8.957,6.62,9.041,6.564c0.028-0.014,0.21-0.014,0.266,0c0.028,0,0.056,0.042,0.098,0.056
		c0.252,0.098,0.448,0.21,0.63,0.392c0.238,0.238,0.406,0.56,0.504,0.91c0.07,0.21,0.042,0.757-0.014,0.938
		c-0.07,0.182-0.21,0.392-0.322,0.546c-0.168,0.225-0.448,0.364-0.728,0.477c-0.084,0.027-0.21,0.111-0.308,0.126
		c-0.196,0.042-0.196-0.043-0.224-0.183c0-0.027-0.028-0.042-0.028-0.069c0-0.043,0.042-0.085,0.028-0.154
		c-0.042-0.21,0.014-0.616-0.057-0.938c-0.042-0.238,0.042-0.546,0-0.798c-0.014-0.112,0-0.154,0-0.224c0.015-0.056,0-0.14,0-0.196
		C8.901,7.432,8.915,7.418,8.915,7.39C8.943,7.278,8.901,7.11,8.915,7.012L8.915,7.012z M16.055,4.758
		c-0.126,0.028-0.196,0.154-0.238,0.308l-0.028,0.182c-0.028,0.126-0.112,0.238-0.14,0.378l-0.028,0.196
		c-0.028,0.098-0.084,0.21-0.112,0.322v0.098c-0.028,0.112-0.098,0.252-0.112,0.35c-0.028,0.168-0.07,0.322-0.112,0.476
		l-0.056,0.168c-0.028,0.168-0.056,0.336-0.098,0.504l-0.042,0.056c-0.042,0.168-0.07,0.35-0.098,0.518
		c-0.056,0.238-0.154,0.476-0.196,0.714c-0.028,0.182-0.084,0.294-0.112,0.448c-0.028,0.126-0.028,0.21-0.056,0.308l-0.196,0.7
		c-0.042,0.112-0.056,0.266-0.084,0.393c-0.056,0.167-0.14,0.377-0.168,0.573c-0.014,0.112-0.028,0.196-0.056,0.309l-0.084,0.279
		l-0.056,0.154l-0.112,0.49c-0.014,0.069-0.07,0.153-0.084,0.237l-0.028,0.225c-0.014,0.056-0.042,0.098-0.056,0.14
		c0,0.028,0.014,0.07,0,0.112c-0.014,0.084-0.056,0.182-0.084,0.266c-0.014,0.112-0.042,0.183-0.056,0.252
		c0,0.042,0.014,0.084,0,0.127c-0.028,0.14-0.084,0.237-0.098,0.377c-0.014,0.042,0,0.099,0,0.141
		c-0.014,0.056-0.056,0.111-0.07,0.168c-0.014,0.07,0.014,0.154,0,0.224c-0.014,0.084-0.044,0.183-0.044,0.267
		c0,0.24,0.297,0.198,0.534,0.24c0.084,0.014,0.196,0,0.28,0.027c0.014,0,0.028,0.028,0.042,0.028c0.028,0.014,0.084,0,0.112,0
		c0.154,0.028,0.532,0.126,0.63,0.056c0.042-0.027,0.126-0.296,0.126-0.338l0.056-0.28l0.084-0.42c0.014-0.028,0-0.07,0-0.112
		c0.014-0.098,0.084-0.182,0.084-0.237c0.028-0.126,0.028-0.21,0.056-0.351l0.084-0.237c0.014-0.028,0-0.042,0-0.07
		c0.027-0.14,0.14-0.322,0.224-0.336c0.042-0.015,0.098,0.014,0.154,0.028c0.084,0,0.168-0.015,0.224,0
		c0.014,0,0.042,0.014,0.056,0.014c0.07,0.028,0.168,0,0.224,0c0.014,0.014,0.028,0.028,0.056,0.028
		c0.112,0.027,0.266-0.015,0.364,0c0.014,0.014,0.028,0.027,0.042,0.027c0.14,0.028,0.28,0,0.392,0.028l0.056,0.042
		c0.028,0,0.07-0.014,0.098,0c0.266,0.056,0.28,0.322,0.378,0.574c0.028,0.084,0.056,0.14,0.084,0.182
		c0.084,0.238,0.112,0.462,0.196,0.687c0.028,0.111,0.098,0.252,0.14,0.35c0.014,0.042,0.014,0.098,0.014,0.126
		c0.056,0.101,0.168,0.101,0.28,0.072c0.056,0,0.126,0.014,0.182,0c0.028-0.014,0.07-0.056,0.112-0.072
		c0.056-0.015,0.112,0.017,0.154,0c0.028,0,0.056-0.042,0.084-0.056c0.056-0.015,0.126,0.014,0.154,0
		c0.028,0,0.042-0.042,0.07-0.057c0.057-0.014,0.112,0.015,0.168,0c0.014-0.014,0.028-0.042,0.056-0.056
		c0.07-0.014,0.154,0.014,0.209,0c0.07-0.014,0.168-0.084,0.183-0.126c0.028-0.098-0.042-0.225-0.056-0.309v-0.083
		c-0.028-0.141-0.112-0.238-0.126-0.376l-0.042-0.14l-0.028-0.169c-0.028-0.153-0.112-0.279-0.14-0.42c0-0.027,0.014-0.084,0-0.111
		c0-0.028-0.042-0.042-0.042-0.07c-0.042-0.112-0.028-0.224-0.056-0.351c-0.014-0.042-0.056-0.083-0.07-0.14
		c0-0.014,0.014-0.056,0-0.084c0-0.028-0.042-0.056-0.042-0.098c-0.028-0.098-0.056-0.264-0.084-0.348
		c-0.07-0.238-0.112-0.504-0.167-0.756c-0.015-0.084-0.07-0.168-0.084-0.252v-0.099c-0.014-0.069-0.07-0.126-0.084-0.21
		c-0.014-0.112-0.042-0.168-0.056-0.249c-0.014-0.043,0.014-0.099,0-0.141c-0.014-0.098-0.084-0.252-0.112-0.363
		c0-0.028,0.014-0.07,0-0.099c-0.014-0.07-0.07-0.126-0.084-0.196c0-0.042,0.014-0.084,0-0.111
		c-0.028-0.126-0.084-0.252-0.112-0.378l-0.028-0.196l-0.084-0.404c0-0.042-0.042-0.098-0.056-0.14V8.604
		c-0.014-0.084-0.056-0.154-0.084-0.238c0-0.028,0.014-0.056,0-0.084c-0.014-0.112-0.056-0.21-0.084-0.308
		c-0.014-0.098-0.028-0.21-0.056-0.28C18,7.623,18.015,7.54,18,7.469c-0.014-0.07-0.084-0.126-0.098-0.196
		c-0.014-0.067,0-0.137-0.028-0.222c0-0.056-0.042-0.098-0.042-0.154c-0.028-0.14-0.028-0.28-0.056-0.406l-0.112-0.378
		c-0.028-0.084-0.014-0.168-0.028-0.252c-0.014-0.056-0.07-0.125-0.084-0.196c-0.014-0.028,0-0.07,0-0.098
		c-0.042-0.138-0.266-0.138-0.224-0.333c0.014-0.084,0.028-0.14-0.028-0.196c-0.098-0.07-0.238-0.056-0.378-0.084l-0.126-0.056
		c-0.042-0.014-0.112,0.014-0.167,0c-0.07-0.014-0.14-0.07-0.224-0.084c-0.056-0.014-0.126,0.014-0.182,0
		C16.125,4.786,16.111,4.758,16.055,4.758L16.055,4.758z M16.334,9.833c0.042-0.252,0.126-0.504,0.224-0.714
		c0.098,0.099,0.084,0.196,0.112,0.364c0.014,0.07,0.07,0.126,0.083,0.196v0.098c0,0.014,0.028,0.028,0.028,0.056l0.028,0.225
		l0.084,0.462c0.028,0.14,0.084,0.252,0.112,0.375c0.015,0.028,0,0.085,0,0.127c0.028,0.168,0.154,0.392,0.015,0.434
		c-0.084,0.028-0.28-0.014-0.336-0.014c-0.056-0.015-0.126,0-0.196,0c-0.014-0.015-0.028-0.028-0.042-0.028
		c-0.14-0.042-0.266,0-0.378-0.028c-0.224-0.084-0.014-0.447,0.014-0.574c0-0.027-0.014-0.081,0-0.095
		c0.014-0.112,0.084-0.225,0.112-0.322c0-0.028-0.014-0.07,0-0.112c0.014-0.126,0.112-0.224,0.14-0.35
		C16.334,9.89,16.321,9.861,16.334,9.833L16.334,9.833z M23.223,4.618c-0.07,0.014-0.21,0-0.294,0.014
		c-0.028,0-0.042,0.028-0.056,0.028c-0.07,0.014-0.14-0.014-0.196,0c-0.112,0.014-0.21,0.056-0.322,0.083
		c-0.42,0.14-0.714,0.336-0.994,0.602c-0.308,0.308-0.546,0.658-0.686,1.134c-0.042,0.168-0.126,0.336-0.168,0.504
		C20.479,7.11,20.479,7.25,20.451,7.39c0,0.042-0.042,0.154-0.056,0.182c-0.014,0.112,0.014,0.21-0.014,0.336l-0.042,0.056
		c-0.014,0.056,0.014,0.14,0,0.21c0,0.014-0.014,0.028-0.028,0.042c-0.014,0.07,0.014,0.14,0,0.196
		c-0.058,0.309,0.028,0.659-0.03,0.953c-0.014,0.112-0.07,0.21-0.042,0.336c0.014,0.07,0.072,0.225,0.042,0.294
		c0,0.028-0.014,0.028-0.028,0.057c0,0.056,0.058,0.111,0.058,0.168c0.028,0.111-0.014,0.279-0.03,0.336
		c-0.014,0.126,0,0.279,0,0.434c0,0.196,0.017,0.378,0.03,0.477c0.028,0.111-0.014,0.21,0,0.308
		c0.014,0.028,0.028,0.042,0.028,0.056c0.014,0.099-0.014,0.196,0,0.294c0.014,0.057,0.056,0.183,0.056,0.238
		c0.028,0.07,0,0.154,0,0.224c0.014,0.042,0.056,0.084,0.056,0.141l0.084,0.504c0.028,0.07,0.042,0.154,0.056,0.252
		c0.028,0.112,0.098,0.21,0.112,0.294c0.028,0.126,0.07,0.154,0.112,0.267c0.042,0.125,0.084,0.252,0.14,0.335
		c0.014,0.028,0.042,0.028,0.056,0.042c0.084,0.127,0.14,0.252,0.224,0.379c0.07,0.084,0.196,0.209,0.28,0.266
		c0.182,0.14,0.462,0.311,0.7,0.38c0.098,0.028,0.21,0.099,0.294,0.112c0.154,0.028,0.252,0,0.392,0.028
		c0.028,0,0.028,0.014,0.056,0.027c0.196,0.043,0.434,0,0.588-0.027c0.084-0.015,0.182-0.015,0.224-0.028
		c0.07-0.014,0.14,0.014,0.196,0c0.07-0.014,0.182-0.084,0.266-0.112c0.112-0.027,0.182-0.069,0.252-0.111
		c0.07-0.042,0.168-0.073,0.224-0.114c0.042-0.028,0.056-0.084,0.098-0.099l0.168-0.14c0.084-0.084,0.154-0.154,0.21-0.238
		c0.042-0.056,0.056-0.126,0.083-0.182c0.028-0.042,0.084-0.084,0.112-0.141c0.084-0.14,0.126-0.266,0.168-0.434
		c0.014-0.042,0.042-0.07,0.056-0.098c0.056-0.225,0.098-0.504,0.168-0.729c0.028-0.098,0.014-0.21,0.056-0.336
		c0.014-0.07,0.056-0.322,0.028-0.462c-0.014-0.084-0.098-0.168-0.209-0.182c-0.056-0.015-0.154,0.014-0.21,0
		c-0.112-0.028-0.21-0.028-0.336-0.057c-0.14-0.027-0.308,0.028-0.42,0c-0.014,0-0.028-0.014-0.056-0.027
		c-0.14-0.028-0.336,0.014-0.392,0.056c-0.07,0.084-0.042,0.196-0.056,0.309c-0.028,0.111-0.07,0.195-0.084,0.279l-0.028,0.28
		c-0.042,0.224-0.21,0.476-0.35,0.658c-0.056,0.084-0.294,0.21-0.378,0.224c-0.209,0.042-0.364-0.042-0.476-0.112
		c-0.098-0.069-0.252-0.195-0.308-0.279c-0.098-0.154-0.21-0.364-0.28-0.546c-0.098-0.238-0.14-0.519-0.196-0.784
		c-0.014-0.07,0.028-0.154,0-0.252c0-0.015-0.014-0.028-0.028-0.057c-0.014-0.069,0.028-0.168,0-0.252
		c0-0.014-0.014-0.028-0.014-0.042c-0.028-0.111,0.014-0.21,0-0.308c-0.014-0.015-0.042-0.042-0.042-0.07
		c-0.014-0.056-0.014-0.182,0-0.238c0-0.014,0.028-0.027,0.042-0.056c0.014-0.056-0.028-0.126-0.042-0.196
		c0-0.042,0.014-0.098,0-0.14c-0.014-0.112-0.042-0.182-0.028-0.266c0.014-0.057,0.014-0.057,0-0.126c-0.014-0.112,0-0.309,0-0.477
		c0-0.195,0.014-0.42,0.028-0.532c0.014-0.084-0.014-0.168,0-0.252l0.042-0.07c0.014-0.153-0.042-0.378,0-0.546l0.042-0.392
		c0.042-0.154,0.112-0.336,0.14-0.462c0.084-0.294,0.224-0.532,0.364-0.756l0.126-0.112c0.084-0.056,0.224-0.167,0.308-0.182
		s0.126-0.07,0.21-0.084c0.126-0.028,0.266-0.028,0.378,0c0.028,0,0.07,0.042,0.112,0.084c0.126,0.084,0.266,0.098,0.35,0.224
		c0.168,0.266,0.252,0.658,0.336,0.994c0.014,0.056-0.014,0.14,0,0.196c0,0.028,0.014,0.014,0.028,0.056c0,0.042-0.014,0.084,0,0.14
		c0.028,0.168,0.378,0.112,0.616,0.112c0.168,0,0.392,0.028,0.504,0c0.028-0.014,0.042-0.028,0.056-0.028
		c0.098-0.014,0.28,0.014,0.336,0c0.042-0.014,0.126-0.098,0.14-0.14c0-0.028-0.014-0.084,0-0.126c0-0.028,0.028-0.014,0.028-0.07
		c0-0.028-0.028-0.042-0.028-0.07c-0.014-0.07,0.014-0.14,0-0.224c-0.014-0.014-0.028-0.028-0.028-0.056
		c-0.028-0.14,0-0.308-0.028-0.434c-0.014-0.042-0.028-0.07-0.028-0.125c-0.014-0.056-0.056-0.112-0.056-0.168
		c-0.014-0.042,0.014-0.112,0-0.154c-0.014-0.084-0.098-0.168-0.112-0.252c-0.014-0.028,0-0.07,0-0.098
		c-0.014-0.056-0.084-0.154-0.112-0.196c-0.056-0.098-0.084-0.224-0.14-0.308c-0.196-0.308-0.462-0.56-0.77-0.756
		c-0.14-0.084-0.266-0.098-0.434-0.168c-0.042-0.014-0.07-0.042-0.098-0.056c-0.112-0.028-0.196-0.014-0.322-0.028
		c-0.014,0-0.028-0.028-0.042-0.028c-0.07-0.014-0.154,0.014-0.224,0C23.601,4.604,23.334,4.59,23.223,4.618L23.223,4.618z"/>
	<path d="M29.873,4.856c-0.028,0.014-0.112,0.014-0.168,0.028c-0.028,0-0.042,0.014-0.056,0.028c-0.042,0-0.098-0.014-0.14,0
		c-0.112,0.014-0.21,0.07-0.308,0.112c-0.14,0.056-0.28,0.098-0.406,0.168l-0.308,0.196c-0.042,0.028-0.084,0.098-0.126,0.126
		c-0.14,0.098-0.266,0.224-0.364,0.364c-0.028,0.042-0.07,0.056-0.098,0.098c-0.21,0.308-0.406,0.63-0.532,0.938
		c-0.042,0.098-0.112,0.182-0.14,0.28V7.25c-0.042,0.168-0.167,0.322-0.196,0.49c-0.042,0.252-0.112,0.42-0.168,0.701l-0.028,0.195
		c-0.014,0.07,0,0.168-0.014,0.252l-0.042,0.057c-0.014,0.084,0.028,0.182,0,0.266c-0.014,0.085-0.028,0.252-0.059,0.337
		c-0.014,0.069,0,0.056,0,0.125c0.03,0.099-0.014,0.211-0.014,0.267c-0.042,0.154,0,0.392,0,0.588c0,0.182-0.042,0.42,0,0.588
		c0,0.057,0.044,0.112,0.044,0.154c0.042,0.182,0,0.364,0.028,0.504l0.042,0.056c0.014,0.099,0,0.196,0.014,0.28
		c0.042,0.154,0.084,0.406,0.112,0.546c0.042,0.141,0.028,0.224,0.056,0.378c0.028,0.112,0.07,0.21,0.112,0.309l0.084,0.308
		c0.042,0.098,0.098,0.196,0.14,0.308c0.07,0.168,0.21,0.351,0.309,0.49l0.028,0.099c0.084,0.111,0.182,0.237,0.28,0.336
		c0.112,0.111,0.196,0.195,0.322,0.252c0.028,0.014,0.042,0.056,0.07,0.084c0.084,0.058,0.196,0.114,0.28,0.142
		c0.084,0.028,0.168,0.099,0.252,0.112h0.057c0.07,0.014,0.14,0.07,0.21,0.084c0.069,0.014,0.154-0.014,0.224,0
		c0.168,0.042,0.63,0.028,0.784,0c0.07-0.014,0.168,0.014,0.238,0l0.252-0.084c0.084-0.028,0.168-0.098,0.224-0.112
		c0.168-0.042,0.252-0.156,0.378-0.254c0.07-0.042,0.14-0.099,0.21-0.168c0.056-0.056,0.126-0.112,0.168-0.168l0.14-0.238
		l0.084-0.07c0.084-0.126,0.14-0.279,0.196-0.419c0.042-0.112,0.14-0.225,0.168-0.351c0.014-0.07,0.028-0.112,0.056-0.182
		c0.042-0.126,0.112-0.252,0.14-0.379l0.168-0.798c0.014-0.084,0-0.168,0.014-0.252l0.042-0.056c0.028-0.154-0.014-0.336,0.028-0.49
		c0-0.028,0.042-0.056,0.056-0.098c0.014-0.07-0.028-0.168,0-0.252c0-0.014,0.014-0.028,0.014-0.056
		c0.014-0.057-0.014-0.154,0-0.252c0.014-0.028,0.042-0.099,0.028-0.169c-0.014-0.069-0.014-0.098,0-0.182
		c0.042-0.182,0-0.462,0-0.7v-0.35c0-0.141,0.028-0.294,0-0.364c0-0.014-0.042-0.028-0.042-0.056c-0.042-0.112,0.028-0.378,0-0.519
		c-0.028-0.056-0.014-0.028,0-0.098c0-0.042-0.014-0.099,0-0.112c0-0.042,0.084-0.112,0.126-0.126
		c0.224-0.154,0.364-0.238,0.574-0.392c0.056-0.042,0.196-0.167,0.21-0.224c0.028-0.112-0.028-0.168-0.056-0.224
		s-0.028-0.112-0.056-0.168c-0.07-0.112-0.182-0.252-0.238-0.35c-0.056-0.07-0.083-0.182-0.125-0.238
		c-0.028-0.014-0.056-0.028-0.084-0.056c-0.014-0.028,0-0.07-0.028-0.098c0-0.014-0.042-0.014-0.042-0.028
		c-0.014-0.028,0-0.056,0-0.084c-0.014-0.028-0.098-0.14-0.14-0.154c-0.056-0.028-0.14-0.028-0.196,0
		c-0.042,0.014-0.084,0.07-0.14,0.112c-0.014,0.014-0.07,0.014-0.084,0.028c-0.07,0.042-0.098,0.084-0.154,0.084
		c-0.084-0.014-0.126-0.21-0.154-0.294c-0.056-0.126-0.154-0.238-0.224-0.336l-0.084-0.168l-0.154-0.154
		c-0.238-0.238-0.519-0.42-0.869-0.518c-0.083-0.028-0.196-0.014-0.279-0.028c-0.015,0-0.042-0.028-0.057-0.028
		c-0.056-0.014-0.154,0.014-0.196,0C30.181,4.856,29.971,4.842,29.873,4.856L29.873,4.856z M28.515,8.51
		c0.07-0.056,0.098,0.028,0.112,0.042c0.112,0.169,0.28,0.238,0.49,0.351c0.112,0.056,0.21,0.112,0.35,0.154
		c0.084,0.027,0.168,0,0.28,0.027c0.028,0,0.042,0.028,0.07,0.028c0.07,0.014,0.182-0.014,0.28,0c0.07,0.014,0.28,0.056,0.42,0.028
		c0.014,0,0.027-0.015,0.042-0.028c0.084-0.014,0.168,0.014,0.224,0c0.07-0.014,0.168-0.056,0.224-0.028
		c0.154,0.084,0.014,0.547,0.07,0.826c0.028,0.07,0.056,0.309,0.028,0.406c0,0.056,0,0.112-0.028,0.196
		c0,0.069-0.042,0.126-0.042,0.168c-0.042,0.182,0.028,0.378,0,0.56c-0.028,0.154-0.028,0.294-0.056,0.435
		c-0.014,0.042-0.028,0.042-0.028,0.069c-0.014,0.028,0,0.07,0,0.098c-0.042,0.196-0.084,0.435-0.14,0.617
		c-0.042,0.167-0.126,0.392-0.196,0.546c-0.014,0.056-0.028,0.125-0.056,0.167c-0.014,0.015-0.042,0.028-0.056,0.057
		c-0.042,0.084-0.056,0.182-0.112,0.252c-0.056,0.07-0.14,0.154-0.196,0.196c-0.028,0.014-0.07,0.014-0.098,0.042
		c-0.056,0.027-0.112,0.084-0.168,0.098c-0.098,0.028-0.294,0.028-0.364,0c-0.042-0.014-0.056-0.056-0.098-0.084
		c-0.056-0.042-0.154-0.07-0.224-0.112c-0.098-0.069-0.182-0.224-0.252-0.336c-0.168-0.252-0.294-0.532-0.392-0.854
		c-0.028-0.099-0.028-0.168-0.056-0.238c-0.028-0.112-0.056-0.294-0.07-0.406l-0.042-0.069c-0.014-0.099,0-0.211-0.028-0.309
		c-0.014-0.056-0.028-0.182-0.056-0.252c-0.014-0.084,0.028-0.196,0-0.308c0-0.015-0.014-0.028-0.014-0.042
		c-0.028-0.099,0.014-0.196,0-0.28c-0.028-0.084-0.028-0.238,0-0.336c0.014-0.098-0.028-0.225,0-0.308
		c0-0.057,0.042-0.183,0.042-0.252c0.014-0.042-0.014-0.057-0.028-0.099c0-0.014,0.028-0.027,0.028-0.056
		c0.014-0.07,0-0.154,0-0.196c0.028-0.084,0.042-0.224,0.056-0.336C28.458,8.804,28.501,8.679,28.515,8.51L28.515,8.51z
		 M29.705,6.592c0.028-0.014,0.112-0.028,0.14-0.028c0.098-0.014,0.196,0.014,0.266,0.028c0.042,0,0.07-0.014,0.098,0
		c0.042,0,0.042,0.056,0.084,0.07c0.042,0.028,0.098,0.042,0.154,0.07c0.14,0.098,0.294,0.28,0.336,0.462
		c0.014,0.084-0.014,0.168-0.07,0.182c-0.042,0.014-0.098-0.014-0.154,0c-0.098,0.028-0.196,0.056-0.294,0.028
		c-0.042,0-0.098-0.014-0.168-0.028s-0.168-0.098-0.252-0.126c-0.126-0.07-0.224-0.112-0.322-0.238
		c-0.056-0.07-0.126-0.182-0.042-0.266c0.014-0.028,0.083-0.056,0.125-0.084C29.635,6.648,29.677,6.592,29.705,6.592L29.705,6.592z
		 M38.272,4.828c-0.14,0.056-0.154,0.322-0.182,0.504c-0.014,0.084-0.07,0.168-0.084,0.252c-0.027,0.182-0.084,0.336-0.112,0.49
		l-0.028,0.252c-0.014,0.098-0.07,0.182-0.084,0.28c-0.014,0.042,0.014,0.098,0,0.14l-0.056,0.196
		c-0.028,0.112-0.028,0.224-0.056,0.336c0,0.028-0.028,0.042-0.028,0.07c-0.028,0.14-0.028,0.294-0.056,0.448
		c-0.028,0.196-0.098,0.392-0.14,0.588c-0.014,0.099,0,0.21-0.028,0.309c0,0.056-0.042,0.111-0.042,0.168
		c-0.028,0.098-0.014,0.21-0.028,0.294c-0.028,0.098-0.07,0.168-0.098,0.266c-0.028,0.169-0.014,0.309-0.042,0.463
		c-0.028,0.14-0.098,0.252-0.112,0.392c-0.014,0.028,0,0.07,0,0.112l-0.056,0.126l-0.028,0.168c-0.028,0.084-0.07,0.168-0.084,0.252
		l-0.028,0.196l-0.056,0.209c-0.056,0.141-0.112,0.337-0.168,0.49l-0.112,0.294l-0.098,0.099c0.014,0-0.07-0.196-0.084-0.267
		c0-0.027,0.015-0.069,0-0.098c-0.014-0.126-0.07-0.224-0.083-0.322c-0.028-0.098-0.042-0.238-0.056-0.321
		c-0.014-0.099,0.014-0.211,0-0.28c0-0.028-0.042-0.084-0.056-0.141c0-0.042,0.014-0.098,0-0.14c0-0.027-0.028-0.042-0.028-0.056
		c0.014-0.057,0.042-0.084,0.028-0.141c0-0.042-0.042-0.084-0.056-0.14c-0.014-0.056,0.014-0.126,0-0.196
		c0-0.027-0.027-0.027-0.027-0.056c-0.015-0.056,0.014-0.154,0-0.224c-0.015-0.057-0.015-0.028,0-0.099
		c0.027-0.126-0.057-0.21-0.057-0.28c0-0.042,0.057-0.111,0.028-0.195c-0.042-0.21-0.028-0.477-0.07-0.715
		c-0.028-0.098,0.014-0.21,0-0.308c-0.014-0.014-0.042-0.042-0.042-0.056c-0.028-0.168,0.028-0.378,0-0.532
		c0-0.028-0.028-0.056-0.028-0.084c0-0.056,0.07-0.154,0.07-0.21c-0.014-0.042-0.056-0.098-0.07-0.154c-0.014-0.084,0-0.21,0-0.322
		c0-0.112-0.014-0.238,0-0.336c0.014-0.056,0.014-0.056,0-0.126c-0.014-0.084,0.014-0.238,0-0.294c0-0.014-0.028-0.028-0.028-0.042
		c0-0.028,0.042-0.056,0.028-0.126c0-0.042-0.042-0.098-0.042-0.14c0-0.112,0-0.252,0.014-0.35c0.014-0.07,0.042-0.14,0.028-0.209
		c-0.014-0.084-0.07-0.168-0.168-0.182c-0.098-0.028-0.126-0.014-0.182,0c-0.07,0.014-0.266,0.014-0.35,0l-0.056-0.042
		c-0.112-0.014-0.28,0.028-0.336,0.042c-0.154,0.028-0.322,0-0.448,0.028c-0.184,0.042-0.17,0.238-0.142,0.42
		c0.014,0.056,0.014,0.168,0,0.224L34.21,6.004c-0.028,0.07,0.014,0.21,0.014,0.252c0.028,0.07,0,0.14,0,0.196
		c0.059,0.196,0.028,0.532,0.028,0.812v0.378c0,0.14-0.014,0.28,0,0.392c0.03,0.125,0,0.406,0.03,0.518
		c0.014,0.015,0.028,0.028,0.028,0.042c0.014,0.099-0.014,0.196,0,0.28l0.042,0.07c0.042,0.266-0.028,0.574,0.014,0.84
		c0.014,0.015,0.028,0.028,0.028,0.042c0.028,0.084-0.014,0.168,0,0.267c0.014,0.014,0.028,0.027,0.028,0.042
		c0.028,0.111-0.028,0.224,0,0.336c0.014,0.027,0.028,0.042,0.028,0.056c0.014,0.084-0.014,0.196,0,0.28
		c0.014,0.07,0.056,0.126,0.056,0.195c0.028,0.141,0.042,0.267,0.056,0.379c0.014,0.069,0.028,0.125,0.028,0.167
		c0.028,0.099,0.014,0.211,0.028,0.309c0.014,0.084,0.056,0.14,0.056,0.196c0.028,0.098,0.014,0.21,0.028,0.308
		c0.014,0.028,0.028,0.042,0.028,0.056c0.014,0.043,0,0.099,0,0.141c0.014,0.084,0.07,0.168,0.084,0.238v0.083
		c0.014,0.07,0.07,0.196,0.083,0.28v0.099c0.042,0.195,0.14,0.405,0.196,0.63l0.028,0.168c0.014,0.084,0.07,0.168,0.112,0.266
		c0.028,0.098,0.042,0.21,0.084,0.309c0.014,0.041,0.056,0.083,0.084,0.14c0.028,0.07,0.042,0.126,0.083,0.21l0.084,0.168
		c0.014,0.028,0.042,0.028,0.042,0.056c0.056,0.129,0.098,0.101,0.238,0.129c0.07,0.014,0.07,0.014,0.168,0
		c0.14-0.028,0.406-0.028,0.546,0c0.042,0,0.042,0.027,0.07,0.027c0.042,0,0.042-0.027,0.084-0.027c0.126-0.028,0.28,0.027,0.392,0
		c0.14-0.028,0.266-0.24,0.322-0.381c0.112-0.196,0.168-0.363,0.28-0.546c0.042-0.07,0.084-0.21,0.112-0.294
		c0.042-0.098,0.07-0.238,0.112-0.35c0.014-0.057,0.069-0.099,0.083-0.141c0.07-0.182,0.098-0.321,0.14-0.504
		c0.042-0.168,0.154-0.35,0.196-0.518l0.056-0.183c0-0.027-0.014-0.14,0-0.153c0.014-0.028,0.042,0,0.056-0.028
		s-0.014-0.084,0-0.126c0-0.07,0.028-0.14,0.056-0.224c0.028-0.112,0.083-0.238,0.098-0.322c0.014-0.07,0.028-0.084,0.042-0.126
		c0-0.028-0.014-0.07,0-0.112c0.028-0.168,0.098-0.336,0.126-0.518c0.014-0.042,0-0.084,0-0.112c0.042-0.182,0.112-0.35,0.14-0.532
		c0.014-0.056,0-0.111,0-0.168C38.945,9.91,39,9.841,39.015,9.757c0.028-0.126,0.014-0.238,0.028-0.337
		c0.028-0.098,0.07-0.182,0.084-0.279c0.014-0.07-0.014-0.141,0-0.196c0-0.028,0.028-0.042,0.028-0.07c0.014-0.028,0-0.07,0-0.098
		c0.014-0.07,0.07-0.141,0.084-0.225c0.014-0.042-0.014-0.098,0-0.14c0.014-0.014,0.028-0.028,0.028-0.056l0.028-0.28
		c0-0.014,0.028-0.028,0.028-0.056c0.042-0.154,0.028-0.322,0.056-0.476c0-0.014,0.028-0.028,0.028-0.042
		c0.028-0.112,0.014-0.182,0.028-0.28c0.014-0.056,0.042-0.112,0.056-0.182c0.014-0.028,0-0.07,0-0.098
		c0.014-0.042,0.042-0.084,0.056-0.14c0.014-0.056-0.014-0.112,0-0.168l0.056-0.154c0-0.042-0.014-0.098,0-0.14
		c0.014-0.084,0.07-0.154,0.084-0.224c0.028-0.126,0.028-0.238,0.056-0.336c0-0.042-0.014-0.07,0-0.112
		c0.042-0.224,0.21-0.504-0.056-0.56c-0.028-0.014-0.07,0-0.098,0c-0.112-0.028-0.196-0.098-0.322-0.112
		c-0.042-0.014-0.084,0-0.112,0l-0.14-0.056h-0.084C38.749,4.912,38.525,4.744,38.272,4.828L38.272,4.828z M41.409,5.01
		c-0.028,0.014-0.084,0.014-0.126,0.027c-0.07,0.014-0.14,0.098-0.168,0.168c-0.014,0.07-0.014,0.126,0,0.168
		c0.028,0.112,0,0.28-0.028,0.434c-0.028,0.224,0.042,0.462,0,0.644c-0.014,0.07-0.042,0.112-0.028,0.196s0.042,0.098,0.028,0.168
		c0,0.028-0.028,0.042-0.028,0.056c-0.014,0.084,0.014,0.196,0,0.28c0,0.014-0.028,0.028-0.028,0.056
		c-0.042,0.182,0,0.462-0.028,0.63c-0.028,0.126-0.014,0.182,0,0.266c0.014,0.084-0.042,0.252-0.056,0.322
		c-0.042,0.209,0.014,0.461-0.028,0.686c-0.014,0.126,0.028,0.252,0,0.364c0,0.056-0.042,0.112-0.056,0.168
		c-0.014,0.098,0.014,0.196,0,0.28c-0.014,0.069-0.014,0.084,0,0.14c0.014,0.098-0.028,0.168-0.056,0.28
		c-0.014,0.098,0,0.21-0.028,0.336c-0.028,0.182,0.014,0.378-0.028,0.573c-0.014,0.084,0.028,0.169,0,0.252
		c0,0.028-0.028,0.042-0.028,0.057c-0.028,0.154,0.014,0.364-0.028,0.532l-0.056,0.252c-0.028,0.112,0.028,0.252,0,0.378
		c0,0.014-0.014,0.027-0.028,0.056c-0.042,0.196,0.014,0.42-0.014,0.588c-0.014,0.015-0.028,0.028-0.042,0.07
		c0,0.042,0.014,0.098,0,0.154c0,0.014-0.014,0.027-0.028,0.056c-0.014,0.112,0.028,0.238,0,0.35c0,0.028-0.014,0.043-0.03,0.057
		c-0.028,0.126,0.03,0.252,0,0.363c0,0.028-0.014,0.028-0.014,0.057c-0.028,0.112,0.072,0.224,0.128,0.224
		c0.224,0.042,0.42-0.014,0.644,0.028l0.056,0.042c0.098,0.014,0.28-0.028,0.406,0c0.098,0.014,0.28,0.056,0.364,0.028
		c0-0.015,0.126-0.099,0.126-0.112c0.028-0.042-0.014-0.14,0-0.21c0.028-0.084,0.07-0.21,0.084-0.336
		c0.014-0.07-0.014-0.141,0-0.196c0.014-0.014,0.028-0.028,0.028-0.042c0.014-0.07-0.014-0.14,0-0.196
		c0.014-0.027,0.028-0.042,0.028-0.056c0.028-0.182-0.014-0.392,0.028-0.561c0-0.014,0.028-0.027,0.028-0.056
		c0.028-0.14,0.014-0.237,0.028-0.364c0.028-0.126,0.014-0.168,0.028-0.279c0.014-0.042,0-0.084,0-0.141
		c0-0.014,0.028-0.027,0.028-0.042c0.028-0.111-0.014-0.237,0-0.308c0-0.014,0.028-0.028,0.028-0.057
		c0.014-0.041-0.014-0.153,0-0.224c0-0.014,0.028-0.042,0.028-0.056c0,0-0.014-0.154,0.028-0.154c0,0,0.014-0.014,0.014,0.028
		c0.028,0.126,0.084,0.21,0.14,0.364c0.07,0.224,0.126,0.476,0.196,0.686c0.042,0.098,0.056,0.238,0.112,0.364
		c0.014,0.042,0.042,0.069,0.056,0.098c0.084,0.224,0.14,0.49,0.224,0.714c0.014,0.028,0.042,0.057,0.042,0.084l0.238,0.616
		c0.014,0.042,0,0.098,0.028,0.14c0,0.028,0.042,0.057,0.042,0.085c0.07,0.195,0.196,0.377,0.252,0.56
		c0.028,0.042,0.014,0.07,0.028,0.098c0.098,0.156,0.266,0.156,0.462,0.129c0.112-0.015,0.252,0.014,0.336,0
		c0.014,0,0.028-0.028,0.056-0.028c0.112-0.028,0.28,0.028,0.351,0c0.028,0,0.042-0.028,0.056-0.028
		c0.084-0.014,0.238,0.028,0.336,0c0.07-0.014,0.182-0.17,0.196-0.282c0.014-0.042,0-0.07,0-0.111
		c0.014-0.099,0.07-0.196,0.083-0.309V14.53c0.014-0.098,0.07-0.196,0.084-0.28l0.028-0.279l0.056-0.112
		c0-0.028-0.014-0.084,0-0.112l0.083-0.462l0.056-0.168c0-0.056-0.014-0.098,0-0.14c0-0.042,0.042-0.07,0.056-0.099
		c0.014-0.098,0-0.195,0.028-0.279c0-0.028,0.028-0.042,0.028-0.07c0.028-0.098,0.014-0.154,0.028-0.252l0.056-0.154
		c0.028-0.153,0-0.224,0.028-0.336c0-0.056,0.042-0.126,0.056-0.182c0-0.042-0.014-0.084,0-0.126c0-0.014,0.028-0.028,0.028-0.056
		c0-0.042-0.014-0.099,0-0.141c0.014-0.028,0.042-0.014,0.056-0.042c0.014-0.056-0.014-0.126,0-0.21
		c0.014-0.084,0.07-0.196,0.084-0.28c0.014-0.111,0-0.237,0.028-0.35c0-0.042,0.014-0.112,0.028-0.168
		c0-0.056,0.042-0.084,0.042-0.14c0.015-0.042,0-0.07,0-0.112c0.015-0.042,0.056-0.084,0.07-0.14c0-0.057,0.014-0.099,0.028-0.169
		c0.028-0.182,0.042-0.377,0.07-0.518c0.028-0.098,0.014-0.21,0.028-0.309c0.014-0.056,0.056-0.098,0.056-0.14
		c0.014-0.042,0-0.084,0-0.112c0.014-0.042,0.056-0.084,0.056-0.14c0.027-0.154,0.027-0.266,0.056-0.42
		c0-0.014,0.028-0.028,0.028-0.056c0.028-0.07,0.014-0.154,0.028-0.252c0.028-0.098,0.07-0.21,0.084-0.322l0.028-0.28
		c0.014-0.084,0.07-0.168,0.084-0.252l0.028-0.167c0.014-0.028,0-0.07,0-0.112c0.014-0.098,0.084-0.224,0.112-0.364
		c0.014-0.042,0-0.098,0-0.14c0-0.014,0.028-0.028,0.028-0.056c0.014-0.084-0.07-0.196-0.126-0.224
		c-0.112-0.042-0.196,0-0.294-0.028c-0.07-0.014-0.182-0.028-0.28-0.056c-0.084-0.014-0.154-0.07-0.224-0.07
		c-0.098-0.028-0.196-0.014-0.308-0.028c-0.112-0.028-0.182-0.126-0.336-0.098c-0.112,0.028-0.224,0.224-0.252,0.378
		c0,0.042,0.014,0.083,0,0.14c-0.014,0.112-0.084,0.224-0.112,0.364l-0.028,0.266c-0.014,0.084-0.056,0.154-0.084,0.252
		c0,0.028,0.014,0.07,0,0.112c0,0.028-0.014,0.028-0.028,0.07c0,0.028,0.015,0.056,0,0.098c-0.027,0.14-0.083,0.266-0.112,0.406
		c0,0.056,0.014,0.098,0,0.14c-0.014,0.098-0.056,0.224-0.084,0.322c-0.014,0.098,0,0.21-0.028,0.322
		c-0.028,0.196-0.098,0.392-0.14,0.588c0,0.042,0.014,0.098,0,0.14c0,0.057-0.042,0.099-0.042,0.154
		c-0.028,0.098-0.014,0.196-0.028,0.309c-0.014,0.083-0.07,0.168-0.098,0.252l-0.042,0.336c-0.014,0.042,0,0.069,0,0.111
		c-0.028,0.126-0.098,0.28-0.112,0.42c-0.028,0.141-0.028,0.294-0.084,0.406c-0.014,0.028-0.084,0.14-0.084,0.14
		s-0.07-0.182-0.07-0.153l-0.084-0.238l-0.084-0.237c-0.084-0.238-0.126-0.477-0.196-0.729c-0.014-0.056-0.042-0.098-0.056-0.14
		c-0.042-0.168-0.084-0.364-0.14-0.547c-0.014-0.084-0.056-0.153-0.083-0.237c-0.028-0.141-0.07-0.28-0.112-0.421L43.648,8.37
		c-0.014-0.098-0.056-0.196-0.07-0.28c-0.014-0.028,0-0.084,0-0.112c-0.014-0.056-0.084-0.154-0.084-0.224
		c-0.028-0.07-0.014-0.14-0.028-0.224c-0.014-0.042-0.056-0.084-0.056-0.126V7.348l-0.112-0.364l-0.027-0.168
		c-0.015-0.056-0.057-0.098-0.057-0.14c-0.028-0.056-0.014-0.126-0.028-0.182c-0.028-0.084-0.07-0.154-0.084-0.238V6.172
		c-0.028-0.168-0.14-0.336-0.168-0.504c-0.014-0.112-0.028-0.182-0.056-0.266c-0.028-0.056-0.028-0.154-0.056-0.21
		c-0.056-0.14-0.196-0.154-0.336-0.182c-0.056-0.015-0.084,0.014-0.126,0.027c-0.098,0.014-0.238,0-0.377,0
		c-0.14,0-0.294,0.014-0.392,0C41.535,5.024,41.479,4.996,41.409,5.01L41.409,5.01z"/>
	<path d="M48.521,4.884c-0.224,0.028-0.252,0.238-0.294,0.462c-0.015,0.112,0.027,0.238,0,0.364
		c-0.015,0.126-0.056,0.56-0.015,0.714c0.028,0.182,0.267,0.098,0.462,0.14c0.07,0.014,0.21,0.042,0.308,0.028
		c0.07-0.014,0.084-0.014,0.154,0c0.168,0.028,0.434-0.042,0.504,0.07c0.056,0.07,0.027,0.378,0.014,0.476
		c-0.042,0.21,0.028,0.476,0,0.658L49.612,7.88c-0.014,0.07,0.014,0.168,0,0.252c-0.028,0.182,0.014,0.462-0.028,0.7
		C49.57,8.944,49.57,9.141,49.57,9.336c0,0.183,0,0.393,0.014,0.505c0.028,0.084,0,0.195,0,0.266c0.028,0.112,0.028,0.14,0,0.238
		c-0.014,0.084,0,0.126,0,0.195c0.042,0.225-0.042,0.574,0,0.784c0.042,0.168,0.015,0.378,0.015,0.546
		c0,0.07,0.042,0.112,0.056,0.168c0.014,0.07-0.028,0.099-0.028,0.154c0,0.014,0.015,0.042,0.028,0.07
		c0.014,0.14-0.028,0.336,0,0.489c0,0.015,0.014,0.043,0.028,0.07c0.014,0.112-0.028,0.252,0,0.364c0,0.07,0.042,0.21,0.027,0.308
		c-0.042,0.183-0.252,0.126-0.462,0.126c-0.308,0-0.545-0.056-0.783,0c-0.154,0.028-0.182,0.196-0.21,0.351
		c-0.014,0.153,0,0.35,0,0.531c0,0.252-0.027,0.532,0.042,0.673c0.056,0.156,0.224,0.056,0.406,0.098c0.028,0,0.056,0.03,0.084,0.03
		c0.238,0.042,0.503-0.045,0.727,0c0.169,0.042,0.211,0.294,0.337,0.336c0.21,0.057,0.504,0.042,0.756,0
		c0.237-0.042,0.518,0.057,0.714,0c0.154-0.042,0.126-0.252,0.238-0.308c0.195-0.101,0.952,0.098,1.021-0.129
		c0.056-0.252-0.069-0.588,0-0.924c0-0.014,0.015-0.042,0.015-0.07c0.014-0.042,0-0.084,0-0.14c0.014-0.027,0.041-0.056,0.041-0.098
		c0-0.099-0.069-0.267-0.125-0.294c-0.127-0.057-0.322,0.014-0.49-0.028c-0.028,0-0.042-0.028-0.07-0.028
		c-0.07-0.014-0.168,0-0.252,0c-0.07,0-0.224,0.015-0.252,0c-0.042-0.014-0.056-0.168-0.07-0.224c0-0.07-0.027-0.154-0.027-0.168
		c0.014-0.057,0.042-0.07,0.027-0.112c0-0.042-0.014-0.056-0.027-0.098c0-0.042,0.027-0.056,0.027-0.112
		c0.028-0.182-0.084-0.392-0.042-0.602v-0.141c-0.027-0.153,0.028-0.42,0-0.588c-0.014-0.028-0.027-0.042-0.027-0.07
		c-0.015-0.056,0-0.125,0-0.168c-0.015-0.042-0.042-0.056-0.042-0.098c0-0.056,0.069-0.126,0.069-0.21
		c0-0.056-0.056-0.196-0.069-0.252c-0.028-0.182,0.042-0.392,0-0.588c-0.028-0.196-0.028-0.462-0.028-0.729
		c0-0.252,0-0.546,0.028-0.714c0.014-0.069-0.015-0.182,0-0.266c0.014-0.071,0.014-0.071,0-0.141
		c-0.015-0.098,0.027-0.238,0.042-0.308c0.027-0.168-0.015-0.392,0.027-0.588c0-0.056,0.015-0.14,0.015-0.224
		c0.014-0.028,0.027-0.042,0.027-0.07c0.015-0.042-0.027-0.07-0.027-0.098c0.014-0.014,0.027-0.042,0.027-0.07
		c0.015-0.028,0-0.07,0-0.098c0.015-0.07,0.099-0.182,0.112-0.182c0.07-0.042,0.196,0.014,0.28,0.028
		c0.224,0.028,0.518-0.042,0.742,0c0.153,0.028,0.531,0.07,0.588-0.056c0.014-0.028,0-0.084,0-0.112
		c0.014-0.07,0.056-0.182,0.056-0.252c0-0.042-0.028-0.07-0.014-0.098c0-0.014,0.014-0.042,0.014-0.07
		c0.042-0.21,0-0.462,0.028-0.63c0.014-0.07,0.056-0.182,0.027-0.238c-0.042-0.154-0.224-0.112-0.392-0.14
		c-0.014-0.014-0.042-0.028-0.07-0.028c-0.098-0.028-0.21,0.014-0.308,0c-0.028-0.014-0.057-0.028-0.07-0.028
		c-0.252-0.042-0.532,0.014-0.742-0.028C51.446,5.01,51.082,5.024,50.9,4.996c-0.099-0.014-0.196,0.015-0.294,0
		c-0.028,0-0.042-0.028-0.07-0.028c-0.14-0.028-0.266,0.014-0.406,0c-0.098-0.028-0.182-0.042-0.279-0.028
		c-0.099,0.014-0.141,0.014-0.238,0c-0.168-0.028-0.266-0.028-0.393,0c-0.111,0.014-0.279-0.014-0.349-0.028
		c-0.084-0.014-0.182,0.014-0.266,0C48.563,4.898,48.549,4.884,48.521,4.884L48.521,4.884z M52.174,0.446
		c-0.111,0.028-0.14,0.084-0.209,0.182c-0.057,0.084-0.169,0.168-0.253,0.252c-0.084,0.07-0.21,0.168-0.252,0.238
		c-0.111,0.224-0.35,0.35-0.462,0.56c-0.056,0.098-0.168,0.154-0.224,0.238c0,0.014,0,0.028-0.015,0.056
		c-0.027,0.042-0.083,0.07-0.125,0.126c-0.043,0.042-0.057,0.098-0.085,0.14c-0.069,0.098-0.153,0.182-0.224,0.266
		c-0.056,0.098-0.098,0.196-0.168,0.294c-0.042,0.07-0.126,0.14-0.154,0.21c-0.056,0.084-0.182,0.252-0.182,0.364
		c0,0.196,0.224,0.252,0.378,0.335c0.084,0.042,0.196,0.112,0.28,0.14c0.111,0.028,0.168,0.056,0.224,0.084
		c0.056,0.014,0.084,0,0.14,0.028c0.112,0.042,0.225,0.126,0.379,0.084c0.098-0.028,0.252-0.266,0.308-0.35
		c0.084-0.126,0.154-0.182,0.224-0.28c0.028-0.027,0.028-0.083,0.057-0.112c0.027-0.028,0.069-0.056,0.084-0.084
		c0.07-0.14,0.266-0.266,0.322-0.378c0.083-0.126,0.195-0.196,0.266-0.322c0.028-0.056,0.153-0.112,0.195-0.196
		c0.028-0.07,0.085-0.098,0.127-0.154c0.083-0.112,0.195-0.21,0.294-0.35c0.069-0.084,0.153-0.126,0.195-0.21
		c0.07-0.21-0.069-0.28-0.168-0.42C53.057,1.09,53,1.034,52.902,0.936c-0.112-0.098-0.168-0.167-0.252-0.224
		C52.496,0.628,52.426,0.39,52.174,0.446L52.174,0.446z M61.61,4.954c-0.252,0.057-0.126,0.252-0.182,0.532
		c-0.028,0.154-0.028,0.28,0,0.392c0.027,0.126-0.028,0.266,0,0.392l0.056,0.196c0.028,0.112-0.028,0.154-0.028,0.21
		c0,0.042,0.042,0.126,0.057,0.21c0.014,0.084-0.015,0.182,0,0.238c0,0.028,0.027,0.042,0.027,0.07c0.028,0.14-0.027,0.322,0,0.462
		l0.057,0.28c0.028,0.168-0.028,0.336,0,0.462c0,0.028,0.014,0.042,0.028,0.056c0.014,0.098-0.028,0.196,0,0.294
		c0,0.028,0.027,0.056,0.027,0.084c0.042,0.196-0.014,0.435,0.028,0.63c0.014,0.057,0.042,0.183,0.027,0.267
		c-0.014,0.07-0.014,0.056,0,0.126c0.015,0.084,0.015,0.14,0.028,0.182c0.014,0.099,0,0.238,0,0.364c0,0.14,0.014,0.294,0,0.378
		c-0.014,0.07-0.014,0.07,0,0.14c0.014,0.07-0.028,0.154-0.028,0.196c-0.014,0.057,0.015,0.112,0,0.168
		c0,0.028-0.027,0.042-0.027,0.056c-0.042,0.196,0.014,0.421-0.028,0.603c-0.027,0.154-0.084,0.294-0.112,0.448v0.084
		c-0.027,0.126-0.098,0.279-0.14,0.405c-0.014,0.042-0.069,0.085-0.084,0.127c-0.056,0.224-0.14,0.308-0.266,0.447
		c-0.057,0.057-0.099,0.112-0.154,0.154c-0.084,0.056-0.308,0.182-0.378,0.196c-0.098,0.014-0.322,0.027-0.393,0
		c-0.041-0.015-0.069-0.07-0.098-0.099c-0.168-0.111-0.294-0.321-0.364-0.532c-0.027-0.098-0.069-0.195-0.084-0.294
		c-0.027-0.167-0.042-0.336-0.083-0.489c0-0.042,0.014-0.112,0-0.154c0-0.028-0.015-0.056-0.015-0.056
		c0-0.042,0.028-0.057,0.015-0.099c0-0.084-0.085-0.21-0.057-0.336c0.014-0.098,0.057-0.154,0.042-0.238
		c-0.014-0.014-0.042-0.041-0.042-0.069c-0.014-0.099-0.014-0.294,0-0.393c0.014-0.069,0.014-0.069,0-0.126
		c-0.014-0.069-0.014-0.195,0-0.266c0-0.014,0.028-0.042,0.042-0.056c0.015-0.07-0.014-0.183,0-0.252c0.015-0.07,0-0.057,0-0.126
		c-0.028-0.099,0.015-0.267,0.015-0.322c0.027-0.084-0.015-0.168,0-0.252c0.014-0.014,0.027-0.028,0.027-0.056
		c0.028-0.112-0.014-0.225,0-0.322c0.014-0.028,0.028-0.042,0.028-0.07c0.027-0.084-0.015-0.182,0-0.266
		c0.014-0.015,0.027-0.043,0.027-0.057c0.042-0.224-0.014-0.476,0.028-0.686c0.014-0.112-0.014-0.21,0-0.308
		c0-0.028,0.028-0.056,0.028-0.07c0.042-0.182,0-0.419,0.027-0.629c0.015-0.028,0.028-0.042,0.028-0.056
		c0.014-0.084-0.014-0.182,0-0.252c0.014-0.014,0.028-0.027,0.028-0.056c0.014-0.098-0.028-0.21,0-0.308
		c0.028-0.098,0.028-0.224,0.056-0.378c0.015-0.112-0.027-0.224,0-0.308c0.015-0.07,0.015-0.056,0-0.126
		c-0.014-0.098,0.015-0.154-0.056-0.182c-0.154-0.084-0.49-0.028-0.672-0.056c-0.015-0.014-0.028-0.028-0.057-0.028
		c-0.084-0.028-0.195-0.014-0.308-0.028c-0.154-0.028-0.393-0.014-0.462,0.028c-0.168,0.084-0.084,0.238-0.126,0.448
		c0,0.028-0.028,0.042-0.028,0.056c-0.014,0.07,0.014,0.126,0,0.196c-0.014,0.056-0.042,0.098-0.056,0.168
		c-0.042,0.224,0.014,0.448-0.028,0.63c0,0.028-0.028,0.042-0.028,0.07c-0.014,0.084,0.028,0.168,0,0.266
		c0,0.014-0.027,0.042-0.027,0.056C57.9,7.53,57.942,7.782,57.9,7.978c0,0.028-0.014,0.042-0.027,0.07
		c-0.015,0.084,0.027,0.182,0,0.266C57.83,8.51,57.873,8.79,57.83,9l-0.042,0.084c-0.027,0.168,0.042,0.421,0,0.63
		c0,0.015-0.014,0.028-0.027,0.057c-0.015,0.098,0.027,0.195,0,0.294c0,0.028-0.015,0.042-0.03,0.07
		c-0.028,0.195,0.044,0.405,0,0.63c0,0.014-0.015,0.027-0.015,0.056c-0.042,0.154,0,0.406,0,0.603c0,0.378,0,0.728,0.045,1.008
		c0.042,0.224,0,0.308,0.027,0.462l0.042,0.07c0.015,0.111,0,0.224,0.015,0.35c0.042,0.182,0.111,0.322,0.14,0.476l0.056,0.154
		l0.112,0.308c0.015,0.057,0.015,0.099,0.028,0.126l0.056,0.07c0.042,0.07,0.07,0.168,0.126,0.224l0.057,0.07
		c0.027,0.042,0.042,0.084,0.084,0.126c0.182,0.267,0.546,0.507,0.854,0.618c0.084,0.028,0.154,0.015,0.238,0.028
		c0.069,0.014,0.126,0.042,0.182,0.056c0.07,0.015,0.126-0.014,0.196,0c0.195,0.042,0.378,0.042,0.588,0
		c0.112-0.014,0.238,0,0.35-0.027c0.028,0,0.042-0.028,0.07-0.028c0.042-0.014,0.112,0.014,0.168,0
		c0.042-0.014,0.084-0.07,0.14-0.084c0.07-0.028,0.126-0.028,0.196-0.056l0.112-0.057c0.308-0.198,0.588-0.353,0.77-0.646
		c0.042-0.069,0.126-0.125,0.183-0.195c0.069-0.112,0.126-0.252,0.21-0.378c0.027-0.056,0.084-0.099,0.098-0.154
		c0.057-0.126,0.112-0.21,0.14-0.308c0.042-0.099,0.099-0.211,0.112-0.322c0.028-0.21,0.099-0.364,0.141-0.561
		c0-0.041-0.015-0.084,0-0.126c0-0.027,0.014-0.042,0.027-0.056c0-0.056-0.014-0.098,0-0.14c0-0.042,0.028-0.042,0.028-0.07
		c0.027-0.182,0.027-0.364,0.056-0.546c0-0.014,0.014-0.028,0.028-0.056c0.028-0.112-0.028-0.238,0-0.364
		c0-0.014,0.014-0.028,0.028-0.042c0.042-0.196,0-0.462,0-0.728v-0.364c0-0.126,0.014-0.28,0-0.378
		c-0.015-0.015-0.028-0.028-0.028-0.042c-0.015-0.099,0.014-0.225,0-0.336c-0.015-0.07-0.015-0.099,0-0.196
		c0.014-0.126-0.057-0.225-0.057-0.294c0-0.028,0.028-0.057,0.028-0.07c0.014-0.07-0.028-0.141-0.028-0.183
		c-0.014-0.098,0.015-0.195,0-0.279c0-0.015-0.027-0.042-0.027-0.056c-0.015-0.07,0.014-0.154,0-0.21
		c0-0.028-0.028-0.056-0.028-0.084c-0.027-0.098,0.014-0.224,0-0.322c-0.014-0.028-0.027-0.042-0.027-0.056
		c-0.015-0.056,0.014-0.112,0-0.168c-0.015-0.014-0.028-0.028-0.028-0.056s0.028-0.056,0.028-0.112c0-0.014-0.028-0.028-0.028-0.042
		c-0.014-0.084,0.028-0.182,0-0.28c0-0.028-0.028-0.042-0.028-0.056c-0.014-0.084,0.015-0.21,0-0.308
		c-0.014-0.042-0.056-0.098-0.056-0.14c0-0.014,0.028-0.042,0.028-0.056c0.014-0.083-0.015-0.154-0.028-0.196
		c0-0.042,0.014-0.098,0-0.154c0-0.028-0.028-0.042-0.028-0.07c-0.042-0.182,0.028-0.42,0-0.616
		c-0.014-0.056-0.028-0.07-0.028-0.112c0-0.028,0.028-0.042,0.028-0.084c0-0.028-0.042-0.196-0.056-0.224
		c-0.042-0.084-0.168-0.056-0.28-0.07c-0.028-0.015-0.042-0.028-0.07-0.028c-0.153-0.028-0.35,0.028-0.546,0
		C61.988,4.954,61.75,4.926,61.61,4.954L61.61,4.954z M62.059,0.446c-0.112,0.028-0.14,0.084-0.21,0.182
		c-0.057,0.084-0.168,0.168-0.252,0.252c-0.084,0.07-0.21,0.168-0.252,0.238c-0.112,0.224-0.351,0.35-0.462,0.56
		c-0.057,0.098-0.169,0.154-0.225,0.238c0,0.014,0,0.028-0.014,0.056c-0.028,0.042-0.084,0.07-0.126,0.126
		c-0.042,0.042-0.057,0.098-0.084,0.14c-0.07,0.098-0.154,0.182-0.225,0.266c-0.056,0.098-0.098,0.196-0.167,0.294
		c-0.042,0.07-0.127,0.14-0.154,0.21c-0.056,0.084-0.183,0.252-0.183,0.364c0,0.196,0.225,0.252,0.379,0.335
		c0.083,0.042,0.195,0.112,0.279,0.14c0.112,0.028,0.168,0.056,0.225,0.084c0.056,0.014,0.084,0,0.14,0.028
		c0.112,0.042,0.224,0.126,0.378,0.084c0.098-0.028,0.252-0.266,0.308-0.35c0.084-0.126,0.154-0.182,0.225-0.28
		c0.028-0.027,0.028-0.083,0.056-0.112c0.028-0.028,0.07-0.056,0.084-0.084c0.07-0.14,0.266-0.266,0.322-0.378
		c0.084-0.126,0.195-0.196,0.266-0.322c0.028-0.056,0.154-0.112,0.196-0.196c0.028-0.07,0.084-0.098,0.126-0.154
		c0.084-0.112,0.196-0.21,0.294-0.35c0.07-0.084,0.154-0.126,0.196-0.21c0.07-0.21-0.07-0.28-0.168-0.42
		c-0.07-0.098-0.126-0.154-0.225-0.252c-0.111-0.098-0.168-0.167-0.252-0.224C62.381,0.628,62.311,0.39,62.059,0.446L62.059,0.446z
		 M68.247,4.828c-0.141,0.056-0.154,0.322-0.183,0.504c-0.014,0.084-0.07,0.168-0.084,0.252c-0.028,0.182-0.084,0.336-0.112,0.49
		l-0.027,0.252c-0.015,0.098-0.07,0.182-0.084,0.28c-0.015,0.042,0.014,0.098,0,0.14L67.7,6.942
		c-0.027,0.112-0.027,0.224-0.056,0.336c0,0.028-0.028,0.042-0.028,0.07c-0.027,0.14-0.027,0.294-0.056,0.448
		c-0.028,0.196-0.098,0.392-0.14,0.588c-0.015,0.099,0,0.21-0.028,0.309c0,0.056-0.042,0.111-0.042,0.168
		c-0.028,0.098-0.014,0.21-0.028,0.294c-0.028,0.098-0.069,0.168-0.098,0.266c-0.028,0.169-0.014,0.309-0.042,0.463
		c-0.028,0.14-0.098,0.252-0.112,0.392c-0.014,0.028,0,0.07,0,0.112l-0.056,0.126l-0.028,0.168
		c-0.027,0.084-0.069,0.168-0.084,0.252l-0.027,0.196l-0.057,0.209c-0.056,0.141-0.112,0.337-0.168,0.49l-0.112,0.294l-0.098,0.099
		c0.014,0-0.07-0.196-0.084-0.267c0-0.027,0.014-0.069,0-0.098c-0.014-0.126-0.07-0.224-0.084-0.322
		c-0.028-0.098-0.042-0.238-0.056-0.321c-0.015-0.099,0.014-0.211,0-0.28c0-0.028-0.042-0.084-0.057-0.141
		c0-0.042,0.015-0.098,0-0.14c0-0.027-0.027-0.042-0.027-0.056c0.014-0.057,0.042-0.084,0.027-0.141c0-0.042-0.042-0.084-0.056-0.14
		s0.014-0.126,0-0.196c0-0.027-0.027-0.027-0.027-0.056c-0.015-0.056,0.014-0.154,0-0.224c-0.015-0.057-0.015-0.028,0-0.099
		c0.027-0.126-0.057-0.21-0.057-0.28c0-0.042,0.057-0.111,0.028-0.195c-0.042-0.21-0.028-0.477-0.07-0.715
		c-0.028-0.098,0.014-0.21,0-0.308c-0.014-0.014-0.042-0.042-0.042-0.056c-0.028-0.168,0.028-0.378,0-0.532
		c0-0.028-0.028-0.056-0.028-0.084c0-0.056,0.07-0.154,0.07-0.21c-0.014-0.042-0.056-0.098-0.07-0.154c-0.014-0.084,0-0.21,0-0.322
		c0-0.112-0.014-0.238,0-0.336c0.015-0.056,0.015-0.056,0-0.126c-0.014-0.084,0.015-0.238,0-0.294c0-0.014-0.027-0.028-0.027-0.042
		c0-0.028,0.042-0.056,0.027-0.126c0-0.042-0.042-0.098-0.042-0.14c0-0.112,0-0.252,0.015-0.35c0.014-0.07,0.042-0.14,0.027-0.209
		c-0.014-0.084-0.069-0.168-0.168-0.182c-0.098-0.028-0.126-0.014-0.182,0c-0.07,0.014-0.266,0.014-0.351,0l-0.056-0.042
		c-0.111-0.014-0.28,0.028-0.336,0.042c-0.154,0.028-0.321,0-0.448,0.028c-0.184,0.042-0.17,0.238-0.142,0.42
		c0.014,0.056,0.014,0.168,0,0.224l-0.042,0.252c-0.028,0.07,0.014,0.21,0.014,0.252c0.028,0.07,0,0.14,0,0.196
		c0.059,0.196,0.028,0.532,0.028,0.812v0.378c0,0.14-0.015,0.28,0,0.392c0.03,0.125,0,0.406,0.03,0.518
		c0.014,0.015,0.027,0.028,0.027,0.042c0.015,0.099-0.014,0.196,0,0.28l0.042,0.07c0.042,0.266-0.027,0.574,0.015,0.84
		c0.014,0.015,0.027,0.028,0.027,0.042c0.028,0.084-0.014,0.168,0,0.267c0.015,0.014,0.028,0.027,0.028,0.042
		c0.028,0.111-0.028,0.224,0,0.336c0.014,0.027,0.028,0.042,0.028,0.056c0.014,0.084-0.015,0.196,0,0.28
		c0.014,0.07,0.056,0.126,0.056,0.195c0.028,0.141,0.042,0.267,0.056,0.379c0.015,0.069,0.028,0.125,0.028,0.167
		c0.028,0.099,0.014,0.211,0.028,0.309c0.014,0.084,0.056,0.14,0.056,0.196c0.028,0.098,0.014,0.21,0.028,0.308
		c0.014,0.028,0.027,0.042,0.027,0.056c0.015,0.043,0,0.099,0,0.141c0.015,0.084,0.07,0.168,0.085,0.238v0.083
		c0.014,0.07,0.069,0.196,0.083,0.28v0.099c0.042,0.195,0.141,0.405,0.196,0.63l0.028,0.168c0.014,0.084,0.069,0.168,0.111,0.266
		c0.028,0.098,0.043,0.21,0.085,0.309c0.014,0.041,0.056,0.083,0.084,0.14c0.027,0.07,0.042,0.126,0.083,0.21l0.085,0.168
		c0.014,0.028,0.042,0.028,0.042,0.056c0.056,0.129,0.098,0.101,0.237,0.129c0.07,0.014,0.07,0.014,0.168,0
		c0.141-0.028,0.406-0.028,0.546,0c0.043,0,0.043,0.027,0.07,0.027c0.042,0,0.042-0.027,0.084-0.027c0.126-0.028,0.28,0.027,0.393,0
		c0.14-0.028,0.266-0.24,0.321-0.381c0.112-0.196,0.168-0.363,0.28-0.546c0.042-0.07,0.084-0.21,0.112-0.294
		c0.042-0.098,0.069-0.238,0.112-0.35c0.014-0.057,0.069-0.099,0.083-0.141c0.07-0.182,0.099-0.321,0.141-0.504
		c0.042-0.168,0.153-0.35,0.195-0.518l0.057-0.183c0-0.027-0.015-0.14,0-0.153c0.014-0.028,0.042,0,0.056-0.028
		c0.015-0.028-0.014-0.084,0-0.126c0-0.07,0.028-0.14,0.057-0.224c0.027-0.112,0.083-0.238,0.098-0.322
		c0.014-0.07,0.027-0.084,0.042-0.126c0-0.028-0.015-0.07,0-0.112c0.028-0.168,0.098-0.336,0.126-0.518c0.014-0.042,0-0.084,0-0.112
		c0.042-0.182,0.111-0.35,0.14-0.532c0.015-0.056,0-0.111,0-0.168c0.015-0.084,0.07-0.153,0.084-0.237
		c0.028-0.126,0.015-0.238,0.028-0.337c0.028-0.098,0.07-0.182,0.084-0.279c0.014-0.07-0.014-0.141,0-0.196
		c0-0.028,0.028-0.042,0.028-0.07c0.014-0.028,0-0.07,0-0.098c0.014-0.07,0.069-0.141,0.084-0.225c0.014-0.042-0.015-0.098,0-0.14
		c0.014-0.014,0.027-0.028,0.027-0.056l0.028-0.28c0-0.014,0.028-0.028,0.028-0.056c0.042-0.154,0.027-0.322,0.056-0.476
		c0-0.014,0.028-0.028,0.028-0.042c0.027-0.112,0.014-0.182,0.027-0.28c0.015-0.056,0.042-0.112,0.057-0.182
		c0.014-0.028,0-0.07,0-0.098c0.014-0.042,0.042-0.084,0.056-0.14c0.014-0.056-0.014-0.112,0-0.168l0.056-0.154
		c0-0.042-0.014-0.098,0-0.14c0.015-0.084,0.07-0.154,0.084-0.224c0.028-0.126,0.028-0.238,0.057-0.336c0-0.042-0.015-0.07,0-0.112
		c0.042-0.224,0.21-0.504-0.057-0.56c-0.027-0.014-0.069,0-0.098,0C69.45,5.08,69.366,5.01,69.24,4.996
		c-0.042-0.014-0.084,0-0.111,0L68.988,4.94h-0.084C68.723,4.912,68.499,4.744,68.247,4.828L68.247,4.828z"/>
	<path d="M73.175,4.758c-0.126,0.028-0.196,0.154-0.238,0.308l-0.028,0.182c-0.027,0.126-0.111,0.238-0.14,0.378L72.74,5.822
		c-0.027,0.098-0.084,0.21-0.111,0.322v0.098c-0.028,0.112-0.099,0.252-0.112,0.35c-0.028,0.168-0.07,0.322-0.112,0.476
		l-0.056,0.168c-0.028,0.168-0.057,0.336-0.098,0.504l-0.042,0.056c-0.042,0.168-0.07,0.35-0.099,0.518
		c-0.056,0.238-0.153,0.476-0.195,0.714c-0.028,0.182-0.085,0.294-0.112,0.448c-0.028,0.126-0.028,0.21-0.057,0.308l-0.195,0.7
		c-0.042,0.112-0.057,0.266-0.084,0.393c-0.056,0.167-0.141,0.377-0.168,0.573c-0.015,0.112-0.028,0.196-0.057,0.309l-0.084,0.279
		l-0.056,0.154l-0.112,0.49c-0.014,0.069-0.069,0.153-0.084,0.237l-0.027,0.225c-0.015,0.056-0.042,0.098-0.057,0.14
		c0,0.028,0.015,0.07,0,0.112c-0.014,0.084-0.056,0.182-0.084,0.266c-0.014,0.112-0.042,0.183-0.056,0.252
		c0,0.042,0.014,0.084,0,0.127c-0.028,0.14-0.084,0.237-0.098,0.377c-0.015,0.042,0,0.099,0,0.141
		c-0.015,0.056-0.057,0.111-0.07,0.168c-0.015,0.07,0.014,0.154,0,0.224c-0.015,0.084-0.045,0.183-0.045,0.267
		c0,0.24,0.297,0.198,0.535,0.24c0.084,0.014,0.195,0,0.279,0.027c0.015,0,0.028,0.028,0.042,0.028c0.028,0.014,0.085,0,0.112,0
		c0.154,0.028,0.532,0.126,0.63,0.056c0.042-0.027,0.126-0.296,0.126-0.338l0.057-0.28l0.084-0.42c0.014-0.028,0-0.07,0-0.112
		c0.014-0.098,0.084-0.182,0.084-0.237c0.027-0.126,0.027-0.21,0.056-0.351l0.084-0.237c0.014-0.028,0-0.042,0-0.07
		c0.028-0.14,0.14-0.322,0.224-0.336c0.042-0.015,0.099,0.014,0.154,0.028c0.084,0,0.168-0.015,0.224,0
		c0.015,0,0.042,0.014,0.057,0.014c0.069,0.028,0.168,0,0.224,0c0.014,0.014,0.028,0.028,0.057,0.028
		c0.111,0.027,0.266-0.015,0.363,0c0.014,0.014,0.028,0.027,0.042,0.027c0.141,0.028,0.28,0,0.393,0.028l0.056,0.042
		c0.028,0,0.07-0.014,0.098,0c0.267,0.056,0.28,0.322,0.379,0.574c0.027,0.084,0.056,0.14,0.083,0.182
		c0.084,0.238,0.112,0.462,0.196,0.687c0.028,0.111,0.098,0.252,0.14,0.35c0.015,0.042,0.015,0.098,0.015,0.126
		c0.056,0.101,0.168,0.101,0.279,0.072c0.057,0,0.127,0.014,0.183,0c0.028-0.014,0.069-0.056,0.112-0.072
		c0.056-0.015,0.111,0.017,0.153,0c0.028,0,0.056-0.042,0.084-0.056c0.057-0.015,0.126,0.014,0.154,0
		c0.028,0,0.042-0.042,0.07-0.057c0.056-0.014,0.111,0.015,0.168,0c0.014-0.014,0.027-0.042,0.056-0.056
		c0.07-0.014,0.154,0.014,0.21,0c0.07-0.014,0.168-0.084,0.183-0.126c0.027-0.098-0.043-0.225-0.057-0.309v-0.083
		c-0.028-0.141-0.112-0.238-0.126-0.376l-0.042-0.14l-0.027-0.169c-0.028-0.153-0.112-0.279-0.141-0.42c0-0.027,0.014-0.084,0-0.111
		c0-0.028-0.042-0.042-0.042-0.07c-0.042-0.112-0.028-0.224-0.056-0.351c-0.015-0.042-0.057-0.083-0.07-0.14
		c0-0.014,0.014-0.056,0-0.084c0-0.028-0.042-0.056-0.042-0.098c-0.028-0.098-0.056-0.264-0.084-0.348
		c-0.07-0.238-0.112-0.504-0.168-0.756c-0.015-0.084-0.07-0.168-0.084-0.252v-0.099c-0.014-0.069-0.07-0.126-0.084-0.21
		c-0.014-0.112-0.042-0.168-0.056-0.249c-0.015-0.043,0.014-0.099,0-0.141c-0.015-0.098-0.084-0.252-0.112-0.363
		c0-0.028,0.014-0.07,0-0.099c-0.015-0.07-0.07-0.126-0.084-0.196c0-0.042,0.014-0.084,0-0.111
		c-0.028-0.126-0.084-0.252-0.112-0.378l-0.028-0.196l-0.083-0.404c0-0.042-0.042-0.098-0.057-0.14V8.604
		c-0.014-0.084-0.056-0.154-0.084-0.238c0-0.028,0.014-0.056,0-0.084c-0.014-0.112-0.056-0.21-0.084-0.308
		c-0.014-0.098-0.028-0.21-0.056-0.28c-0.015-0.07,0-0.154-0.015-0.224c-0.014-0.07-0.084-0.126-0.098-0.196
		c-0.014-0.067,0-0.137-0.028-0.222c0-0.056-0.042-0.098-0.042-0.154c-0.027-0.14-0.027-0.28-0.056-0.406l-0.112-0.378
		c-0.027-0.084-0.014-0.168-0.027-0.252c-0.015-0.056-0.07-0.125-0.084-0.196c-0.015-0.028,0-0.07,0-0.098
		c-0.042-0.138-0.267-0.138-0.225-0.333c0.014-0.084,0.028-0.14-0.027-0.196c-0.099-0.07-0.238-0.056-0.378-0.084l-0.127-0.056
		c-0.042-0.014-0.111,0.014-0.167,0c-0.07-0.014-0.141-0.07-0.225-0.084c-0.056-0.014-0.126,0.014-0.182,0
		C73.245,4.786,73.23,4.758,73.175,4.758L73.175,4.758z M73.454,9.833c0.043-0.252,0.127-0.504,0.225-0.714
		c0.098,0.099,0.084,0.196,0.112,0.364c0.014,0.07,0.069,0.126,0.083,0.196v0.098c0,0.014,0.028,0.028,0.028,0.056l0.028,0.225
		l0.084,0.462c0.028,0.14,0.084,0.252,0.112,0.375c0.014,0.028,0,0.085,0,0.127c0.027,0.168,0.153,0.392,0.014,0.434
		c-0.084,0.028-0.28-0.014-0.336-0.014c-0.056-0.015-0.126,0-0.196,0c-0.014-0.015-0.027-0.028-0.042-0.028
		c-0.14-0.042-0.266,0-0.378-0.028c-0.224-0.084-0.014-0.447,0.014-0.574c0-0.027-0.014-0.081,0-0.095
		c0.015-0.112,0.084-0.225,0.112-0.322c0-0.028-0.014-0.07,0-0.112c0.014-0.126,0.112-0.224,0.14-0.35
		C73.454,9.89,73.44,9.861,73.454,9.833L73.454,9.833z M77.809,4.464c-0.196,0.056-0.182,0.294-0.224,0.504
		c-0.015,0.126-0.084,0.238-0.112,0.336c-0.014,0.056,0.014,0.112,0,0.168l-0.056,0.28c0,0.056-0.045,0.126-0.045,0.182
		c0,0.07,0.087,0.182,0.185,0.21c0.07,0.014,0.154-0.014,0.238,0c0.014,0,0.027,0.028,0.042,0.028c0.126,0.014,0.252,0,0.364,0.028
		c0.014,0,0.042,0.027,0.056,0.027c0.042,0.014,0.098-0.014,0.14,0c0.028,0,0.042,0.028,0.057,0.028
		c0.111,0.014,0.266,0,0.363,0.028l0.238,0.056c0.112,0.014,0.266,0,0.378,0.028c0.028,0,0.042,0.028,0.057,0.028
		c0.069,0.014,0.153,0.014,0.195,0.028c0.112,0.028,0.252,0,0.351,0.028l0.224,0.056c0.112,0.014,0.238,0,0.322,0.014l0.084,0.042
		c0.182,0.028,0.531,0,0.531,0.21c0,0.098-0.125,0.364-0.168,0.462L80.749,8.09c-0.015,0.07-0.07,0.14-0.07,0.21
		c-0.042,0.225-0.182,0.393-0.238,0.616c0,0.015,0.014,0.028,0,0.057c-0.027,0.14-0.111,0.237-0.168,0.378
		c-0.014,0.042,0,0.084-0.014,0.126L80.146,9.7c-0.028,0.07-0.042,0.141-0.056,0.225c-0.042,0.126-0.112,0.224-0.141,0.363
		c-0.014,0.042-0.069,0.084-0.084,0.126c-0.069,0.211-0.182,0.406-0.252,0.603l-0.027,0.126c-0.028,0.07-0.084,0.126-0.112,0.195
		l-0.028,0.141c-0.056,0.154-0.209,0.336-0.252,0.49c-0.014,0.056-0.056,0.098-0.084,0.153c-0.014,0.028-0.014,0.084-0.027,0.126
		c-0.028,0.084-0.084,0.154-0.126,0.238l-0.252,0.504c-0.099,0.21-0.183,0.336-0.28,0.532c-0.042,0.098-0.099,0.182-0.112,0.238
		c-0.042,0.153-0.028,0.42,0,0.546c0.014,0.098-0.028,0.252,0,0.35c0,0.028,0.028,0.042,0.028,0.07c0.042,0.196,0,0.59,0.154,0.632
		c0.125,0.028,0.489-0.014,0.588-0.027c0.252-0.059,0.56,0.042,0.77,0c0.028,0,0.028-0.028,0.056-0.028c0.112-0.03,0.337,0,0.505,0
		h0.531c0.322,0,0.826-0.03,1.092,0.028c0.225,0.056,0.532-0.028,0.742,0.027c0.028,0,0.042,0.028,0.057,0.028
		c0.069,0.014,0.252,0.014,0.308-0.042c0.014,0,0-0.028,0.014-0.042c0.043-0.03,0.043,0.014,0.057-0.03
		c0.014-0.056,0-0.168,0.028-0.238c0-0.014,0.014-0.028,0.027-0.042c0.014-0.084,0-0.182,0.014-0.28
		c0.015-0.014,0.042-0.042,0.042-0.056c0.015-0.056-0.014-0.111,0-0.168c0-0.014,0.015-0.042,0.028-0.056
		c0.028-0.112,0-0.238,0-0.294c0-0.042,0.042-0.084,0.056-0.112c0.07-0.448-0.35-0.322-0.672-0.378
		c-0.027,0-0.042-0.028-0.056-0.028c-0.084-0.014-0.238,0.015-0.308,0c-0.028,0-0.028-0.014-0.057-0.027
		c-0.111-0.028-0.28,0-0.405,0h-0.813c-0.224,0-0.602,0.056-0.56-0.169c0.014-0.056,0.084-0.153,0.126-0.224
		c0.041-0.084,0.069-0.168,0.111-0.224c0.084-0.141,0.154-0.336,0.238-0.462c0.057-0.084,0.07-0.154,0.084-0.252
		c0.014-0.057,0.056-0.07,0.084-0.126c0.028-0.057,0.028-0.141,0.056-0.21c0.028-0.07,0.085-0.126,0.112-0.196l0.028-0.141
		c0.042-0.098,0.111-0.209,0.14-0.308l0.126-0.392c0.098-0.225,0.183-0.462,0.267-0.687l0.084-0.279
		c0.041-0.168,0.126-0.336,0.195-0.505l0.042-0.125c0.056-0.141,0.084-0.322,0.141-0.477c0.014-0.028,0.042-0.057,0.056-0.098
		C82.513,8.51,82.61,8.3,82.681,8.09l0.084-0.224V7.824c0.028-0.126,0.14-0.224,0.168-0.336c0-0.028-0.014-0.056,0-0.07
		c0.014-0.056,0.056-0.084,0.084-0.126l0.028-0.14c0.042-0.112,0.14-0.322,0.237-0.35c0.154-0.042,0.253,0.056,0.28-0.112
		c0.028-0.084,0.042-0.196,0.056-0.28c0.015-0.028,0-0.084,0-0.112c0-0.014,0.028-0.028,0.042-0.056c0-0.042-0.014-0.083,0-0.098
		c0-0.014,0.043,0,0.043-0.028c0.056-0.098,0-0.294,0.027-0.42c0.042-0.14,0.112-0.322,0.057-0.434
		c-0.015-0.042-0.084-0.098-0.141-0.112c-0.098-0.014-0.252,0.014-0.364-0.014c-0.014-0.014-0.027-0.028-0.041-0.028
		c-0.141-0.028-0.295,0-0.421-0.028l-0.069-0.042c-0.141-0.014-0.294,0.014-0.435-0.027c-0.056,0-0.14,0-0.224-0.015
		c-0.014-0.014-0.042-0.028-0.057-0.028c-0.056-0.014-0.111,0-0.167,0c-0.015-0.014-0.028-0.028-0.057-0.028
		c-0.126-0.028-0.294,0-0.42-0.028c-0.014,0-0.042-0.028-0.056-0.042c-0.126-0.014-0.28,0-0.406-0.014
		c-0.111-0.028-0.196-0.042-0.308-0.056c-0.057-0.014-0.112,0.014-0.169,0c-0.027-0.014-0.027-0.028-0.041-0.028
		c-0.126-0.028-0.253,0-0.378-0.028c-0.015,0-0.042-0.028-0.057-0.028c-0.126-0.028-0.28,0-0.406-0.028
		C79.545,4.674,79.53,4.66,79.517,4.66c-0.126-0.028-0.252,0-0.364-0.028c-0.014,0-0.027-0.028-0.056-0.028
		c-0.126-0.028-0.28,0-0.42-0.028c-0.014,0-0.042-0.028-0.057-0.028c-0.042-0.014-0.098,0-0.14,0
		c-0.014-0.014-0.027-0.028-0.056-0.028c-0.028-0.014-0.084,0-0.141,0C78.116,4.478,77.893,4.45,77.809,4.464L77.809,4.464z
		 M85.984,5.038h-0.252c-0.098-0.014-0.111-0.014-0.21,0c-0.252,0.028-0.686-0.056-0.854,0.028c-0.126,0.07-0.112,0.238-0.099,0.35
		c0.042,0.21,0,0.476,0,0.742v3.696c0,0.462,0.057,1.147-0.014,1.54c-0.028,0.126,0,0.28,0,0.42s-0.028,0.294,0,0.406
		c0.028,0.252,0.084,0.518,0.042,0.756c0,0.056-0.028,0.098-0.028,0.168c0.028,0.098,0.057,0.42,0.028,0.532
		c-0.014,0.069-0.099,0.111-0.129,0.168c-0.069,0.111-0.056,0.252-0.042,0.392c0.059,0.266-0.014,0.645,0.028,0.896
		c0.03,0.098,0.072,0.254,0.114,0.31c0.084,0.07,0.322,0.028,0.435,0.015c0.084-0.015,0.195,0.014,0.294,0
		c0.14-0.028,0.364-0.028,0.574-0.028c0.14,0,0.392,0.042,0.489,0c0.042-0.014,0.028-0.042,0.07-0.056c0.098-0.042,0.252,0,0.336,0
		c0.028,0,0.056-0.028,0.084-0.028c0.098-0.014,0.21,0.014,0.308,0c0.028,0,0.057-0.028,0.085-0.028
		c0.083-0.014,0.167,0.015,0.252,0c0.167-0.027,0.321-0.027,0.461-0.059c0.07-0.014,0.154,0.015,0.225,0
		c0.027,0,0.056-0.014,0.084-0.027c0.042,0,0.112,0.014,0.154,0c0.027,0,0.056-0.028,0.098-0.028c0.057-0.014,0.112,0.015,0.14,0
		c0.099-0.027,0.07-0.238,0.07-0.392c0-0.266-0.028-0.42-0.056-0.616c-0.028-0.153,0.027-0.294,0-0.448
		c-0.028-0.084-0.154-0.195-0.252-0.195c-0.028,0-0.057,0.027-0.084,0.027c-0.084,0.015-0.183-0.014-0.28,0
		c-0.196,0.042-0.406,0.042-0.546,0.057c-0.057,0.014-0.154-0.015-0.225,0c-0.111,0.027-0.308,0.027-0.489,0.027
		c-0.07,0-0.336,0.028-0.393,0c-0.042-0.027-0.056-0.195-0.069-0.266c0-0.028-0.028-0.056-0.028-0.084
		c-0.028-0.196,0-0.364-0.028-0.574c-0.014-0.154,0-0.336,0-0.504s-0.014-0.35,0-0.49c0.015-0.084,0.057-0.168,0.057-0.238
		c0.014-0.098-0.028-0.182,0.069-0.21c0.042-0.014,0.154-0.027,0.168-0.027c0.028,0,0.057,0.027,0.084,0.027
		c0.112,0.015,0.252-0.014,0.322-0.027c0.28-0.042,0.546,0.014,0.813-0.028c0.098-0.014,0.195-0.056,0.308-0.027
		c0.098,0.014,0.14,0.041,0.224,0.027c0.028,0,0.057-0.027,0.084-0.027c0.084-0.015,0.169,0.014,0.252,0
		c0.141-0.028,0.238-0.028,0.336,0c0.07,0,0.252-0.028,0.28-0.042c0.057-0.028,0.042-0.127,0.042-0.183c0-0.111,0-0.336,0.028-0.476
		c0-0.042,0.042-0.084,0.042-0.154c0.014-0.07-0.014-0.112-0.028-0.168c-0.014-0.154,0.042-0.392,0-0.504
		c-0.042-0.084-0.154-0.07-0.252-0.098c-0.027,0-0.056-0.028-0.07-0.028c-0.168-0.042-0.42,0-0.63,0c-0.224,0-0.448-0.042-0.63,0
		c-0.027,0-0.042,0.014-0.084,0.028c-0.084,0.014-0.21-0.015-0.336,0c-0.126,0.014-0.308,0.027-0.476,0.027
		c-0.141,0-0.294,0.015-0.406,0c-0.168-0.027-0.168-0.196-0.196-0.378c-0.027-0.196,0-0.462,0-0.729c0-0.308,0-0.616,0.028-0.812
		c0.014-0.07-0.014-0.168,0-0.252c0-0.028,0.028-0.056,0.028-0.07c0-0.028-0.028-0.056-0.028-0.084c0-0.014,0.028-0.056,0.028-0.084
		c0.027-0.126-0.028-0.294,0-0.406c0.014-0.042,0.14-0.112,0.195-0.112c0.126-0.028,0.294,0.028,0.477,0
		c0.098-0.028,0.224-0.056,0.321-0.028c0.169,0.028,0.435,0.028,0.658,0.028c0.252,0,0.519,0,0.687-0.028
		c0.056-0.014,0.14,0.014,0.182-0.014c0.084-0.028,0.098-0.28,0.112-0.42c0.014-0.069,0.014-0.209,0-0.28V5.794
		c0.014-0.098-0.015-0.238,0-0.322l0.042-0.098c0-0.07-0.042-0.238-0.07-0.28c-0.098-0.126-0.35-0.056-0.56-0.083
		c-0.252-0.028-0.645,0-1.009,0c-0.308,0-0.63,0.042-0.867,0c-0.07-0.015-0.168-0.028-0.21-0.028L85.984,5.038L85.984,5.038z
		 M90.563,5.01c-0.126,0.027-0.28,0.098-0.28,0.266c0,0.308,0.015,0.658-0.042,0.952c-0.027,0.196,0,0.435,0,0.658v3.263
		c0,0.406,0.057,1.008-0.014,1.357c-0.014,0.057,0.014,0.154,0,0.211c-0.014,0.027-0.028,0.042-0.028,0.056
		c0,0.028,0.028,0.056,0.028,0.112c-0.014,0.069-0.056,0.126-0.07,0.182c0,0.056,0.015,0.098,0.028,0.168
		c0.028,0.182,0,0.546-0.028,0.672c-0.058,0.28,0.07,0.672,0,1.022c0,0.014-0.014,0.042-0.03,0.056c-0.027,0.21,0.045,0.434,0,0.603
		c0,0.027-0.014,0.027-0.027,0.056c-0.015,0.084,0.027,0.238,0,0.363c0,0.043-0.028,0.127-0.015,0.183
		c0.015,0.114,0.072,0.282,0.171,0.296c0.056,0.015,0.111-0.014,0.168,0c0.014,0,0.027,0.028,0.056,0.028
		c0.07,0.014,0.238,0,0.392,0c0.127,0,0.294,0.028,0.393,0c0.014,0,0.028-0.028,0.056-0.028c0.084-0.014,0.238,0.015,0.294,0
		c0.042,0,0.126-0.098,0.141-0.126c0.069-0.198-0.015-0.562,0.027-0.771c0.015-0.028,0.028-0.042,0.028-0.057
		c0-0.042-0.028-0.056-0.028-0.084c0,0,0.028-0.028,0.028-0.056c0.014-0.057-0.014-0.168,0-0.225
		c0.014-0.014,0.028-0.027,0.028-0.042c0.014-0.069-0.015-0.126,0-0.168c0.014-0.027,0.042-0.042,0.042-0.084
		c0-0.014-0.028-0.042-0.042-0.069c-0.015-0.099-0.028-0.322,0-0.435c0-0.014,0.027-0.042,0.042-0.056
		c0.056-0.28-0.07-0.742,0-1.036c0-0.014,0.014-0.028,0.014-0.042c0.028-0.154,0.028-0.224,0-0.336c0-0.07,0.028-0.168,0-0.224
		c0-0.057-0.042-0.169-0.014-0.252c0.014-0.085,0.056-0.252,0.084-0.267c0.014,0,0.14-0.027,0.168-0.014c0.014,0,0.14,0,0.153,0.014
		c0.07,0.015,0.183,0.28,0.21,0.406c0.015,0.084,0.043,0.154,0.057,0.21c0.028,0.084,0.069,0.21,0.084,0.294
		c0.069,0.35,0.182,0.546,0.252,0.868c0,0.014-0.015,0.056,0,0.084c0.027,0.126,0.111,0.28,0.168,0.434
		c0.056,0.141,0.084,0.322,0.14,0.462c0.028,0.084,0.112,0.351,0.21,0.379c0.183,0.056,0.364-0.043,0.477-0.085
		c0.111-0.042,0.237-0.111,0.392-0.167c0.154-0.057,0.308-0.085,0.448-0.141c0.14-0.056,0.21-0.14,0.168-0.294
		c-0.084-0.364-0.267-0.742-0.393-1.162c-0.056-0.238-0.111-0.462-0.182-0.672c-0.028-0.07-0.07-0.14-0.084-0.21
		c-0.028-0.126-0.042-0.28-0.084-0.378c-0.014-0.028-0.056-0.042-0.056-0.07c-0.015-0.028,0-0.07,0-0.112
		c-0.028-0.153-0.112-0.252-0.141-0.392v-0.056c-0.014-0.084-0.069-0.168-0.084-0.238c0-0.028,0.015-0.056,0-0.084
		c-0.014-0.056-0.084-0.126-0.084-0.182c0-0.07,0.084-0.225,0.112-0.28c0.042-0.126,0.112-0.238,0.168-0.364V9.364
		c0.028-0.126,0.126-0.21,0.168-0.308l0.126-0.295l0.378-0.714c0.154-0.322,0.28-0.56,0.462-0.84
		c0.057-0.084,0.084-0.168,0.112-0.252c0.014-0.07,0.098-0.14,0.126-0.196c0.084-0.126,0.168-0.294,0.21-0.42
		c0.028-0.126,0.14-0.168,0.168-0.266c0.028-0.167,0.014-0.266-0.098-0.336c-0.084-0.056-0.154-0.098-0.267-0.14
		c-0.14-0.056-0.279-0.154-0.405-0.21c-0.042-0.014-0.099,0-0.141-0.014c-0.098-0.042-0.168-0.112-0.252-0.14
		c-0.168-0.07-0.308,0.014-0.378,0.126c-0.111,0.168-0.196,0.364-0.308,0.546c-0.042,0.069-0.057,0.182-0.112,0.266L93.74,6.298
		c-0.069,0.112-0.098,0.252-0.168,0.364c-0.084,0.126-0.168,0.308-0.237,0.42c-0.07,0.098-0.112,0.252-0.183,0.364
		c0,0.014-0.042,0.028-0.042,0.042c-0.027,0.028-0.014,0.07-0.042,0.098c-0.07,0.112-0.154,0.252-0.21,0.392
		c-0.042,0.084-0.069,0.196-0.126,0.28c-0.168,0.252-0.238,0.448-0.35,0.729l-0.084,0.21c-0.057,0.084-0.294,0.182-0.378,0.042
		c0,0,0.014-0.028,0-0.042c0-0.042-0.042-0.084-0.042-0.098c-0.057-0.225,0.056-0.519,0-0.785l-0.042-0.056
		c-0.028-0.14,0-0.336,0-0.504c0-0.154-0.028-0.35,0-0.49c0-0.014,0.027-0.042,0.042-0.056c0.027-0.182,0-0.434,0-0.658
		s-0.015-0.532,0.014-0.7c0.014-0.07-0.014-0.154,0-0.224c0.014-0.028,0.028-0.042,0.028-0.056c0.027-0.098-0.015-0.168-0.015-0.238
		c0-0.056,0.015-0.126-0.014-0.196c-0.042-0.112-0.238-0.042-0.392-0.07C91.234,5.01,90.786,4.968,90.563,5.01L90.563,5.01z"/>
</g>
</svg>
